<svg width="336" height="314" viewBox="0 0 336 314" fill="none" xmlns="http://www.w3.org/2000/svg">
<path d="M34.7049 66.3247H32.2811V55.4834H40.9643V58.0885H34.7848V63.4301C35.3442 62.746 36.2232 62.1934 37.3951 62.1934C40.1386 62.1934 41.6834 64.7985 41.6834 69.8244C41.6834 74.1398 39.9521 76.5607 36.676 76.5607C34.039 76.5607 32.0947 74.2977 31.9082 71.4295H34.4652C34.8115 73.1926 35.4507 74.2188 36.8091 74.2188C38.1675 74.2188 39.0465 73.1136 39.0465 69.8507C39.0465 66.5878 38.4872 64.7985 36.7292 64.7985C35.6638 64.7985 35.1311 65.5352 34.7049 66.351V66.3247Z" fill="white"/>
<path d="M42.7236 64.8252H49.1694V67.0101H42.7236V64.8252Z" fill="white"/>
<path d="M51.5411 55.4834L54.8971 64.2459L58.2798 55.4834H61.263L56.2023 67.3772V76.3239H53.5654V67.3772L48.5312 55.4834H51.5144H51.5411Z" fill="white"/>
<path d="M73.7281 55.4834V57.8516H66.0571V64.3774H72.9823V66.7194H66.0571V73.9556H73.7281V76.3239H63.4202V55.4834H73.7281Z" fill="white"/>
<path d="M75.1663 76.3239L81.0261 55.4834H83.3434L89.2298 76.3239H86.4864L85.2878 71.5611H79.0817L77.8831 76.3239H75.1396H75.1663ZM79.8808 69.1929H84.5153L82.1981 59.9041L79.8808 69.1929Z" fill="white"/>
<path d="M100.601 76.3239L97.2188 67.5351H93.9426V76.3239H91.3057V55.4834H96.7393C100.655 55.4834 102.945 57.4832 102.945 61.5092C102.945 64.4301 101.773 66.272 99.6692 67.0614L103.372 76.2976H100.601V76.3239ZM96.7393 65.1932C99.4295 65.1932 100.308 64.1143 100.308 61.5356C100.308 58.9568 99.4295 57.8516 96.7393 57.8516H93.9159V65.1932H96.7393Z" fill="white"/>
<path d="M9.53551 89.6651C8.70981 88.2705 7.83084 87.2706 5.80654 87.2706C3.99533 87.2706 2.92991 88.481 2.92991 90.5335C2.92991 92.7965 3.99533 93.6648 6.60561 94.4016C9.85514 95.2963 11.8528 96.9803 11.8528 100.401C11.8528 103.111 10.3612 106.216 6.0729 106.216C3.3028 106.216 1.2785 105.059 0 102.796L2.07757 101.401C3.19626 103.006 4.15514 103.848 6.0729 103.848C8.70981 103.848 9.24252 102.085 9.24252 100.506C9.24252 98.6907 8.65654 97.454 5.54019 96.612C2.3972 95.7699 0.292991 93.9806 0.292991 90.5072C0.292991 87.6127 1.97103 84.9023 5.85981 84.9023C8.57663 84.9023 10.2813 86.0075 11.5065 88.3231L9.50888 89.6388L9.53551 89.6651Z" fill="white"/>
<path d="M26.6355 85.165V97.5062C26.6355 103.664 24.2117 106.242 20.456 106.242C16.7004 106.242 14.2766 103.664 14.2766 97.5588V85.165H16.9135V97.5588C16.9135 102.243 18.0322 103.9 20.456 103.9C22.8799 103.9 23.9986 102.243 23.9986 97.5588V85.165H26.6355Z" fill="white"/>
<path d="M39.2343 106.006L35.8516 97.2167H32.5754V106.006H29.9385V85.165H35.3721C39.2875 85.165 41.5782 87.1649 41.5782 91.1909C41.5782 94.1117 40.4062 95.9537 38.302 96.7431L42.0044 105.979H39.2343V106.006ZM35.3721 94.8748C38.0623 94.8748 38.9413 93.7959 38.9413 91.2172C38.9413 88.6385 38.0623 87.5333 35.3721 87.5333H32.5488V94.8748H35.3721Z" fill="white"/>
<path d="M45.201 85.165L49.6758 101.48L54.1239 85.165H56.894L50.8211 106.006H48.5304L42.4309 85.165H45.201Z" fill="white"/>
<path d="M61.6604 106.006H59.0234V85.165H61.6604V106.006Z" fill="white"/>
<path d="M66.5084 85.165L70.9831 101.48L75.4313 85.165H78.2014L72.1285 106.006H69.8378L63.7383 85.165H66.5084Z" fill="white"/>
<path d="M76.9778 106.006L82.8376 85.165H85.1549L91.0414 106.006H88.2979L87.0993 101.243H80.8932L79.6946 106.006H76.9512H76.9778ZM81.6923 98.8745H86.3269L84.0096 89.5857L81.6923 98.8745Z" fill="white"/>
<path d="M95.7275 103.637H103.399V106.006H93.0906V85.165H95.7275V103.637Z" fill="white"/>
<path d="M107.236 95.354C106.652 95.354 106.127 95.238 105.66 95.006C105.192 94.774 104.818 94.4558 104.536 94.0515C104.254 93.6471 104.1 93.1864 104.074 92.6694H105.267C105.313 93.1301 105.522 93.5112 105.893 93.8129C106.268 94.1112 106.715 94.2603 107.236 94.2603C107.653 94.2603 108.025 94.1625 108.349 93.967C108.678 93.7714 108.934 93.503 109.12 93.1616C109.309 92.8169 109.403 92.4274 109.403 91.9933C109.403 91.5491 109.306 91.1531 109.11 90.805C108.918 90.4537 108.653 90.177 108.315 89.9748C107.977 89.7726 107.59 89.6699 107.156 89.6665C106.845 89.6632 106.525 89.7113 106.197 89.8107C105.869 89.9068 105.598 90.0311 105.386 90.1836L104.233 90.0444L104.849 85.033H110.139V86.1268H105.884L105.526 89.1296H105.585C105.794 88.9639 106.056 88.8263 106.371 88.717C106.686 88.6076 107.014 88.5529 107.355 88.5529C107.978 88.5529 108.533 88.7021 109.021 89.0004C109.511 89.2953 109.896 89.6997 110.174 90.2134C110.456 90.7272 110.597 91.3138 110.597 91.9734C110.597 92.623 110.451 93.203 110.159 93.7134C109.871 94.2205 109.473 94.6216 108.966 94.9165C108.459 95.2082 107.882 95.354 107.236 95.354Z" fill="white"/>
<g clip-path="url(#clip0_905_1435)">
<path d="M217.864 123.189L217.794 139.529L166.758 139.398L139.447 119.32L139.357 106.229L166.519 72.8688L138.039 53.6026C138.039 53.6026 142.314 37.1632 151.295 32.1212C161.604 26.3373 160.885 28.703 160.885 28.703C160.885 28.703 166.299 25.4351 171.883 28.703C177.467 31.9708 198.575 43.7991 198.575 43.7991C198.575 43.7991 204.019 31.4997 216.725 29.8557C226.475 28.5927 238.692 28.703 238.692 28.703C244.196 31.9507 258.471 38.9074 258.471 38.9074C258.471 38.9074 256.993 24.7435 263.486 23.0594C269.979 21.3754 268.141 21.8064 268.141 21.8064L284.344 30.2066L288.659 21.0947H299.058L326.089 40.8922L317.698 60.4891L330.615 69.9518C330.615 69.9518 334.321 71.8063 334.321 75.4751C334.321 79.1438 335.629 90.0199 330.884 93.4782C326.139 96.9365 319.396 95.2324 319.396 95.2324L305.581 85.7396L301.176 95.0319L290.807 94.9617L278.59 86.1005C278.59 86.1005 277.531 86.2809 275.044 89.1779L272.556 92.0748C272.556 92.0748 285.183 100.505 283.944 113.997C282.705 127.49 277.721 140.802 254.126 140.852C244.356 140.872 238.332 137.594 238.332 137.594L234.067 135.058L217.844 123.179L217.864 123.189Z" stroke="#FDE9AA" stroke-miterlimit="10"/>
<path d="M189.454 119.371H138.598V106.279L164.031 70.8743C168.157 65.1306 169.486 59.2565 169.486 53.5027C169.486 47.0873 166.689 44.02 162.693 44.02C158.697 44.02 156.569 47.358 156.04 53.5027H137C137 37.4743 149.117 25.8564 164.161 25.8564C179.205 25.8564 191.452 38.2762 191.452 53.3724C191.452 65.7922 183.73 76.0868 178.936 83.2941L167.488 100.926H189.454V119.361V119.371Z" fill="#FDE9AA"/>
<path d="M195.978 93.8497C195.978 82.4924 201.841 75.0145 208.225 71.5362C201.971 67.6669 197.036 60.7203 197.036 51.0972C197.036 33.7256 211.281 25.8467 225.796 25.8467C240.311 25.8467 254.555 33.7256 254.555 51.0972C254.555 60.7203 249.631 67.6669 243.377 71.5362C249.77 75.0145 255.624 82.4924 255.624 93.8497C255.624 112.154 242.179 120.704 225.806 120.704C209.433 120.704 195.988 112.154 195.988 93.8497H195.978ZM233.658 91.1732C233.658 83.6953 229.792 80.0867 225.806 80.0867C221.82 80.0867 217.954 83.6953 217.954 91.1732C217.954 98.1199 221.281 102.4 225.806 102.4C230.331 102.4 233.658 98.1299 233.658 91.1732ZM225.806 44.2809C221.94 44.2809 219.153 47.8895 219.153 53.9039C219.153 59.9183 221.95 63.7876 225.806 63.7876C229.662 63.7876 232.459 60.0487 232.459 53.9039C232.459 47.7592 229.662 44.2809 225.806 44.2809Z" fill="#FDE9AA"/>
<path d="M255.075 36.8731V31.6506C255.075 24.0925 259.19 20.3535 265.863 20.3535C272.536 20.3535 276.652 24.0925 276.652 31.6506V36.8731C276.652 44.4312 272.696 48.3205 265.863 48.3205C259.031 48.3205 255.075 44.4312 255.075 36.8731ZM298.309 21.1454L272.856 74.8842H262.457L287.91 21.1454H298.309ZM267.112 37.8154V30.9589C267.112 28.7035 266.642 28.2324 265.873 28.2324C265.104 28.2324 264.635 28.7035 264.635 30.9589V37.8154C264.635 40.0708 265.104 40.5419 265.873 40.5419C266.642 40.5419 267.112 40.0708 267.112 37.8154ZM284.424 64.2186V58.9961C284.424 51.438 288.539 47.6991 295.212 47.6991C301.885 47.6991 306.001 51.438 306.001 58.9961V64.2186C306.001 71.7768 302.045 75.6661 295.212 75.6661C288.379 75.6661 284.424 71.7768 284.424 64.2186ZM296.451 65.1509V58.2944C296.451 56.039 295.981 55.5679 295.212 55.5679C294.443 55.5679 293.973 56.039 293.973 58.2944V65.1509C293.973 67.4063 294.443 67.8774 295.212 67.8774C295.981 67.8774 296.451 67.4063 296.451 65.1509Z" fill="#FDE9AA"/>
</g>
<line x1="100.509" y1="160.363" x2="234.491" y2="160.363" stroke="#FF005A" stroke-width="2"/>
<path d="M0.026865 227.338L5.88667 206.497H8.20399L14.0904 227.338H11.347L10.1484 222.575H3.94229L2.7437 227.338H0.000244141H0.026865ZM4.74136 220.207H9.37596L7.05864 210.918L4.74136 220.207Z" fill="white"/>
<path d="M25.2509 206.497V208.865H20.2967V227.338H17.6598V208.865H12.7322V206.497H25.2242H25.2509Z" fill="white"/>
<path d="M40.6205 210.996C39.7948 209.602 38.9158 208.602 36.8915 208.602C35.0803 208.602 34.0149 209.812 34.0149 211.865C34.0149 214.128 35.0803 214.996 37.6906 215.733C40.9401 216.627 42.9378 218.311 42.9378 221.732C42.9378 224.443 41.4462 227.548 37.1579 227.548C34.3878 227.548 32.3635 226.39 31.085 224.127L33.1625 222.732C34.2812 224.337 35.2401 225.179 37.1579 225.179C39.7948 225.179 40.3275 223.416 40.3275 221.837C40.3275 220.022 39.7415 218.785 36.6252 217.943C33.4822 217.101 31.378 215.312 31.378 211.838C31.378 208.944 33.056 206.233 36.9448 206.233C39.6616 206.233 41.3663 207.339 42.5915 209.654L40.5939 210.97L40.6205 210.996Z" fill="white"/>
<path d="M56.7882 206.496V208.864H51.834V227.337H49.1971V208.864H44.2695V206.496H56.7616H56.7882Z" fill="white"/>
<path d="M55.4019 227.338L61.2617 206.497H63.579L69.4655 227.338H66.722L65.5234 222.575H59.3173L58.1187 227.338H55.3752H55.4019ZM60.1164 220.207H64.751L62.4337 210.918L60.1164 220.207Z" fill="white"/>
<path d="M82.6502 216.864V218.075C82.6502 224.811 80.1731 227.574 76.4175 227.574C72.6619 227.574 70.238 224.785 70.238 218.075V215.785C70.238 209.049 72.6086 206.26 76.4175 206.26C79.8535 206.26 81.9843 208.417 82.517 212.996H80.0399C79.4806 209.891 78.4418 208.628 76.3908 208.628C73.9137 208.628 72.8483 210.496 72.8483 215.785V218.075C72.8483 223.364 73.9137 225.232 76.3908 225.232C78.6016 225.232 79.9067 223.601 79.9866 219.232H76.4175V216.891H82.6236L82.6502 216.864Z" fill="white"/>
<path d="M95.515 206.497V208.865H87.8439V215.391H94.7692V217.733H87.8439V224.969H95.515V227.338H85.207V206.497H95.515Z" fill="white"/>
<path d="M106.089 227.337H103.452V206.496H106.089V227.337Z" fill="white"/>
<path d="M110.91 206.497L115.385 222.812L119.833 206.497H122.603L116.53 227.338H114.239L108.14 206.497H110.91Z" fill="white"/>
<path d="M22.2412 260.256V239.415H27.7548C31.4838 239.415 33.8543 242.02 33.8543 248.756V250.94C33.8543 257.677 31.4571 260.282 27.7548 260.282H22.2412V260.256ZM31.2174 250.914V248.73C31.2174 243.573 30.152 241.757 27.7282 241.757H24.8515V257.887H27.7282C30.1786 257.887 31.2174 256.072 31.2174 250.914Z" fill="white"/>
<path d="M45.7587 260.256L42.376 251.467H39.0998V260.256H36.4629V239.415H41.8965C45.8119 239.415 48.1026 241.415 48.1026 245.441C48.1026 248.362 46.9306 250.204 44.8264 250.993L48.5288 260.229H45.7587V260.256ZM41.8965 249.125C44.5867 249.125 45.4657 248.046 45.4657 245.467C45.4657 242.888 44.5867 241.783 41.8965 241.783H39.0732V249.125H41.8965Z" fill="white"/>
<path d="M56.1745 260.492C52.3923 260.492 49.9951 257.703 49.9951 250.993V248.703C49.9951 241.967 52.3657 239.178 56.1745 239.178C59.9834 239.178 62.354 241.967 62.354 248.703V250.993C62.354 257.729 59.9568 260.492 56.1745 260.492ZM52.632 250.993C52.632 256.282 53.6708 258.15 56.1745 258.15C58.6783 258.15 59.7171 256.282 59.7171 250.993V248.703C59.7171 243.414 58.6783 241.546 56.1745 241.546C53.6708 241.546 52.632 243.414 52.632 248.703V250.993Z" fill="white"/>
<path d="M67.6018 252.335V260.282H64.9648V239.441H70.4784C74.3672 239.441 76.6312 241.862 76.6312 245.915C76.6312 249.967 74.3938 252.335 70.4784 252.335H67.6018ZM70.4784 249.967C73.1419 249.967 73.9943 248.467 73.9943 245.888C73.9943 243.31 73.1419 241.783 70.4784 241.783H67.6018V249.967H70.4784Z" fill="white"/>
<path d="M87.7367 243.914C86.911 242.52 86.032 241.52 84.0077 241.52C82.1965 241.52 81.1311 242.73 81.1311 244.783C81.1311 247.045 82.1965 247.914 84.8068 248.651C88.0563 249.545 90.054 251.229 90.054 254.65C90.054 257.36 88.5624 260.465 84.2741 260.465C81.504 260.465 79.4797 259.308 78.2012 257.045L80.2787 255.65C81.3974 257.255 82.3563 258.097 84.2741 258.097C86.911 258.097 87.4437 256.334 87.4437 254.755C87.4437 252.94 86.8577 251.703 83.7414 250.861C80.5984 250.019 78.4942 248.23 78.4942 244.756C78.4942 241.862 80.1722 239.151 84.061 239.151C86.7778 239.151 88.4825 240.257 89.7077 242.572L87.71 243.888L87.7367 243.914Z" fill="white"/>
<path d="M108.486 239.415V241.783H103.532V260.256H100.895V241.783H95.9678V239.415H108.46H108.486Z" fill="white"/>
<path d="M129.236 248.854C128.652 248.854 128.127 248.738 127.66 248.506C127.192 248.274 126.818 247.956 126.536 247.551C126.254 247.147 126.1 246.686 126.074 246.169H127.267C127.313 246.63 127.522 247.011 127.893 247.313C128.268 247.611 128.715 247.76 129.236 247.76C129.653 247.76 130.025 247.663 130.349 247.467C130.678 247.271 130.934 247.003 131.12 246.662C131.309 246.317 131.403 245.927 131.403 245.493C131.403 245.049 131.306 244.653 131.11 244.305C130.918 243.954 130.653 243.677 130.315 243.475C129.977 243.273 129.59 243.17 129.156 243.167C128.845 243.163 128.525 243.211 128.197 243.311C127.869 243.407 127.598 243.531 127.386 243.684L126.233 243.544L126.849 238.533H132.139V239.627H127.884L127.526 242.63H127.585C127.794 242.464 128.056 242.326 128.371 242.217C128.686 242.108 129.014 242.053 129.355 242.053C129.978 242.053 130.533 242.202 131.021 242.5C131.511 242.795 131.896 243.2 132.174 243.713C132.456 244.227 132.597 244.814 132.597 245.473C132.597 246.123 132.451 246.703 132.159 247.213C131.871 247.721 131.473 248.122 130.966 248.417C130.459 248.708 129.882 248.854 129.236 248.854Z" fill="white"/>
<path d="M115.572 260.492C111.79 260.492 109.392 257.703 109.392 250.993V248.703C109.392 241.967 111.763 239.178 115.572 239.178C119.381 239.178 121.751 241.967 121.751 248.703V250.993C121.751 257.729 119.354 260.492 115.572 260.492ZM112.029 250.993C112.029 256.282 113.068 258.15 115.572 258.15C118.076 258.15 119.114 256.282 119.114 250.993V248.703C119.114 243.414 118.076 241.546 115.572 241.546C113.068 241.546 112.029 243.414 112.029 248.703V250.993Z" fill="white"/>
<path d="M207.818 273.023L221.718 245.884L206.465 233.948C206.465 233.948 190.817 219.652 195.616 202.702C200.415 185.753 209.363 179.154 225.439 178.902C241.515 178.65 254.804 191.534 254.804 191.534C254.804 191.534 253.747 176.218 259.919 174.796C266.091 173.373 270.179 171.436 284.119 183.321L288.522 174.16L299.727 174.705L326.815 194.227L318.08 213.82L331.228 223.345C331.228 223.345 335 225.877 335 229.237C335 232.596 334.502 242.292 334.136 243.17C333.77 244.047 329.977 252.139 318.884 248.446L306.021 239.437L301.262 248.588L290.301 248.315L282.37 242.574C282.37 242.574 279.94 249.526 278.252 253.38C276.564 257.234 259.187 293.363 259.187 293.363L235.912 293.292L207.808 273.034L207.818 273.023Z" stroke="#FDE9AA" stroke-miterlimit="10"/>
<path d="M226.12 236.178C223.273 237.389 221.514 237.793 218.26 237.793C205.927 237.793 195.087 226.099 195.087 209.825C195.087 187.236 209.313 178.902 225.439 178.902C241.566 178.902 255.933 187.236 255.933 209.825C255.933 217.493 253.493 226.362 247.534 239.003L231.133 273.024H207.818L226.11 236.178H226.12ZM225.439 197.456C219.074 197.456 217.579 202.158 217.579 208.615C217.579 215.072 219.074 219.773 225.439 219.773C231.804 219.773 233.431 215.072 233.431 208.615C233.431 202.158 231.804 197.456 225.439 197.456Z" fill="#FDE9AA"/>
<path d="M255.099 189.99V184.734C255.099 177.127 259.288 173.363 266.081 173.363C272.873 173.363 277.062 177.127 277.062 184.734V189.99C277.062 197.597 273.036 201.512 266.081 201.512C259.126 201.512 255.099 197.597 255.099 189.99ZM299.106 174.16L273.188 228.248H262.603L288.522 174.16H299.106ZM267.352 190.939V184.038C267.352 181.768 266.874 181.293 266.091 181.293C265.308 181.293 264.83 181.768 264.83 184.038V190.939C264.83 193.209 265.308 193.683 266.091 193.683C266.874 193.683 267.352 193.209 267.352 190.939ZM284.973 217.513V212.257C284.973 204.65 289.162 200.886 295.954 200.886C302.747 200.886 306.936 204.65 306.936 212.257V217.513C306.936 225.12 302.909 229.035 295.954 229.035C288.999 229.035 284.973 225.12 284.973 217.513ZM297.215 218.452V211.551C297.215 209.281 296.737 208.806 295.954 208.806C295.171 208.806 294.694 209.281 294.694 211.551V218.452C294.694 220.722 295.171 221.196 295.954 221.196C296.737 221.196 297.215 220.722 297.215 218.452Z" fill="#FDE9AA"/>
<defs>
<clipPath id="clip0_905_1435">
<rect width="198" height="121" fill="white" transform="translate(137 20.3633)"/>
</clipPath>
</defs>
</svg>
