<svg width="736" height="138" viewBox="0 0 736 138" fill="none" xmlns="http://www.w3.org/2000/svg">
<path d="M558.236 51.1392C557.652 51.1392 557.127 51.0232 556.66 50.7912C556.192 50.5592 555.818 50.241 555.536 49.8366C555.254 49.4323 555.1 48.9716 555.074 48.4545H556.267C556.313 48.9152 556.522 49.2964 556.893 49.598C557.268 49.8963 557.715 50.0455 558.236 50.0455C558.653 50.0455 559.025 49.9477 559.349 49.7521C559.678 49.5566 559.934 49.2881 560.12 48.9467C560.309 48.602 560.403 48.2126 560.403 47.7784C560.403 47.3343 560.306 46.9382 560.11 46.5902C559.918 46.2389 559.653 45.9621 559.315 45.7599C558.977 45.5578 558.59 45.455 558.156 45.4517C557.845 45.4484 557.525 45.4964 557.197 45.5959C556.869 45.692 556.598 45.8163 556.386 45.9688L555.233 45.8295L555.849 40.8182H561.139V41.9119H556.884L556.526 44.9148H556.585C556.794 44.7491 557.056 44.6115 557.371 44.5021C557.686 44.3928 558.014 44.3381 558.355 44.3381C558.978 44.3381 559.533 44.4872 560.021 44.7855C560.511 45.0805 560.896 45.4848 561.174 45.9986C561.456 46.5123 561.597 47.099 561.597 47.7585C561.597 48.4081 561.451 48.9882 561.159 49.4986C560.871 50.0057 560.473 50.4067 559.966 50.7017C559.459 50.9934 558.882 51.1392 558.236 51.1392Z" fill="white"/>
<path d="M441.979 12.06V30H439.743V12.06H441.979ZM452.049 12.06H454.285V30H452.205L446.667 17.572V30H444.431V12.06H446.433L452.049 24.618V12.06ZM469.386 14.79L467.696 15.934C466.994 14.738 466.24 13.88 464.524 13.88C462.99 13.88 462.08 14.92 462.08 16.688C462.08 18.638 462.99 19.392 465.2 20.016C467.956 20.796 469.672 22.226 469.672 25.19C469.672 27.53 468.398 30.208 464.758 30.208C462.392 30.208 460.676 29.22 459.584 27.27L461.352 26.074C462.314 27.452 463.12 28.18 464.758 28.18C466.994 28.18 467.462 26.672 467.462 25.294C467.462 23.734 466.968 22.668 464.316 21.94C461.638 21.212 459.844 19.678 459.844 16.688C459.844 14.192 461.274 11.852 464.576 11.852C466.89 11.852 468.346 12.814 469.386 14.79ZM469.158 12.06H479.792V14.088H475.58V30H473.344V14.088H469.158V12.06ZM480.509 30H478.169L483.161 12.06H485.137L490.155 30H487.815L486.801 25.892H481.523L480.509 30ZM484.149 15.856L482.173 23.864H486.125L484.149 15.856ZM495.499 30H490.819V12.06H495.499C498.671 12.06 500.699 14.296 500.699 20.094V21.966C500.699 27.764 498.671 30 495.499 30ZM495.499 27.972C497.579 27.972 498.463 26.412 498.463 21.966V20.094C498.463 15.648 497.553 14.088 495.499 14.088H493.055V27.972H495.499ZM504.658 12.06V30H502.422V12.06H504.658ZM515.378 12.06H517.614V22.694C517.614 27.998 515.56 30.208 512.362 30.208C509.138 30.208 507.11 27.998 507.11 22.72V12.06H509.346V22.72C509.346 26.75 510.308 28.18 512.362 28.18C514.416 28.18 515.378 26.75 515.378 22.72V12.06ZM522.087 12.06L526.065 22.902L530.017 12.06H532.279V30H530.043V17.962L526.949 26.256H525.103L522.087 17.962V30H519.851V12.06H522.087ZM540.871 12.06V30H538.635V12.06H540.871ZM541.762 12.06H544.128L547.924 26.1L551.72 12.06H554.086L548.912 30H546.962L541.762 12.06ZM430.783 60H428.417L425.531 52.434H422.749V60H420.513V42.06H425.141C428.469 42.06 430.419 43.776 430.419 47.26C430.419 49.782 429.431 51.368 427.637 52.044L430.783 60ZM422.749 50.406H425.141C427.429 50.406 428.183 49.47 428.183 47.26C428.183 45.024 427.429 44.088 425.141 44.088H422.749V50.406ZM431.882 42.06H440.644V44.088H434.118V49.704H440.02V51.732H434.118V57.972H440.644V60H431.882V42.06ZM446.612 60H441.932V42.06H446.612C449.784 42.06 451.812 44.296 451.812 50.094V51.966C451.812 57.764 449.784 60 446.612 60ZM446.612 57.972C448.692 57.972 449.576 56.412 449.576 51.966V50.094C449.576 45.648 448.666 44.088 446.612 44.088H444.168V57.972H446.612ZM461.595 42.06H463.831V52.694C463.831 57.998 461.777 60.208 458.579 60.208C455.355 60.208 453.327 57.998 453.327 52.72V42.06H455.563V52.72C455.563 56.75 456.525 58.18 458.579 58.18C460.633 58.18 461.595 56.75 461.595 52.72V42.06ZM477.716 60H475.09L470.696 51.186L468.304 54.956V60H466.068V42.06H468.304V51.29L474.18 42.06H476.676L472.178 49.236L477.716 60ZM476.612 42.06H487.246V44.088H483.034V60H480.798V44.088H476.612V42.06ZM490.262 42.06V60H488.026V42.06H490.262ZM502.489 52.018C502.489 57.816 500.461 60.208 497.237 60.208C494.013 60.208 491.985 57.816 491.985 52.018V50.042C491.985 44.244 494.013 41.852 497.237 41.852C500.461 41.852 502.489 44.244 502.489 50.042V52.018ZM494.221 50.042V52.018C494.221 56.568 495.105 58.18 497.237 58.18C499.369 58.18 500.253 56.568 500.253 52.018V50.042C500.253 45.492 499.369 43.88 497.237 43.88C495.105 43.88 494.221 45.492 494.221 50.042ZM511.625 42.06H513.861V60H511.781L506.243 47.572V60H504.007V42.06H506.009L511.625 54.618V42.06ZM520.773 60H518.433L523.425 42.06H525.401L530.419 60H528.079L527.065 55.892H521.787L520.773 60ZM524.413 45.856L522.437 53.864H526.389L524.413 45.856ZM539.149 42.06H541.385V52.694C541.385 57.998 539.331 60.208 536.133 60.208C532.909 60.208 530.881 57.998 530.881 52.72V42.06H533.117V52.72C533.117 56.75 534.079 58.18 536.133 58.18C538.187 58.18 539.149 56.75 539.149 52.72V42.06ZM543.622 42.06H552.384V44.088H545.858V50.12H551.76V52.148H545.858V60H543.622V42.06Z" fill="white"/>
<g clip-path="url(#clip0_923_2108)">
<path d="M227.891 117.423L227.812 135.923L169.817 135.775L138.781 113.042L138.679 98.2196L169.544 60.4484L137.181 38.6346C137.181 38.6346 142.039 20.0214 152.244 14.3126C163.959 7.76392 163.142 10.4424 163.142 10.4424C163.142 10.4424 169.294 6.74246 175.64 10.4424C181.985 14.1423 205.971 27.5348 205.971 27.5348C205.971 27.5348 212.158 13.6089 226.597 11.7476C237.676 10.3176 251.559 10.4424 251.559 10.4424C257.814 14.1196 274.036 21.9962 274.036 21.9962C274.036 21.9962 272.355 5.95935 279.734 4.05263C287.113 2.14591 285.024 2.63394 285.024 2.63394L303.436 12.1448L308.34 1.82812H320.157L350.874 24.2434L341.339 46.4317L356.017 57.1457C356.017 57.1457 360.228 59.2453 360.228 63.3992C360.228 67.5532 361.715 79.8674 356.323 83.783C350.931 87.6986 343.269 85.7691 343.269 85.7691L327.57 75.0211L322.564 85.5421L310.781 85.4627L296.898 75.4297C296.898 75.4297 295.694 75.634 292.868 78.914L290.041 82.194C290.041 82.194 304.39 91.739 302.982 107.015C301.574 122.292 295.91 137.364 269.098 137.421C257.996 137.443 251.151 133.732 251.151 133.732L246.304 130.861L227.869 117.412L227.891 117.423Z" stroke="#FDE9AA" stroke-miterlimit="10"/>
<path d="M195.607 113.099H137.816V98.2769L166.717 58.1904C171.406 51.6871 172.915 45.0363 172.915 38.5217C172.915 31.258 169.737 27.785 165.196 27.785C160.656 27.785 158.238 31.5644 157.636 38.5217H136C136 20.3738 149.769 7.21973 166.865 7.21973C183.96 7.21973 197.878 21.2818 197.878 38.3741C197.878 52.4362 189.103 64.0922 183.654 72.2524L170.645 92.2162H195.607V113.088V113.099Z" fill="#FDE9AA"/>
<path d="M203.02 84.2031C203.02 71.3441 209.683 62.8774 216.937 58.9391C209.83 54.5582 204.223 46.693 204.223 35.7974C204.223 16.1287 220.41 7.20801 236.904 7.20801C253.398 7.20801 269.585 16.1287 269.585 35.7974C269.585 46.693 263.989 54.5582 256.883 58.9391C264.148 62.8774 270.8 71.3441 270.8 84.2031C270.8 104.927 255.521 114.608 236.915 114.608C218.31 114.608 203.031 104.927 203.031 84.2031H203.02ZM245.838 81.1728C245.838 72.7061 241.445 68.6202 236.915 68.6202C232.386 68.6202 227.993 72.7061 227.993 81.1728C227.993 89.038 231.773 93.8842 236.915 93.8842C242.058 93.8842 245.838 89.0494 245.838 81.1728ZM236.915 28.0798C232.522 28.0798 229.355 32.1656 229.355 38.9753C229.355 45.785 232.534 50.1659 236.915 50.1659C241.297 50.1659 244.476 45.9326 244.476 38.9753C244.476 32.018 241.297 28.0798 236.915 28.0798Z" fill="#FDE9AA"/>
<path d="M270.176 19.6923V13.7792C270.176 5.22165 274.853 0.988281 282.436 0.988281C290.018 0.988281 294.695 5.22165 294.695 13.7792V19.6923C294.695 28.2498 290.2 32.6534 282.436 32.6534C274.671 32.6534 270.176 28.2498 270.176 19.6923ZM319.305 1.88489L290.382 62.7296H278.565L307.488 1.88489H319.305ZM283.854 20.7591V12.9961C283.854 10.4424 283.321 9.909 282.447 9.909C281.573 9.909 281.039 10.4424 281.039 12.9961V20.7591C281.039 23.3128 281.573 23.8462 282.447 23.8462C283.321 23.8462 283.854 23.3128 283.854 20.7591ZM303.527 50.6538V44.7407C303.527 36.1831 308.204 31.9498 315.787 31.9498C323.369 31.9498 328.046 36.1831 328.046 44.7407V50.6538C328.046 59.2113 323.551 63.6149 315.787 63.6149C308.022 63.6149 303.527 59.2113 303.527 50.6538ZM317.194 51.7093V43.9462C317.194 41.3926 316.661 40.8591 315.787 40.8591C314.912 40.8591 314.379 41.3926 314.379 43.9462V51.7093C314.379 54.2629 314.912 54.7963 315.787 54.7963C316.661 54.7963 317.194 54.2629 317.194 51.7093Z" fill="#FDE9AA"/>
</g>
<line x1="398" y1="3" x2="398" y2="136.982" stroke="#FF005A" stroke-width="2"/>
<path d="M592.709 113.8L608.293 82.9903L591.193 69.4408C591.193 69.4408 573.649 53.2112 579.029 33.9693C584.41 14.7274 594.442 7.23677 612.465 6.95043C630.489 6.6641 645.388 21.2902 645.388 21.2902C645.388 21.2902 644.203 3.9038 651.123 2.28885C658.042 0.673909 662.625 -1.52516 678.254 11.9671L683.191 1.56728L695.753 2.18577L726.123 24.3483L716.33 46.591L731.07 57.4032C731.07 57.4032 735.3 60.278 735.3 64.092C735.3 67.906 734.741 78.9129 734.331 79.9093C733.92 80.9058 729.668 90.0915 717.231 85.8995L702.81 75.6715L697.475 86.0598L685.186 85.7506L676.294 79.2335C676.294 79.2335 673.569 87.125 671.677 91.5003C669.784 95.8755 650.302 136.891 650.302 136.891L624.207 136.81L592.698 113.812L592.709 113.8Z" stroke="#FDE9AA" stroke-miterlimit="10"/>
<path d="M613.229 71.9718C610.037 73.3462 608.065 73.8043 604.417 73.8043C590.589 73.8043 578.437 60.5297 578.437 42.0552C578.437 16.4108 594.385 6.9502 612.465 6.9502C630.546 6.9502 646.654 16.4108 646.654 42.0552C646.654 50.7599 643.918 60.8275 637.237 75.1788L618.849 113.8H592.709L613.218 71.9718H613.229ZM612.465 28.0132C605.329 28.0132 603.653 33.3505 603.653 40.6808C603.653 48.011 605.329 53.3484 612.465 53.3484C619.602 53.3484 621.426 48.011 621.426 40.6808C621.426 33.3505 619.602 28.0132 612.465 28.0132Z" fill="#FDE9AA"/>
<path d="M645.719 19.5375V13.5702C645.719 4.93427 650.416 0.662109 658.031 0.662109C665.646 0.662109 670.343 4.93427 670.343 13.5702V19.5375C670.343 28.1734 665.828 32.6174 658.031 32.6174C650.233 32.6174 645.719 28.1734 645.719 19.5375ZM695.058 1.56694L665.999 62.9692H654.132L683.19 1.56694H695.058ZM659.456 20.6141V12.7799C659.456 10.2029 658.92 9.66457 658.042 9.66457C657.164 9.66457 656.628 10.2029 656.628 12.7799V20.6141C656.628 23.1912 657.164 23.7295 658.042 23.7295C658.92 23.7295 659.456 23.1912 659.456 20.6141ZM679.212 50.7827V44.8154C679.212 36.1795 683.908 31.9073 691.524 31.9073C699.139 31.9073 703.836 36.1795 703.836 44.8154V50.7827C703.836 59.4186 699.321 63.8626 691.524 63.8626C683.726 63.8626 679.212 59.4186 679.212 50.7827ZM692.937 51.8479V44.0137C692.937 41.4366 692.401 40.8983 691.524 40.8983C690.646 40.8983 690.11 41.4366 690.11 44.0137V51.8479C690.11 54.4249 690.646 54.9632 691.524 54.9632C692.401 54.9632 692.937 54.4249 692.937 51.8479Z" fill="#FDE9AA"/>
<path d="M20.0928 20.068C19.1828 20.068 18.7408 20.692 18.3768 21.394H16.3228V12.06H23.7068V14.296H18.4548V18.898C18.9228 18.3 19.6768 17.832 20.6648 17.832C23.0048 17.832 24.3048 20.068 24.3048 24.41C24.3048 28.128 22.8228 30.208 20.0408 30.208C17.8048 30.208 16.1408 28.258 15.9848 25.788H18.1688C18.4548 27.296 19.0008 28.18 20.1708 28.18C21.3928 28.18 22.0688 27.218 22.0688 24.41C22.0688 21.602 21.6008 20.068 20.0928 20.068ZM25.7939 23.422V21.55H31.2799V23.422H25.7939ZM31.3677 27.972L33.2137 26.828C33.6037 27.582 34.2537 28.18 35.2157 28.18C37.0617 28.18 37.8677 26.984 37.8677 22.616V12.06H40.1037V22.616C40.1037 28.206 38.2577 30.208 35.2157 30.208C33.6557 30.208 32.1477 29.532 31.3677 27.972ZM44.0187 30H41.6787L46.6707 12.06H48.6467L53.6647 30H51.3247L50.3107 25.892H45.0327L44.0187 30ZM47.6587 15.856L45.6827 23.864H49.6347L47.6587 15.856ZM57.8653 12.06V19.704H63.2213V12.06H65.4573V30H63.2213V21.732H57.8653V30H55.6293V12.06H57.8653ZM79.2548 30H76.8888L74.0028 22.434H71.2208V30H68.9848V12.06H73.6128C76.9408 12.06 78.8908 13.776 78.8908 17.26C78.8908 19.782 77.9028 21.368 76.1088 22.044L79.2548 30ZM71.2208 20.406H73.6128C75.9008 20.406 76.6548 19.47 76.6548 17.26C76.6548 15.024 75.9008 14.088 73.6128 14.088H71.2208V20.406ZM81.6547 12.06H90.4167V14.088H83.8907V19.704H89.7927V21.732H83.8907V27.972H90.4167V30H81.6547V12.06ZM101.974 14.79L100.284 15.934C99.5823 14.738 98.8283 13.88 97.1123 13.88C95.5783 13.88 94.6683 14.92 94.6683 16.688C94.6683 18.638 95.5783 19.392 97.7883 20.016C100.544 20.796 102.26 22.226 102.26 25.19C102.26 27.53 100.986 30.208 97.3463 30.208C94.9803 30.208 93.2643 29.22 92.1723 27.27L93.9403 26.074C94.9023 27.452 95.7083 28.18 97.3463 28.18C99.5823 28.18 100.05 26.672 100.05 25.294C100.05 23.734 99.5563 22.668 96.9043 21.94C94.2263 21.212 92.4323 19.678 92.4323 16.688C92.4323 14.192 93.8623 11.852 97.1643 11.852C99.4783 11.852 100.934 12.814 101.974 14.79ZM103.895 23.422V21.55H109.381V23.422H103.895ZM10.2215 42.06H12.4575V52.694C12.4575 57.998 10.4035 60.208 7.20555 60.208C3.98155 60.208 1.95355 57.998 1.95355 52.72V42.06H4.18955V52.72C4.18955 56.75 5.15155 58.18 7.20555 58.18C9.25955 58.18 10.2215 56.75 10.2215 52.72V42.06ZM8.29755 39.746V37.406H10.6375V39.746H8.29755ZM3.77355 39.746V37.406H6.11355V39.746H3.77355ZM15.9946 42.06H20.4406C23.8206 42.06 25.4846 43.646 25.4846 46.636C25.4846 48.508 24.4966 50.224 23.1186 50.64C24.9126 51.056 25.9526 52.564 25.9526 54.852C25.9526 57.452 24.6266 60 20.8826 60H15.9946V42.06ZM18.2306 51.706V57.972H20.8826C22.9106 57.972 23.7166 56.802 23.7166 54.852C23.7166 52.694 22.7806 51.706 20.5706 51.706H18.2306ZM18.2306 44.062V49.678H20.7266C22.5986 49.678 23.2486 48.404 23.2486 46.636C23.2486 45.05 22.7806 44.062 20.4406 44.062H18.2306ZM28.5629 42.06H37.3249V44.088H30.7989V49.704H36.7009V51.732H30.7989V57.972H37.3249V60H28.5629V42.06ZM50.1825 60H47.8165L44.9305 52.434H42.1485V60H39.9125V42.06H44.5405C47.8685 42.06 49.8185 43.776 49.8185 47.26C49.8185 49.782 48.8305 51.368 47.0365 52.044L50.1825 60ZM42.1485 50.406H44.5405C46.8285 50.406 47.5825 49.47 47.5825 47.26C47.5825 45.024 46.8285 44.088 44.5405 44.088H42.1485V50.406ZM54.8185 42.06V57.972H61.3445V60H52.5825V42.06H54.8185ZM63.1196 42.06H71.8816V44.088H65.3556V49.704H71.2576V51.732H65.3556V57.972H71.8816V60H63.1196V42.06ZM74.4692 42.06H78.9152C82.2952 42.06 83.9592 43.646 83.9592 46.636C83.9592 48.508 82.9712 50.224 81.5932 50.64C83.3872 51.056 84.4272 52.564 84.4272 54.852C84.4272 57.452 83.1012 60 79.3572 60H74.4692V42.06ZM76.7052 51.706V57.972H79.3572C81.3852 57.972 82.1912 56.802 82.1912 54.852C82.1912 52.694 81.2552 51.706 79.0452 51.706H76.7052ZM76.7052 44.062V49.678H79.2012C81.0732 49.678 81.7232 48.404 81.7232 46.636C81.7232 45.05 81.2552 44.062 78.9152 44.062H76.7052ZM87.0375 42.06H95.7995V44.088H89.2735V49.704H95.1755V51.732H89.2735V57.972H95.7995V60H87.0375V42.06ZM106.005 42.06H108.241V60H106.161L100.623 47.572V60H98.3871V42.06H100.389L106.005 54.618V42.06Z" fill="white"/>
<path d="M114.236 51.1392C113.652 51.1392 113.127 51.0232 112.66 50.7912C112.192 50.5592 111.818 50.241 111.536 49.8366C111.254 49.4323 111.1 48.9716 111.074 48.4545H112.267C112.313 48.9152 112.522 49.2964 112.893 49.598C113.268 49.8963 113.715 50.0455 114.236 50.0455C114.653 50.0455 115.025 49.9477 115.349 49.7521C115.678 49.5566 115.934 49.2881 116.12 48.9467C116.309 48.602 116.403 48.2126 116.403 47.7784C116.403 47.3343 116.306 46.9382 116.11 46.5902C115.918 46.2389 115.653 45.9621 115.315 45.7599C114.977 45.5578 114.59 45.455 114.156 45.4517C113.845 45.4484 113.525 45.4964 113.197 45.5959C112.869 45.692 112.598 45.8163 112.386 45.9688L111.233 45.8295L111.849 40.8182H117.139V41.9119H112.884L112.526 44.9148H112.585C112.794 44.7491 113.056 44.6115 113.371 44.5021C113.686 44.3928 114.014 44.3381 114.355 44.3381C114.978 44.3381 115.533 44.4872 116.021 44.7855C116.511 45.0805 116.896 45.4848 117.174 45.9986C117.456 46.5123 117.597 47.099 117.597 47.7585C117.597 48.4081 117.451 48.9882 117.159 49.4986C116.871 50.0057 116.473 50.4067 115.966 50.7017C115.459 50.9934 114.882 51.1392 114.236 51.1392Z" fill="white"/>
<defs>
<clipPath id="clip0_923_2108">
<rect width="225" height="137" fill="white" transform="translate(136 1)"/>
</clipPath>
</defs>
</svg>
