<svg width="336" height="322" viewBox="0 0 336 322" fill="none" xmlns="http://www.w3.org/2000/svg">
<path d="M34.7049 66.6098H32.2811V55.7686H40.9643V58.3736H34.7848V63.7153C35.3442 63.0311 36.2232 62.4786 37.3951 62.4786C40.1386 62.4786 41.6834 65.0836 41.6834 70.1095C41.6834 74.425 39.9521 76.8459 36.676 76.8459C34.039 76.8459 32.0947 74.5829 31.9082 71.7147H34.4652C34.8115 73.4777 35.4507 74.5039 36.8091 74.5039C38.1675 74.5039 39.0465 73.3988 39.0465 70.1359C39.0465 66.873 38.4872 65.0836 36.7292 65.0836C35.6638 65.0836 35.1311 65.8204 34.7049 66.6361V66.6098Z" fill="white"/>
<path d="M42.7236 65.1104H49.1694V67.2953H42.7236V65.1104Z" fill="white"/>
<path d="M51.5411 55.7686L54.8971 64.531L58.2798 55.7686H61.263L56.2023 67.6624V76.609H53.5654V67.6624L48.5312 55.7686H51.5144H51.5411Z" fill="white"/>
<path d="M73.7281 55.7686V58.1368H66.0571V64.6626H72.9823V67.0045H66.0571V74.2408H73.7281V76.609H63.4202V55.7686H73.7281Z" fill="white"/>
<path d="M75.1663 76.609L81.0261 55.7686H83.3434L89.2298 76.609H86.4864L85.2878 71.8463H79.0817L77.8831 76.609H75.1396H75.1663ZM79.8808 69.478H84.5153L82.1981 60.1893L79.8808 69.478Z" fill="white"/>
<path d="M100.601 76.609L97.2188 67.8203H93.9426V76.609H91.3057V55.7686H96.7393C100.655 55.7686 102.945 57.7684 102.945 61.7944C102.945 64.7152 101.773 66.5572 99.6692 67.3466L103.372 76.5827H100.601V76.609ZM96.7393 65.4783C99.4295 65.4783 100.308 64.3995 100.308 61.8207C100.308 59.242 99.4295 58.1368 96.7393 58.1368H93.9159V65.4783H96.7393Z" fill="white"/>
<path d="M9.53551 89.9503C8.70981 88.5557 7.83084 87.5557 5.80654 87.5557C3.99533 87.5557 2.92991 88.7662 2.92991 90.8186C2.92991 93.0816 3.99533 93.95 6.60561 94.6868C9.85514 95.5814 11.8528 97.2655 11.8528 100.686C11.8528 103.397 10.3612 106.502 6.0729 106.502C3.3028 106.502 1.2785 105.344 0 103.081L2.07757 101.686C3.19626 103.291 4.15514 104.133 6.0729 104.133C8.70981 104.133 9.24252 102.37 9.24252 100.792C9.24252 98.9759 8.65654 97.7392 5.54019 96.8971C2.3972 96.0551 0.292991 94.2657 0.292991 90.7923C0.292991 87.8978 1.97103 85.1875 5.85981 85.1875C8.57663 85.1875 10.2813 86.2927 11.5065 88.6083L9.50888 89.924L9.53551 89.9503Z" fill="white"/>
<path d="M26.6355 85.4502V97.7913C26.6355 103.949 24.2117 106.528 20.456 106.528C16.7004 106.528 14.2766 103.949 14.2766 97.844V85.4502H16.9135V97.844C16.9135 102.528 18.0322 104.186 20.456 104.186C22.8799 104.186 23.9986 102.528 23.9986 97.844V85.4502H26.6355Z" fill="white"/>
<path d="M39.2343 106.291L35.8516 97.5019H32.5754V106.291H29.9385V85.4502H35.3721C39.2875 85.4502 41.5782 87.45 41.5782 91.476C41.5782 94.3969 40.4062 96.2388 38.302 97.0282L42.0044 106.264H39.2343V106.291ZM35.3721 95.16C38.0623 95.16 38.9413 94.0811 38.9413 91.5024C38.9413 88.9236 38.0623 87.8184 35.3721 87.8184H32.5488V95.16H35.3721Z" fill="white"/>
<path d="M45.201 85.4502L49.6758 101.765L54.1239 85.4502H56.894L50.8211 106.291H48.5304L42.4309 85.4502H45.201Z" fill="white"/>
<path d="M61.6604 106.291H59.0234V85.4502H61.6604V106.291Z" fill="white"/>
<path d="M66.5084 85.4502L70.9831 101.765L75.4313 85.4502H78.2014L72.1285 106.291H69.8378L63.7383 85.4502H66.5084Z" fill="white"/>
<path d="M76.9778 106.291L82.8376 85.4502H85.1549L91.0414 106.291H88.2979L87.0993 101.528H80.8932L79.6946 106.291H76.9512H76.9778ZM81.6923 99.1597H86.3269L84.0096 89.8709L81.6923 99.1597Z" fill="white"/>
<path d="M95.7275 103.922H103.399V106.291H93.0906V85.4502H95.7275V103.922Z" fill="white"/>
<path d="M107.236 95.6392C106.652 95.6392 106.127 95.5232 105.66 95.2912C105.192 95.0592 104.818 94.741 104.536 94.3366C104.254 93.9323 104.1 93.4716 104.074 92.9545H105.267C105.313 93.4152 105.522 93.7964 105.893 94.098C106.268 94.3963 106.715 94.5455 107.236 94.5455C107.653 94.5455 108.025 94.4477 108.349 94.2521C108.678 94.0566 108.934 93.7881 109.12 93.4467C109.309 93.102 109.403 92.7126 109.403 92.2784C109.403 91.8343 109.306 91.4382 109.11 91.0902C108.918 90.7389 108.653 90.4621 108.315 90.2599C107.977 90.0578 107.59 89.955 107.156 89.9517C106.845 89.9484 106.525 89.9964 106.197 90.0959C105.869 90.192 105.598 90.3163 105.386 90.4688L104.233 90.3295L104.849 85.3182H110.139V86.4119H105.884L105.526 89.4148H105.585C105.794 89.2491 106.056 89.1115 106.371 89.0021C106.686 88.8928 107.014 88.8381 107.355 88.8381C107.978 88.8381 108.533 88.9872 109.021 89.2855C109.511 89.5805 109.896 89.9848 110.174 90.4986C110.456 91.0123 110.597 91.599 110.597 92.2585C110.597 92.9081 110.451 93.4882 110.159 93.9986C109.871 94.5057 109.473 94.9067 108.966 95.2017C108.459 95.4934 107.882 95.6392 107.236 95.6392Z" fill="white"/>
<g clip-path="url(#clip0_668_1662)">
<path d="M217.864 123.475L217.794 139.814L166.758 139.683L139.447 119.605L139.357 106.514L166.519 73.154L138.039 53.8878C138.039 53.8878 142.314 37.4484 151.295 32.4063C161.604 26.6224 160.885 28.9881 160.885 28.9881C160.885 28.9881 166.299 25.7203 171.883 28.9881C177.467 32.2559 198.575 44.0843 198.575 44.0843C198.575 44.0843 204.019 31.7848 216.725 30.1409C226.475 28.8779 238.692 28.9881 238.692 28.9881C244.196 32.2359 258.471 39.1926 258.471 39.1926C258.471 39.1926 256.993 25.0286 263.486 23.3446C269.979 21.6606 268.141 22.0916 268.141 22.0916L284.344 30.4917L288.659 21.3799H299.058L326.089 41.1773L317.698 60.7743L330.615 70.237C330.615 70.237 334.321 72.0914 334.321 75.7602C334.321 79.429 335.629 90.3051 330.884 93.7634C326.139 97.2216 319.396 95.5176 319.396 95.5176L305.581 86.0248L301.176 95.3171L290.807 95.2469L278.59 86.3857C278.59 86.3857 277.531 86.5661 275.044 89.463L272.556 92.36C272.556 92.36 285.183 100.79 283.944 114.283C282.705 127.775 277.721 141.087 254.126 141.137C244.356 141.157 238.332 137.879 238.332 137.879L234.067 135.343L217.844 123.465L217.864 123.475Z" stroke="#FDE9AA" stroke-miterlimit="10"/>
<path d="M189.454 119.656H138.598V106.564L164.031 71.1595C168.157 65.4157 169.486 59.5417 169.486 53.7879C169.486 47.3725 166.689 44.3051 162.693 44.3051C158.697 44.3051 156.569 47.6431 156.04 53.7879H137C137 37.7594 149.117 26.1416 164.161 26.1416C179.205 26.1416 191.452 38.5614 191.452 53.6576C191.452 66.0773 183.73 76.372 178.936 83.5793L167.488 101.212H189.454V119.646V119.656Z" fill="#FDE9AA"/>
<path d="M195.978 94.1348C195.978 82.7776 201.841 75.2997 208.225 71.8213C201.971 67.9521 197.036 61.0054 197.036 51.3824C197.036 34.0107 211.281 26.1318 225.796 26.1318C240.311 26.1318 254.555 34.0107 254.555 51.3824C254.555 61.0054 249.631 67.9521 243.377 71.8213C249.77 75.2997 255.624 82.7776 255.624 94.1348C255.624 112.439 242.179 120.989 225.806 120.989C209.433 120.989 195.988 112.439 195.988 94.1348H195.978ZM233.658 91.4584C233.658 83.9805 229.792 80.3718 225.806 80.3718C221.82 80.3718 217.954 83.9805 217.954 91.4584C217.954 98.4051 221.281 102.685 225.806 102.685C230.331 102.685 233.658 98.4151 233.658 91.4584ZM225.806 44.566C221.94 44.566 219.153 48.1747 219.153 54.1891C219.153 60.2035 221.95 64.0728 225.806 64.0728C229.662 64.0728 232.459 60.3338 232.459 54.1891C232.459 48.0444 229.662 44.566 225.806 44.566Z" fill="#FDE9AA"/>
<path d="M255.075 37.1583V31.9357C255.075 24.3776 259.19 20.6387 265.863 20.6387C272.536 20.6387 276.652 24.3776 276.652 31.9357V37.1583C276.652 44.7164 272.696 48.6057 265.863 48.6057C259.031 48.6057 255.075 44.7164 255.075 37.1583ZM298.309 21.4306L272.856 75.1694H262.457L287.91 21.4306H298.309ZM267.112 38.1005V31.2441C267.112 28.9887 266.642 28.5176 265.873 28.5176C265.104 28.5176 264.635 28.9887 264.635 31.2441V38.1005C264.635 40.3559 265.104 40.8271 265.873 40.8271C266.642 40.8271 267.112 40.3559 267.112 38.1005ZM284.424 64.5038V59.2813C284.424 51.7232 288.539 47.9842 295.212 47.9842C301.885 47.9842 306.001 51.7232 306.001 59.2813V64.5038C306.001 72.0619 302.045 75.9512 295.212 75.9512C288.379 75.9512 284.424 72.0619 284.424 64.5038ZM296.451 65.436V58.5796C296.451 56.3242 295.981 55.8531 295.212 55.8531C294.443 55.8531 293.973 56.3242 293.973 58.5796V65.436C293.973 67.6914 294.443 68.1626 295.212 68.1626C295.981 68.1626 296.451 67.6914 296.451 65.436Z" fill="#FDE9AA"/>
</g>
<line x1="100.509" y1="160.648" x2="234.491" y2="160.648" stroke="#FF005A" stroke-width="2"/>
<path d="M0.026865 235.623L5.88667 214.782H8.20399L14.0904 235.623H11.347L10.1484 230.86H3.94229L2.7437 235.623H0.000244141H0.026865ZM4.74136 228.492H9.37596L7.05864 219.203L4.74136 228.492Z" fill="white"/>
<path d="M25.2509 214.782V217.15H20.2967V235.623H17.6598V217.15H12.7322V214.782H25.2242H25.2509Z" fill="white"/>
<path d="M40.6205 219.281C39.7948 217.887 38.9158 216.887 36.8915 216.887C35.0803 216.887 34.0149 218.097 34.0149 220.15C34.0149 222.413 35.0803 223.281 37.6906 224.018C40.9401 224.912 42.9378 226.597 42.9378 230.017C42.9378 232.728 41.4462 235.833 37.1579 235.833C34.3878 235.833 32.3635 234.675 31.085 232.412L33.1625 231.017C34.2812 232.622 35.2401 233.464 37.1579 233.464C39.7948 233.464 40.3275 231.701 40.3275 230.123C40.3275 228.307 39.7415 227.07 36.6252 226.228C33.4822 225.386 31.378 223.597 31.378 220.123C31.378 217.229 33.056 214.519 36.9448 214.519C39.6616 214.519 41.3663 215.624 42.5915 217.939L40.5939 219.255L40.6205 219.281Z" fill="white"/>
<path d="M56.7882 214.781V217.149H51.834V235.622H49.1971V217.149H44.2695V214.781H56.7616H56.7882Z" fill="white"/>
<path d="M55.4019 235.623L61.2617 214.782H63.579L69.4655 235.623H66.722L65.5234 230.86H59.3173L58.1187 235.623H55.3752H55.4019ZM60.1164 228.492H64.751L62.4337 219.203L60.1164 228.492Z" fill="white"/>
<path d="M82.6502 225.149V226.36C82.6502 233.096 80.1731 235.859 76.4175 235.859C72.6619 235.859 70.238 233.07 70.238 226.36V224.07C70.238 217.334 72.6086 214.545 76.4175 214.545C79.8535 214.545 81.9843 216.703 82.517 221.281H80.0399C79.4806 218.176 78.4418 216.913 76.3908 216.913C73.9137 216.913 72.8483 218.781 72.8483 224.07V226.36C72.8483 231.649 73.9137 233.517 76.3908 233.517C78.6016 233.517 79.9067 231.886 79.9866 227.518H76.4175V225.176H82.6236L82.6502 225.149Z" fill="white"/>
<path d="M95.515 214.782V217.15H87.8439V223.676H94.7692V226.018H87.8439V233.254H95.515V235.623H85.207V214.782H95.515Z" fill="white"/>
<path d="M106.089 235.622H103.452V214.781H106.089V235.622Z" fill="white"/>
<path d="M110.91 214.782L115.385 231.097L119.833 214.782H122.603L116.53 235.623H114.239L108.14 214.782H110.91Z" fill="white"/>
<path d="M22.2412 268.541V247.7H27.7548C31.4838 247.7 33.8543 250.305 33.8543 257.042V259.226C33.8543 265.962 31.4571 268.567 27.7548 268.567H22.2412V268.541ZM31.2174 259.199V257.015C31.2174 251.858 30.152 250.042 27.7282 250.042H24.8515V266.172H27.7282C30.1786 266.172 31.2174 264.357 31.2174 259.199Z" fill="white"/>
<path d="M45.7587 268.541L42.376 259.752H39.0998V268.541H36.4629V247.7H41.8965C45.8119 247.7 48.1026 249.7 48.1026 253.726C48.1026 256.647 46.9306 258.489 44.8264 259.278L48.5288 268.514H45.7587V268.541ZM41.8965 257.41C44.5867 257.41 45.4657 256.331 45.4657 253.752C45.4657 251.174 44.5867 250.068 41.8965 250.068H39.0732V257.41H41.8965Z" fill="white"/>
<path d="M56.1745 268.777C52.3923 268.777 49.9951 265.988 49.9951 259.278V256.988C49.9951 250.252 52.3657 247.463 56.1745 247.463C59.9834 247.463 62.354 250.252 62.354 256.988V259.278C62.354 266.014 59.9568 268.777 56.1745 268.777ZM52.632 259.278C52.632 264.567 53.6708 266.435 56.1745 266.435C58.6783 266.435 59.7171 264.567 59.7171 259.278V256.988C59.7171 251.699 58.6783 249.831 56.1745 249.831C53.6708 249.831 52.632 251.699 52.632 256.988V259.278Z" fill="white"/>
<path d="M67.6018 260.62V268.567H64.9648V247.727H70.4784C74.3672 247.727 76.6312 250.147 76.6312 254.2C76.6312 258.252 74.3938 260.62 70.4784 260.62H67.6018ZM70.4784 258.252C73.1419 258.252 73.9943 256.752 73.9943 254.173C73.9943 251.595 73.1419 250.068 70.4784 250.068H67.6018V258.252H70.4784Z" fill="white"/>
<path d="M87.7367 252.199C86.911 250.805 86.032 249.805 84.0077 249.805C82.1965 249.805 81.1311 251.015 81.1311 253.068C81.1311 255.331 82.1965 256.199 84.8068 256.936C88.0563 257.83 90.054 259.515 90.054 262.935C90.054 265.646 88.5624 268.751 84.2741 268.751C81.504 268.751 79.4797 267.593 78.2012 265.33L80.2787 263.935C81.3974 265.54 82.3563 266.382 84.2741 266.382C86.911 266.382 87.4437 264.619 87.4437 263.041C87.4437 261.225 86.8577 259.988 83.7414 259.146C80.5984 258.304 78.4942 256.515 78.4942 253.041C78.4942 250.147 80.1722 247.437 84.061 247.437C86.7778 247.437 88.4825 248.542 89.7077 250.857L87.71 252.173L87.7367 252.199Z" fill="white"/>
<path d="M108.486 247.7V250.068H103.532V268.541H100.895V250.068H95.9678V247.7H108.46H108.486Z" fill="white"/>
<path d="M129.236 257.139C128.652 257.139 128.127 257.023 127.66 256.791C127.192 256.559 126.818 256.241 126.536 255.837C126.254 255.432 126.1 254.972 126.074 254.455H127.267C127.313 254.915 127.522 255.296 127.893 255.598C128.268 255.896 128.715 256.045 129.236 256.045C129.653 256.045 130.025 255.948 130.349 255.752C130.678 255.557 130.934 255.288 131.12 254.947C131.309 254.602 131.403 254.213 131.403 253.778C131.403 253.334 131.306 252.938 131.11 252.59C130.918 252.239 130.653 251.962 130.315 251.76C129.977 251.558 129.59 251.455 129.156 251.452C128.845 251.448 128.525 251.496 128.197 251.596C127.869 251.692 127.598 251.816 127.386 251.969L126.233 251.83L126.849 246.818H132.139V247.912H127.884L127.526 250.915H127.585C127.794 250.749 128.056 250.612 128.371 250.502C128.686 250.393 129.014 250.338 129.355 250.338C129.978 250.338 130.533 250.487 131.021 250.786C131.511 251.08 131.896 251.485 132.174 251.999C132.456 252.512 132.597 253.099 132.597 253.759C132.597 254.408 132.451 254.988 132.159 255.499C131.871 256.006 131.473 256.407 130.966 256.702C130.459 256.993 129.882 257.139 129.236 257.139Z" fill="white"/>
<path d="M115.572 268.777C111.79 268.777 109.392 265.988 109.392 259.278V256.988C109.392 250.252 111.763 247.463 115.572 247.463C119.381 247.463 121.751 250.252 121.751 256.988V259.278C121.751 266.014 119.354 268.777 115.572 268.777ZM112.029 259.278C112.029 264.567 113.068 266.435 115.572 266.435C118.076 266.435 119.114 264.567 119.114 259.278V256.988C119.114 251.699 118.076 249.831 115.572 249.831C113.068 249.831 112.029 251.699 112.029 256.988V259.278Z" fill="white"/>
<path d="M207.818 281.309L221.718 254.169L206.465 242.233C206.465 242.233 190.817 227.937 195.616 210.987C200.415 194.038 209.363 187.439 225.439 187.187C241.515 186.935 254.804 199.819 254.804 199.819C254.804 199.819 253.747 184.503 259.919 183.081C266.091 181.658 270.179 179.721 284.119 191.606L288.522 182.445L299.727 182.99L326.815 202.513L318.08 222.106L331.228 231.63C331.228 231.63 335 234.162 335 237.522C335 240.881 334.502 250.577 334.136 251.455C333.77 252.333 329.977 260.424 318.884 256.731L306.021 247.722L301.262 256.873L290.301 256.6L282.37 250.86C282.37 250.86 279.94 257.811 278.252 261.665C276.564 265.519 259.187 301.648 259.187 301.648L235.912 301.578L207.808 281.319L207.818 281.309Z" stroke="#FDE9AA" stroke-miterlimit="10"/>
<path d="M226.12 244.463C223.273 245.674 221.514 246.078 218.26 246.078C205.927 246.078 195.087 234.384 195.087 218.111C195.087 195.521 209.313 187.188 225.439 187.188C241.566 187.188 255.933 195.521 255.933 218.111C255.933 225.778 253.493 234.647 247.534 247.288L231.133 281.309H207.818L226.11 244.463H226.12ZM225.439 205.741C219.074 205.741 217.579 210.443 217.579 216.9C217.579 223.357 219.074 228.059 225.439 228.059C231.804 228.059 233.431 223.357 233.431 216.9C233.431 210.443 231.804 205.741 225.439 205.741Z" fill="#FDE9AA"/>
<path d="M255.099 198.275V193.019C255.099 185.412 259.288 181.648 266.081 181.648C272.873 181.648 277.062 185.412 277.062 193.019V198.275C277.062 205.883 273.036 209.797 266.081 209.797C259.126 209.797 255.099 205.883 255.099 198.275ZM299.106 182.445L273.188 236.533H262.603L288.522 182.445H299.106ZM267.352 199.224V192.323C267.352 190.053 266.874 189.578 266.091 189.578C265.308 189.578 264.83 190.053 264.83 192.323V199.224C264.83 201.494 265.308 201.968 266.091 201.968C266.874 201.968 267.352 201.494 267.352 199.224ZM284.973 225.798V220.542C284.973 212.935 289.162 209.172 295.954 209.172C302.747 209.172 306.936 212.935 306.936 220.542V225.798C306.936 233.406 302.909 237.32 295.954 237.32C288.999 237.32 284.973 233.406 284.973 225.798ZM297.215 226.737V219.836C297.215 217.566 296.737 217.092 295.954 217.092C295.171 217.092 294.694 217.566 294.694 219.836V226.737C294.694 229.007 295.171 229.481 295.954 229.481C296.737 229.481 297.215 229.007 297.215 226.737Z" fill="#FDE9AA"/>
<defs>
<clipPath id="clip0_668_1662">
<rect width="198" height="121" fill="white" transform="translate(137 20.6484)"/>
</clipPath>
</defs>
</svg>
