<svg width="731" height="138" viewBox="0 0 731 138" fill="none" xmlns="http://www.w3.org/2000/svg">
<path d="M425.027 31.4617L430.886 10.3594H433.204L439.09 31.4617H436.347L435.148 26.639H428.942L427.743 31.4617H425H425.027ZM429.741 24.2411H434.376L432.058 14.8356L429.741 24.2411Z" fill="white"/>
<path d="M450.251 10.3594V12.7574H445.296V31.4617H442.66V12.7574H437.732V10.3594H450.224H450.251Z" fill="white"/>
<path d="M465.62 14.9154C464.794 13.5032 463.915 12.4908 461.891 12.4908C460.08 12.4908 459.014 13.7164 459.014 15.7947C459.014 18.0861 460.08 18.9653 462.69 19.7114C465.94 20.6173 467.937 22.3225 467.937 25.7863C467.937 28.5306 466.446 31.6747 462.157 31.6747C459.387 31.6747 457.363 30.5023 456.084 28.2109L458.162 26.7988C459.281 28.4241 460.24 29.2767 462.157 29.2767C464.794 29.2767 465.327 27.4915 465.327 25.8928C465.327 24.0544 464.741 22.8021 461.625 21.9495C458.482 21.0969 456.377 19.2851 456.377 15.768C456.377 12.8371 458.055 10.0928 461.944 10.0928C464.661 10.0928 466.366 11.2118 467.591 13.5565L465.593 14.8887L465.62 14.9154Z" fill="white"/>
<path d="M481.788 10.3594V12.7574H476.834V31.4617H474.197V12.7574H469.27V10.3594H481.762H481.788Z" fill="white"/>
<path d="M480.402 31.4617L486.261 10.3594H488.579L494.465 31.4617H491.722L490.523 26.639H484.317L483.118 31.4617H480.375H480.402ZM485.116 24.2411H489.751L487.433 14.8356L485.116 24.2411Z" fill="white"/>
<path d="M507.65 20.8568V22.0824C507.65 28.9034 505.173 31.701 501.417 31.701C497.662 31.701 495.238 28.8767 495.238 22.0824V19.7644C495.238 12.9434 497.608 10.1191 501.417 10.1191C504.853 10.1191 506.984 12.304 507.517 16.9401H505.04C504.48 13.7961 503.442 12.5171 501.391 12.5171C498.913 12.5171 497.848 14.4089 497.848 19.7644V22.0824C497.848 27.4379 498.913 29.3297 501.391 29.3297C503.601 29.3297 504.906 27.6777 504.986 23.2548H501.417V20.8834H507.623L507.65 20.8568Z" fill="white"/>
<path d="M520.515 10.3594V12.7574H512.844V19.3652H519.769V21.7365H512.844V29.0637H520.515V31.4617H510.207V10.3594H520.515Z" fill="white"/>
<path d="M531.089 31.4617H528.452V10.3594H531.089V31.4617Z" fill="white"/>
<path d="M535.91 10.3594L540.385 26.8788L544.833 10.3594H547.603L541.53 31.4617H539.239L533.14 10.3594H535.91Z" fill="white"/>
<path d="M447.241 64.7937V43.6914H452.755C456.484 43.6914 458.854 46.3292 458.854 53.1501V55.3616C458.854 62.1826 456.457 64.8203 452.755 64.8203H447.241V64.7937ZM456.217 55.335V53.1235C456.217 47.9012 455.152 46.0627 452.728 46.0627H449.852V62.3957H452.728C455.179 62.3957 456.217 60.5572 456.217 55.335Z" fill="white"/>
<path d="M470.759 64.7937L467.376 55.8945H464.1V64.7937H461.463V43.6914H466.897C470.812 43.6914 473.103 45.7164 473.103 49.7929C473.103 52.7505 471.931 54.6156 469.826 55.4149L473.529 64.7671H470.759V64.7937ZM466.897 53.5232C469.587 53.5232 470.466 52.4307 470.466 49.8196C470.466 47.2085 469.587 46.0894 466.897 46.0894H464.073V53.5232H466.897Z" fill="white"/>
<path d="M481.175 65.0331C477.392 65.0331 474.995 62.2088 474.995 55.4145V53.0964C474.995 46.2755 477.366 43.4512 481.175 43.4512C484.983 43.4512 487.354 46.2755 487.354 53.0964V55.4145C487.354 62.2354 484.957 65.0331 481.175 65.0331ZM477.632 55.4145C477.632 60.77 478.671 62.6617 481.175 62.6617C483.678 62.6617 484.717 60.77 484.717 55.4145V53.0964C484.717 47.7409 483.678 45.8492 481.175 45.8492C478.671 45.8492 477.632 47.7409 477.632 53.0964V55.4145Z" fill="white"/>
<path d="M492.601 56.7735V64.8201H489.964V43.7178H495.478C499.367 43.7178 501.631 46.169 501.631 50.2723C501.631 54.3755 499.393 56.7735 495.478 56.7735H492.601ZM495.478 54.3755C498.141 54.3755 498.994 52.8568 498.994 50.2456C498.994 47.6345 498.141 46.0891 495.478 46.0891H492.601V54.3755H495.478Z" fill="white"/>
<path d="M512.737 48.2474C511.911 46.8353 511.032 45.8228 509.008 45.8228C507.196 45.8228 506.131 47.0484 506.131 49.1267C506.131 51.4181 507.196 52.2974 509.807 53.0434C513.056 53.9493 515.054 55.6545 515.054 59.1183C515.054 61.8627 513.562 65.0067 509.274 65.0067C506.504 65.0067 504.48 63.8343 503.201 61.5429L505.279 60.1308C506.397 61.7561 507.356 62.6087 509.274 62.6087C511.911 62.6087 512.444 60.8235 512.444 59.2249C512.444 57.3864 511.858 56.1341 508.741 55.2815C505.598 54.4289 503.494 52.6171 503.494 49.1C503.494 46.1692 505.172 43.4248 509.061 43.4248C511.778 43.4248 513.482 44.5439 514.708 46.8886L512.71 48.2208L512.737 48.2474Z" fill="white"/>
<path d="M533.486 43.6914V46.0894H528.532V64.7937H525.895V46.0894H520.968V43.6914H533.46H533.486Z" fill="white"/>
<path d="M540.572 65.0331C536.789 65.0331 534.392 62.2088 534.392 55.4145V53.0964C534.392 46.2755 536.763 43.4512 540.572 43.4512C544.38 43.4512 546.751 46.2755 546.751 53.0964V55.4145C546.751 62.2354 544.354 65.0331 540.572 65.0331ZM537.029 55.4145C537.029 60.77 538.068 62.6617 540.572 62.6617C543.075 62.6617 544.114 60.77 544.114 55.4145V53.0964C544.114 47.7409 543.075 45.8492 540.572 45.8492C538.068 45.8492 537.029 47.7409 537.029 53.0964V55.4145Z" fill="white"/>
<path d="M553.236 52.7037C552.652 52.7037 552.127 52.5877 551.66 52.3556C551.192 52.1236 550.818 51.8055 550.536 51.4011C550.254 50.9967 550.1 50.536 550.074 50.019H551.267C551.313 50.4797 551.522 50.8609 551.893 51.1625C552.268 51.4608 552.715 51.6099 553.236 51.6099C553.653 51.6099 554.025 51.5121 554.349 51.3166C554.678 51.121 554.934 50.8526 555.12 50.5112C555.309 50.1665 555.403 49.777 555.403 49.3429C555.403 48.8987 555.306 48.5027 555.11 48.1547C554.918 47.8033 554.653 47.5266 554.315 47.3244C553.977 47.1222 553.59 47.0195 553.156 47.0162C552.845 47.0128 552.525 47.0609 552.197 47.1603C551.869 47.2565 551.598 47.3807 551.386 47.5332L550.233 47.394L550.849 42.3826H556.139V43.4764H551.884L551.526 46.4792H551.585C551.794 46.3135 552.056 46.176 552.371 46.0666C552.686 45.9572 553.014 45.9025 553.355 45.9025C553.978 45.9025 554.533 46.0517 555.021 46.35C555.511 46.6449 555.896 47.0493 556.174 47.563C556.456 48.0768 556.597 48.6634 556.597 49.323C556.597 49.9726 556.451 50.5526 556.159 51.063C555.871 51.5701 555.473 51.9712 554.966 52.2662C554.459 52.5578 553.882 52.7037 553.236 52.7037Z" fill="white"/>
<g clip-path="url(#clip0_668_1394)">
<path d="M222.891 117.423L222.812 135.923L164.817 135.775L133.781 113.042L133.679 98.2196L164.544 60.4484L132.181 38.6346C132.181 38.6346 137.039 20.0214 147.244 14.3126C158.959 7.76392 158.142 10.4424 158.142 10.4424C158.142 10.4424 164.294 6.74246 170.64 10.4424C176.985 14.1423 200.971 27.5348 200.971 27.5348C200.971 27.5348 207.158 13.6089 221.597 11.7476C232.676 10.3176 246.559 10.4424 246.559 10.4424C252.814 14.1196 269.036 21.9962 269.036 21.9962C269.036 21.9962 267.355 5.95935 274.734 4.05263C282.113 2.14591 280.024 2.63394 280.024 2.63394L298.436 12.1448L303.34 1.82812H315.157L345.874 24.2434L336.339 46.4317L351.017 57.1457C351.017 57.1457 355.228 59.2453 355.228 63.3992C355.228 67.5532 356.715 79.8674 351.323 83.783C345.931 87.6986 338.269 85.7691 338.269 85.7691L322.57 75.0211L317.564 85.5421L305.781 85.4627L291.898 75.4297C291.898 75.4297 290.694 75.634 287.868 78.914L285.041 82.194C285.041 82.194 299.39 91.739 297.982 107.015C296.574 122.292 290.91 137.364 264.098 137.421C252.996 137.443 246.151 133.732 246.151 133.732L241.304 130.861L222.869 117.412L222.891 117.423Z" stroke="#FDE9AA" stroke-miterlimit="10"/>
<path d="M190.607 113.099H132.816V98.2769L161.717 58.1904C166.406 51.6871 167.915 45.0363 167.915 38.5217C167.915 31.258 164.737 27.785 160.196 27.785C155.656 27.785 153.238 31.5644 152.636 38.5217H131C131 20.3738 144.769 7.21973 161.865 7.21973C178.96 7.21973 192.878 21.2818 192.878 38.3741C192.878 52.4362 184.103 64.0922 178.654 72.2524L165.645 92.2162H190.607V113.088V113.099Z" fill="#FDE9AA"/>
<path d="M198.02 84.2031C198.02 71.3441 204.683 62.8774 211.937 58.9391C204.831 54.5582 199.223 46.693 199.223 35.7974C199.223 16.1287 215.411 7.20801 231.905 7.20801C248.398 7.20801 264.586 16.1287 264.586 35.7974C264.586 46.693 258.989 54.5582 251.883 58.9391C259.148 62.8774 265.8 71.3441 265.8 84.2031C265.8 104.927 250.521 114.608 231.916 114.608C213.311 114.608 198.031 104.927 198.031 84.2031H198.02ZM240.838 81.1728C240.838 72.7061 236.445 68.6202 231.916 68.6202C227.387 68.6202 222.994 72.7061 222.994 81.1728C222.994 89.038 226.774 93.8842 231.916 93.8842C237.058 93.8842 240.838 89.0494 240.838 81.1728ZM231.916 28.0798C227.523 28.0798 224.356 32.1656 224.356 38.9753C224.356 45.785 227.534 50.1659 231.916 50.1659C236.298 50.1659 239.476 45.9326 239.476 38.9753C239.476 32.018 236.298 28.0798 231.916 28.0798Z" fill="#FDE9AA"/>
<path d="M265.176 19.6923V13.7792C265.176 5.22165 269.853 0.988281 277.436 0.988281C285.018 0.988281 289.695 5.22165 289.695 13.7792V19.6923C289.695 28.2498 285.2 32.6534 277.436 32.6534C269.671 32.6534 265.176 28.2498 265.176 19.6923ZM314.305 1.88489L285.382 62.7296H273.565L302.488 1.88489H314.305ZM278.854 20.7591V12.9961C278.854 10.4424 278.321 9.909 277.447 9.909C276.573 9.909 276.039 10.4424 276.039 12.9961V20.7591C276.039 23.3128 276.573 23.8462 277.447 23.8462C278.321 23.8462 278.854 23.3128 278.854 20.7591ZM298.527 50.6538V44.7407C298.527 36.1831 303.204 31.9498 310.787 31.9498C318.369 31.9498 323.046 36.1831 323.046 44.7407V50.6538C323.046 59.2113 318.551 63.6149 310.787 63.6149C303.022 63.6149 298.527 59.2113 298.527 50.6538ZM312.194 51.7093V43.9462C312.194 41.3926 311.661 40.8591 310.787 40.8591C309.912 40.8591 309.379 41.3926 309.379 43.9462V51.7093C309.379 54.2629 309.912 54.7963 310.787 54.7963C311.661 54.7963 312.194 54.2629 312.194 51.7093Z" fill="#FDE9AA"/>
</g>
<line x1="385" y1="3" x2="385" y2="136.982" stroke="#FF005A" stroke-width="2"/>
<path d="M587.709 113.8L603.293 82.9903L586.193 69.4408C586.193 69.4408 568.649 53.2112 574.029 33.9693C579.41 14.7274 589.442 7.23677 607.465 6.95043C625.489 6.6641 640.388 21.2902 640.388 21.2902C640.388 21.2902 639.203 3.9038 646.123 2.28885C653.042 0.673909 657.625 -1.52516 673.254 11.9671L678.191 1.56728L690.753 2.18577L721.123 24.3483L711.33 46.591L726.07 57.4032C726.07 57.4032 730.3 60.278 730.3 64.092C730.3 67.906 729.741 78.9129 729.331 79.9093C728.92 80.9058 724.668 90.0915 712.231 85.8995L697.81 75.6715L692.475 86.0598L680.186 85.7506L671.294 79.2335C671.294 79.2335 668.569 87.125 666.677 91.5003C664.784 95.8755 645.302 136.891 645.302 136.891L619.207 136.81L587.698 113.812L587.709 113.8Z" stroke="#FDE9AA" stroke-miterlimit="10"/>
<path d="M608.229 71.9718C605.037 73.3462 603.065 73.8043 599.417 73.8043C585.589 73.8043 573.437 60.5297 573.437 42.0552C573.437 16.4108 589.385 6.9502 607.465 6.9502C625.546 6.9502 641.654 16.4108 641.654 42.0552C641.654 50.7599 638.918 60.8275 632.237 75.1788L613.849 113.8H587.709L608.218 71.9718H608.229ZM607.465 28.0132C600.329 28.0132 598.653 33.3505 598.653 40.6808C598.653 48.011 600.329 53.3484 607.465 53.3484C614.602 53.3484 616.426 48.011 616.426 40.6808C616.426 33.3505 614.602 28.0132 607.465 28.0132Z" fill="#FDE9AA"/>
<path d="M640.719 19.5375V13.5702C640.719 4.93427 645.416 0.662109 653.031 0.662109C660.646 0.662109 665.343 4.93427 665.343 13.5702V19.5375C665.343 28.1734 660.828 32.6174 653.031 32.6174C645.233 32.6174 640.719 28.1734 640.719 19.5375ZM690.058 1.56694L660.999 62.9692H649.132L678.19 1.56694H690.058ZM654.456 20.6141V12.7799C654.456 10.2029 653.92 9.66457 653.042 9.66457C652.164 9.66457 651.628 10.2029 651.628 12.7799V20.6141C651.628 23.1912 652.164 23.7295 653.042 23.7295C653.92 23.7295 654.456 23.1912 654.456 20.6141ZM674.212 50.7827V44.8154C674.212 36.1795 678.908 31.9073 686.524 31.9073C694.139 31.9073 698.836 36.1795 698.836 44.8154V50.7827C698.836 59.4186 694.321 63.8626 686.524 63.8626C678.726 63.8626 674.212 59.4186 674.212 50.7827ZM687.937 51.8479V44.0137C687.937 41.4366 687.401 40.8983 686.524 40.8983C685.646 40.8983 685.11 41.4366 685.11 44.0137V51.8479C685.11 54.4249 685.646 54.9632 686.524 54.9632C687.401 54.9632 687.937 54.4249 687.937 51.8479Z" fill="#FDE9AA"/>
<path d="M34.7049 21.3466H32.2811V10.3691H40.9643V13.0069H34.7848V18.4157C35.3442 17.723 36.2232 17.1634 37.3951 17.1634C40.1386 17.1634 41.6834 19.8012 41.6834 24.8903C41.6834 29.26 39.9521 31.7112 36.676 31.7112C34.039 31.7112 32.0947 29.4198 31.9082 26.5156H34.4652C34.8115 28.3008 35.4507 29.3399 36.8091 29.3399C38.1675 29.3399 39.0465 28.2208 39.0465 24.9169C39.0465 21.613 38.4872 19.8012 36.7292 19.8012C35.6638 19.8012 35.1311 20.5473 34.7049 21.3732V21.3466Z" fill="white"/>
<path d="M42.7236 19.8281H49.1694V22.0409H42.7236V19.8281Z" fill="white"/>
<path d="M51.5411 10.3691L54.8971 19.2417L58.2798 10.3691H61.263L56.2023 22.4124V31.4714H53.5654V22.4124L48.5312 10.3691H51.5144H51.5411Z" fill="white"/>
<path d="M73.7279 10.3691V12.7671H66.0568V19.3749H72.9821V21.7463H66.0568V29.0734H73.7279V31.4714H63.4199V10.3691H73.7279Z" fill="white"/>
<path d="M75.1663 31.4714L81.0261 10.3691H83.3434L89.2298 31.4714H86.4864L85.2878 26.6488H79.0817L77.8831 31.4714H75.1396H75.1663ZM79.8808 24.2508H84.5153L82.1981 14.8454L79.8808 24.2508Z" fill="white"/>
<path d="M100.601 31.4714L97.2188 22.5722H93.9426V31.4714H91.3057V10.3691H96.7393C100.655 10.3691 102.945 12.3941 102.945 16.4707C102.945 19.4282 101.773 21.2933 99.6692 22.0926L103.372 31.4448H100.601V31.4714ZM96.7393 20.2009C99.4295 20.2009 100.308 19.1085 100.308 16.4973C100.308 13.8862 99.4295 12.7671 96.7393 12.7671H93.9159V20.2009H96.7393Z" fill="white"/>
<path d="M9.53551 44.9798C8.70981 43.5677 7.83084 42.5552 5.80654 42.5552C3.99533 42.5552 2.92991 43.7809 2.92991 45.8591C2.92991 48.1505 3.99533 49.0298 6.60561 49.7758C9.85514 50.6817 11.8528 52.387 11.8528 55.8507C11.8528 58.5951 10.3612 61.7391 6.0729 61.7391C3.3028 61.7391 1.2785 60.5668 0 58.2754L2.07757 56.8632C3.19626 58.4885 4.15514 59.3411 6.0729 59.3411C8.70981 59.3411 9.24252 57.556 9.24252 55.9573C9.24252 54.1188 8.65654 52.8666 5.54019 52.0139C2.3972 51.1613 0.292991 49.3495 0.292991 45.8325C0.292991 42.9016 1.97103 40.1572 5.85981 40.1572C8.57663 40.1572 10.2813 41.2763 11.5065 43.621L9.50888 44.9532L9.53551 44.9798Z" fill="white"/>
<path d="M26.6352 40.4238V52.92C26.6352 59.1548 24.2114 61.7659 20.4558 61.7659C16.7002 61.7659 14.2764 59.1548 14.2764 52.9733V40.4238H16.9133V52.9733C16.9133 57.716 18.032 59.3946 20.4558 59.3946C22.8796 59.3946 23.9983 57.716 23.9983 52.9733V40.4238H26.6352Z" fill="white"/>
<path d="M39.2343 61.5261L35.8516 52.6269H32.5754V61.5261H29.9385V40.4238H35.3721C39.2875 40.4238 41.5782 42.4488 41.5782 46.5254C41.5782 49.4829 40.4062 51.348 38.302 52.1473L42.0044 61.4995H39.2343V61.5261ZM35.3721 50.2556C38.0623 50.2556 38.9413 49.1632 38.9413 46.552C38.9413 43.9409 38.0623 42.8218 35.3721 42.8218H32.5488V50.2556H35.3721Z" fill="white"/>
<path d="M45.2008 40.4238L49.6755 56.9433L54.1237 40.4238H56.8937L50.8208 61.5261H48.5302L42.4307 40.4238H45.2008Z" fill="white"/>
<path d="M61.6604 61.5261H59.0234V40.4238H61.6604V61.5261Z" fill="white"/>
<path d="M66.5084 40.4238L70.9831 56.9433L75.4313 40.4238H78.2014L72.1285 61.5261H69.8378L63.7383 40.4238H66.5084Z" fill="white"/>
<path d="M76.9778 61.5261L82.8376 40.4238H85.1549L91.0414 61.5261H88.2979L87.0993 56.7035H80.8932L79.6946 61.5261H76.9512H76.9778ZM81.6923 54.3055H86.3269L84.0096 44.9001L81.6923 54.3055Z" fill="white"/>
<path d="M95.7277 59.1281H103.399V61.5261H93.0908V40.4238H95.7277V59.1281Z" fill="white"/>
<path d="M109.236 50.6792C108.652 50.6792 108.127 50.5632 107.66 50.3312C107.192 50.0992 106.818 49.781 106.536 49.3767C106.254 48.9723 106.1 48.5116 106.074 47.9946H107.267C107.313 48.4553 107.522 48.8364 107.893 49.1381C108.268 49.4363 108.715 49.5855 109.236 49.5855C109.653 49.5855 110.025 49.4877 110.349 49.2922C110.678 49.0966 110.934 48.8282 111.12 48.4868C111.309 48.1421 111.403 47.7526 111.403 47.3184C111.403 46.8743 111.306 46.4782 111.11 46.1302C110.918 45.7789 110.653 45.5022 110.315 45.3C109.977 45.0978 109.59 44.9951 109.156 44.9917C108.845 44.9884 108.525 45.0365 108.197 45.1359C107.869 45.232 107.598 45.3563 107.386 45.5088L106.233 45.3696L106.849 40.3582H112.139V41.452H107.884L107.526 44.4548H107.585C107.794 44.2891 108.056 44.1515 108.371 44.0422C108.686 43.9328 109.014 43.8781 109.355 43.8781C109.978 43.8781 110.533 44.0273 111.021 44.3256C111.511 44.6205 111.896 45.0249 112.174 45.5386C112.456 46.0523 112.597 46.639 112.597 47.2986C112.597 47.9482 112.451 48.5282 112.159 49.0386C111.871 49.5457 111.473 49.9468 110.966 50.2417C110.459 50.5334 109.882 50.6792 109.236 50.6792Z" fill="white"/>
<defs>
<clipPath id="clip0_668_1394">
<rect width="225" height="137" fill="white" transform="translate(131 1)"/>
</clipPath>
</defs>
</svg>
