<svg width="927" height="178" viewBox="0 0 927 178" fill="none" xmlns="http://www.w3.org/2000/svg">
<path d="M6.456 96.939L5.433 101H0.907L7.076 79.61H11.292L17.461 101H12.935L11.912 96.939H6.456ZM11.044 93.281L9.184 85.748L7.324 93.281H11.044ZM31.7123 86.244H27.5893C27.3723 84.229 26.7213 82.989 25.1713 82.989C23.2493 82.989 22.4433 84.694 22.4433 88.786V91.824C22.4433 95.792 23.2493 97.621 25.1713 97.621C26.7213 97.621 27.4963 96.443 27.6203 93.529H25.2333V89.871H31.7743V91.793C31.7743 97.962 29.8523 101.279 25.1713 101.279C20.9863 101.279 18.1033 98.365 18.1033 91.824V88.786C18.1033 82.183 20.9863 79.331 25.1713 79.331C28.6743 79.331 31.1233 81.563 31.7123 86.244ZM34.8273 79.61H46.1113V83.268H39.1673V88.104H45.3363V91.762H39.1673V97.342H46.1113V101H34.8273V79.61ZM54.3939 95.327C54.3939 92.506 55.8199 90.615 57.4009 89.127C56.4089 87.577 55.6959 86.089 55.6959 84.198C55.6959 81.253 57.8659 79.331 60.9039 79.331C64.1279 79.331 65.9879 81.377 65.9879 83.578C65.9879 85.965 64.1589 87.732 62.3299 89.375L65.1819 93.839C65.3369 93.002 65.3989 92.041 65.3989 91.018H69.3669C69.3669 93.219 68.8709 95.327 67.9719 97.063L70.9169 101H66.2669L65.4299 99.698C64.1899 100.69 62.6399 101.279 60.8729 101.279C56.7809 101.279 54.3939 98.52 54.3939 95.327ZM61.0589 97.621C61.8339 97.621 62.4849 97.342 63.0119 96.877L59.5709 91.762C58.9509 92.568 58.6099 93.343 58.6099 94.8C58.6099 95.978 59.2609 97.621 61.0589 97.621ZM59.7259 84.198C59.7259 85.128 60.0359 86.058 60.4699 86.864C61.5239 85.872 62.2059 84.973 62.2059 83.826C62.2059 83.02 61.7409 82.338 60.9659 82.338C60.2219 82.338 59.7259 82.927 59.7259 84.198ZM79.5714 79.61H90.8554V83.268H83.9114V88.6H90.0804V92.258H83.9114V101H79.5714V79.61ZM97.843 79.61V101H93.503V79.61H97.843ZM100.151 79.61H113.791V83.299H109.141V101H104.801V83.299H100.151V79.61ZM125.481 79.61H129.821V101H126.194L120.149 89.313V101H115.809V79.61H119.405L125.481 91.483V79.61ZM133.458 79.61H144.742V83.268H137.798V88.104H143.967V91.762H137.798V97.342H144.742V101H133.458V79.61ZM159.6 82.803L156.469 85.066C155.601 83.795 154.671 82.989 153.4 82.989C151.912 82.989 151.199 83.888 151.199 85.345C151.199 87.019 152.129 87.701 154.392 88.445C158.236 89.685 159.848 91.266 159.848 95.048C159.848 98.551 157.616 101.279 153.493 101.279C150.3 101.279 148.099 100.256 146.425 97.776L149.68 95.482C150.672 96.722 151.602 97.621 153.183 97.621C154.919 97.621 155.508 96.536 155.508 95.234C155.508 93.746 154.826 92.909 152.129 92.041C148.533 90.863 146.859 88.879 146.859 85.345C146.859 81.966 148.874 79.331 153.214 79.331C156.066 79.331 158.36 80.447 159.6 82.803ZM174.918 82.803L171.787 85.066C170.919 83.795 169.989 82.989 168.718 82.989C167.23 82.989 166.517 83.888 166.517 85.345C166.517 87.019 167.447 87.701 169.71 88.445C173.554 89.685 175.166 91.266 175.166 95.048C175.166 98.551 172.934 101.279 168.811 101.279C165.618 101.279 163.417 100.256 161.743 97.776L164.998 95.482C165.99 96.722 166.92 97.621 168.501 97.621C170.237 97.621 170.826 96.536 170.826 95.234C170.826 93.746 170.144 92.909 167.447 92.041C163.851 90.863 162.177 88.879 162.177 85.345C162.177 81.966 164.192 79.331 168.532 79.331C171.384 79.331 173.678 80.447 174.918 82.803ZM180.147 79.2568C181.877 79.2568 183.507 80.3152 183.507 82.432C183.507 83.5912 182.953 84.5152 182.18 84.9856C182.936 85.4056 183.658 86.464 183.658 87.7744C183.658 89.9416 182.062 91.1512 180.147 91.1512C178.232 91.1512 176.636 89.9416 176.636 87.7744C176.636 86.464 177.358 85.4056 178.114 84.9856C177.341 84.5152 176.787 83.5912 176.787 82.432C176.787 80.3152 178.417 79.2568 180.147 79.2568ZM180.147 89.1856C180.853 89.1856 181.306 88.48 181.306 87.556C181.306 86.5144 180.752 85.9432 180.147 85.9432C179.542 85.9432 178.988 86.5144 178.988 87.556C178.988 88.48 179.441 89.1856 180.147 89.1856ZM180.147 81.2392C179.509 81.2392 179.105 81.8776 179.105 82.6672C179.105 83.4736 179.509 84.1288 180.147 84.1288C180.785 84.1288 181.189 83.4736 181.189 82.6672C181.189 81.8776 180.785 81.2392 180.147 81.2392ZM187.8 88.3792V91.7728L185.515 93.7216V88.3792H187.8ZM194.676 79.408V91H192.324V82.012L190.946 83.104V80.6848L192.593 79.408H194.676ZM203.203 79.408V91H200.851V82.012L199.473 83.104V80.6848L201.119 79.408H203.203Z" fill="#FDE9AA"/>
<line x1="240" y1="18.001" x2="240" y2="164.001" stroke="#FF005A" stroke-width="2"/>
<path d="M391.811 140.501H393.611V138.791H394.385V140.501H396.185V141.203H394.385V144.299H396.185V145.001H394.385V146.711H393.611V145.001H391.811V144.299H393.611V141.203H391.811V140.501Z" fill="white"/>
<path d="M296.505 141.194V142.699H291.653V146.87H296.032V148.375H291.653V153.018H296.505V154.523H290V141.173H296.505V141.194Z" fill="white"/>
<path d="M303.825 145.365C303.439 143.28 302.752 142.549 301.528 142.549C299.982 142.549 299.296 143.753 299.296 147.128V148.59C299.296 151.965 299.961 153.169 301.528 153.169C302.838 153.169 303.46 152.309 303.825 150.353H305.371C305.049 153.362 303.653 154.674 301.528 154.674C299.124 154.674 297.621 152.889 297.621 148.568V147.106C297.621 142.785 299.124 141.001 301.528 141.001C303.739 141.001 305.049 142.398 305.392 145.322H303.825V145.365Z" fill="white"/>
<path d="M310.502 154.717C308.097 154.717 306.595 152.932 306.595 148.611V147.149C306.595 142.828 308.097 141.044 310.502 141.044C312.906 141.044 314.409 142.828 314.409 147.149V148.611C314.409 152.932 312.906 154.717 310.502 154.717ZM308.269 148.611C308.269 152.008 308.935 153.19 310.502 153.19C312.069 153.19 312.734 151.986 312.734 148.611V147.149C312.734 143.753 312.069 142.57 310.502 142.57C308.935 142.57 308.269 143.774 308.269 147.149V148.611Z" fill="white"/>
<path d="M323.661 147.837V148.611C323.661 152.932 322.094 154.717 319.711 154.717C317.328 154.717 315.804 152.932 315.804 148.611V147.149C315.804 142.828 317.306 141.044 319.711 141.044C321.879 141.044 323.231 142.42 323.575 145.365H322.008C321.664 143.366 320.999 142.549 319.711 142.549C318.144 142.549 317.478 143.753 317.478 147.128V148.59C317.478 151.986 318.144 153.169 319.711 153.169C321.106 153.169 321.943 152.115 321.986 149.321H319.732V147.816H323.661V147.837Z" fill="white"/>
<path d="M334.287 154.545H327.954V153.147L331.518 147.708C332.269 146.547 332.677 145.623 332.677 144.527C332.677 143.215 332.14 142.506 331.217 142.506C330.294 142.506 329.757 143.215 329.714 144.591H328.126C328.126 142.377 329.543 141.001 331.239 141.001C333.063 141.001 334.33 142.377 334.33 144.505C334.33 146.246 333.471 147.536 332.849 148.547L330.036 152.997H334.308V154.502L334.287 154.545Z" fill="white"/>
<path d="M344.592 144.075C344.077 143.194 343.519 142.549 342.23 142.549C341.093 142.549 340.406 143.323 340.406 144.634C340.406 146.074 341.071 146.655 342.724 147.106C344.764 147.687 346.052 148.762 346.052 150.955C346.052 152.696 345.107 154.695 342.402 154.695C340.642 154.695 339.375 153.964 338.56 152.502L339.869 151.621C340.577 152.653 341.179 153.19 342.402 153.19C344.055 153.19 344.42 152.072 344.42 151.041C344.42 149.88 344.055 149.084 342.08 148.547C340.084 148.009 338.753 146.87 338.753 144.634C338.753 142.785 339.826 141.044 342.273 141.044C343.991 141.044 345.086 141.753 345.858 143.237L344.592 144.097V144.075Z" fill="white"/>
<path d="M354.832 141.194V142.699H351.697V154.545H350.044V142.699H346.932V141.194H354.832Z" fill="white"/>
<path d="M354.037 154.545L357.751 141.194H359.211L362.946 154.545H361.207L360.456 151.492H356.527L355.776 154.545H354.037ZM357.021 149.987H359.962L358.502 144.032L357.043 149.987H357.021Z" fill="white"/>
<path d="M370.094 141.194V142.699H366.96V154.545H365.307V142.699H362.194V141.194H370.094Z" fill="white"/>
<path d="M379.197 141.194V149.106C379.197 153.061 377.673 154.695 375.29 154.695C372.907 154.695 371.383 153.04 371.383 149.127V141.194H373.036V149.127C373.036 152.137 373.744 153.19 375.268 153.19C376.793 153.19 377.501 152.115 377.501 149.127V141.194H379.154H379.197Z" fill="white"/>
<path d="M386.796 144.075C386.281 143.194 385.723 142.549 384.435 142.549C383.297 142.549 382.61 143.323 382.61 144.634C382.61 146.074 383.275 146.655 384.928 147.106C386.968 147.687 388.256 148.762 388.256 150.955C388.256 152.696 387.311 154.695 384.606 154.695C382.846 154.695 381.579 153.964 380.764 152.502L382.073 151.621C382.782 152.653 383.383 153.19 384.606 153.19C386.259 153.19 386.624 152.072 386.624 151.041C386.624 149.88 386.259 149.084 384.284 148.547C382.288 148.009 380.957 146.87 380.957 144.634C380.957 142.785 382.03 141.044 384.478 141.044C386.195 141.044 387.29 141.753 388.063 143.237L386.796 144.097V144.075Z" fill="white"/>
<path d="M308 130.001L311.752 117.001H313.237L317 129.991H315.243L314.484 127.02H310.516L309.757 129.991H308V130.001ZM311.004 125.556H313.975L312.489 119.752L311.004 125.556Z" fill="white"/>
<path d="M325 123.465V124.202C325 128.303 323.602 130.001 321.486 130.001C319.369 130.001 318 128.303 318 124.202V122.8C318 118.699 319.341 117.001 321.486 117.001C323.42 117.001 324.627 118.31 324.933 121.102H323.535C323.228 119.21 322.635 118.433 321.486 118.433C320.088 118.433 319.484 119.578 319.484 122.8V124.202C319.484 127.423 320.088 128.569 321.486 128.569C322.731 128.569 323.468 127.577 323.516 124.907H321.495V123.475H324.99L325 123.465Z" fill="white"/>
<path d="M333 117.001V118.468H328.532V122.542H332.575V124.009H328.532V128.534H333V130.001H327V117.001H333Z" fill="white"/>
<path d="M338 130.001L341.752 117.001H343.237L347 129.991H345.243L344.484 127.02H340.516L339.757 129.991H338V130.001ZM341.004 125.556H343.975L342.489 119.752L341.004 125.556Z" fill="white"/>
<path d="M353.99 117.001V130.001H352.514L348.589 120.989V130.001H347V117.001H348.425L352.411 126.107V117.001H354H353.99Z" fill="white"/>
<path d="M357 130.001V117.001H360.316C362.567 117.001 364 118.622 364 122.816V124.176C364 128.369 362.567 129.991 360.316 129.991H357V130.001ZM362.414 124.186V122.826C362.414 119.605 361.769 118.476 360.316 118.476H358.586V128.537H360.316C361.789 128.537 362.414 127.407 362.414 124.186Z" fill="white"/>
<path d="M497.825 120.406C497.439 118.321 496.752 117.59 495.528 117.59C493.982 117.59 493.296 118.794 493.296 122.169V123.631C493.296 127.006 493.961 128.21 495.528 128.21C496.838 128.21 497.46 127.35 497.825 125.394H499.371C499.049 128.403 497.653 129.715 495.528 129.715C493.124 129.715 491.621 127.93 491.621 123.609V122.147C491.621 117.826 493.124 116.042 495.528 116.042C497.739 116.042 499.049 117.439 499.392 120.363H497.825V120.406Z" fill="white"/>
<path d="M508.73 116.235V124.147C508.73 128.102 507.206 129.736 504.823 129.736C502.44 129.736 500.916 128.081 500.916 124.168V116.235H502.569V124.168C502.569 127.178 503.277 128.231 504.802 128.231C506.326 128.231 507.034 127.156 507.034 124.168V116.235H508.687H508.73Z" fill="white"/>
<path d="M515.557 124.319L518.498 116.257H520.172V129.607H518.519V120.642L516.222 126.812H514.848L512.616 120.642V129.607H510.963V116.257H512.616L515.578 124.319H515.557Z" fill="white"/>
<path d="M530.198 116.235V124.147C530.198 128.102 528.674 129.736 526.291 129.736C523.908 129.736 522.384 128.081 522.384 124.168V116.235H524.037V124.168C524.037 127.178 524.745 128.231 526.269 128.231C527.794 128.231 528.502 127.156 528.502 124.168V116.235H530.155H530.198Z" fill="white"/>
<path d="M534.084 128.081H538.935V129.586H532.431V116.235H534.084V128.081Z" fill="white"/>
<path d="M539.579 129.586L543.293 116.235H544.753L548.488 129.586H546.749L545.998 126.533H542.069L541.318 129.586H539.579ZM542.563 125.028H545.504L544.044 119.073L542.585 125.028H542.563Z" fill="white"/>
<path d="M555.615 116.235V117.74H552.481V129.586H550.828V117.74H547.715V116.235H555.615Z" fill="white"/>
<path d="M558.685 129.586H557.032V116.235H558.685V129.586Z" fill="white"/>
<path d="M561.883 116.235L564.696 126.683L567.508 116.235H569.268L565.425 129.586H563.966L560.102 116.235H561.862H561.883Z" fill="white"/>
<path d="M577.169 116.235V117.74H572.317V121.911H576.696V123.416H572.317V128.059H577.169V129.564H570.664V116.214H577.169V116.235Z" fill="white"/>
<path d="M588.675 116.235V117.74H585.541V129.586H583.888V117.74H580.775V116.235H588.675Z" fill="white"/>
<path d="M593.269 129.758C590.865 129.758 589.362 127.973 589.362 123.652V122.19C589.362 117.869 590.865 116.085 593.269 116.085C595.674 116.085 597.176 117.869 597.176 122.19V123.652C597.176 127.973 595.674 129.758 593.269 129.758ZM591.037 123.652C591.037 127.049 591.702 128.231 593.269 128.231C594.836 128.231 595.502 127.027 595.502 123.652V122.19C595.502 118.794 594.836 117.611 593.269 117.611C591.702 117.611 591.037 118.815 591.037 122.19V123.652Z" fill="white"/>
<path d="M597.691 129.586L600.74 122.685L598.035 116.214H599.838L601.684 121.115L603.552 116.214H605.355L602.629 122.685L605.699 129.586H603.895L601.663 124.405L599.452 129.586H597.648H597.691Z" fill="white"/>
<path d="M608.897 129.586H607.244V116.235H608.897V129.586Z" fill="white"/>
<path d="M617.012 120.406C616.625 118.321 615.938 117.59 614.715 117.59C613.169 117.59 612.482 118.794 612.482 122.169V123.631C612.482 127.006 613.169 128.21 614.715 128.21C616.024 128.21 616.647 127.35 617.012 125.394H618.557C618.235 128.403 616.84 129.715 614.715 129.715C612.31 129.715 610.808 127.93 610.808 123.609V122.147C610.808 117.826 612.31 116.042 614.715 116.042C616.926 116.042 618.235 117.439 618.579 120.363H617.012V120.406Z" fill="white"/>
<path d="M621.821 129.586H620.168V116.235H621.821V129.586Z" fill="white"/>
<path d="M631.116 116.235V117.74H627.982V129.586H626.329V117.74H623.216V116.235H631.116Z" fill="white"/>
<path d="M634.185 129.586H632.532V116.235H634.185V129.586Z" fill="white"/>
<path d="M643.008 116.235V117.74H638.156V121.911H642.535V123.416H638.156V128.059H643.008V129.564H636.503V116.214H643.008V116.235Z" fill="white"/>
<path d="M650.222 119.116C649.707 118.235 649.148 117.59 647.86 117.59C646.723 117.59 646.036 118.364 646.036 119.675C646.036 121.115 646.701 121.696 648.354 122.147C650.393 122.728 651.682 123.803 651.682 125.996C651.682 127.737 650.737 129.736 648.032 129.736C646.272 129.736 645.005 129.005 644.189 127.543L645.499 126.662C646.207 127.694 646.808 128.231 648.032 128.231C649.685 128.231 650.05 127.113 650.05 126.082C650.05 124.921 649.685 124.125 647.71 123.588C645.714 123.05 644.383 121.911 644.383 119.675C644.383 117.826 645.456 116.085 647.903 116.085C649.621 116.085 650.694 116.794 651.488 118.278L650.243 119.138L650.222 119.116Z" fill="white"/>
<path d="M513.711 139.883V141.388H508.859V145.881H513.238V147.386H508.859V153.233H507.206V139.883H513.711Z" fill="white"/>
<path d="M521.117 153.233L518.971 147.601H516.91V153.233H515.257V139.883H518.692C521.16 139.883 522.62 141.151 522.62 143.752C522.62 145.623 521.89 146.805 520.559 147.321L522.899 153.233H521.139H521.117ZM518.692 146.096C520.388 146.096 520.946 145.408 520.946 143.752C520.946 142.097 520.388 141.388 518.692 141.388H516.91V146.096H518.692Z" fill="white"/>
<path d="M527.858 153.384C525.454 153.384 523.951 151.599 523.951 147.278V145.816C523.951 141.495 525.454 139.711 527.858 139.711C530.263 139.711 531.765 141.495 531.765 145.816V147.278C531.765 151.599 530.263 153.384 527.858 153.384ZM525.626 147.278C525.626 150.675 526.291 151.857 527.858 151.857C529.425 151.857 530.091 150.653 530.091 147.278V145.816C530.091 142.42 529.425 141.237 527.858 141.237C526.291 141.237 525.626 142.441 525.626 145.816V147.278Z" fill="white"/>
<path d="M538.184 147.945L541.125 139.883H542.799V153.233H541.146V144.268L538.849 150.438H537.475L535.243 144.268V153.233H533.59V139.883H535.243L538.205 147.945H538.184Z" fill="white"/>
<path d="M551.665 139.883C554.177 139.883 555.422 141.065 555.422 143.279C555.422 144.677 554.692 145.945 553.662 146.268C554.993 146.569 555.766 147.708 555.766 149.406C555.766 151.341 554.778 153.233 551.987 153.233H548.359V139.883H551.665ZM550.012 145.558H551.859C553.254 145.558 553.726 144.612 553.726 143.301C553.726 142.119 553.383 141.388 551.644 141.388H549.991V145.558H550.012ZM550.012 151.728H551.987C553.49 151.728 554.091 150.847 554.091 149.406C554.091 147.794 553.404 147.063 551.751 147.063H550.012V151.728Z" fill="white"/>
<path d="M559.178 153.233H557.525V139.883H559.178V153.233Z" fill="white"/>
<path d="M564.997 153.384C562.593 153.384 561.09 151.599 561.09 147.278V145.816C561.09 141.495 562.593 139.711 564.997 139.711C567.401 139.711 568.904 141.495 568.904 145.816V147.278C568.904 151.599 567.401 153.384 564.997 153.384ZM562.764 147.278C562.764 150.675 563.43 151.857 564.997 151.857C566.564 151.857 567.23 150.653 567.23 147.278V145.816C567.23 142.42 566.564 141.237 564.997 141.237C563.43 141.237 562.764 142.441 562.764 145.816V147.278Z" fill="white"/>
<path d="M576.503 144.032C576.116 141.947 575.43 141.216 574.206 141.216C572.66 141.216 571.973 142.42 571.973 145.795V147.257C571.973 150.632 572.639 151.836 574.206 151.836C575.515 151.836 576.138 150.976 576.503 149.02H578.049C577.726 152.029 576.331 153.341 574.206 153.341C571.802 153.341 570.299 151.556 570.299 147.235V145.773C570.299 141.452 571.802 139.668 574.206 139.668C576.417 139.668 577.727 141.065 578.07 143.989H576.503V144.032Z" fill="white"/>
<path d="M581.247 145.58H585.24V139.883H586.893V153.233H585.24V147.085H581.247V153.233H579.594V139.883H581.247V145.58Z" fill="white"/>
<path d="M595.652 139.883V141.388H590.8V145.558H595.18V147.063H590.8V151.707H595.652V153.212H589.147V139.861H595.652V139.883Z" fill="white"/>
<path d="M601.856 147.945L604.797 139.883H606.471V153.233H604.818V144.268L602.521 150.438H601.147L598.915 144.268V153.233H597.262V139.883H598.915L601.877 147.945H601.856Z" fill="white"/>
<path d="M610.443 153.233H608.79V139.883H610.443V153.233Z" fill="white"/>
<path d="M618.558 144.032C618.171 141.947 617.484 141.216 616.261 141.216C614.715 141.216 614.028 142.42 614.028 145.795V147.257C614.028 150.632 614.693 151.836 616.261 151.836C617.57 151.836 618.193 150.976 618.558 149.02H620.103C619.781 152.029 618.386 153.341 616.261 153.341C613.856 153.341 612.354 151.556 612.354 147.235V145.773C612.354 141.452 613.856 139.668 616.261 139.668C618.472 139.668 619.781 141.065 620.125 143.989H618.558V144.032Z" fill="white"/>
<path d="M620.597 153.233L624.311 139.883H625.77L629.506 153.233H627.767L627.015 150.18H623.087L622.336 153.233H620.597ZM623.581 148.675H626.522L625.062 142.721L623.602 148.675H623.581Z" fill="white"/>
<path d="M632.533 151.728H637.385V153.233H630.88V139.883H632.533V151.728Z" fill="white"/>
<path d="M503.815 166.412C503.299 165.531 502.741 164.886 501.453 164.886C500.315 164.886 499.628 165.66 499.628 166.971C499.628 168.411 500.294 168.992 501.947 169.443C503.986 170.024 505.274 171.099 505.274 173.291C505.274 175.033 504.33 177.032 501.625 177.032C499.865 177.032 498.598 176.301 497.782 174.839L499.092 173.958C499.8 174.99 500.401 175.527 501.625 175.527C503.278 175.527 503.643 174.409 503.643 173.377C503.643 172.217 503.278 171.421 501.303 170.884C499.306 170.346 497.975 169.207 497.975 166.971C497.975 165.122 499.049 163.381 501.496 163.381C503.213 163.381 504.308 164.09 505.081 165.574L503.815 166.434V166.412Z" fill="white"/>
<path d="M507.915 163.531L510.04 169.142L512.187 163.531H514.076L510.877 171.163V176.903H509.224V171.163L506.025 163.531H507.915Z" fill="white"/>
<path d="M520.709 166.412C520.194 165.531 519.636 164.886 518.348 164.886C517.21 164.886 516.523 165.66 516.523 166.971C516.523 168.411 517.188 168.992 518.841 169.443C520.881 170.024 522.169 171.099 522.169 173.291C522.169 175.033 521.224 177.032 518.519 177.032C516.759 177.032 515.493 176.301 514.677 174.839L515.986 173.958C516.695 174.99 517.296 175.527 518.519 175.527C520.172 175.527 520.537 174.409 520.537 173.377C520.537 172.217 520.172 171.421 518.197 170.884C516.201 170.346 514.87 169.207 514.87 166.971C514.87 165.122 515.943 163.381 518.391 163.381C520.108 163.381 521.203 164.09 521.976 165.574L520.709 166.434V166.412Z" fill="white"/>
<path d="M530.927 163.531V165.036H527.793V176.881H526.14V165.036H523.027V163.531H530.927Z" fill="white"/>
<path d="M538.742 163.531V165.036H533.89V169.207H538.27V170.712H533.89V175.355H538.742V176.86H532.237V163.51H538.742V163.531Z" fill="white"/>
<path d="M544.946 171.614L547.887 163.553H549.561V176.903H547.908V167.938L545.611 174.108H544.237L542.005 167.938V176.903H540.352V163.553H542.005L544.967 171.614H544.946Z" fill="white"/>
<path d="M553.554 176.881H551.901V163.531H553.554V176.881Z" fill="white"/>
<path d="M561.669 167.702C561.282 165.617 560.596 164.886 559.372 164.886C557.826 164.886 557.139 166.09 557.139 169.465V170.927C557.139 174.302 557.805 175.506 559.372 175.506C560.681 175.506 561.304 174.646 561.669 172.69H563.215C562.893 175.699 561.497 177.011 559.372 177.011C556.968 177.011 555.465 175.226 555.465 170.905V169.443C555.465 165.122 556.968 163.338 559.372 163.338C561.583 163.338 562.893 164.735 563.236 167.659H561.669V167.702Z" fill="white"/>
<path d="M574.592 163.531V165.036H571.458V176.881H569.805V165.036H566.692V163.531H574.592Z" fill="white"/>
<path d="M581.784 176.881L579.638 171.249H577.577V176.881H575.924V163.531H579.359C581.827 163.531 583.287 164.8 583.287 167.401C583.287 169.271 582.557 170.454 581.226 170.97L583.566 176.881H581.806H581.784ZM579.359 169.744C581.054 169.744 581.613 169.056 581.613 167.401C581.613 165.746 581.054 165.036 579.359 165.036H577.577V169.744H579.359Z" fill="white"/>
<path d="M591.573 163.531V165.036H586.721V169.207H591.101V170.712H586.721V175.355H591.573V176.86H585.068V163.51H591.573V163.531Z" fill="white"/>
<path d="M592.561 176.881L596.274 163.531H597.734L601.469 176.881H599.731L598.979 173.829H595.051L594.299 176.881H592.561ZM595.545 172.324H598.486L597.026 166.369L595.566 172.324H595.545Z" fill="white"/>
<path d="M608.596 163.531V165.036H605.462V176.881H603.809V165.036H600.696V163.531H608.596Z" fill="white"/>
<path d="M614.522 171.614L617.463 163.553H619.137V176.903H617.484V167.938L615.187 174.108H613.813L611.581 167.938V176.903H609.928V163.553H611.581L614.543 171.614H614.522Z" fill="white"/>
<path d="M627.895 163.531V165.036H623.044V169.207H627.423V170.712H623.044V175.355H627.895V176.86H621.391V163.51H627.895V163.531Z" fill="white"/>
<path d="M636.805 163.531V176.881H635.259L631.137 167.637V176.881H629.484V163.531H630.966L635.13 172.883V163.531H636.783H636.805Z" fill="white"/>
<path d="M646.036 163.531V165.036H642.901V176.881H641.248V165.036H638.136V163.531H646.036Z" fill="white"/>
<path d="M809.907 154.41C807.503 154.41 806 152.626 806 148.305V146.843C806 142.522 807.503 140.737 809.907 140.737C812.311 140.737 813.814 142.522 813.814 146.843V148.305C813.814 152.626 812.311 154.41 809.907 154.41ZM807.674 148.305C807.674 151.701 808.34 152.884 809.907 152.884C811.474 152.884 812.14 151.68 812.14 148.305V146.843C812.14 143.446 811.474 142.264 809.907 142.264C808.34 142.264 807.674 143.468 807.674 146.843V148.305Z" fill="white"/>
<path d="M823.411 140.888V148.799C823.411 152.755 821.887 154.388 819.504 154.388C817.121 154.388 815.597 152.733 815.597 148.82V140.888H817.25V148.82C817.25 151.83 817.958 152.884 819.482 152.884C821.006 152.884 821.715 151.809 821.715 148.82V140.888H823.368H823.411Z" fill="white"/>
<path d="M832.641 140.888V142.393H829.507V154.238H827.854V142.393H824.741V140.888H832.641Z" fill="white"/>
<path d="M839.532 145.058C839.146 142.973 838.459 142.242 837.235 142.242C835.69 142.242 835.003 143.446 835.003 146.821V148.283C835.003 151.658 835.69 152.862 837.235 152.862C838.545 152.862 839.167 152.002 839.532 150.046H841.078C840.756 153.056 839.36 154.367 837.235 154.367C834.831 154.367 833.328 152.583 833.328 148.262V146.8C833.328 142.479 834.831 140.694 837.235 140.694C839.446 140.694 840.756 142.092 841.099 145.015H839.532V145.058Z" fill="white"/>
<path d="M846.23 154.41C843.826 154.41 842.323 152.626 842.323 148.305V146.843C842.323 142.522 843.826 140.737 846.23 140.737C848.635 140.737 850.137 142.522 850.137 146.843V148.305C850.137 152.626 848.635 154.41 846.23 154.41ZM843.998 148.305C843.998 151.701 844.663 152.884 846.23 152.884C847.797 152.884 848.463 151.68 848.463 148.305V146.843C848.463 143.446 847.797 142.264 846.23 142.264C844.663 142.264 843.998 143.468 843.998 146.843V148.305Z" fill="white"/>
<path d="M856.577 148.971L859.518 140.909H861.193V154.259H859.54V145.295L857.243 151.465H855.869L853.636 145.295V154.259H851.983V140.909H853.636L856.599 148.971H856.577Z" fill="white"/>
<path d="M869.952 140.888V142.393H865.1V146.563H869.48V148.068H865.1V152.712H869.952V154.216H863.447V140.866H869.952V140.888Z" fill="white"/>
<path d="M877.165 143.769C876.65 142.887 876.092 142.242 874.804 142.242C873.666 142.242 872.979 143.016 872.979 144.327C872.979 145.768 873.644 146.348 875.297 146.8C877.337 147.38 878.625 148.455 878.625 150.648C878.625 152.389 877.68 154.389 874.975 154.389C873.215 154.389 871.949 153.658 871.133 152.196L872.442 151.314C873.151 152.346 873.752 152.884 874.975 152.884C876.628 152.884 876.993 151.766 876.993 150.734C876.993 149.573 876.628 148.778 874.653 148.24C872.657 147.703 871.326 146.563 871.326 144.327C871.326 142.479 872.399 140.737 874.847 140.737C876.564 140.737 877.637 141.447 878.432 142.93L877.187 143.79L877.165 143.769Z" fill="white"/>
<path d="M782.653 124.512V129.607H781V116.257H784.478C786.925 116.257 788.363 117.805 788.363 120.406C788.363 123.007 786.946 124.534 784.478 124.534H782.653V124.512ZM784.478 123.007C786.152 123.007 786.71 122.04 786.71 120.406C786.71 118.772 786.174 117.783 784.478 117.783H782.653V123.029H784.478V123.007Z" fill="white"/>
<path d="M793.494 129.758C791.09 129.758 789.587 127.973 789.587 123.652V122.19C789.587 117.869 791.09 116.085 793.494 116.085C795.898 116.085 797.401 117.869 797.401 122.19V123.652C797.401 127.973 795.898 129.758 793.494 129.758ZM791.261 123.652C791.261 127.049 791.927 128.231 793.494 128.231C795.061 128.231 795.727 127.027 795.727 123.652V122.19C795.727 118.794 795.061 117.611 793.494 117.611C791.927 117.611 791.261 118.815 791.261 122.19V123.652Z" fill="white"/>
<path d="M802.725 129.758C800.321 129.758 798.818 127.973 798.818 123.652V122.19C798.818 117.869 800.321 116.085 802.725 116.085C805.13 116.085 806.632 117.869 806.632 122.19V123.652C806.632 127.973 805.13 129.758 802.725 129.758ZM800.493 123.652C800.493 127.049 801.158 128.231 802.725 128.231C804.293 128.231 804.958 127.027 804.958 123.652V122.19C804.958 118.794 804.293 117.611 802.725 117.611C801.158 117.611 800.493 118.815 800.493 122.19V123.652Z" fill="white"/>
<path d="M814.339 129.586L812.192 123.953H810.131V129.586H808.479V116.235H811.913C814.382 116.235 815.842 117.504 815.842 120.105C815.842 121.975 815.112 123.158 813.781 123.674L816.121 129.586H814.361H814.339ZM811.913 122.448C813.609 122.448 814.167 121.76 814.167 120.105C814.167 118.45 813.609 117.74 811.913 117.74H810.131V122.448H811.913Z" fill="white"/>
<path d="M824.129 116.235V117.74H819.277V121.911H823.656V123.416H819.277V128.059H824.129V129.564H817.624V116.214H824.129V116.235Z" fill="white"/>
<path d="M831.599 129.586L829.452 123.953H827.391V129.586H825.738V116.235H829.173C831.642 116.235 833.102 117.504 833.102 120.105C833.102 121.975 832.372 123.158 831.041 123.674L833.381 129.586H831.62H831.599ZM829.173 122.448C830.869 122.448 831.427 121.76 831.427 120.105C831.427 118.45 830.869 117.74 829.173 117.74H827.391V122.448H829.173Z" fill="white"/>
<path d="M846.943 119.108C846.432 118.234 845.888 117.607 844.635 117.607C843.514 117.607 842.855 118.366 842.855 119.652C842.855 121.071 843.514 121.615 845.13 122.077C847.141 122.637 848.377 123.693 848.377 125.837C848.377 127.535 847.454 129.481 844.8 129.481C843.085 129.481 841.832 128.756 841.041 127.337L842.327 126.463C843.019 127.469 843.613 127.997 844.8 127.997C846.432 127.997 846.762 126.892 846.762 125.903C846.762 124.765 846.399 123.99 844.47 123.462C842.525 122.934 841.222 121.813 841.222 119.636C841.222 117.822 842.261 116.123 844.668 116.123C846.35 116.123 847.405 116.816 848.163 118.267L846.927 119.092L846.943 119.108Z" fill="white"/>
<path d="M857.528 116.288V124.023C857.528 127.882 856.027 129.498 853.703 129.498C851.378 129.498 849.878 127.882 849.878 124.056V116.288H851.51V124.056C851.51 126.991 852.203 128.03 853.703 128.03C855.203 128.03 855.895 126.991 855.895 124.056V116.288H857.528Z" fill="white"/>
<path d="M865.326 129.35L863.232 123.841H861.204V129.35H859.572V116.288H862.935C865.359 116.288 866.777 117.541 866.777 120.065C866.777 121.895 866.051 123.05 864.749 123.544L867.041 129.333H865.326V129.35ZM862.935 122.374C864.601 122.374 865.145 121.697 865.145 120.081C865.145 118.465 864.601 117.772 862.935 117.772H861.188V122.374H862.935Z" fill="white"/>
<path d="M869.019 116.288L871.789 126.513L874.542 116.288H876.257L872.498 129.35H871.08L867.305 116.288H869.019Z" fill="white"/>
<path d="M879.206 129.35H877.574V116.288H879.206V129.35Z" fill="white"/>
<path d="M882.207 116.288L884.976 126.513L887.73 116.288H889.444L885.685 129.35H884.268L880.492 116.288H882.207Z" fill="white"/>
<path d="M888.687 129.35L892.314 116.288H893.749L897.392 129.35H895.694L894.952 126.365H891.111L890.369 129.35H888.671H888.687ZM891.605 124.88H894.474L893.04 119.059L891.605 124.88Z" fill="white"/>
<path d="M900.293 127.865H905.041V129.35H898.661V116.288H900.293V127.865Z" fill="white"/>
<path d="M351.204 11.2397C351.204 6.57466 347.254 2.79102 342.359 2.79102C337.465 2.79102 333.515 6.57466 333.515 11.2397C333.515 15.9048 337.465 19.6884 342.359 19.6884C347.254 19.6884 351.204 15.9048 351.204 11.2397Z" fill="#FFEFAE"/>
<path d="M363.526 47.1844L353.243 42.5194C351.161 41.5735 349.615 39.8106 349.014 37.7038C347.64 32.9313 344.806 24.5256 341.307 23.2787C336.134 21.4299 330.273 23.5367 326.044 26.9334C322.781 29.5561 319.067 32.5443 316.749 34.4147C315.31 35.5755 314.366 37.2309 314.13 39.0152C313.55 43.4868 312.498 51.5055 312.305 52.9244C312.047 54.9237 313.507 56.7295 315.589 56.966C317.672 57.224 319.561 55.8051 319.818 53.8273L321.214 43.1428C321.45 41.3585 322.394 39.7032 323.833 38.5423L329.2 34.2427C325.658 50.1727 326.409 46.7975 325.443 51.1401C325.98 51.9355 349.615 87.6436 350.13 88.439C351.676 90.7608 354.875 91.4487 357.3 89.9869C359.726 88.525 360.456 85.4508 358.91 83.129L339.289 53.5048L342.08 40.95L343.475 43.8308C344.248 45.4431 345.601 46.733 347.254 47.4854L360.435 53.4618C362.238 54.2788 364.385 53.5478 365.243 51.828C366.102 50.1082 365.329 48.0444 363.526 47.2274" fill="#FFEFAE"/>
<path d="M320.913 69.9506C320.827 70.273 320.676 70.5525 320.462 70.8105L310.479 83.7093C308.955 85.6871 309.385 88.4603 311.445 89.9222C313.506 91.384 316.404 90.9756 317.929 88.9978C319.088 87.5144 327.031 77.2384 328.898 74.8306C329.092 74.5726 329.242 74.2716 329.349 73.9707C329.8 72.4228 330.981 68.2307 331.195 67.5643L324.176 58.5566L320.913 69.9721V69.9506Z" fill="white"/>
<path d="M444.586 34.0273V66.1883" stroke="#FF005A" stroke-width="7"/>
<path d="M427.627 49.7637H460.837" stroke="#FF005A" stroke-width="7"/>
<path d="M683.088 44.1963H707.711" stroke="#FF005A" stroke-width="7"/>
<path d="M683.088 56.0205H707.711" stroke="#FF005A" stroke-width="7"/>
<path d="M575.708 29.0615H566.37V39.0581L568.152 63.2218H573.927L575.708 39.1656V29.0615ZM574.27 76.1206H567.808V69.5637H574.27V76.1206Z" fill="white"/>
<path d="M568.001 9.62758L527.278 80.4204C525.926 82.7636 527.621 85.7089 530.326 85.7089H611.773C614.478 85.7089 616.174 82.7636 614.822 80.4204L574.098 9.62758C572.746 7.2843 569.354 7.2843 568.001 9.62758Z" stroke="#FFEFAE" stroke-width="4" stroke-miterlimit="10"/>
<path d="M885.31 85.5587H925.862C925.068 64.0822 916.459 44.5836 902.827 29.836L874.147 58.5572C880.501 65.9095 884.58 75.2826 885.289 85.5802L885.31 85.5587ZM869.51 53.8707L898.169 25.1709C883.421 11.4552 863.907 2.79153 842.44 1.97461V42.5843C852.766 43.3152 862.147 47.4428 869.51 53.8707ZM835.849 42.5843V1.97461C814.403 2.79153 794.911 11.4122 780.163 25.1064L808.843 53.8062C816.185 47.4213 825.566 43.3152 835.849 42.5843Z" stroke="#FFEFAE" stroke-width="2" stroke-miterlimit="10"/>
<path d="M804.185 58.4918L775.527 29.7705C761.852 44.5396 753.222 64.0598 752.428 85.5577H792.98C793.688 75.2387 797.788 65.8441 804.185 58.4918Z" fill="#FDE9AA" stroke="#FFEFAE" stroke-miterlimit="10"/>
<path d="M771.041 62.2397C770.277 62.0474 769.495 62.4788 769.249 63.2274C769.004 63.976 769.38 64.7868 770.109 65.0837L803.18 78.5414L836.25 91.9991C836.286 92.0139 836.323 92.0271 836.36 92.039L836.816 90.6098C836.36 92.039 836.361 92.0392 836.362 92.0395L836.364 92.04L836.367 92.0412L836.376 92.0439L836.398 92.0507C836.415 92.0558 836.437 92.062 836.462 92.069C836.512 92.0831 836.579 92.1006 836.661 92.1196C836.824 92.1575 837.048 92.2019 837.318 92.2356C837.852 92.3023 838.602 92.3318 839.431 92.1629C840.27 91.992 841.196 91.6156 842.038 90.8726C842.881 90.1281 843.567 89.0785 844.019 87.6713L844.021 87.6654C844.466 86.2577 844.513 85.0054 844.255 83.9111C843.998 82.819 843.46 81.9767 842.874 81.3525C842.295 80.7355 841.666 80.326 841.192 80.0718C840.953 79.9432 840.744 79.8499 840.59 79.7867C840.512 79.755 840.448 79.7306 840.398 79.7128C840.373 79.7039 840.353 79.6966 840.336 79.691L840.314 79.6836L840.305 79.6808L840.301 79.6796L840.3 79.679C840.299 79.6787 840.298 79.6785 839.843 81.1077L840.298 79.6785C840.268 79.6691 840.239 79.6606 840.209 79.6531L771.041 62.2397Z" fill="white" stroke="#0E0F22" stroke-width="3" stroke-linejoin="round"/>
</svg>
