<svg width="335" height="753" viewBox="0 0 335 753" fill="none" xmlns="http://www.w3.org/2000/svg">
<path d="M53.604 41.5643L52.647 45.3633H48.413L54.184 25.3533H58.128L63.899 45.3633H59.665L58.708 41.5643H53.604ZM57.896 38.1423L56.156 31.0953L54.416 38.1423H57.896ZM69.5633 25.3533V41.9413H76.0303V45.3633H65.5033V25.3533H69.5633ZM75.0975 25.3533H87.8575V28.8043H83.5075V45.3633H79.4475V28.8043H75.0975V25.3533ZM89.7455 25.3533H100.301V28.7753H93.8055V33.2993H99.5765V36.7213H93.8055V41.9413H100.301V45.3633H89.7455V25.3533ZM115.941 45.3633H111.678L108.749 37.5043H106.748V45.3633H102.688V25.3533H108.952C112.809 25.3533 115.332 27.4123 115.332 31.4723C115.332 34.1693 114.259 35.9383 112.548 36.8083L115.941 45.3633ZM106.748 34.0823H108.488C110.199 34.0823 111.272 33.5603 111.272 31.4723C111.272 29.3843 110.199 28.8043 108.488 28.8043H106.748V34.0823ZM123.456 40.0563C123.456 37.4173 124.79 35.6483 126.269 34.2563C125.341 32.8063 124.674 31.4143 124.674 29.6453C124.674 26.8903 126.704 25.0923 129.546 25.0923C132.562 25.0923 134.302 27.0063 134.302 29.0653C134.302 31.2983 132.591 32.9513 130.88 34.4883L133.548 38.6643C133.693 37.8813 133.751 36.9823 133.751 36.0253H137.463C137.463 38.0843 136.999 40.0563 136.158 41.6803L138.913 45.3633H134.563L133.78 44.1453C132.62 45.0733 131.17 45.6243 129.517 45.6243C125.689 45.6243 123.456 43.0433 123.456 40.0563ZM129.691 42.2023C130.416 42.2023 131.025 41.9413 131.518 41.5063L128.299 36.7213C127.719 37.4753 127.4 38.2003 127.4 39.5633C127.4 40.6653 128.009 42.2023 129.691 42.2023ZM128.444 29.6453C128.444 30.5153 128.734 31.3853 129.14 32.1393C130.126 31.2113 130.764 30.3703 130.764 29.2973C130.764 28.5433 130.329 27.9053 129.604 27.9053C128.908 27.9053 128.444 28.4563 128.444 29.6453ZM147.009 25.3533H157.565V28.7753H151.069V33.7633H156.84V37.1853H151.069V45.3633H147.009V25.3533ZM164.102 25.3533V45.3633H160.042V25.3533H164.102ZM166.261 25.3533H179.021V28.8043H174.671V45.3633H170.611V28.8043H166.261V25.3533ZM189.957 25.3533H194.017V45.3633H190.624L184.969 34.4303V45.3633H180.909V25.3533H184.273L189.957 36.4603V25.3533ZM197.419 25.3533H207.975V28.7753H201.479V33.2993H207.25V36.7213H201.479V41.9413H207.975V45.3633H197.419V25.3533ZM221.875 28.3403L218.946 30.4573C218.134 29.2683 217.264 28.5143 216.075 28.5143C214.683 28.5143 214.016 29.3553 214.016 30.7183C214.016 32.2843 214.886 32.9223 217.003 33.6183C220.599 34.7783 222.107 36.2573 222.107 39.7953C222.107 43.0723 220.019 45.6243 216.162 45.6243C213.175 45.6243 211.116 44.6673 209.55 42.3473L212.595 40.2013C213.523 41.3613 214.393 42.2023 215.872 42.2023C217.496 42.2023 218.047 41.1873 218.047 39.9693C218.047 38.5773 217.409 37.7943 214.886 36.9823C211.522 35.8803 209.956 34.0243 209.956 30.7183C209.956 27.5573 211.841 25.0923 215.901 25.0923C218.569 25.0923 220.715 26.1363 221.875 28.3403ZM236.205 28.3403L233.276 30.4573C232.464 29.2683 231.594 28.5143 230.405 28.5143C229.013 28.5143 228.346 29.3553 228.346 30.7183C228.346 32.2843 229.216 32.9223 231.333 33.6183C234.929 34.7783 236.437 36.2573 236.437 39.7953C236.437 43.0723 234.349 45.6243 230.492 45.6243C227.505 45.6243 225.446 44.6673 223.88 42.3473L226.925 40.2013C227.853 41.3613 228.723 42.2023 230.202 42.2023C231.826 42.2023 232.377 41.1873 232.377 39.9693C232.377 38.5773 231.739 37.7943 229.216 36.9823C225.852 35.8803 224.286 34.0243 224.286 30.7183C224.286 27.5573 226.171 25.0923 230.231 25.0923C232.899 25.0923 235.045 26.1363 236.205 28.3403ZM239.399 36.3633L241.318 31.9641C241.084 32.0733 240.803 32.1357 240.491 32.1357C239.118 32.1357 237.933 30.7785 237.933 28.9221C237.933 26.5041 239.446 25.4589 241.162 25.4589C242.893 25.4589 244.391 26.5197 244.391 28.7661C244.391 29.7489 244.079 30.7473 243.517 31.9953L241.677 36.3633H239.399ZM242.207 28.8285C242.207 27.9237 241.911 27.2997 241.162 27.2997C240.397 27.2997 240.117 27.9237 240.117 28.8285C240.117 29.7177 240.397 30.3417 241.162 30.3417C241.911 30.3417 242.207 29.7177 242.207 28.8285ZM248.175 33.9297V37.0809L246.053 38.8905V33.9297H248.175ZM254.559 25.5993V36.3633H252.375V28.0173L251.096 29.0313V26.7849L252.625 25.5993H254.559ZM263.803 34.5225V36.3633H258.093V34.9593L261.042 30.7161C261.572 29.9361 261.744 29.2809 261.744 28.5789C261.744 27.6741 261.338 27.2685 260.823 27.2685C260.262 27.2685 259.887 27.6897 259.887 28.5789H258.015C258.015 26.7225 259.326 25.4589 261.026 25.4589C262.649 25.4589 263.928 26.8005 263.928 28.5789C263.928 29.9985 263.085 31.0905 262.539 31.9329L260.901 34.5225H263.803Z" fill="#FDE9AA"/>
<line x1="100.509" y1="71.3633" x2="234.491" y2="71.3633" stroke="#FF005A" stroke-width="2"/>
<path d="M104.292 205.912H102.582L106.23 192.802H107.674L111.341 205.912H109.631L108.89 202.91H105.033L104.292 205.912ZM106.952 195.576L105.508 201.428H108.396L106.952 195.576ZM114.411 192.802V204.43H119.18V205.912H112.777V192.802H114.411ZM118.742 192.802H126.513V194.284H123.435V205.912H121.801V194.284H118.742V192.802ZM127.88 192.802H134.283V194.284H129.514V198.388H133.827V199.87H129.514V204.43H134.283V205.912H127.88V192.802ZM143.679 205.912H141.95L139.841 200.383H137.808V205.912H136.174V192.802H139.556C141.988 192.802 143.413 194.056 143.413 196.602C143.413 198.445 142.691 199.604 141.38 200.098L143.679 205.912ZM137.808 198.901H139.556C141.228 198.901 141.779 198.217 141.779 196.602C141.779 194.968 141.228 194.284 139.556 194.284H137.808V198.901ZM155.279 192.802H156.913V200.573C156.913 204.449 155.412 206.064 153.075 206.064C150.719 206.064 149.237 204.449 149.237 200.592V192.802H150.871V200.592C150.871 203.537 151.574 204.582 153.075 204.582C154.576 204.582 155.279 203.537 155.279 200.592V192.802ZM165.065 192.802H166.699V205.912H165.179L161.132 196.83V205.912H159.498V192.802H160.961L165.065 201.979V192.802ZM172.696 205.912H169.276V192.802H172.696C175.014 192.802 176.496 194.436 176.496 198.673V200.041C176.496 204.278 175.014 205.912 172.696 205.912ZM172.696 204.43C174.216 204.43 174.862 203.29 174.862 200.041V198.673C174.862 195.424 174.197 194.284 172.696 194.284H170.91V204.43H172.696ZM182.357 192.802H188.76V194.284H183.991V198.388H188.304V199.87H183.991V204.43H188.76V205.912H182.357V192.802ZM197.757 196.887H196.218C195.838 194.835 195.173 194.132 193.957 194.132C192.437 194.132 191.753 195.31 191.753 198.635V200.079C191.753 203.385 192.418 204.582 193.957 204.582C195.249 204.582 195.857 203.746 196.218 201.827H197.738C197.415 204.772 196.047 206.064 193.957 206.064C191.601 206.064 190.119 204.316 190.119 200.079V198.635C190.119 194.398 191.601 192.65 193.957 192.65C196.123 192.65 197.415 194.018 197.757 196.887ZM206.645 200.079C206.645 204.316 205.163 206.064 202.807 206.064C200.451 206.064 198.969 204.316 198.969 200.079V198.635C198.969 194.398 200.451 192.65 202.807 192.65C205.163 192.65 206.645 194.398 206.645 198.635V200.079ZM200.603 198.635V200.079C200.603 203.404 201.249 204.582 202.807 204.582C204.365 204.582 205.011 203.404 205.011 200.079V198.635C205.011 195.31 204.365 194.132 202.807 194.132C201.249 194.132 200.603 195.31 200.603 198.635ZM212.03 199.319H215.887V200.079C215.887 204.316 214.348 206.064 212.011 206.064C209.655 206.064 208.173 204.316 208.173 200.079V198.635C208.173 194.398 209.655 192.65 212.011 192.65C214.139 192.65 215.469 193.999 215.811 196.887H214.272C213.93 194.93 213.284 194.132 212.011 194.132C210.472 194.132 209.807 195.31 209.807 198.635V200.079C209.807 203.404 210.472 204.582 212.011 204.582C213.379 204.582 214.196 203.556 214.253 200.801H212.03V199.319ZM217.109 201.105V199.737H221.118V201.105H217.109ZM95.8469 216.802V228.43H100.616V229.912H94.2129V216.802H95.8469ZM101.913 216.802H108.316V218.284H103.547V222.388H107.86V223.87H103.547V228.43H108.316V229.912H101.913V216.802ZM111.993 216.802V229.912H110.359V216.802H111.993ZM121.289 218.797L120.054 219.633C119.541 218.759 118.99 218.132 117.736 218.132C116.615 218.132 115.95 218.892 115.95 220.184C115.95 221.609 116.615 222.16 118.23 222.616C120.244 223.186 121.498 224.231 121.498 226.397C121.498 228.107 120.567 230.064 117.907 230.064C116.178 230.064 114.924 229.342 114.126 227.917L115.418 227.043C116.121 228.05 116.71 228.582 117.907 228.582C119.541 228.582 119.883 227.48 119.883 226.473C119.883 225.333 119.522 224.554 117.584 224.022C115.627 223.49 114.316 222.369 114.316 220.184C114.316 218.36 115.361 216.65 117.774 216.65C119.465 216.65 120.529 217.353 121.289 218.797ZM122.072 216.802H129.843V218.284H126.765V229.912H125.131V218.284H122.072V216.802ZM137.253 216.802H138.887V224.573C138.887 228.449 137.386 230.064 135.049 230.064C132.693 230.064 131.211 228.449 131.211 224.592V216.802H132.845V224.592C132.845 227.537 133.548 228.582 135.049 228.582C136.55 228.582 137.253 227.537 137.253 224.592V216.802ZM147.039 216.802H148.673V229.912H147.153L143.106 220.83V229.912H141.472V216.802H142.935L147.039 225.979V216.802ZM154.575 223.319H158.432V224.079C158.432 228.316 156.893 230.064 154.556 230.064C152.2 230.064 150.718 228.316 150.718 224.079V222.635C150.718 218.398 152.2 216.65 154.556 216.65C156.684 216.65 158.014 217.999 158.356 220.887H156.817C156.475 218.93 155.829 218.132 154.556 218.132C153.017 218.132 152.352 219.31 152.352 222.635V224.079C152.352 227.404 153.017 228.582 154.556 228.582C155.924 228.582 156.741 227.556 156.798 224.801H154.575V223.319ZM167.045 218.797L165.81 219.633C165.297 218.759 164.746 218.132 163.492 218.132C162.371 218.132 161.706 218.892 161.706 220.184C161.706 221.609 162.371 222.16 163.986 222.616C166 223.186 167.254 224.231 167.254 226.397C167.254 228.107 166.323 230.064 163.663 230.064C161.934 230.064 160.68 229.342 159.882 227.917L161.174 227.043C161.877 228.05 162.466 228.582 163.663 228.582C165.297 228.582 165.639 227.48 165.639 226.473C165.639 225.333 165.278 224.554 163.34 224.022C161.383 223.49 160.072 222.369 160.072 220.184C160.072 218.36 161.117 216.65 163.53 216.65C165.221 216.65 166.285 217.353 167.045 218.797ZM175.84 218.797L174.605 219.633C174.092 218.759 173.541 218.132 172.287 218.132C171.166 218.132 170.501 218.892 170.501 220.184C170.501 221.609 171.166 222.16 172.781 222.616C174.795 223.186 176.049 224.231 176.049 226.397C176.049 228.107 175.118 230.064 172.458 230.064C170.729 230.064 169.475 229.342 168.677 227.917L169.969 227.043C170.672 228.05 171.261 228.582 172.458 228.582C174.092 228.582 174.434 227.48 174.434 226.473C174.434 225.333 174.073 224.554 172.135 224.022C170.178 223.49 168.867 222.369 168.867 220.184C168.867 218.36 169.912 216.65 172.325 216.65C174.016 216.65 175.08 217.353 175.84 218.797ZM176.623 216.802H184.394V218.284H181.316V229.912H179.682V218.284H176.623V216.802ZM185.868 229.912H184.158L187.806 216.802H189.25L192.917 229.912H191.207L190.466 226.91H186.609L185.868 229.912ZM188.528 219.576L187.084 225.428H189.972L188.528 219.576ZM192.673 216.802H200.444V218.284H197.366V229.912H195.732V218.284H192.673V216.802ZM207.854 216.802H209.488V224.573C209.488 228.449 207.987 230.064 205.65 230.064C203.294 230.064 201.812 228.449 201.812 224.592V216.802H203.446V224.592C203.446 227.537 204.149 228.582 205.65 228.582C207.151 228.582 207.854 227.537 207.854 224.592V216.802ZM218.627 218.797L217.392 219.633C216.879 218.759 216.328 218.132 215.074 218.132C213.953 218.132 213.288 218.892 213.288 220.184C213.288 221.609 213.953 222.16 215.568 222.616C217.582 223.186 218.836 224.231 218.836 226.397C218.836 228.107 217.905 230.064 215.245 230.064C213.516 230.064 212.262 229.342 211.464 227.917L212.756 227.043C213.459 228.05 214.048 228.582 215.245 228.582C216.879 228.582 217.221 227.48 217.221 226.473C217.221 225.333 216.86 224.554 214.922 224.022C212.965 223.49 211.654 222.369 211.654 220.184C211.654 218.36 212.699 216.65 215.112 216.65C216.803 216.65 217.867 217.353 218.627 218.797ZM230.295 228.43V229.912H224.063V228.544L227.559 223.205C228.3 222.065 228.699 221.153 228.699 220.089C228.699 218.797 228.167 218.113 227.274 218.113C226.419 218.113 225.83 218.816 225.792 220.165H224.234C224.234 217.999 225.621 216.65 227.293 216.65C229.079 216.65 230.333 217.999 230.333 220.089C230.333 221.799 229.497 223.072 228.87 224.06L226.096 228.43H230.295Z" fill="white"/>
<path d="M232.811 216.25H234.611V214.54H235.385V216.25H237.185V216.952H235.385V220.048H237.185V220.75H235.385V222.46H234.611V220.75H232.811V220.048H234.611V216.952H232.811V216.25Z" fill="white"/>
<path d="M176.204 100.757C176.204 96.1222 172.254 92.3633 167.359 92.3633C162.465 92.3633 158.515 96.1222 158.515 100.757C158.515 105.391 162.465 109.15 167.359 109.15C172.254 109.15 176.204 105.391 176.204 100.757Z" fill="#FFEFAE"/>
<path d="M188.526 136.467L178.243 131.832C176.161 130.892 174.615 129.141 174.014 127.048C172.64 122.307 169.806 113.956 166.307 112.717C161.134 110.88 155.273 112.973 151.044 116.348C147.781 118.954 144.067 121.922 141.749 123.78C140.31 124.934 139.366 126.578 139.13 128.351C138.55 132.793 137.498 140.76 137.305 142.169C137.047 144.156 138.507 145.95 140.589 146.185C142.672 146.441 144.561 145.031 144.818 143.066L146.214 132.452C146.45 130.679 147.394 129.034 148.833 127.881L154.2 123.609C150.658 139.436 151.409 136.082 150.443 140.397C150.98 141.187 174.615 176.662 175.13 177.452C176.676 179.759 179.875 180.442 182.3 178.99C184.726 177.538 185.456 174.483 183.91 172.177L164.289 142.746L167.08 130.273L168.475 133.135C169.248 134.737 170.601 136.018 172.254 136.766L185.435 142.703C187.238 143.515 189.385 142.789 190.243 141.08C191.102 139.371 190.329 137.321 188.526 136.51" fill="#FFEFAE"/>
<path d="M145.913 159.085C145.827 159.405 145.676 159.683 145.462 159.939L135.479 172.754C133.955 174.718 134.385 177.474 136.445 178.926C138.506 180.378 141.404 179.972 142.929 178.008C144.088 176.534 152.031 166.325 153.898 163.933C154.092 163.677 154.242 163.378 154.349 163.079C154.8 161.541 155.981 157.376 156.195 156.714L149.176 147.765L145.913 159.106V159.085Z" fill="white"/>
<path d="M167.854 252.573V284.734" stroke="#FF005A" stroke-width="7"/>
<path d="M150.895 268.31H184.105" stroke="#FF005A" stroke-width="7"/>
<path d="M97.9178 436.864H95.9988L92.7878 430.423L91.0398 433.178V436.864H89.4058V423.754H91.0398V430.499L95.3338 423.754H97.1578L93.8708 428.998L97.9178 436.864ZM105.319 423.754H106.953V431.525C106.953 435.401 105.452 437.016 103.115 437.016C100.759 437.016 99.2769 435.401 99.2769 431.544V423.754H100.911V431.544C100.911 434.489 101.614 435.534 103.115 435.534C104.616 435.534 105.319 434.489 105.319 431.544V423.754ZM111.172 423.754L114.079 431.677L116.967 423.754H118.62V436.864H116.986V428.067L114.725 434.128H113.376L111.172 428.067V436.864H109.538V423.754H111.172ZM127.251 423.754H128.885V431.525C128.885 435.401 127.384 437.016 125.047 437.016C122.691 437.016 121.209 435.401 121.209 431.544V423.754H122.843V431.544C122.843 434.489 123.546 435.534 125.047 435.534C126.548 435.534 127.251 434.489 127.251 431.544V423.754ZM133.103 423.754V435.382H137.872V436.864H131.469V423.754H133.103ZM139.888 436.864H138.178L141.826 423.754H143.27L146.937 436.864H145.227L144.486 433.862H140.629L139.888 436.864ZM142.548 426.528L141.104 432.38H143.992L142.548 426.528ZM146.693 423.754H154.464V425.236H151.386V436.864H149.752V425.236H146.693V423.754ZM157.618 423.754V436.864H155.984V423.754H157.618ZM159.219 423.754H160.948L163.722 434.014L166.496 423.754H168.225L164.444 436.864H163.019L159.219 423.754ZM169.673 423.754H176.076V425.236H171.307V429.34H175.62V430.822H171.307V435.382H176.076V436.864H169.673V423.754ZM180.555 423.754H188.326V425.236H185.248V436.864H183.614V425.236H180.555V423.754ZM196.838 431.031C196.838 435.268 195.356 437.016 193 437.016C190.644 437.016 189.162 435.268 189.162 431.031V429.587C189.162 425.35 190.644 423.602 193 423.602C195.356 423.602 196.838 425.35 196.838 429.587V431.031ZM190.796 429.587V431.031C190.796 434.356 191.442 435.534 193 435.534C194.558 435.534 195.204 434.356 195.204 431.031V429.587C195.204 426.262 194.558 425.084 193 425.084C191.442 425.084 190.796 426.262 190.796 429.587ZM199.472 436.864H197.705L200.707 430.1L198.047 423.754H199.814L201.638 428.561L203.481 423.754H205.248L202.569 430.1L205.59 436.864H203.823L201.638 431.772L199.472 436.864ZM208.977 423.754V436.864H207.343V423.754H208.977ZM210.882 423.754H217.779V424.856L212.82 435.382H217.931V436.864H210.882V435.762L215.822 425.236H210.882V423.754ZM221.464 423.754V436.864H219.83V423.754H221.464ZM222.99 423.754H230.761V425.236H227.683V436.864H226.049V425.236H222.99V423.754ZM232.235 436.864H230.525L234.173 423.754H235.617L239.284 436.864H237.574L236.833 433.862H232.976L232.235 436.864ZM234.895 426.528L233.451 432.38H236.339L234.895 426.528ZM235.693 422.063V420.353H237.403V422.063H235.693ZM232.387 422.063V420.353H234.097V422.063H232.387ZM239.039 423.754H246.81V425.236H243.732V436.864H242.098V425.236H239.039V423.754ZM95.9289 447.754H97.6579L100.432 458.014L103.206 447.754H104.935L101.154 460.864H99.7289L95.9289 447.754ZM113.379 455.031C113.379 459.268 111.897 461.016 109.541 461.016C107.185 461.016 105.703 459.268 105.703 455.031V453.587C105.703 449.35 107.185 447.602 109.541 447.602C111.897 447.602 113.379 449.35 113.379 453.587V455.031ZM107.337 453.587V455.031C107.337 458.356 107.983 459.534 109.541 459.534C111.099 459.534 111.745 458.356 111.745 455.031V453.587C111.745 450.262 111.099 449.084 109.541 449.084C107.983 449.084 107.337 450.262 107.337 453.587ZM121.005 447.754H122.639V460.864H121.119L117.072 451.782V460.864H115.438V447.754H116.901L121.005 456.931V447.754ZM129.02 447.754H132.269C134.739 447.754 135.955 448.913 135.955 451.098C135.955 452.466 135.233 453.72 134.226 454.024C135.537 454.328 136.297 455.43 136.297 457.102C136.297 459.002 135.328 460.864 132.592 460.864H129.02V447.754ZM130.654 454.803V459.382H132.592C134.074 459.382 134.663 458.527 134.663 457.102C134.663 455.525 133.979 454.803 132.364 454.803H130.654ZM130.654 449.217V453.321H132.478C133.846 453.321 134.321 452.39 134.321 451.098C134.321 449.939 133.979 449.217 132.269 449.217H130.654ZM139.991 447.754V460.864H138.357V447.754H139.991ZM149.876 455.031C149.876 459.268 148.394 461.016 146.038 461.016C143.682 461.016 142.2 459.268 142.2 455.031V453.587C142.2 449.35 143.682 447.602 146.038 447.602C148.394 447.602 149.876 449.35 149.876 453.587V455.031ZM143.834 453.587V455.031C143.834 458.356 144.48 459.534 146.038 459.534C147.596 459.534 148.242 458.356 148.242 455.031V453.587C148.242 450.262 147.596 449.084 146.038 449.084C144.48 449.084 143.834 450.262 143.834 453.587ZM159.041 451.839H157.502C157.122 449.787 156.457 449.084 155.241 449.084C153.721 449.084 153.037 450.262 153.037 453.587V455.031C153.037 458.337 153.702 459.534 155.241 459.534C156.533 459.534 157.141 458.698 157.502 456.779H159.022C158.699 459.724 157.331 461.016 155.241 461.016C152.885 461.016 151.403 459.268 151.403 455.031V453.587C151.403 449.35 152.885 447.602 155.241 447.602C157.407 447.602 158.699 448.97 159.041 451.839ZM162.42 447.754V453.34H166.334V447.754H167.968V460.864H166.334V454.822H162.42V460.864H160.786V447.754H162.42ZM170.545 447.754H176.948V449.236H172.179V453.34H176.492V454.822H172.179V459.382H176.948V460.864H170.545V447.754ZM180.473 447.754L183.38 455.677L186.268 447.754H187.921V460.864H186.287V452.067L184.026 458.128H182.677L180.473 452.067V460.864H178.839V447.754H180.473ZM192.296 447.754V460.864H190.662V447.754H192.296ZM201.593 449.749L200.358 450.585C199.845 449.711 199.294 449.084 198.04 449.084C196.919 449.084 196.254 449.844 196.254 451.136C196.254 452.561 196.919 453.112 198.534 453.568C200.548 454.138 201.802 455.183 201.802 457.349C201.802 459.059 200.871 461.016 198.211 461.016C196.482 461.016 195.228 460.294 194.43 458.869L195.722 457.995C196.425 459.002 197.014 459.534 198.211 459.534C199.845 459.534 200.187 458.432 200.187 457.425C200.187 456.285 199.826 455.506 197.888 454.974C195.931 454.442 194.62 453.321 194.62 451.136C194.62 449.312 195.665 447.602 198.078 447.602C199.769 447.602 200.833 448.305 201.593 449.749ZM210.939 451.839H209.4C209.02 449.787 208.355 449.084 207.139 449.084C205.619 449.084 204.935 450.262 204.935 453.587V455.031C204.935 458.337 205.6 459.534 207.139 459.534C208.431 459.534 209.039 458.698 209.4 456.779H210.92C210.597 459.724 209.229 461.016 207.139 461.016C204.783 461.016 203.301 459.268 203.301 455.031V453.587C203.301 449.35 204.783 447.602 207.139 447.602C209.305 447.602 210.597 448.97 210.939 451.839ZM214.317 447.754V453.34H218.231V447.754H219.865V460.864H218.231V454.822H214.317V460.864H212.683V447.754H214.317ZM222.443 447.754H228.846V449.236H224.077V453.34H228.39V454.822H224.077V459.382H228.846V460.864H222.443V447.754ZM236.304 447.754H237.938V460.864H236.418L232.371 451.782V460.864H230.737V447.754H232.2L236.304 456.931V447.754ZM83.9095 473.749L82.6745 474.585C82.1615 473.711 81.6105 473.084 80.3565 473.084C79.2355 473.084 78.5705 473.844 78.5705 475.136C78.5705 476.561 79.2355 477.112 80.8505 477.568C82.8645 478.138 84.1185 479.183 84.1185 481.349C84.1185 483.059 83.1875 485.016 80.5275 485.016C78.7985 485.016 77.5445 484.294 76.7465 482.869L78.0385 481.995C78.7415 483.002 79.3305 483.534 80.5275 483.534C82.1615 483.534 82.5035 482.432 82.5035 481.425C82.5035 480.285 82.1425 479.506 80.2045 478.974C78.2475 478.442 76.9365 477.321 76.9365 475.136C76.9365 473.312 77.9815 471.602 80.3945 471.602C82.0855 471.602 83.1495 472.305 83.9095 473.749ZM84.8089 471.754H86.6709L88.7609 477.264L90.8699 471.754H92.7319L89.5779 479.24V484.864H87.9439V479.24L84.8089 471.754ZM100.646 473.749L99.4108 474.585C98.8978 473.711 98.3468 473.084 97.0928 473.084C95.9718 473.084 95.3068 473.844 95.3068 475.136C95.3068 476.561 95.9718 477.112 97.5868 477.568C99.6008 478.138 100.855 479.183 100.855 481.349C100.855 483.059 99.9238 485.016 97.2638 485.016C95.5348 485.016 94.2808 484.294 93.4828 482.869L94.7748 481.995C95.4778 483.002 96.0668 483.534 97.2638 483.534C98.8978 483.534 99.2398 482.432 99.2398 481.425C99.2398 480.285 98.8788 479.506 96.9408 478.974C94.9838 478.442 93.6728 477.321 93.6728 475.136C93.6728 473.312 94.7178 471.602 97.1308 471.602C98.8218 471.602 99.8858 472.305 100.646 473.749ZM101.429 471.754H109.2V473.236H106.122V484.864H104.488V473.236H101.429V471.754ZM110.567 471.754H116.97V473.236H112.201V477.34H116.514V478.822H112.201V483.382H116.97V484.864H110.567V471.754ZM120.495 471.754L123.402 479.677L126.29 471.754H127.943V484.864H126.309V476.067L124.048 482.128H122.699L120.495 476.067V484.864H118.861V471.754H120.495ZM132.318 471.754V484.864H130.684V471.754H132.318ZM141.615 473.749L140.38 474.585C139.867 473.711 139.316 473.084 138.062 473.084C136.941 473.084 136.276 473.844 136.276 475.136C136.276 476.561 136.941 477.112 138.556 477.568C140.57 478.138 141.824 479.183 141.824 481.349C141.824 483.059 140.893 485.016 138.233 485.016C136.504 485.016 135.25 484.294 134.452 482.869L135.744 481.995C136.447 483.002 137.036 483.534 138.233 483.534C139.867 483.534 140.209 482.432 140.209 481.425C140.209 480.285 139.848 479.506 137.91 478.974C135.953 478.442 134.642 477.321 134.642 475.136C134.642 473.312 135.687 471.602 138.1 471.602C139.791 471.602 140.855 472.305 141.615 473.749ZM150.961 475.839H149.422C149.042 473.787 148.377 473.084 147.161 473.084C145.641 473.084 144.957 474.262 144.957 477.587V479.031C144.957 482.337 145.622 483.534 147.161 483.534C148.453 483.534 149.061 482.698 149.422 480.779H150.942C150.619 483.724 149.251 485.016 147.161 485.016C144.805 485.016 143.323 483.268 143.323 479.031V477.587C143.323 473.35 144.805 471.602 147.161 471.602C149.327 471.602 150.619 472.97 150.961 475.839ZM154.339 471.754V477.34H158.253V471.754H159.887V484.864H158.253V478.822H154.339V484.864H152.705V471.754H154.339ZM162.465 471.754H168.868V473.236H164.099V477.34H168.412V478.822H164.099V483.382H168.868V484.864H162.465V471.754ZM176.326 471.754H177.96V484.864H176.44L172.393 475.782V484.864H170.759V471.754H172.222L176.326 480.931V471.754ZM183.125 471.754H190.896V473.236H187.818V484.864H186.184V473.236H183.125V471.754ZM193.898 471.754V477.34H197.812V471.754H199.446V484.864H197.812V478.822H193.898V484.864H192.264V471.754H193.898ZM202.023 471.754H208.426V473.236H203.657V477.34H207.97V478.822H203.657V483.382H208.426V484.864H202.023V471.754ZM217.822 484.864H216.093L213.984 479.335H211.951V484.864H210.317V471.754H213.699C216.131 471.754 217.556 473.008 217.556 475.554C217.556 477.397 216.834 478.556 215.523 479.05L217.822 484.864ZM211.951 477.853H213.699C215.371 477.853 215.922 477.169 215.922 475.554C215.922 473.92 215.371 473.236 213.699 473.236H211.951V477.853ZM220.146 484.864H218.436L222.084 471.754H223.528L227.195 484.864H225.485L224.744 481.862H220.887L220.146 484.864ZM222.806 474.528L221.362 480.38H224.25L222.806 474.528ZM232.051 479.867H230.265V484.864H228.631V471.754H232.051C234.464 471.754 235.87 473.274 235.87 475.82C235.87 478.347 234.483 479.867 232.051 479.867ZM230.265 478.385H232.051C233.704 478.385 234.236 477.435 234.236 475.82C234.236 474.186 233.704 473.236 232.051 473.236H230.265V478.385ZM239.416 471.754V484.864H237.782V471.754H239.416ZM242.157 471.754H248.56V473.236H243.791V477.34H248.104V478.822H243.791V483.382H248.56V484.864H242.157V471.754ZM256.018 471.754H257.652V484.864H256.132L252.085 475.782V484.864H250.451V471.754H251.914L256.018 480.931V471.754Z" fill="white"/>
<path d="M170.708 337.926H161.37V347.923L163.152 372.087H168.927L170.708 348.03V337.926ZM169.27 384.985H162.808V378.428H169.27V384.985Z" fill="white"/>
<path d="M163.001 318.492L122.278 389.285C120.926 391.628 122.621 394.573 125.326 394.573H206.773C209.478 394.573 211.174 391.628 209.822 389.285L169.098 318.492C167.746 316.149 164.354 316.149 163.001 318.492Z" stroke="#FFEFAE" stroke-width="4" stroke-miterlimit="10"/>
<path d="M155.188 515.864H179.812" stroke="#FF005A" stroke-width="7"/>
<path d="M155.188 527.688H179.812" stroke="#FF005A" stroke-width="7"/>
<path d="M83.8418 671.603H85.4758V679.374C85.4758 683.25 83.9748 684.865 81.6378 684.865C79.2818 684.865 77.7998 683.25 77.7998 679.393V671.603H79.4338V679.393C79.4338 682.338 80.1368 683.383 81.6378 683.383C83.1388 683.383 83.8418 682.338 83.8418 679.393V671.603ZM93.6276 671.603H95.2616V684.713H93.7416L89.6946 675.631V684.713H88.0606V671.603H89.5236L93.6276 680.78V671.603ZM101.164 678.12H105.021V678.88C105.021 683.117 103.482 684.865 101.145 684.865C98.7889 684.865 97.3069 683.117 97.3069 678.88V677.436C97.3069 673.199 98.7889 671.451 101.145 671.451C103.273 671.451 104.603 672.8 104.945 675.688H103.406C103.064 673.731 102.418 672.933 101.145 672.933C99.6059 672.933 98.9409 674.111 98.9409 677.436V678.88C98.9409 682.205 99.6059 683.383 101.145 683.383C102.513 683.383 103.33 682.357 103.387 679.602H101.164V678.12ZM113.121 671.603H114.755V679.374C114.755 683.25 113.254 684.865 110.917 684.865C108.561 684.865 107.079 683.25 107.079 679.393V671.603H108.713V679.393C108.713 682.338 109.416 683.383 110.917 683.383C112.418 683.383 113.121 682.338 113.121 679.393V671.603ZM111.715 669.912V668.202H113.425V669.912H111.715ZM108.409 669.912V668.202H110.119V669.912H108.409ZM122.907 671.603H124.541V684.713H123.021L118.974 675.631V684.713H117.34V671.603H118.803L122.907 680.78V671.603ZM133.673 673.598L132.438 674.434C131.925 673.56 131.374 672.933 130.12 672.933C128.999 672.933 128.334 673.693 128.334 674.985C128.334 676.41 128.999 676.961 130.614 677.417C132.628 677.987 133.882 679.032 133.882 681.198C133.882 682.908 132.951 684.865 130.291 684.865C128.562 684.865 127.308 684.143 126.51 682.718L127.802 681.844C128.505 682.851 129.094 683.383 130.291 683.383C131.925 683.383 132.267 682.281 132.267 681.274C132.267 680.134 131.906 679.355 129.968 678.823C128.011 678.291 126.7 677.17 126.7 674.985C126.7 673.161 127.745 671.451 130.158 671.451C131.849 671.451 132.913 672.154 133.673 673.598ZM134.456 671.603H142.227V673.085H139.149V684.713H137.515V673.085H134.456V671.603ZM145.381 671.603V684.713H143.747V671.603H145.381ZM151.447 678.12H155.304V678.88C155.304 683.117 153.765 684.865 151.428 684.865C149.072 684.865 147.59 683.117 147.59 678.88V677.436C147.59 673.199 149.072 671.451 151.428 671.451C153.556 671.451 154.886 672.8 155.228 675.688H153.689C153.347 673.731 152.701 672.933 151.428 672.933C149.889 672.933 149.224 674.111 149.224 677.436V678.88C149.224 682.205 149.889 683.383 151.428 683.383C152.796 683.383 153.613 682.357 153.67 679.602H151.447V678.12ZM157.362 671.603H163.765V673.085H158.996V677.189H163.309V678.671H158.996V683.231H163.765V684.713H157.362V671.603ZM173.161 684.713H171.432L169.323 679.184H167.29V684.713H165.656V671.603H169.038C171.47 671.603 172.895 672.857 172.895 675.403C172.895 677.246 172.173 678.405 170.862 678.899L173.161 684.713ZM167.29 677.702H169.038C170.71 677.702 171.261 677.018 171.261 675.403C171.261 673.769 170.71 673.085 169.038 673.085H167.29V677.702ZM174.915 671.603H181.318V673.085H176.549V677.189H180.862V678.671H176.549V683.231H181.318V684.713H174.915V671.603ZM190.433 679.716H188.647V684.713H187.013V671.603H190.433C192.846 671.603 194.252 673.123 194.252 675.669C194.252 678.196 192.865 679.716 190.433 679.716ZM188.647 678.234H190.433C192.086 678.234 192.618 677.284 192.618 675.669C192.618 674.035 192.086 673.085 190.433 673.085H188.647V678.234ZM203.517 684.713H201.788L199.679 679.184H197.646V684.713H196.012V671.603H199.394C201.826 671.603 203.251 672.857 203.251 675.403C203.251 677.246 202.529 678.405 201.218 678.899L203.517 684.713ZM197.646 677.702H199.394C201.066 677.702 201.617 677.018 201.617 675.403C201.617 673.769 201.066 673.085 199.394 673.085H197.646V677.702ZM212.415 678.88C212.415 683.117 210.933 684.865 208.577 684.865C206.221 684.865 204.739 683.117 204.739 678.88V677.436C204.739 673.199 206.221 671.451 208.577 671.451C210.933 671.451 212.415 673.199 212.415 677.436V678.88ZM206.373 677.436V678.88C206.373 682.205 207.019 683.383 208.577 683.383C210.135 683.383 210.781 682.205 210.781 678.88V677.436C210.781 674.111 210.135 672.933 208.577 672.933C207.019 672.933 206.373 674.111 206.373 677.436ZM217.799 678.12H221.656V678.88C221.656 683.117 220.117 684.865 217.78 684.865C215.424 684.865 213.942 683.117 213.942 678.88V677.436C213.942 673.199 215.424 671.451 217.78 671.451C219.908 671.451 221.238 672.8 221.58 675.688H220.041C219.699 673.731 219.053 672.933 217.78 672.933C216.241 672.933 215.576 674.111 215.576 677.436V678.88C215.576 682.205 216.241 683.383 217.78 683.383C219.148 683.383 219.965 682.357 220.022 679.602H217.799V678.12ZM229.281 671.603H230.915V684.713H229.395L225.348 675.631V684.713H223.714V671.603H225.177L229.281 680.78V671.603ZM240.636 678.88C240.636 683.117 239.154 684.865 236.798 684.865C234.442 684.865 232.96 683.117 232.96 678.88V677.436C232.96 673.199 234.442 671.451 236.798 671.451C239.154 671.451 240.636 673.199 240.636 677.436V678.88ZM234.594 677.436V678.88C234.594 682.205 235.24 683.383 236.798 683.383C238.356 683.383 239.002 682.205 239.002 678.88V677.436C239.002 674.111 238.356 672.933 236.798 672.933C235.24 672.933 234.594 674.111 234.594 677.436ZM249.25 673.598L248.015 674.434C247.502 673.56 246.951 672.933 245.697 672.933C244.576 672.933 243.911 673.693 243.911 674.985C243.911 676.41 244.576 676.961 246.191 677.417C248.205 677.987 249.459 679.032 249.459 681.198C249.459 682.908 248.528 684.865 245.868 684.865C244.139 684.865 242.885 684.143 242.087 682.718L243.379 681.844C244.082 682.851 244.671 683.383 245.868 683.383C247.502 683.383 247.844 682.281 247.844 681.274C247.844 680.134 247.483 679.355 245.545 678.823C243.588 678.291 242.277 677.17 242.277 674.985C242.277 673.161 243.322 671.451 245.735 671.451C247.426 671.451 248.49 672.154 249.25 673.598ZM251.49 671.603H257.893V673.085H253.124V677.189H257.437V678.671H253.124V683.231H257.893V684.713H251.49V671.603ZM139.494 695.603H145.897V697.085H141.128V701.493H145.441V702.975H141.128V708.713H139.494V695.603ZM153.682 695.603H155.316V703.374C155.316 707.25 153.815 708.865 151.478 708.865C149.122 708.865 147.64 707.25 147.64 703.393V695.603H149.274V703.393C149.274 706.338 149.977 707.383 151.478 707.383C152.979 707.383 153.682 706.338 153.682 703.393V695.603ZM152.276 693.912V692.202H153.986V693.912H152.276ZM148.97 693.912V692.202H150.68V693.912H148.97ZM165.405 708.713H163.676L161.567 703.184H159.534V708.713H157.9V695.603H161.282C163.714 695.603 165.139 696.857 165.139 699.403C165.139 701.246 164.417 702.405 163.106 702.899L165.405 708.713ZM159.534 701.702H161.282C162.954 701.702 163.505 701.018 163.505 699.403C163.505 697.769 162.954 697.085 161.282 697.085H159.534V701.702ZM174.383 708.713H170.963V695.603H174.383C176.701 695.603 178.183 697.237 178.183 701.474V702.842C178.183 707.079 176.701 708.713 174.383 708.713ZM174.383 707.231C175.903 707.231 176.549 706.091 176.549 702.842V701.474C176.549 698.225 175.884 697.085 174.383 697.085H172.597V707.231H174.383ZM180.81 708.713H179.1L182.748 695.603H184.192L187.859 708.713H186.149L185.408 705.711H181.551L180.81 708.713ZM183.47 698.377L182.026 704.229H184.914L183.47 698.377ZM195.85 697.598L194.615 698.434C194.102 697.56 193.551 696.933 192.297 696.933C191.176 696.933 190.511 697.693 190.511 698.985C190.511 700.41 191.176 700.961 192.791 701.417C194.805 701.987 196.059 703.032 196.059 705.198C196.059 706.908 195.128 708.865 192.468 708.865C190.739 708.865 189.485 708.143 188.687 706.718L189.979 705.844C190.682 706.851 191.271 707.383 192.468 707.383C194.102 707.383 194.444 706.281 194.444 705.274C194.444 704.134 194.083 703.355 192.145 702.823C190.188 702.291 188.877 701.17 188.877 698.985C188.877 697.161 189.922 695.451 192.335 695.451C194.026 695.451 195.09 696.154 195.85 697.598ZM104.504 726.12H108.361V726.88C108.361 731.117 106.822 732.865 104.485 732.865C102.129 732.865 100.647 731.117 100.647 726.88V725.436C100.647 721.199 102.129 719.451 104.485 719.451C106.613 719.451 107.943 720.8 108.285 723.688H106.746C106.404 721.731 105.758 720.933 104.485 720.933C102.946 720.933 102.281 722.111 102.281 725.436V726.88C102.281 730.205 102.946 731.383 104.485 731.383C105.853 731.383 106.67 730.357 106.727 727.602H104.504V726.12ZM110.419 719.603H116.822V721.085H112.053V725.189H116.366V726.671H112.053V731.231H116.822V732.713H110.419V719.603ZM125.268 721.598L124.033 722.434C123.52 721.56 122.969 720.933 121.715 720.933C120.594 720.933 119.929 721.693 119.929 722.985C119.929 724.41 120.594 724.961 122.209 725.417C124.223 725.987 125.477 727.032 125.477 729.198C125.477 730.908 124.546 732.865 121.886 732.865C120.157 732.865 118.903 732.143 118.105 730.718L119.397 729.844C120.1 730.851 120.689 731.383 121.886 731.383C123.52 731.383 123.862 730.281 123.862 729.274C123.862 728.134 123.501 727.355 121.563 726.823C119.606 726.291 118.295 725.17 118.295 722.985C118.295 721.161 119.34 719.451 121.753 719.451C123.444 719.451 124.508 720.154 125.268 721.598ZM128.078 732.713H126.368L130.016 719.603H131.46L135.127 732.713H133.417L132.676 729.711H128.819L128.078 732.713ZM130.738 722.377L129.294 728.229H132.182L130.738 722.377ZM138.197 719.603L141.104 727.526L143.992 719.603H145.645V732.713H144.011V723.916L141.75 729.977H140.401L138.197 723.916V732.713H136.563V719.603H138.197ZM147.017 719.603H154.788V721.085H151.71V732.713H150.076V721.085H147.017V719.603ZM162.198 719.603H163.832V727.374C163.832 731.25 162.331 732.865 159.994 732.865C157.638 732.865 156.156 731.25 156.156 727.393V719.603H157.79V727.393C157.79 730.338 158.493 731.383 159.994 731.383C161.495 731.383 162.198 730.338 162.198 727.393V719.603ZM160.792 717.912V716.202H162.502V717.912H160.792ZM157.486 717.912V716.202H159.196V717.912H157.486ZM166.417 719.603H169.666C172.136 719.603 173.352 720.762 173.352 722.947C173.352 724.315 172.63 725.569 171.623 725.873C172.934 726.177 173.694 727.279 173.694 728.951C173.694 730.851 172.725 732.713 169.989 732.713H166.417V719.603ZM168.051 726.652V731.231H169.989C171.471 731.231 172.06 730.376 172.06 728.951C172.06 727.374 171.376 726.652 169.761 726.652H168.051ZM168.051 721.066V725.17H169.875C171.243 725.17 171.718 724.239 171.718 722.947C171.718 721.788 171.376 721.066 169.666 721.066H168.051ZM175.602 719.603H182.005V721.085H177.236V725.189H181.549V726.671H177.236V731.231H182.005V732.713H175.602V719.603ZM191.401 732.713H189.672L187.563 727.184H185.53V732.713H183.896V719.603H187.278C189.71 719.603 191.135 720.857 191.135 723.403C191.135 725.246 190.413 726.405 189.102 726.899L191.401 732.713ZM185.53 725.702H187.278C188.95 725.702 189.501 725.018 189.501 723.403C189.501 721.769 188.95 721.085 187.278 721.085H185.53V725.702ZM194.788 719.603V731.231H199.557V732.713H193.154V719.603H194.788ZM200.855 719.603H207.258V721.085H202.489V725.189H206.802V726.671H202.489V731.231H207.258V732.713H200.855V719.603ZM209.148 719.603H212.397C214.867 719.603 216.083 720.762 216.083 722.947C216.083 724.315 215.361 725.569 214.354 725.873C215.665 726.177 216.425 727.279 216.425 728.951C216.425 730.851 215.456 732.713 212.72 732.713H209.148V719.603ZM210.782 726.652V731.231H212.72C214.202 731.231 214.791 730.376 214.791 728.951C214.791 727.374 214.107 726.652 212.492 726.652H210.782ZM210.782 721.066V725.17H212.606C213.974 725.17 214.449 724.239 214.449 722.947C214.449 721.788 214.107 721.066 212.397 721.066H210.782ZM218.333 719.603H224.736V721.085H219.967V725.189H224.28V726.671H219.967V731.231H224.736V732.713H218.333V719.603ZM232.194 719.603H233.828V732.713H232.308L228.261 723.631V732.713H226.627V719.603H228.09L232.194 728.78V719.603Z" fill="white"/>
<path d="M209.31 642.272H249.862C249.068 620.796 240.459 601.297 226.827 586.549L198.147 615.271C204.501 622.623 208.58 631.996 209.289 642.294L209.31 642.272ZM193.51 610.584L222.169 581.884C207.421 568.169 187.907 559.505 166.44 558.688V599.298C176.766 600.029 186.147 604.156 193.51 610.584ZM159.849 599.298V558.688C138.403 559.505 118.911 568.126 104.163 581.82L132.843 610.52C140.185 604.135 149.566 600.029 159.849 599.298Z" stroke="#FFEFAE" stroke-width="2" stroke-miterlimit="10"/>
<path d="M128.185 615.205L99.5266 586.484C85.8519 601.253 77.222 620.773 76.4277 642.271H116.98C117.688 631.952 121.788 622.557 128.185 615.205Z" fill="#FDE9AA" stroke="#FFEFAE" stroke-miterlimit="10"/>
<path d="M95.041 618.953C94.2771 618.761 93.4946 619.192 93.2493 619.941C93.0041 620.689 93.3798 621.5 94.1094 621.797L127.18 635.255L160.25 648.713C160.286 648.727 160.323 648.741 160.36 648.752L160.816 647.323C160.36 648.752 160.361 648.753 160.362 648.753L160.364 648.753L160.367 648.755L160.376 648.757L160.398 648.764C160.415 648.769 160.437 648.775 160.462 648.782C160.512 648.796 160.579 648.814 160.661 648.833C160.824 648.871 161.048 648.915 161.318 648.949C161.852 649.016 162.602 649.045 163.431 648.876C164.27 648.705 165.196 648.329 166.038 647.586C166.881 646.841 167.567 645.792 168.019 644.385L168.021 644.379C168.466 642.971 168.513 641.719 168.255 640.624C167.998 639.532 167.46 638.69 166.874 638.066C166.295 637.449 165.666 637.039 165.192 636.785C164.953 636.657 164.744 636.563 164.59 636.5C164.512 636.468 164.448 636.444 164.398 636.426C164.373 636.417 164.353 636.41 164.336 636.404L164.314 636.397L164.305 636.394L164.301 636.393L164.3 636.392C164.299 636.392 164.298 636.392 163.843 637.821L164.298 636.392C164.268 636.382 164.239 636.374 164.209 636.366L95.041 618.953Z" fill="white" stroke="#0E0F22" stroke-width="3" stroke-linejoin="round"/>
</svg>
