<svg width="936" height="183" viewBox="0 0 936 183" fill="none" xmlns="http://www.w3.org/2000/svg">
<path d="M6.104 96.201L5.147 100H0.913L6.684 79.99H10.628L16.399 100H12.165L11.208 96.201H6.104ZM10.396 92.779L8.656 85.732L6.916 92.779H10.396ZM22.0633 79.99V96.578H28.5303V100H18.0033V79.99H22.0633ZM27.5975 79.99H40.3575V83.441H36.0075V100H31.9475V83.441H27.5975V79.99ZM42.2455 79.99H52.8015V83.412H46.3055V87.936H52.0765V91.358H46.3055V96.578H52.8015V100H42.2455V79.99ZM68.4409 100H64.1779L61.2489 92.141H59.2479V100H55.1879V79.99H61.4519C65.3089 79.99 67.8319 82.049 67.8319 86.109C67.8319 88.806 66.7589 90.575 65.0479 91.445L68.4409 100ZM59.2479 88.719H60.9879C62.6989 88.719 63.7719 88.197 63.7719 86.109C63.7719 84.021 62.6989 83.441 60.9879 83.441H59.2479V88.719ZM75.9559 94.693C75.9559 92.054 77.2899 90.285 78.7689 88.893C77.8409 87.443 77.1739 86.051 77.1739 84.282C77.1739 81.527 79.2039 79.729 82.0459 79.729C85.0619 79.729 86.8019 81.643 86.8019 83.702C86.8019 85.935 85.0909 87.588 83.3799 89.125L86.0479 93.301C86.1929 92.518 86.2509 91.619 86.2509 90.662H89.9629C89.9629 92.721 89.4989 94.693 88.6579 96.317L91.4129 100H87.0629L86.2799 98.782C85.1199 99.71 83.6699 100.261 82.0169 100.261C78.1889 100.261 75.9559 97.68 75.9559 94.693ZM82.1909 96.839C82.9159 96.839 83.5249 96.578 84.0179 96.143L80.7989 91.358C80.2189 92.112 79.8999 92.837 79.8999 94.2C79.8999 95.302 80.5089 96.839 82.1909 96.839ZM80.9439 84.282C80.9439 85.152 81.2339 86.022 81.6399 86.776C82.6259 85.848 83.2639 85.007 83.2639 83.934C83.2639 83.18 82.8289 82.542 82.1039 82.542C81.4079 82.542 80.9439 83.093 80.9439 84.282ZM99.5091 79.99H110.065V83.412H103.569V88.4H109.34V91.822H103.569V100H99.5091V79.99ZM116.602 79.99V100H112.542V79.99H116.602ZM118.761 79.99H131.521V83.441H127.171V100H123.111V83.441H118.761V79.99ZM142.457 79.99H146.517V100H143.124L137.469 89.067V100H133.409V79.99H136.773L142.457 91.097V79.99ZM149.919 79.99H160.475V83.412H153.979V87.936H159.75V91.358H153.979V96.578H160.475V100H149.919V79.99ZM174.375 82.977L171.446 85.094C170.634 83.905 169.764 83.151 168.575 83.151C167.183 83.151 166.516 83.992 166.516 85.355C166.516 86.921 167.386 87.559 169.503 88.255C173.099 89.415 174.607 90.894 174.607 94.432C174.607 97.709 172.519 100.261 168.662 100.261C165.675 100.261 163.616 99.304 162.05 96.984L165.095 94.838C166.023 95.998 166.893 96.839 168.372 96.839C169.996 96.839 170.547 95.824 170.547 94.606C170.547 93.214 169.909 92.431 167.386 91.619C164.022 90.517 162.456 88.661 162.456 85.355C162.456 82.194 164.341 79.729 168.401 79.729C171.069 79.729 173.215 80.773 174.375 82.977ZM188.705 82.977L185.776 85.094C184.964 83.905 184.094 83.151 182.905 83.151C181.513 83.151 180.846 83.992 180.846 85.355C180.846 86.921 181.716 87.559 183.833 88.255C187.429 89.415 188.937 90.894 188.937 94.432C188.937 97.709 186.849 100.261 182.992 100.261C180.005 100.261 177.946 99.304 176.38 96.984L179.425 94.838C180.353 95.998 181.223 96.839 182.702 96.839C184.326 96.839 184.877 95.824 184.877 94.606C184.877 93.214 184.239 92.431 181.716 91.619C178.352 90.517 176.786 88.661 176.786 85.355C176.786 82.194 178.671 79.729 182.731 79.729C185.399 79.729 187.545 80.773 188.705 82.977ZM193.568 80.0956C195.175 80.0956 196.688 81.0784 196.688 83.044C196.688 84.1204 196.173 84.9784 195.456 85.4152C196.158 85.8052 196.829 86.788 196.829 88.0048C196.829 90.0172 195.347 91.1404 193.568 91.1404C191.79 91.1404 190.308 90.0172 190.308 88.0048C190.308 86.788 190.979 85.8052 191.681 85.4152C190.963 84.9784 190.448 84.1204 190.448 83.044C190.448 81.0784 191.961 80.0956 193.568 80.0956ZM193.568 89.3152C194.223 89.3152 194.645 88.66 194.645 87.802C194.645 86.8348 194.13 86.3044 193.568 86.3044C193.007 86.3044 192.492 86.8348 192.492 87.802C192.492 88.66 192.913 89.3152 193.568 89.3152ZM193.568 81.9364C192.975 81.9364 192.601 82.5292 192.601 83.2624C192.601 84.0112 192.975 84.6196 193.568 84.6196C194.161 84.6196 194.535 84.0112 194.535 83.2624C194.535 82.5292 194.161 81.9364 193.568 81.9364ZM200.675 88.5664V91.7176L198.553 93.5272V88.5664H200.675ZM207.059 80.236V91H204.875V82.654L203.596 83.668V81.4216L205.125 80.236H207.059ZM214.977 80.236V91H212.793V82.654L211.514 83.668V81.4216L213.043 80.236H214.977Z" fill="#FDE9AA"/>
<line x1="240" y1="18.001" x2="240" y2="164.001" stroke="#FF005A" stroke-width="2"/>
<path d="M279.292 130H277.582L281.23 116.89H282.674L286.341 130H284.631L283.89 126.998H280.033L279.292 130ZM281.952 119.664L280.508 125.516H283.396L281.952 119.664ZM289.411 116.89V128.518H294.18V130H287.777V116.89H289.411ZM293.742 116.89H301.513V118.372H298.435V130H296.801V118.372H293.742V116.89ZM302.88 116.89H309.283V118.372H304.514V122.476H308.827V123.958H304.514V128.518H309.283V130H302.88V116.89ZM318.679 130H316.95L314.841 124.471H312.808V130H311.174V116.89H314.556C316.988 116.89 318.413 118.144 318.413 120.69C318.413 122.533 317.691 123.692 316.38 124.186L318.679 130ZM312.808 122.989H314.556C316.228 122.989 316.779 122.305 316.779 120.69C316.779 119.056 316.228 118.372 314.556 118.372H312.808V122.989ZM330.279 116.89H331.913V124.661C331.913 128.537 330.412 130.152 328.075 130.152C325.719 130.152 324.237 128.537 324.237 124.68V116.89H325.871V124.68C325.871 127.625 326.574 128.67 328.075 128.67C329.576 128.67 330.279 127.625 330.279 124.68V116.89ZM340.065 116.89H341.699V130H340.179L336.132 120.918V130H334.498V116.89H335.961L340.065 126.067V116.89ZM347.696 130H344.276V116.89H347.696C350.014 116.89 351.496 118.524 351.496 122.761V124.129C351.496 128.366 350.014 130 347.696 130ZM347.696 128.518C349.216 128.518 349.862 127.378 349.862 124.129V122.761C349.862 119.512 349.197 118.372 347.696 118.372H345.91V128.518H347.696ZM357.357 116.89H363.76V118.372H358.991V122.476H363.304V123.958H358.991V128.518H363.76V130H357.357V116.89ZM372.757 120.975H371.218C370.838 118.923 370.173 118.22 368.957 118.22C367.437 118.22 366.753 119.398 366.753 122.723V124.167C366.753 127.473 367.418 128.67 368.957 128.67C370.249 128.67 370.857 127.834 371.218 125.915H372.738C372.415 128.86 371.047 130.152 368.957 130.152C366.601 130.152 365.119 128.404 365.119 124.167V122.723C365.119 118.486 366.601 116.738 368.957 116.738C371.123 116.738 372.415 118.106 372.757 120.975ZM381.645 124.167C381.645 128.404 380.163 130.152 377.807 130.152C375.451 130.152 373.969 128.404 373.969 124.167V122.723C373.969 118.486 375.451 116.738 377.807 116.738C380.163 116.738 381.645 118.486 381.645 122.723V124.167ZM375.603 122.723V124.167C375.603 127.492 376.249 128.67 377.807 128.67C379.365 128.67 380.011 127.492 380.011 124.167V122.723C380.011 119.398 379.365 118.22 377.807 118.22C376.249 118.22 375.603 119.398 375.603 122.723ZM387.03 123.407H390.887V124.167C390.887 128.404 389.348 130.152 387.011 130.152C384.655 130.152 383.173 128.404 383.173 124.167V122.723C383.173 118.486 384.655 116.738 387.011 116.738C389.139 116.738 390.469 118.087 390.811 120.975H389.272C388.93 119.018 388.284 118.22 387.011 118.22C385.472 118.22 384.807 119.398 384.807 122.723V124.167C384.807 127.492 385.472 128.67 387.011 128.67C388.379 128.67 389.196 127.644 389.253 124.889H387.03V123.407ZM392.109 125.193V123.825H396.118V125.193H392.109ZM270.847 140.89V152.518H275.616V154H269.213V140.89H270.847ZM276.913 140.89H283.316V142.372H278.547V146.476H282.86V147.958H278.547V152.518H283.316V154H276.913V140.89ZM286.993 140.89V154H285.359V140.89H286.993ZM296.289 142.885L295.054 143.721C294.541 142.847 293.99 142.22 292.736 142.22C291.615 142.22 290.95 142.98 290.95 144.272C290.95 145.697 291.615 146.248 293.23 146.704C295.244 147.274 296.498 148.319 296.498 150.485C296.498 152.195 295.567 154.152 292.907 154.152C291.178 154.152 289.924 153.43 289.126 152.005L290.418 151.131C291.121 152.138 291.71 152.67 292.907 152.67C294.541 152.67 294.883 151.568 294.883 150.561C294.883 149.421 294.522 148.642 292.584 148.11C290.627 147.578 289.316 146.457 289.316 144.272C289.316 142.448 290.361 140.738 292.774 140.738C294.465 140.738 295.529 141.441 296.289 142.885ZM297.072 140.89H304.843V142.372H301.765V154H300.131V142.372H297.072V140.89ZM312.253 140.89H313.887V148.661C313.887 152.537 312.386 154.152 310.049 154.152C307.693 154.152 306.211 152.537 306.211 148.68V140.89H307.845V148.68C307.845 151.625 308.548 152.67 310.049 152.67C311.55 152.67 312.253 151.625 312.253 148.68V140.89ZM322.039 140.89H323.673V154H322.153L318.106 144.918V154H316.472V140.89H317.935L322.039 150.067V140.89ZM329.575 147.407H333.432V148.167C333.432 152.404 331.893 154.152 329.556 154.152C327.2 154.152 325.718 152.404 325.718 148.167V146.723C325.718 142.486 327.2 140.738 329.556 140.738C331.684 140.738 333.014 142.087 333.356 144.975H331.817C331.475 143.018 330.829 142.22 329.556 142.22C328.017 142.22 327.352 143.398 327.352 146.723V148.167C327.352 151.492 328.017 152.67 329.556 152.67C330.924 152.67 331.741 151.644 331.798 148.889H329.575V147.407ZM342.045 142.885L340.81 143.721C340.297 142.847 339.746 142.22 338.492 142.22C337.371 142.22 336.706 142.98 336.706 144.272C336.706 145.697 337.371 146.248 338.986 146.704C341 147.274 342.254 148.319 342.254 150.485C342.254 152.195 341.323 154.152 338.663 154.152C336.934 154.152 335.68 153.43 334.882 152.005L336.174 151.131C336.877 152.138 337.466 152.67 338.663 152.67C340.297 152.67 340.639 151.568 340.639 150.561C340.639 149.421 340.278 148.642 338.34 148.11C336.383 147.578 335.072 146.457 335.072 144.272C335.072 142.448 336.117 140.738 338.53 140.738C340.221 140.738 341.285 141.441 342.045 142.885ZM350.84 142.885L349.605 143.721C349.092 142.847 348.541 142.22 347.287 142.22C346.166 142.22 345.501 142.98 345.501 144.272C345.501 145.697 346.166 146.248 347.781 146.704C349.795 147.274 351.049 148.319 351.049 150.485C351.049 152.195 350.118 154.152 347.458 154.152C345.729 154.152 344.475 153.43 343.677 152.005L344.969 151.131C345.672 152.138 346.261 152.67 347.458 152.67C349.092 152.67 349.434 151.568 349.434 150.561C349.434 149.421 349.073 148.642 347.135 148.11C345.178 147.578 343.867 146.457 343.867 144.272C343.867 142.448 344.912 140.738 347.325 140.738C349.016 140.738 350.08 141.441 350.84 142.885ZM351.623 140.89H359.394V142.372H356.316V154H354.682V142.372H351.623V140.89ZM360.868 154H359.158L362.806 140.89H364.25L367.917 154H366.207L365.466 150.998H361.609L360.868 154ZM363.528 143.664L362.084 149.516H364.972L363.528 143.664ZM367.673 140.89H375.444V142.372H372.366V154H370.732V142.372H367.673V140.89ZM382.854 140.89H384.488V148.661C384.488 152.537 382.987 154.152 380.65 154.152C378.294 154.152 376.812 152.537 376.812 148.68V140.89H378.446V148.68C378.446 151.625 379.149 152.67 380.65 152.67C382.151 152.67 382.854 151.625 382.854 148.68V140.89ZM393.627 142.885L392.392 143.721C391.879 142.847 391.328 142.22 390.074 142.22C388.953 142.22 388.288 142.98 388.288 144.272C388.288 145.697 388.953 146.248 390.568 146.704C392.582 147.274 393.836 148.319 393.836 150.485C393.836 152.195 392.905 154.152 390.245 154.152C388.516 154.152 387.262 153.43 386.464 152.005L387.756 151.131C388.459 152.138 389.048 152.67 390.245 152.67C391.879 152.67 392.221 151.568 392.221 150.561C392.221 149.421 391.86 148.642 389.922 148.11C387.965 147.578 386.654 146.457 386.654 144.272C386.654 142.448 387.699 140.738 390.112 140.738C391.803 140.738 392.867 141.441 393.627 142.885ZM405.295 152.518V154H399.063V152.632L402.559 147.293C403.3 146.153 403.699 145.241 403.699 144.177C403.699 142.885 403.167 142.201 402.274 142.201C401.419 142.201 400.83 142.904 400.792 144.253H399.234C399.234 142.087 400.621 140.738 402.293 140.738C404.079 140.738 405.333 142.087 405.333 144.177C405.333 145.887 404.497 147.16 403.87 148.148L401.096 152.518H405.295Z" fill="white"/>
<path d="M407.811 140.501H409.611V138.791H410.385V140.501H412.185V141.203H410.385V144.299H412.185V145.001H410.385V146.711H409.611V145.001H407.811V144.299H409.611V141.203H407.811V140.501Z" fill="white"/>
<path d="M502.918 129H500.999L497.788 122.559L496.04 125.314V129H494.406V115.89H496.04V122.635L500.334 115.89H502.158L498.871 121.134L502.918 129ZM510.319 115.89H511.953V123.661C511.953 127.537 510.452 129.152 508.115 129.152C505.759 129.152 504.277 127.537 504.277 123.68V115.89H505.911V123.68C505.911 126.625 506.614 127.67 508.115 127.67C509.616 127.67 510.319 126.625 510.319 123.68V115.89ZM516.172 115.89L519.079 123.813L521.967 115.89H523.62V129H521.986V120.203L519.725 126.264H518.376L516.172 120.203V129H514.538V115.89H516.172ZM532.251 115.89H533.885V123.661C533.885 127.537 532.384 129.152 530.047 129.152C527.691 129.152 526.209 127.537 526.209 123.68V115.89H527.843V123.68C527.843 126.625 528.546 127.67 530.047 127.67C531.548 127.67 532.251 126.625 532.251 123.68V115.89ZM538.103 115.89V127.518H542.872V129H536.469V115.89H538.103ZM544.888 129H543.178L546.826 115.89H548.27L551.937 129H550.227L549.486 125.998H545.629L544.888 129ZM547.548 118.664L546.104 124.516H548.992L547.548 118.664ZM551.693 115.89H559.464V117.372H556.386V129H554.752V117.372H551.693V115.89ZM562.618 115.89V129H560.984V115.89H562.618ZM564.219 115.89H565.948L568.722 126.15L571.496 115.89H573.225L569.444 129H568.019L564.219 115.89ZM574.673 115.89H581.076V117.372H576.307V121.476H580.62V122.958H576.307V127.518H581.076V129H574.673V115.89ZM585.555 115.89H593.326V117.372H590.248V129H588.614V117.372H585.555V115.89ZM601.838 123.167C601.838 127.404 600.356 129.152 598 129.152C595.644 129.152 594.162 127.404 594.162 123.167V121.723C594.162 117.486 595.644 115.738 598 115.738C600.356 115.738 601.838 117.486 601.838 121.723V123.167ZM595.796 121.723V123.167C595.796 126.492 596.442 127.67 598 127.67C599.558 127.67 600.204 126.492 600.204 123.167V121.723C600.204 118.398 599.558 117.22 598 117.22C596.442 117.22 595.796 118.398 595.796 121.723ZM604.472 129H602.705L605.707 122.236L603.047 115.89H604.814L606.638 120.697L608.481 115.89H610.248L607.569 122.236L610.59 129H608.823L606.638 123.908L604.472 129ZM613.977 115.89V129H612.343V115.89H613.977ZM615.882 115.89H622.779V116.992L617.82 127.518H622.931V129H615.882V127.898L620.822 117.372H615.882V115.89ZM626.464 115.89V129H624.83V115.89H626.464ZM627.99 115.89H635.761V117.372H632.683V129H631.049V117.372H627.99V115.89ZM637.235 129H635.525L639.173 115.89H640.617L644.284 129H642.574L641.833 125.998H637.976L637.235 129ZM639.895 118.664L638.451 124.516H641.339L639.895 118.664ZM640.693 114.199V112.489H642.403V114.199H640.693ZM637.387 114.199V112.489H639.097V114.199H637.387ZM644.039 115.89H651.81V117.372H648.732V129H647.098V117.372H644.039V115.89ZM500.929 139.89H502.658L505.432 150.15L508.206 139.89H509.935L506.154 153H504.729L500.929 139.89ZM518.379 147.167C518.379 151.404 516.897 153.152 514.541 153.152C512.185 153.152 510.703 151.404 510.703 147.167V145.723C510.703 141.486 512.185 139.738 514.541 139.738C516.897 139.738 518.379 141.486 518.379 145.723V147.167ZM512.337 145.723V147.167C512.337 150.492 512.983 151.67 514.541 151.67C516.099 151.67 516.745 150.492 516.745 147.167V145.723C516.745 142.398 516.099 141.22 514.541 141.22C512.983 141.22 512.337 142.398 512.337 145.723ZM526.005 139.89H527.639V153H526.119L522.072 143.918V153H520.438V139.89H521.901L526.005 149.067V139.89ZM534.02 139.89H537.269C539.739 139.89 540.955 141.049 540.955 143.234C540.955 144.602 540.233 145.856 539.226 146.16C540.537 146.464 541.297 147.566 541.297 149.238C541.297 151.138 540.328 153 537.592 153H534.02V139.89ZM535.654 146.939V151.518H537.592C539.074 151.518 539.663 150.663 539.663 149.238C539.663 147.661 538.979 146.939 537.364 146.939H535.654ZM535.654 141.353V145.457H537.478C538.846 145.457 539.321 144.526 539.321 143.234C539.321 142.075 538.979 141.353 537.269 141.353H535.654ZM544.991 139.89V153H543.357V139.89H544.991ZM554.876 147.167C554.876 151.404 553.394 153.152 551.038 153.152C548.682 153.152 547.2 151.404 547.2 147.167V145.723C547.2 141.486 548.682 139.738 551.038 139.738C553.394 139.738 554.876 141.486 554.876 145.723V147.167ZM548.834 145.723V147.167C548.834 150.492 549.48 151.67 551.038 151.67C552.596 151.67 553.242 150.492 553.242 147.167V145.723C553.242 142.398 552.596 141.22 551.038 141.22C549.48 141.22 548.834 142.398 548.834 145.723ZM564.041 143.975H562.502C562.122 141.923 561.457 141.22 560.241 141.22C558.721 141.22 558.037 142.398 558.037 145.723V147.167C558.037 150.473 558.702 151.67 560.241 151.67C561.533 151.67 562.141 150.834 562.502 148.915H564.022C563.699 151.86 562.331 153.152 560.241 153.152C557.885 153.152 556.403 151.404 556.403 147.167V145.723C556.403 141.486 557.885 139.738 560.241 139.738C562.407 139.738 563.699 141.106 564.041 143.975ZM567.42 139.89V145.476H571.334V139.89H572.968V153H571.334V146.958H567.42V153H565.786V139.89H567.42ZM575.545 139.89H581.948V141.372H577.179V145.476H581.492V146.958H577.179V151.518H581.948V153H575.545V139.89ZM585.473 139.89L588.38 147.813L591.268 139.89H592.921V153H591.287V144.203L589.026 150.264H587.677L585.473 144.203V153H583.839V139.89H585.473ZM597.296 139.89V153H595.662V139.89H597.296ZM606.593 141.885L605.358 142.721C604.845 141.847 604.294 141.22 603.04 141.22C601.919 141.22 601.254 141.98 601.254 143.272C601.254 144.697 601.919 145.248 603.534 145.704C605.548 146.274 606.802 147.319 606.802 149.485C606.802 151.195 605.871 153.152 603.211 153.152C601.482 153.152 600.228 152.43 599.43 151.005L600.722 150.131C601.425 151.138 602.014 151.67 603.211 151.67C604.845 151.67 605.187 150.568 605.187 149.561C605.187 148.421 604.826 147.642 602.888 147.11C600.931 146.578 599.62 145.457 599.62 143.272C599.62 141.448 600.665 139.738 603.078 139.738C604.769 139.738 605.833 140.441 606.593 141.885ZM615.939 143.975H614.4C614.02 141.923 613.355 141.22 612.139 141.22C610.619 141.22 609.935 142.398 609.935 145.723V147.167C609.935 150.473 610.6 151.67 612.139 151.67C613.431 151.67 614.039 150.834 614.4 148.915H615.92C615.597 151.86 614.229 153.152 612.139 153.152C609.783 153.152 608.301 151.404 608.301 147.167V145.723C608.301 141.486 609.783 139.738 612.139 139.738C614.305 139.738 615.597 141.106 615.939 143.975ZM619.317 139.89V145.476H623.231V139.89H624.865V153H623.231V146.958H619.317V153H617.683V139.89H619.317ZM627.443 139.89H633.846V141.372H629.077V145.476H633.39V146.958H629.077V151.518H633.846V153H627.443V139.89ZM641.304 139.89H642.938V153H641.418L637.371 143.918V153H635.737V139.89H637.2L641.304 149.067V139.89ZM488.91 165.885L487.675 166.721C487.162 165.847 486.611 165.22 485.357 165.22C484.236 165.22 483.57 165.98 483.57 167.272C483.57 168.697 484.236 169.248 485.851 169.704C487.865 170.274 489.119 171.319 489.119 173.485C489.119 175.195 488.188 177.152 485.528 177.152C483.799 177.152 482.545 176.43 481.747 175.005L483.039 174.131C483.742 175.138 484.331 175.67 485.528 175.67C487.162 175.67 487.504 174.568 487.504 173.561C487.504 172.421 487.143 171.642 485.205 171.11C483.248 170.578 481.937 169.457 481.937 167.272C481.937 165.448 482.982 163.738 485.395 163.738C487.086 163.738 488.15 164.441 488.91 165.885ZM489.809 163.89H491.671L493.761 169.4L495.87 163.89H497.732L494.578 171.376V177H492.944V171.376L489.809 163.89ZM505.646 165.885L504.411 166.721C503.898 165.847 503.347 165.22 502.093 165.22C500.972 165.22 500.307 165.98 500.307 167.272C500.307 168.697 500.972 169.248 502.587 169.704C504.601 170.274 505.855 171.319 505.855 173.485C505.855 175.195 504.924 177.152 502.264 177.152C500.535 177.152 499.281 176.43 498.483 175.005L499.775 174.131C500.478 175.138 501.067 175.67 502.264 175.67C503.898 175.67 504.24 174.568 504.24 173.561C504.24 172.421 503.879 171.642 501.941 171.11C499.984 170.578 498.673 169.457 498.673 167.272C498.673 165.448 499.718 163.738 502.131 163.738C503.822 163.738 504.886 164.441 505.646 165.885ZM506.429 163.89H514.2V165.372H511.122V177H509.488V165.372H506.429V163.89ZM515.567 163.89H521.97V165.372H517.201V169.476H521.514V170.958H517.201V175.518H521.97V177H515.567V163.89ZM525.495 163.89L528.402 171.813L531.29 163.89H532.943V177H531.309V168.203L529.048 174.264H527.699L525.495 168.203V177H523.861V163.89H525.495ZM537.318 163.89V177H535.684V163.89H537.318ZM546.615 165.885L545.38 166.721C544.867 165.847 544.316 165.22 543.062 165.22C541.941 165.22 541.276 165.98 541.276 167.272C541.276 168.697 541.941 169.248 543.556 169.704C545.57 170.274 546.824 171.319 546.824 173.485C546.824 175.195 545.893 177.152 543.233 177.152C541.504 177.152 540.25 176.43 539.452 175.005L540.744 174.131C541.447 175.138 542.036 175.67 543.233 175.67C544.867 175.67 545.209 174.568 545.209 173.561C545.209 172.421 544.848 171.642 542.91 171.11C540.953 170.578 539.642 169.457 539.642 167.272C539.642 165.448 540.687 163.738 543.1 163.738C544.791 163.738 545.855 164.441 546.615 165.885ZM555.961 167.975H554.422C554.042 165.923 553.377 165.22 552.161 165.22C550.641 165.22 549.957 166.398 549.957 169.723V171.167C549.957 174.473 550.622 175.67 552.161 175.67C553.453 175.67 554.061 174.834 554.422 172.915H555.942C555.619 175.86 554.251 177.152 552.161 177.152C549.805 177.152 548.323 175.404 548.323 171.167V169.723C548.323 165.486 549.805 163.738 552.161 163.738C554.327 163.738 555.619 165.106 555.961 167.975ZM559.339 163.89V169.476H563.253V163.89H564.887V177H563.253V170.958H559.339V177H557.705V163.89H559.339ZM567.465 163.89H573.868V165.372H569.099V169.476H573.412V170.958H569.099V175.518H573.868V177H567.465V163.89ZM581.326 163.89H582.96V177H581.44L577.393 167.918V177H575.759V163.89H577.222L581.326 173.067V163.89ZM588.125 163.89H595.896V165.372H592.818V177H591.184V165.372H588.125V163.89ZM598.898 163.89V169.476H602.812V163.89H604.446V177H602.812V170.958H598.898V177H597.264V163.89H598.898ZM607.023 163.89H613.426V165.372H608.657V169.476H612.97V170.958H608.657V175.518H613.426V177H607.023V163.89ZM622.822 177H621.093L618.984 171.471H616.951V177H615.317V163.89H618.699C621.131 163.89 622.556 165.144 622.556 167.69C622.556 169.533 621.834 170.692 620.523 171.186L622.822 177ZM616.951 169.989H618.699C620.371 169.989 620.922 169.305 620.922 167.69C620.922 166.056 620.371 165.372 618.699 165.372H616.951V169.989ZM625.146 177H623.436L627.084 163.89H628.528L632.195 177H630.485L629.744 173.998H625.887L625.146 177ZM627.806 166.664L626.362 172.516H629.25L627.806 166.664ZM637.051 172.003H635.265V177H633.631V163.89H637.051C639.464 163.89 640.87 165.41 640.87 167.956C640.87 170.483 639.483 172.003 637.051 172.003ZM635.265 170.521H637.051C638.704 170.521 639.236 169.571 639.236 167.956C639.236 166.322 638.704 165.372 637.051 165.372H635.265V170.521ZM644.416 163.89V177H642.782V163.89H644.416ZM647.157 163.89H653.56V165.372H648.791V169.476H653.104V170.958H648.791V175.518H653.56V177H647.157V163.89ZM661.018 163.89H662.652V177H661.132L657.085 167.918V177H655.451V163.89H656.914L661.018 173.067V163.89Z" fill="white"/>
<path d="M759.842 115.89H761.476V123.661C761.476 127.537 759.975 129.152 757.638 129.152C755.282 129.152 753.8 127.537 753.8 123.68V115.89H755.434V123.68C755.434 126.625 756.137 127.67 757.638 127.67C759.139 127.67 759.842 126.625 759.842 123.68V115.89ZM769.628 115.89H771.262V129H769.742L765.695 119.918V129H764.061V115.89H765.524L769.628 125.067V115.89ZM777.164 122.407H781.021V123.167C781.021 127.404 779.482 129.152 777.145 129.152C774.789 129.152 773.307 127.404 773.307 123.167V121.723C773.307 117.486 774.789 115.738 777.145 115.738C779.273 115.738 780.603 117.087 780.945 119.975H779.406C779.064 118.018 778.418 117.22 777.145 117.22C775.606 117.22 774.941 118.398 774.941 121.723V123.167C774.941 126.492 775.606 127.67 777.145 127.67C778.513 127.67 779.33 126.644 779.387 123.889H777.164V122.407ZM789.121 115.89H790.755V123.661C790.755 127.537 789.254 129.152 786.917 129.152C784.561 129.152 783.079 127.537 783.079 123.68V115.89H784.713V123.68C784.713 126.625 785.416 127.67 786.917 127.67C788.418 127.67 789.121 126.625 789.121 123.68V115.89ZM787.715 114.199V112.489H789.425V114.199H787.715ZM784.409 114.199V112.489H786.119V114.199H784.409ZM798.907 115.89H800.541V129H799.021L794.974 119.918V129H793.34V115.89H794.803L798.907 125.067V115.89ZM809.673 117.885L808.438 118.721C807.925 117.847 807.374 117.22 806.12 117.22C804.999 117.22 804.334 117.98 804.334 119.272C804.334 120.697 804.999 121.248 806.614 121.704C808.628 122.274 809.882 123.319 809.882 125.485C809.882 127.195 808.951 129.152 806.291 129.152C804.562 129.152 803.308 128.43 802.51 127.005L803.802 126.131C804.505 127.138 805.094 127.67 806.291 127.67C807.925 127.67 808.267 126.568 808.267 125.561C808.267 124.421 807.906 123.642 805.968 123.11C804.011 122.578 802.7 121.457 802.7 119.272C802.7 117.448 803.745 115.738 806.158 115.738C807.849 115.738 808.913 116.441 809.673 117.885ZM810.456 115.89H818.227V117.372H815.149V129H813.515V117.372H810.456V115.89ZM821.381 115.89V129H819.747V115.89H821.381ZM827.447 122.407H831.304V123.167C831.304 127.404 829.765 129.152 827.428 129.152C825.072 129.152 823.59 127.404 823.59 123.167V121.723C823.59 117.486 825.072 115.738 827.428 115.738C829.556 115.738 830.886 117.087 831.228 119.975H829.689C829.347 118.018 828.701 117.22 827.428 117.22C825.889 117.22 825.224 118.398 825.224 121.723V123.167C825.224 126.492 825.889 127.67 827.428 127.67C828.796 127.67 829.613 126.644 829.67 123.889H827.447V122.407ZM833.362 115.89H839.765V117.372H834.996V121.476H839.309V122.958H834.996V127.518H839.765V129H833.362V115.89ZM849.161 129H847.432L845.323 123.471H843.29V129H841.656V115.89H845.038C847.47 115.89 848.895 117.144 848.895 119.69C848.895 121.533 848.173 122.692 846.862 123.186L849.161 129ZM843.29 121.989H845.038C846.71 121.989 847.261 121.305 847.261 119.69C847.261 118.056 846.71 117.372 845.038 117.372H843.29V121.989ZM850.915 115.89H857.318V117.372H852.549V121.476H856.862V122.958H852.549V127.518H857.318V129H850.915V115.89ZM866.433 124.003H864.647V129H863.013V115.89H866.433C868.846 115.89 870.252 117.41 870.252 119.956C870.252 122.483 868.865 124.003 866.433 124.003ZM864.647 122.521H866.433C868.086 122.521 868.618 121.571 868.618 119.956C868.618 118.322 868.086 117.372 866.433 117.372H864.647V122.521ZM879.517 129H877.788L875.679 123.471H873.646V129H872.012V115.89H875.394C877.826 115.89 879.251 117.144 879.251 119.69C879.251 121.533 878.529 122.692 877.218 123.186L879.517 129ZM873.646 121.989H875.394C877.066 121.989 877.617 121.305 877.617 119.69C877.617 118.056 877.066 117.372 875.394 117.372H873.646V121.989ZM888.415 123.167C888.415 127.404 886.933 129.152 884.577 129.152C882.221 129.152 880.739 127.404 880.739 123.167V121.723C880.739 117.486 882.221 115.738 884.577 115.738C886.933 115.738 888.415 117.486 888.415 121.723V123.167ZM882.373 121.723V123.167C882.373 126.492 883.019 127.67 884.577 127.67C886.135 127.67 886.781 126.492 886.781 123.167V121.723C886.781 118.398 886.135 117.22 884.577 117.22C883.019 117.22 882.373 118.398 882.373 121.723ZM893.799 122.407H897.656V123.167C897.656 127.404 896.117 129.152 893.78 129.152C891.424 129.152 889.942 127.404 889.942 123.167V121.723C889.942 117.486 891.424 115.738 893.78 115.738C895.908 115.738 897.238 117.087 897.58 119.975H896.041C895.699 118.018 895.053 117.22 893.78 117.22C892.241 117.22 891.576 118.398 891.576 121.723V123.167C891.576 126.492 892.241 127.67 893.78 127.67C895.148 127.67 895.965 126.644 896.022 123.889H893.799V122.407ZM905.281 115.89H906.915V129H905.395L901.348 119.918V129H899.714V115.89H901.177L905.281 125.067V115.89ZM916.636 123.167C916.636 127.404 915.154 129.152 912.798 129.152C910.442 129.152 908.96 127.404 908.96 123.167V121.723C908.96 117.486 910.442 115.738 912.798 115.738C915.154 115.738 916.636 117.486 916.636 121.723V123.167ZM910.594 121.723V123.167C910.594 126.492 911.24 127.67 912.798 127.67C914.356 127.67 915.002 126.492 915.002 123.167V121.723C915.002 118.398 914.356 117.22 912.798 117.22C911.24 117.22 910.594 118.398 910.594 121.723ZM925.25 117.885L924.015 118.721C923.502 117.847 922.951 117.22 921.697 117.22C920.576 117.22 919.911 117.98 919.911 119.272C919.911 120.697 920.576 121.248 922.191 121.704C924.205 122.274 925.459 123.319 925.459 125.485C925.459 127.195 924.528 129.152 921.868 129.152C920.139 129.152 918.885 128.43 918.087 127.005L919.379 126.131C920.082 127.138 920.671 127.67 921.868 127.67C923.502 127.67 923.844 126.568 923.844 125.561C923.844 124.421 923.483 123.642 921.545 123.11C919.588 122.578 918.277 121.457 918.277 119.272C918.277 117.448 919.322 115.738 921.735 115.738C923.426 115.738 924.49 116.441 925.25 117.885ZM927.49 115.89H933.893V117.372H929.124V121.476H933.437V122.958H929.124V127.518H933.893V129H927.49V115.89ZM815.494 139.89H821.897V141.372H817.128V145.78H821.441V147.262H817.128V153H815.494V139.89ZM829.682 139.89H831.316V147.661C831.316 151.537 829.815 153.152 827.478 153.152C825.122 153.152 823.64 151.537 823.64 147.68V139.89H825.274V147.68C825.274 150.625 825.977 151.67 827.478 151.67C828.979 151.67 829.682 150.625 829.682 147.68V139.89ZM828.276 138.199V136.489H829.986V138.199H828.276ZM824.97 138.199V136.489H826.68V138.199H824.97ZM841.405 153H839.676L837.567 147.471H835.534V153H833.9V139.89H837.282C839.714 139.89 841.139 141.144 841.139 143.69C841.139 145.533 840.417 146.692 839.106 147.186L841.405 153ZM835.534 145.989H837.282C838.954 145.989 839.505 145.305 839.505 143.69C839.505 142.056 838.954 141.372 837.282 141.372H835.534V145.989ZM850.383 153H846.963V139.89H850.383C852.701 139.89 854.183 141.524 854.183 145.761V147.129C854.183 151.366 852.701 153 850.383 153ZM850.383 151.518C851.903 151.518 852.549 150.378 852.549 147.129V145.761C852.549 142.512 851.884 141.372 850.383 141.372H848.597V151.518H850.383ZM856.81 153H855.1L858.748 139.89H860.192L863.859 153H862.149L861.408 149.998H857.551L856.81 153ZM859.47 142.664L858.026 148.516H860.914L859.47 142.664ZM871.85 141.885L870.615 142.721C870.102 141.847 869.551 141.22 868.297 141.22C867.176 141.22 866.511 141.98 866.511 143.272C866.511 144.697 867.176 145.248 868.791 145.704C870.805 146.274 872.059 147.319 872.059 149.485C872.059 151.195 871.128 153.152 868.468 153.152C866.739 153.152 865.485 152.43 864.687 151.005L865.979 150.131C866.682 151.138 867.271 151.67 868.468 151.67C870.102 151.67 870.444 150.568 870.444 149.561C870.444 148.421 870.083 147.642 868.145 147.11C866.188 146.578 864.877 145.457 864.877 143.272C864.877 141.448 865.922 139.738 868.335 139.738C870.026 139.738 871.09 140.441 871.85 141.885ZM780.504 170.407H784.361V171.167C784.361 175.404 782.822 177.152 780.485 177.152C778.129 177.152 776.647 175.404 776.647 171.167V169.723C776.647 165.486 778.129 163.738 780.485 163.738C782.613 163.738 783.943 165.087 784.285 167.975H782.746C782.404 166.018 781.758 165.22 780.485 165.22C778.946 165.22 778.281 166.398 778.281 169.723V171.167C778.281 174.492 778.946 175.67 780.485 175.67C781.853 175.67 782.67 174.644 782.727 171.889H780.504V170.407ZM786.419 163.89H792.822V165.372H788.053V169.476H792.366V170.958H788.053V175.518H792.822V177H786.419V163.89ZM801.268 165.885L800.033 166.721C799.52 165.847 798.969 165.22 797.715 165.22C796.594 165.22 795.929 165.98 795.929 167.272C795.929 168.697 796.594 169.248 798.209 169.704C800.223 170.274 801.477 171.319 801.477 173.485C801.477 175.195 800.546 177.152 797.886 177.152C796.157 177.152 794.903 176.43 794.105 175.005L795.397 174.131C796.1 175.138 796.689 175.67 797.886 175.67C799.52 175.67 799.862 174.568 799.862 173.561C799.862 172.421 799.501 171.642 797.563 171.11C795.606 170.578 794.295 169.457 794.295 167.272C794.295 165.448 795.34 163.738 797.753 163.738C799.444 163.738 800.508 164.441 801.268 165.885ZM804.078 177H802.368L806.016 163.89H807.46L811.127 177H809.417L808.676 173.998H804.819L804.078 177ZM806.738 166.664L805.294 172.516H808.182L806.738 166.664ZM814.197 163.89L817.104 171.813L819.992 163.89H821.645V177H820.011V168.203L817.75 174.264H816.401L814.197 168.203V177H812.563V163.89H814.197ZM823.017 163.89H830.788V165.372H827.71V177H826.076V165.372H823.017V163.89ZM838.198 163.89H839.832V171.661C839.832 175.537 838.331 177.152 835.994 177.152C833.638 177.152 832.156 175.537 832.156 171.68V163.89H833.79V171.68C833.79 174.625 834.493 175.67 835.994 175.67C837.495 175.67 838.198 174.625 838.198 171.68V163.89ZM836.792 162.199V160.489H838.502V162.199H836.792ZM833.486 162.199V160.489H835.196V162.199H833.486ZM842.417 163.89H845.666C848.136 163.89 849.352 165.049 849.352 167.234C849.352 168.602 848.63 169.856 847.623 170.16C848.934 170.464 849.694 171.566 849.694 173.238C849.694 175.138 848.725 177 845.989 177H842.417V163.89ZM844.051 170.939V175.518H845.989C847.471 175.518 848.06 174.663 848.06 173.238C848.06 171.661 847.376 170.939 845.761 170.939H844.051ZM844.051 165.353V169.457H845.875C847.243 169.457 847.718 168.526 847.718 167.234C847.718 166.075 847.376 165.353 845.666 165.353H844.051ZM851.602 163.89H858.005V165.372H853.236V169.476H857.549V170.958H853.236V175.518H858.005V177H851.602V163.89ZM867.401 177H865.672L863.563 171.471H861.53V177H859.896V163.89H863.278C865.71 163.89 867.135 165.144 867.135 167.69C867.135 169.533 866.413 170.692 865.102 171.186L867.401 177ZM861.53 169.989H863.278C864.95 169.989 865.501 169.305 865.501 167.69C865.501 166.056 864.95 165.372 863.278 165.372H861.53V169.989ZM870.788 163.89V175.518H875.557V177H869.154V163.89H870.788ZM876.855 163.89H883.258V165.372H878.489V169.476H882.802V170.958H878.489V175.518H883.258V177H876.855V163.89ZM885.148 163.89H888.397C890.867 163.89 892.083 165.049 892.083 167.234C892.083 168.602 891.361 169.856 890.354 170.16C891.665 170.464 892.425 171.566 892.425 173.238C892.425 175.138 891.456 177 888.72 177H885.148V163.89ZM886.782 170.939V175.518H888.72C890.202 175.518 890.791 174.663 890.791 173.238C890.791 171.661 890.107 170.939 888.492 170.939H886.782ZM886.782 165.353V169.457H888.606C889.974 169.457 890.449 168.526 890.449 167.234C890.449 166.075 890.107 165.353 888.397 165.353H886.782ZM894.333 163.89H900.736V165.372H895.967V169.476H900.28V170.958H895.967V175.518H900.736V177H894.333V163.89ZM908.194 163.89H909.828V177H908.308L904.261 167.918V177H902.627V163.89H904.09L908.194 173.067V163.89Z" fill="white"/>
<path d="M351.204 11.2397C351.204 6.57466 347.254 2.79102 342.359 2.79102C337.465 2.79102 333.515 6.57466 333.515 11.2397C333.515 15.9048 337.465 19.6884 342.359 19.6884C347.254 19.6884 351.204 15.9048 351.204 11.2397Z" fill="#FFEFAE"/>
<path d="M363.526 47.1844L353.243 42.5194C351.161 41.5735 349.615 39.8106 349.014 37.7038C347.64 32.9313 344.806 24.5256 341.307 23.2787C336.134 21.4299 330.273 23.5367 326.044 26.9334C322.781 29.5561 319.067 32.5443 316.749 34.4147C315.31 35.5755 314.366 37.2309 314.13 39.0152C313.55 43.4868 312.498 51.5055 312.305 52.9244C312.047 54.9237 313.507 56.7295 315.589 56.966C317.672 57.224 319.561 55.8051 319.818 53.8273L321.214 43.1428C321.45 41.3585 322.394 39.7032 323.833 38.5423L329.2 34.2427C325.658 50.1727 326.409 46.7975 325.443 51.1401C325.98 51.9355 349.615 87.6436 350.13 88.439C351.676 90.7608 354.875 91.4487 357.3 89.9869C359.726 88.525 360.456 85.4508 358.91 83.129L339.289 53.5048L342.08 40.95L343.475 43.8308C344.248 45.4431 345.601 46.733 347.254 47.4854L360.435 53.4618C362.238 54.2788 364.385 53.5478 365.243 51.828C366.102 50.1082 365.329 48.0444 363.526 47.2274" fill="#FFEFAE"/>
<path d="M320.913 69.9506C320.827 70.273 320.676 70.5525 320.462 70.8105L310.479 83.7093C308.955 85.6871 309.385 88.4603 311.445 89.9222C313.506 91.384 316.404 90.9756 317.929 88.9978C319.088 87.5144 327.031 77.2384 328.898 74.8306C329.092 74.5726 329.242 74.2716 329.349 73.9707C329.8 72.4228 330.981 68.2307 331.195 67.5643L324.176 58.5566L320.913 69.9721V69.9506Z" fill="white"/>
<path d="M444.586 34.0273V66.1883" stroke="#FF005A" stroke-width="7"/>
<path d="M427.627 49.7637H460.837" stroke="#FF005A" stroke-width="7"/>
<path d="M683.088 44.1963H707.711" stroke="#FF005A" stroke-width="7"/>
<path d="M683.088 56.0205H707.711" stroke="#FF005A" stroke-width="7"/>
<path d="M575.708 29.0615H566.37V39.0581L568.152 63.2218H573.927L575.708 39.1656V29.0615ZM574.27 76.1206H567.808V69.5637H574.27V76.1206Z" fill="white"/>
<path d="M568.001 9.62758L527.278 80.4204C525.926 82.7636 527.621 85.7089 530.326 85.7089H611.773C614.478 85.7089 616.174 82.7636 614.822 80.4204L574.098 9.62758C572.746 7.2843 569.354 7.2843 568.001 9.62758Z" stroke="#FFEFAE" stroke-width="4" stroke-miterlimit="10"/>
<path d="M885.31 85.5587H925.862C925.068 64.0822 916.459 44.5836 902.827 29.836L874.147 58.5572C880.501 65.9095 884.58 75.2826 885.289 85.5802L885.31 85.5587ZM869.51 53.8707L898.169 25.1709C883.421 11.4552 863.907 2.79153 842.44 1.97461V42.5843C852.766 43.3152 862.147 47.4428 869.51 53.8707ZM835.849 42.5843V1.97461C814.403 2.79153 794.911 11.4122 780.163 25.1064L808.843 53.8062C816.185 47.4213 825.566 43.3152 835.849 42.5843Z" stroke="#FFEFAE" stroke-width="2" stroke-miterlimit="10"/>
<path d="M804.185 58.4918L775.527 29.7705C761.852 44.5396 753.222 64.0598 752.428 85.5577H792.98C793.688 75.2387 797.788 65.8441 804.185 58.4918Z" fill="#FDE9AA" stroke="#FFEFAE" stroke-miterlimit="10"/>
<path d="M771.041 62.2397C770.277 62.0474 769.495 62.4788 769.249 63.2274C769.004 63.976 769.38 64.7868 770.109 65.0837L803.18 78.5414L836.25 91.9991C836.286 92.0139 836.323 92.0271 836.36 92.039L836.816 90.6098C836.36 92.039 836.361 92.0392 836.362 92.0395L836.364 92.04L836.367 92.0412L836.376 92.0439L836.398 92.0507C836.415 92.0558 836.437 92.062 836.462 92.069C836.512 92.0831 836.579 92.1006 836.661 92.1196C836.824 92.1575 837.048 92.2019 837.318 92.2356C837.852 92.3023 838.602 92.3318 839.431 92.1629C840.27 91.992 841.196 91.6156 842.038 90.8726C842.881 90.1281 843.567 89.0785 844.019 87.6713L844.021 87.6654C844.466 86.2577 844.513 85.0054 844.255 83.9111C843.998 82.819 843.46 81.9767 842.874 81.3525C842.295 80.7355 841.666 80.326 841.192 80.0718C840.953 79.9432 840.744 79.8499 840.59 79.7867C840.512 79.755 840.448 79.7306 840.398 79.7128C840.373 79.7039 840.353 79.6966 840.336 79.691L840.314 79.6836L840.305 79.6808L840.301 79.6796L840.3 79.679C840.299 79.6787 840.298 79.6785 839.843 81.1077L840.298 79.6785C840.268 79.6691 840.239 79.6606 840.209 79.6531L771.041 62.2397Z" fill="white" stroke="#0E0F22" stroke-width="3" stroke-linejoin="round"/>
</svg>
