<svg width="241" height="146" viewBox="0 0 241 146" fill="none" xmlns="http://www.w3.org/2000/svg">
<g clip-path="url(#clip0_826_1332)">
<path d="M0.626412 87.8261L25.0727 87.9042L3.75625 72.0646V12.7021L59.0202 12.7802L72.2438 22.4247C86.9764 5.97105 116.017 8.30403 132.661 25.1372C130.213 4.68736 144.509 -1.87623 164.082 15.8164L169.336 5.98222L181.352 6.35058L211.399 28.2404L201.718 49.7506L218.854 63.4136C221 70.9037 220.945 77.6682 218.854 83.7741C214.383 89.8689 208.135 90.6837 200.276 86.7098L188.282 77.9696L183.353 88.3173L171.75 88.2391L164.775 83.1602L163.501 114.259C162.215 125.21 155.933 132.599 145.538 137.042C136.316 140.268 122.299 139.442 110.528 135.245L91.034 120.432C85.5791 137.935 67.6943 144.655 45.7743 135.055L12.4639 110.721C5.37706 105.619 1.68832 97.7719 0.615234 87.8261H0.626412Z" stroke="#FDE9AA" stroke-miterlimit="10"/>
<path d="M25.9441 72.0646H3.75581V12.7021H59.0198V34.4245H28.0344V47.5182C30.27 45.4308 32.9527 42.7629 39.503 42.7629C51.5641 42.7629 62.5967 53.7692 62.5967 79.0636C62.5967 104.358 52.7601 116.849 32.8074 116.849C16.5658 116.849 2.41445 107.774 0.625977 87.8373H25.0611C26.1006 93.1954 27.442 96.3209 32.0585 96.3209C36.0826 96.3209 37.871 90.8177 37.871 80.5482C37.871 69.687 36.3844 64.4853 32.0585 64.4853C28.638 64.4853 27.2967 67.1643 25.9553 72.0758L25.9441 72.0646Z" fill="#FDE9AA"/>
<path d="M66.3193 82.6247V45.431C66.3193 18.9534 81.9573 11.2178 99.8421 11.2178C117.727 11.2178 133.365 18.9534 133.365 45.431V82.6247C133.365 109.102 117.727 116.838 99.8421 116.838C81.9573 116.838 66.3193 109.102 66.3193 82.6247ZM91.045 46.324V81.7317C91.045 90.8068 92.0846 96.31 99.8309 96.31C107.577 96.31 108.617 90.8068 108.617 81.7317V46.324C108.617 37.2489 107.577 31.7457 99.8309 31.7457C92.0846 31.7457 91.045 37.2489 91.045 46.324Z" fill="#FDE9AA"/>
<path d="M132.594 23.4857V17.67C132.594 9.25348 137.199 5.08984 144.666 5.08984C152.133 5.08984 156.738 9.25348 156.738 17.67V23.4857C156.738 31.9023 152.312 36.2334 144.666 36.2334C137.02 36.2334 132.594 31.9023 132.594 23.4857ZM180.972 5.97169L152.491 65.8142H140.854L169.336 5.97169H180.972ZM146.063 24.535V16.8998C146.063 14.3883 145.538 13.8636 144.677 13.8636C143.816 13.8636 143.291 14.3883 143.291 16.8998V24.535C143.291 27.0466 143.816 27.5712 144.677 27.5712C145.538 27.5712 146.063 27.0466 146.063 24.535ZM165.435 53.9372V48.1215C165.435 39.7049 170.04 35.5413 177.507 35.5413C184.974 35.5413 189.579 39.7049 189.579 48.1215V53.9372C189.579 62.3538 185.153 66.6848 177.507 66.6848C169.861 66.6848 165.435 62.3538 165.435 53.9372ZM178.893 54.9753V47.3401C178.893 44.8286 178.368 44.3039 177.507 44.3039C176.646 44.3039 176.121 44.8286 176.121 47.3401V54.9753C176.121 57.4869 176.646 58.0115 177.507 58.0115C178.368 58.0115 178.893 57.4869 178.893 54.9753Z" fill="#FDE9AA"/>
</g>
<line x1="240" y1="-4.37114e-08" x2="240" y2="146" stroke="#FF005A" stroke-width="2"/>
<defs>
<clipPath id="clip0_826_1332">
<rect width="221" height="135" fill="white" transform="translate(0 5)"/>
</clipPath>
</defs>
</svg>
