<svg width="143" height="21" viewBox="0 0 143 21" fill="none" xmlns="http://www.w3.org/2000/svg">
<g clip-path="url(#clip0_671_2142)">
<mask id="mask0_671_2142" style="mask-type:luminance" maskUnits="userSpaceOnUse" x="0" y="0" width="143" height="21">
<path d="M143 0H0V21H143V0Z" fill="white"/>
</mask>
<g mask="url(#mask0_671_2142)">
<path d="M16.0603 20.5722H11.2876V11.6399C11.2876 9.27837 10.9472 6.86468 8.41912 6.86468C5.03479 6.86468 4.77177 10.0016 4.77177 10.9611V20.5722H0V2.92402H4.55898V5.05099C5.10514 4.22239 5.85644 3.55107 6.73894 3.10309C7.62145 2.65511 8.60474 2.44591 9.59206 2.49606C13.642 2.49606 16.0611 5.11518 16.0611 9.50091L16.0603 20.5722Z" fill="white"/>
<path d="M47.2019 15.9045L51.48 2.92188H56.4799L49.8253 20.5727H44.4211L37.5068 2.92188H42.8693L47.1253 15.9045H47.2019Z" fill="white"/>
<path d="M95.4534 21.0001C91.4018 21.0001 88.9844 18.3819 88.9844 13.9953V2.92139H93.757V11.8538C93.757 14.2153 94.0975 16.6289 96.6238 16.6289C100.009 16.6289 100.272 13.492 100.272 12.5325V2.92139H105.045V20.5722H100.484V18.4461C99.9381 19.2746 99.1871 19.9459 98.3049 20.3939C97.4227 20.8419 96.4396 21.0511 95.4526 21.001" fill="white"/>
<path d="M129.084 20.9882C124.005 20.9882 120.316 17.0971 120.316 11.7339C120.316 6.20042 123.839 2.48145 129.084 2.48145C134.608 2.48145 137.777 5.97018 137.777 12.0558V13.492H125.13C125.241 14.501 125.73 15.4296 126.497 16.0894C127.264 16.7491 128.252 17.0905 129.261 17.0441C130.093 17.05 130.913 16.8501 131.65 16.4621C132.387 16.074 133.018 15.5096 133.487 14.8187L133.644 14.6235L137.106 17.2572L136.936 17.4643C135.97 18.6031 134.764 19.5104 133.405 20.1198C132.045 20.7292 130.568 21.0253 129.08 20.9864M125.131 9.76105H132.991C132.859 7.49971 131.447 6.20898 129.079 6.20898C126.916 6.20898 125.523 7.46718 125.13 9.76105" fill="white"/>
<path d="M28.0816 21.0007C26.267 20.9756 24.5002 20.4115 23.0035 19.3794C21.5068 18.3472 20.347 16.8932 19.6699 15.2001C18.9928 13.5069 18.8286 11.6503 19.1981 9.86355C19.5675 8.07685 20.454 6.43986 21.7462 5.15844C23.0383 3.87701 24.6784 3.00834 26.4602 2.66168C28.242 2.31501 30.0859 2.50581 31.7602 3.2101C33.4344 3.91438 34.8642 5.1007 35.8697 6.61988C36.8753 8.13907 37.4117 9.9233 37.4115 11.7482C37.3913 14.2184 36.3976 16.5797 34.6484 18.3142C32.8992 20.0487 30.5382 21.0148 28.0816 21.0007ZM28.0808 6.98929C27.1477 7.00195 26.2393 7.29173 25.4696 7.82219C24.6999 8.35265 24.1033 9.1001 23.755 9.97056C23.4066 10.841 23.3219 11.7956 23.5117 12.7143C23.7014 13.633 24.157 14.4748 24.8212 15.1338C25.4855 15.7929 26.3286 16.2397 27.2447 16.4181C28.1608 16.5966 29.1089 16.4987 29.9698 16.1368C30.8307 15.7748 31.566 15.165 32.0831 14.384C32.6003 13.603 32.8763 12.6857 32.8764 11.7474C32.8672 10.4772 32.3569 9.2626 31.4577 8.37045C30.5585 7.47831 29.3439 6.98155 28.0808 6.98929Z" fill="white"/>
<path d="M113.813 20.5722H109.04V2.92398H113.813V5.03896C114.345 4.23839 115.069 3.58567 115.918 3.14119C116.768 2.6967 117.715 2.4748 118.672 2.49602C118.837 2.49723 119.001 2.50723 119.164 2.52598L119.392 2.55165V7.21984L119.093 7.1702C118.778 7.11522 118.459 7.0866 118.139 7.08461C117.587 7.04942 117.033 7.12802 116.511 7.31559C115.99 7.50317 115.512 7.79577 115.107 8.17549C114.702 8.5552 114.378 9.01404 114.156 9.52392C113.933 10.0338 113.816 10.584 113.813 11.1408V20.5722Z" fill="white"/>
<path d="M65.9606 20.8947C64.146 20.8694 62.3794 20.3052 60.8828 19.273C59.3862 18.2408 58.2265 16.7867 57.5495 15.0935C56.8726 13.4004 56.7085 11.5437 57.0781 9.75708C57.4476 7.97043 58.3342 6.33353 59.6264 5.05218C60.9185 3.77084 62.5586 2.90226 64.3404 2.55566C66.1221 2.20906 67.966 2.39991 69.6402 3.10422C71.3144 3.80852 72.7441 4.99484 73.7496 6.51401C74.7552 8.03317 75.2915 9.81736 75.2914 11.6422C75.2711 14.1124 74.2775 16.4737 72.5283 18.2082C70.7791 19.9427 68.4172 20.9089 65.9606 20.8947ZM65.9606 6.88333C65.0276 6.89598 64.1191 7.18576 63.3494 7.71622C62.5797 8.24668 61.9832 8.99414 61.6348 9.8646C61.2865 10.7351 61.2018 11.6897 61.3916 12.6084C61.5813 13.5271 62.0369 14.3689 62.7011 15.0279C63.3653 15.6869 64.2085 16.1337 65.1246 16.3122C66.0407 16.4906 66.9888 16.3927 67.8497 16.0308C68.7106 15.6688 69.4459 15.059 69.963 14.278C70.4802 13.497 70.7562 12.5797 70.7563 11.6414C70.747 10.3712 70.2368 9.15663 69.3376 8.26448C68.4384 7.37234 67.2238 6.87558 65.9606 6.88333Z" fill="white"/>
<path d="M80.087 20.9031C78.8681 20.9197 77.6579 20.6927 76.5269 20.2352C75.3959 19.7776 74.3666 19.0987 73.4987 18.2378C72.6308 17.3769 71.9417 16.3512 71.4714 15.2202C71.001 14.0892 70.7588 12.8756 70.7588 11.6497C70.7588 10.4238 71.001 9.21019 71.4714 8.07923C71.9417 6.94828 72.6308 5.92256 73.4987 5.06165C74.3666 4.20075 75.3959 3.52181 76.5269 3.06426C77.6579 2.60672 78.8681 2.37969 80.087 2.39636C81.3194 2.39255 82.5397 2.6397 83.6744 3.12293C84.8092 3.60616 85.8349 4.31546 86.6897 5.20806L86.8685 5.3938L83.6595 8.5239L83.4807 8.33816C83.0416 7.87926 82.5146 7.51452 81.9315 7.26592C81.3484 7.01732 80.7212 6.89001 80.0879 6.89166C79.4612 6.8832 78.8391 7.00002 78.2577 7.23532C77.6763 7.47062 77.1472 7.81972 76.7011 8.26234C76.2549 8.70497 75.9007 9.2323 75.6589 9.81373C75.4172 10.3952 75.2926 11.0191 75.2926 11.6493C75.2926 12.2795 75.4172 12.9034 75.6589 13.4848C75.9007 14.0663 76.2549 14.5936 76.7011 15.0362C77.1472 15.4789 77.6763 15.828 78.2577 16.0633C78.8391 16.2986 79.4612 16.4154 80.0879 16.4069C80.7964 16.4079 81.4961 16.2482 82.1348 15.9397C82.7736 15.6311 83.3348 15.1817 83.7769 14.6249L83.9378 14.4238L87.4277 17.2355L87.2668 17.4383C86.4071 18.5217 85.3152 19.3959 84.0726 19.9958C82.83 20.5957 81.4688 20.9058 80.0904 20.9031" fill="white"/>
<path d="M75.2912 11.6412C75.2905 9.42099 74.4856 7.27709 73.027 5.61035C71.5656 7.27658 70.7586 9.42158 70.7573 11.6433C70.7561 13.865 71.5606 16.0109 73.0202 17.6788C74.4831 16.0104 75.2908 13.8629 75.292 11.6386" fill="white"/>
<path d="M140.218 0C140.587 0.00166677 140.952 0.0767397 141.292 0.220891C141.632 0.365042 141.94 0.57542 142.199 0.839897C142.458 1.10437 142.662 1.41772 142.799 1.76187C142.937 2.10602 143.006 2.47416 143.001 2.84508C143.007 3.21511 142.941 3.58273 142.804 3.92647C142.668 4.27022 142.465 4.58322 142.207 4.84719C141.949 5.11117 141.641 5.32083 141.302 5.46396C140.962 5.60708 140.598 5.68079 140.23 5.68079C139.862 5.68079 139.498 5.60708 139.158 5.46396C138.819 5.32083 138.511 5.11117 138.253 4.84719C137.995 4.58322 137.792 4.27022 137.656 3.92647C137.519 3.58273 137.452 3.21511 137.459 2.84508C137.454 2.47597 137.521 2.1095 137.658 1.76665C137.794 1.4238 137.996 1.1113 138.252 0.847033C138.508 0.582769 138.814 0.37193 139.151 0.226586C139.489 0.0812407 139.851 0.00424313 140.218 0ZM140.218 5.06876C140.503 5.06555 140.784 5.00497 141.045 4.8906C141.306 4.77622 141.541 4.61038 141.737 4.40288C141.933 4.19538 142.086 3.95045 142.186 3.68258C142.287 3.41471 142.332 3.12934 142.321 2.84337C142.341 2.55564 142.302 2.26685 142.206 1.99496C142.11 1.72307 141.96 1.47389 141.764 1.26294C141.569 1.05199 141.332 0.883767 141.069 0.76875C140.806 0.653732 140.522 0.594377 140.236 0.594377C139.949 0.594377 139.665 0.653732 139.402 0.76875C139.139 0.883767 138.902 1.05199 138.707 1.26294C138.511 1.47389 138.361 1.72307 138.265 1.99496C138.169 2.26685 138.13 2.55564 138.15 2.84337C138.138 3.12708 138.182 3.41044 138.279 3.67682C138.377 3.9432 138.527 4.18722 138.72 4.39454C138.913 4.60186 139.145 4.7683 139.403 4.88408C139.661 4.99986 139.94 5.06265 140.222 5.06876M139.255 1.40799H140.43C140.552 1.39814 140.674 1.41444 140.789 1.45582C140.904 1.49719 141.009 1.56268 141.097 1.64794C141.185 1.7332 141.253 1.83627 141.298 1.95029C141.343 2.06432 141.364 2.18669 141.358 2.30927C141.365 2.47055 141.32 2.62975 141.23 2.76306C141.139 2.89637 141.008 2.99661 140.856 3.04879V3.06419C140.896 3.11447 140.929 3.16936 140.956 3.22767L141.489 4.25478H140.763L140.284 3.20628H139.913V4.25221H139.256L139.255 1.40799ZM140.276 2.73638C140.333 2.74017 140.389 2.73158 140.441 2.71119C140.494 2.6908 140.541 2.65912 140.58 2.61835C140.62 2.57759 140.649 2.52873 140.668 2.47519C140.686 2.42165 140.692 2.36473 140.687 2.30842C140.693 2.25299 140.687 2.1968 140.67 2.14392C140.652 2.09103 140.623 2.04275 140.584 2.00255C140.546 1.96236 140.499 1.93125 140.447 1.91147C140.395 1.89169 140.339 1.88373 140.284 1.88816H139.913V2.73894L140.276 2.73638Z" fill="white"/>
</g>
</g>
<defs>
<clipPath id="clip0_671_2142">
<rect width="143" height="21" fill="white"/>
</clipPath>
</defs>
</svg>
