<svg width="327" height="246" viewBox="0 0 327 246" fill="none" xmlns="http://www.w3.org/2000/svg">
<path d="M7.00469 212.465H5.11891C3.63386 212.465 3.06812 213.139 3.06812 214.394C3.06812 215.788 3.79886 216.346 4.97748 216.346C6.0618 216.346 7.00469 215.997 7.00469 213.186V212.465ZM5.00105 210.769H7.00469V209.328C7.00469 207.609 6.4861 207.144 5.04819 207.144C3.82244 207.144 3.35099 207.33 2.8324 208.353L1.27663 207.377C1.9838 205.936 3.04455 205.309 5.04819 205.309C7.66472 205.309 9.00834 206.331 9.00834 209.328V218.019H6.98112V216.787C6.60396 217.647 6.03823 218.205 4.62389 218.205C2.29024 218.205 1.01733 216.787 1.01733 214.348C1.01733 211.652 2.66739 210.769 4.97748 210.769" fill="white"/>
<path d="M12.0727 205.495V204.589C12.0727 201.986 12.7799 200.731 15.2785 200.731H15.8914V202.637H15.42C14.3121 202.637 14.1235 203.264 14.1235 204.937V205.495H15.8914V207.307H14.1235V218.019H12.0963V207.307H10.7998V205.495H12.0963H12.0727Z" fill="white"/>
<path d="M16.8097 205.495H18.1062V202.753H20.1334V205.495H22.2313V207.307H20.1334V213.651C20.1334 215.37 20.2041 216.114 21.5006 216.114H22.2313V218.019H21.3356C18.8369 218.019 18.0826 216.764 18.0826 214.162V207.307H16.7861V205.495H16.8097Z" fill="white"/>
<path d="M25.7909 210.445H29.8689C29.8689 207.842 29.256 207.099 27.8181 207.099C26.2623 207.099 25.7909 208.214 25.7909 210.445ZM31.7782 216.114C31.0946 217.601 29.9632 218.182 28.1481 218.182C25.2252 218.182 23.7637 215.998 23.7637 212.536V210.886C23.7637 207.331 25.2016 205.286 27.8181 205.286C30.5761 205.286 31.8961 207.006 31.8961 210.886V212.187H25.7909V212.536C25.7909 214.697 26.4038 216.393 28.1245 216.393C29.3503 216.393 29.7746 215.905 30.2696 215.092L31.7547 216.114H31.7782Z" fill="white"/>
<path d="M39.7462 208.167C39.3219 207.446 38.8505 207.144 38.1669 207.144C37.0354 207.144 36.2811 208.097 36.2811 210.165V217.996H34.2539V205.494H36.2811V206.726C36.6583 205.936 37.4126 205.309 38.5912 205.309C39.7698 205.309 40.6656 205.889 41.302 207.005L39.7227 208.19L39.7462 208.167Z" fill="white"/>
<path d="M53.0643 208.422C52.5457 207.539 52.0978 207.144 50.8721 207.144C49.7878 207.144 49.1513 207.725 49.1513 208.817C49.1513 210.002 49.8113 210.49 51.1785 210.792C52.9936 211.187 54.8558 211.931 54.8558 214.51C54.8558 216.694 53.5593 218.182 50.9664 218.182C48.892 218.182 47.7841 217.461 46.9827 216.16L48.4206 215.021C48.9392 215.928 49.5756 216.346 50.8249 216.346C52.145 216.346 52.805 215.695 52.805 214.58C52.805 213.465 52.3571 212.977 50.5421 212.582C48.8449 212.21 47.1005 211.28 47.1005 208.864C47.1005 206.796 48.4677 205.309 50.7778 205.309C52.4514 205.309 53.7243 205.843 54.5258 207.377L53.0643 208.422Z" fill="white"/>
<path d="M58.5809 210.445H62.6589C62.6589 207.842 62.0461 207.099 60.6081 207.099C59.0524 207.099 58.5809 208.214 58.5809 210.445ZM64.5683 216.114C63.8847 217.601 62.7532 218.182 60.9382 218.182C58.0152 218.182 56.5537 215.998 56.5537 212.536V210.886C56.5537 207.331 57.9916 205.286 60.6081 205.286C63.3661 205.286 64.6861 207.006 64.6861 210.886V212.187H58.5809V212.536C58.5809 214.697 59.1938 216.393 60.9146 216.393C62.1403 216.393 62.5646 215.905 63.0597 215.092L64.5447 216.114H64.5683Z" fill="white"/>
<path d="M74.5868 216.114C73.974 217.555 72.6539 218.182 71.0039 218.182C67.963 218.182 66.5723 215.975 66.5723 212.536V210.886C66.5723 207.331 68.2459 205.286 71.0039 205.286C72.536 205.286 73.8325 205.937 74.5868 207.215L73.0311 208.26C72.5596 207.494 71.8996 207.075 71.0039 207.075C69.3774 207.075 68.5995 208.516 68.5995 210.886V212.536C68.5995 214.697 69.1888 216.393 71.0039 216.393C71.9232 216.393 72.5361 216.068 73.0782 215.092L74.5868 216.114Z" fill="white"/>
<path d="M82.1994 212.536V210.886C82.1994 208.539 81.6808 207.075 79.9365 207.075C78.1921 207.075 77.6971 208.516 77.6971 210.886V212.536C77.6971 214.697 78.1921 216.393 79.9365 216.393C81.6808 216.393 82.1994 214.697 82.1994 212.536ZM84.2267 212.536C84.2267 216.114 82.6945 218.182 79.9365 218.182C77.1785 218.182 75.6699 216.114 75.6699 212.536V210.886C75.6699 207.308 77.2021 205.286 79.9365 205.286C82.6709 205.286 84.2267 207.308 84.2267 210.886V212.536Z" fill="white"/>
<path d="M86.3486 205.494H88.3994V206.726C88.7766 205.982 89.6252 205.309 90.8745 205.309C92.9253 205.309 94.4811 206.703 94.4811 210.211V218.019H92.4539V210.235C92.4539 207.702 91.5817 207.167 90.4974 207.167C89.0123 207.167 88.3759 208.353 88.3759 210.211V218.019H86.3486V205.518V205.494Z" fill="white"/>
<path d="M103.179 212.536V210.7C103.179 208.446 102.307 207.075 100.916 207.075C99.3841 207.075 98.6297 208.492 98.6297 210.886V212.536C98.6297 214.65 99.3133 216.393 100.916 216.393C102.519 216.393 103.179 214.696 103.179 212.536ZM103.179 200.731H105.206V217.996H103.179V216.904C102.661 217.717 101.953 218.205 100.586 218.205C97.899 218.205 96.6025 215.812 96.6025 212.559V210.909C96.6025 207.331 98.2055 205.309 100.586 205.309C101.93 205.309 102.708 205.913 103.179 206.75V200.755V200.731Z" fill="white"/>
<path d="M112.467 209.863H107.116V211.653H112.467V209.863Z" fill="white"/>
<path d="M114.4 200.731H116.427V213.651C116.427 214.999 116.38 216.16 118.006 216.16V218.019C115.272 218.019 114.4 216.765 114.4 214.162V200.755V200.731Z" fill="white"/>
<path d="M120.482 217.996H122.509V205.495H120.482V217.996ZM120.388 202.985H122.627V200.731H120.388V202.985Z" fill="white"/>
<path d="M125.455 205.494H127.506V206.726C127.883 205.982 128.732 205.309 129.981 205.309C132.032 205.309 133.588 206.703 133.588 210.211V218.019H131.56V210.235C131.56 207.702 130.688 207.167 129.604 207.167C128.119 207.167 127.482 208.353 127.482 210.211V218.019H125.455V205.518V205.494Z" fill="white"/>
<path d="M137.736 210.445H141.814C141.814 207.842 141.201 207.099 139.763 207.099C138.207 207.099 137.736 208.214 137.736 210.445ZM143.723 216.114C143.04 217.601 141.908 218.182 140.093 218.182C137.17 218.182 135.709 215.998 135.709 212.536V210.886C135.709 207.331 137.147 205.286 139.763 205.286C142.521 205.286 143.841 207.006 143.841 210.886V212.187H137.736V212.536C137.736 214.697 138.349 216.393 140.07 216.393C141.295 216.393 141.72 215.905 142.238 215.092L143.723 216.114Z" fill="white"/>
<path d="M158.786 216.114C158.173 217.555 156.853 218.182 155.203 218.182C152.162 218.182 150.771 215.975 150.771 212.536V210.886C150.771 207.331 152.445 205.286 155.203 205.286C156.712 205.286 158.032 205.937 158.786 207.215L157.23 208.26C156.735 207.494 156.099 207.075 155.203 207.075C153.577 207.075 152.799 208.516 152.799 210.886V212.536C152.799 214.697 153.388 216.393 155.203 216.393C156.122 216.393 156.712 216.068 157.277 215.092L158.762 216.114H158.786Z" fill="white"/>
<path d="M160.413 200.731H162.464V206.703C162.841 205.96 163.69 205.286 164.939 205.286C166.99 205.286 168.546 206.68 168.546 210.189V217.996H166.518V210.212C166.518 207.679 165.646 207.145 164.562 207.145C163.077 207.145 162.44 208.33 162.44 210.189V217.996H160.413V200.731Z" fill="white"/>
<path d="M172.694 210.445H176.772C176.772 207.842 176.159 207.099 174.721 207.099C173.166 207.099 172.694 208.214 172.694 210.445ZM178.682 216.114C177.998 217.601 176.867 218.182 175.051 218.182C172.128 218.182 170.667 215.998 170.667 212.536V210.886C170.667 207.331 172.105 205.286 174.721 205.286C177.479 205.286 178.799 207.006 178.799 210.886V212.187H172.694V212.536C172.694 214.697 173.307 216.393 175.028 216.393C176.254 216.393 176.678 215.905 177.197 215.092L178.682 216.114Z" fill="white"/>
<path d="M181.18 205.494H183.207V206.726C183.584 206.006 184.338 205.309 185.635 205.309C186.931 205.309 188.039 205.913 188.605 207.284C189.265 205.913 190.279 205.309 191.575 205.309C193.626 205.309 195.134 206.958 195.134 210.211V218.019H193.107V210.235C193.107 207.818 192.212 207.167 191.151 207.167C189.996 207.167 189.171 208.12 189.171 210.211V218.019H187.143V210.235C187.143 207.818 186.248 207.167 185.187 207.167C184.032 207.167 183.207 208.213 183.207 210.211V218.019H181.18V205.518V205.494Z" fill="white"/>
<path d="M203.763 212.536V210.886C203.763 208.539 203.268 207.075 201.5 207.075C199.732 207.075 199.261 208.516 199.261 210.886V212.536C199.261 214.697 199.732 216.393 201.5 216.393C203.268 216.393 203.763 214.697 203.763 212.536ZM205.79 212.536C205.79 216.114 204.234 218.182 201.5 218.182C198.766 218.182 197.233 216.114 197.233 212.536V210.886C197.233 207.308 198.766 205.286 201.5 205.286C204.234 205.286 205.79 207.308 205.79 210.886V212.536Z" fill="white"/>
<path d="M207.015 205.495H208.311V202.753H210.338V205.495H212.436V207.307H210.338V213.651C210.338 215.37 210.409 216.114 211.706 216.114H212.436V218.019H211.541C209.042 218.019 208.288 216.764 208.288 214.162V207.307H206.991V205.495H207.015Z" fill="white"/>
<path d="M214.464 200.731H216.514V206.703C216.892 205.96 217.74 205.286 218.989 205.286C221.04 205.286 222.596 206.68 222.596 210.189V217.996H220.569V210.212C220.569 207.679 219.697 207.145 218.612 207.145C217.127 207.145 216.491 208.33 216.491 210.189V217.996H214.464V200.731Z" fill="white"/>
<path d="M226.745 210.445H230.823C230.823 207.842 230.21 207.099 228.772 207.099C227.216 207.099 226.745 208.214 226.745 210.445ZM232.732 216.114C232.049 217.601 230.917 218.182 229.102 218.182C226.179 218.182 224.718 215.998 224.718 212.536V210.886C224.718 207.331 226.156 205.286 228.772 205.286C231.53 205.286 232.85 207.006 232.85 210.886V212.187H226.745V212.536C226.745 214.697 227.358 216.393 229.079 216.393C230.304 216.393 230.729 215.905 231.247 215.092L232.732 216.114Z" fill="white"/>
<path d="M240.723 208.167C240.299 207.446 239.827 207.144 239.143 207.144C238.012 207.144 237.258 208.097 237.258 210.165V217.996H235.23V205.494H237.258V206.726C237.635 205.936 238.389 205.309 239.568 205.309C240.746 205.309 241.642 205.889 242.279 207.005L240.699 208.19L240.723 208.167Z" fill="white"/>
<path d="M248.643 212.465H246.757C245.249 212.465 244.707 213.139 244.707 214.394C244.707 215.788 245.437 216.346 246.616 216.346C247.7 216.346 248.643 215.997 248.643 213.186V212.465ZM246.64 210.769H248.643V209.328C248.643 207.609 248.125 207.144 246.687 207.144C245.461 207.144 244.99 207.33 244.471 208.353L242.939 207.377C243.646 205.936 244.707 205.309 246.71 205.309C249.327 205.309 250.67 206.331 250.67 209.328V218.019H248.643V216.787C248.266 217.647 247.7 218.205 246.286 218.205C243.952 218.205 242.679 216.787 242.679 214.348C242.679 211.652 244.33 210.769 246.64 210.769Z" fill="white"/>
<path d="M259.865 212.536V210.886C259.865 208.516 259.11 207.075 257.578 207.075C256.187 207.075 255.315 208.446 255.315 210.7V212.536C255.315 214.697 255.905 216.393 257.578 216.393C259.252 216.393 259.865 214.674 259.865 212.536ZM255.315 206.727C255.763 205.867 256.565 205.286 257.908 205.286C260.289 205.286 261.892 207.308 261.892 210.886V212.536C261.892 215.789 260.595 218.182 257.908 218.182C256.541 218.182 255.834 217.718 255.315 216.881V222.737H253.288V205.472H255.315V206.727Z" fill="white"/>
<path d="M266.748 218.112L262.812 205.472H265.004L267.361 213.535L267.738 214.859L270.095 205.472H272.193L268.705 218.391C267.88 221.389 267.243 222.736 264.202 222.736V220.784C265.428 220.784 266.088 220.482 266.654 218.461L266.748 218.112Z" fill="white"/>
<path d="M1.95943 228.22V227.314C1.95943 224.712 2.6666 223.457 5.16526 223.457H5.77814V225.362H5.30669C4.19879 225.362 4.01021 225.99 4.01021 227.663V228.22H5.77814V230.033H4.01021V240.745H1.983V230.033H0.686523V228.22H1.983H1.95943Z" fill="white"/>
<path d="M13.6047 235.284V233.634C13.6047 231.287 13.0861 229.823 11.3418 229.823C9.59743 229.823 9.10241 231.264 9.10241 233.634V235.284C9.10241 237.445 9.57386 239.141 11.3418 239.141C13.1097 239.141 13.6047 237.445 13.6047 235.284ZM15.6319 235.284C15.6319 238.862 14.0762 240.93 11.3418 240.93C8.60739 240.93 7.0752 238.862 7.0752 235.284V233.634C7.0752 230.056 8.60739 228.034 11.3418 228.034C14.0762 228.034 15.6319 230.056 15.6319 233.634V235.284Z" fill="white"/>
<path d="M17.7539 223.457H19.7811V236.353C19.7811 237.701 19.734 238.863 21.3605 238.863V240.722C18.6261 240.722 17.7539 239.467 17.7539 236.864V223.457Z" fill="white"/>
<path d="M23.5286 223.457H25.5558V236.353C25.5558 237.701 25.5086 238.863 27.1351 238.863V240.722C24.4007 240.722 23.5286 239.467 23.5286 236.864V223.457Z" fill="white"/>
<path d="M35.3149 235.284V233.634C35.3149 231.287 34.7963 229.823 33.052 229.823C31.3076 229.823 30.8126 231.264 30.8126 233.634V235.284C30.8126 237.445 31.2841 239.141 33.052 239.141C34.8199 239.141 35.3149 237.445 35.3149 235.284ZM37.3421 235.284C37.3421 238.862 35.7864 240.93 33.052 240.93C30.3176 240.93 28.7854 238.862 28.7854 235.284V233.634C28.7854 230.056 30.3176 228.034 33.052 228.034C35.7864 228.034 37.3421 230.056 37.3421 233.634V235.284Z" fill="white"/>
<path d="M43.0936 240.721H41.3964L38.332 228.22H40.5243L42.3157 237.003L44.6023 228.22H46.5352L48.8453 237.073L50.6132 228.22H52.7583L49.7646 240.721H48.0438L45.5687 231.543L43.0936 240.721Z" fill="white"/>
<path d="M54.5728 240.722H56.6V228.22H54.5728V240.722ZM54.4785 225.711H56.7179V223.457H54.4785V225.711Z" fill="white"/>
<path d="M59.5479 228.22H61.5986V229.452C61.9758 228.708 62.8244 228.034 64.0737 228.034C66.1245 228.034 67.6803 229.428 67.6803 232.937V240.744H65.6531V232.96C65.6531 230.428 64.7809 229.893 63.6966 229.893C62.2115 229.893 61.5751 231.078 61.5751 232.937V240.744H59.5479V228.243V228.22Z" fill="white"/>
<path d="M76.3773 235.284V233.448C76.3773 231.195 75.5051 229.824 74.1144 229.824C72.6058 229.824 71.8279 231.241 71.8279 233.634V235.284C71.8279 237.422 72.5115 239.141 74.1144 239.141C75.7173 239.141 76.3773 237.445 76.3773 235.284ZM76.3773 228.22H78.4045V240.489C78.4045 243.974 76.943 245.648 74.0437 245.648C72.1107 245.648 70.9793 245.02 70.2721 243.579L71.8279 242.534C72.2757 243.417 72.7943 243.858 74.0201 243.858C75.7644 243.858 76.4009 242.65 76.4009 240.512V239.653C75.8823 240.489 75.1751 240.954 73.8079 240.954C71.1207 240.954 69.8242 238.56 69.8242 235.307V233.658C69.8242 230.079 71.4271 228.058 73.8079 228.058C75.1516 228.058 75.9294 228.662 76.4009 229.498V228.243L76.3773 228.22Z" fill="white"/>
<path d="M86.3958 240.722H88.423V228.22H86.3958V240.722ZM86.3015 225.711H88.5409V223.457H86.3015V225.711Z" fill="white"/>
<path d="M91.3701 228.22H93.4209V229.452C93.7981 228.708 94.6467 228.034 95.896 228.034C97.9468 228.034 99.5026 229.428 99.5026 232.937V240.744H97.4753V232.96C97.4753 230.428 96.6032 229.893 95.5188 229.893C94.0338 229.893 93.3973 231.078 93.3973 232.937V240.744H91.3701V228.243V228.22Z" fill="white"/>
<path d="M102.449 240.722H104.476V228.22H102.449V240.722ZM102.354 225.711H104.594V223.457H102.354V225.711Z" fill="white"/>
<path d="M106.526 228.22H107.822V225.479H109.849V228.22H111.947V230.033H109.849V236.376C109.849 238.096 109.92 238.839 111.216 238.839H111.947V240.745H111.051C108.553 240.745 107.798 239.49 107.798 236.888V230.033H106.502V228.22H106.526Z" fill="white"/>
<path d="M114.282 240.722H116.309V228.22H114.282V240.722ZM114.188 225.711H116.427V223.457H114.188V225.711Z" fill="white"/>
<path d="M124.677 235.191H122.791C121.306 235.191 120.74 235.865 120.74 237.12C120.74 238.514 121.471 239.071 122.649 239.071C123.734 239.071 124.677 238.723 124.677 235.911V235.191ZM122.673 233.495H124.677V232.054C124.677 230.335 124.158 229.87 122.72 229.87C121.494 229.87 121.023 230.032 120.504 231.078L118.972 230.102C119.679 228.662 120.74 228.034 122.744 228.034C125.36 228.034 126.704 229.057 126.704 232.054V240.744H124.677V239.513C124.3 240.373 123.734 240.93 122.319 240.93C119.986 240.93 118.713 239.513 118.713 237.073C118.713 234.378 120.363 233.495 122.673 233.495Z" fill="white"/>
<path d="M129.344 223.457H131.372V236.353C131.372 237.701 131.325 238.863 132.951 238.863V240.722C130.217 240.722 129.344 239.467 129.344 236.864V223.457Z" fill="white"/>
<path d="M147.684 238.839C147.071 240.28 145.751 240.907 144.101 240.907C141.06 240.907 139.669 238.699 139.669 235.26V233.611C139.669 230.056 141.343 228.011 144.101 228.011C145.633 228.011 146.929 228.661 147.684 229.939L146.128 230.985C145.633 230.218 144.996 229.8 144.101 229.8C142.474 229.8 141.696 231.241 141.696 233.611V235.26C141.696 237.421 142.285 239.118 144.101 239.118C145.02 239.118 145.633 238.792 146.175 237.816L147.66 238.839H147.684Z" fill="white"/>
<path d="M155.321 235.284V233.634C155.321 231.287 154.826 229.823 153.058 229.823C151.29 229.823 150.818 231.264 150.818 233.634V235.284C150.818 237.445 151.29 239.141 153.058 239.141C154.826 239.141 155.321 237.445 155.321 235.284ZM157.348 235.284C157.348 238.862 155.792 240.93 153.058 240.93C150.323 240.93 148.791 238.862 148.791 235.284V233.634C148.791 230.056 150.323 228.034 153.058 228.034C155.792 228.034 157.348 230.056 157.348 233.634V235.284Z" fill="white"/>
<path d="M159.47 228.22H161.497V229.452C161.874 228.731 162.628 228.034 163.925 228.034C165.221 228.034 166.329 228.638 166.895 230.009C167.555 228.638 168.569 228.034 169.865 228.034C171.916 228.034 173.425 229.684 173.425 232.937V240.744H171.397V232.96C171.397 230.544 170.502 229.893 169.441 229.893C168.309 229.893 167.461 230.846 167.461 232.937V240.744H165.434V232.96C165.434 230.544 164.538 229.893 163.477 229.893C162.322 229.893 161.497 230.939 161.497 232.937V240.744H159.47V228.243V228.22Z" fill="white"/>
<path d="M182.594 235.284V233.634C182.594 231.264 181.84 229.824 180.308 229.824C178.917 229.824 178.045 231.195 178.045 233.448V235.261C178.045 237.422 178.634 239.118 180.308 239.118C181.981 239.118 182.594 237.399 182.594 235.261M178.045 229.452C178.493 228.592 179.294 228.011 180.638 228.011C183.019 228.011 184.621 230.033 184.621 233.611V235.261C184.621 238.514 183.325 240.907 180.638 240.907C179.271 240.907 178.563 240.443 178.045 239.606V240.698H176.018V223.434H178.045V229.429V229.452Z" fill="white"/>
<path d="M187.048 240.722H189.076V228.22H187.048V240.722ZM186.954 225.711H189.193V223.457H186.954V225.711Z" fill="white"/>
<path d="M192.023 228.22H194.074V229.452C194.451 228.708 195.276 228.034 196.549 228.034C198.6 228.034 200.156 229.428 200.156 232.937V240.744H198.129V232.96C198.129 230.428 197.256 229.893 196.172 229.893C194.687 229.893 194.051 231.078 194.051 232.937V240.744H192.023V228.243V228.22Z" fill="white"/>
<path d="M208.241 235.191H206.355C204.87 235.191 204.305 235.865 204.305 237.12C204.305 238.514 205.035 239.071 206.214 239.071C207.298 239.071 208.241 238.723 208.241 235.911V235.191ZM206.238 233.495H208.241V232.054C208.241 230.335 207.723 229.87 206.285 229.87C205.059 229.87 204.588 230.032 204.069 231.078L202.513 230.102C203.22 228.662 204.281 228.034 206.285 228.034C208.901 228.034 210.245 229.057 210.245 232.054V240.744H208.218V239.513C207.841 240.373 207.275 240.93 205.86 240.93C203.527 240.93 202.254 239.513 202.254 237.073C202.254 234.378 203.904 233.495 206.214 233.495" fill="white"/>
<path d="M212.012 228.22H213.308V225.479H215.336V228.22H217.433V230.033H215.336V236.376C215.336 238.096 215.406 238.839 216.703 238.839H217.433V240.745H216.538C214.039 240.745 213.285 239.49 213.285 236.888V230.033H211.988V228.22H212.012Z" fill="white"/>
<path d="M219.767 240.722H221.794V228.22H219.767V240.722ZM219.673 225.711H221.912V223.457H219.673V225.711Z" fill="white"/>
<path d="M230.728 235.284V233.634C230.728 231.287 230.233 229.823 228.465 229.823C226.697 229.823 226.225 231.264 226.225 233.634V235.284C226.225 237.445 226.697 239.141 228.465 239.141C230.233 239.141 230.728 237.445 230.728 235.284ZM232.755 235.284C232.755 238.862 231.199 240.93 228.465 240.93C225.73 240.93 224.198 238.862 224.198 235.284V233.634C224.198 230.056 225.73 228.034 228.465 228.034C231.199 228.034 232.755 230.056 232.755 233.634V235.284Z" fill="white"/>
<path d="M234.902 228.22H236.952V229.452C237.33 228.708 238.178 228.034 239.427 228.034C241.478 228.034 243.034 229.428 243.034 232.937V240.744H241.007V232.96C241.007 230.428 240.135 229.893 239.05 229.893C237.565 229.893 236.929 231.078 236.929 232.937V240.744H234.902V228.243V228.22Z" fill="white"/>
<path d="M249.846 228.22H251.142V225.479H253.17V228.22H255.267V230.033H253.17V236.376C253.17 238.096 253.24 238.839 254.537 238.839H255.267V240.745H254.372C251.873 240.745 251.119 239.49 251.119 236.888V230.033H249.822V228.22H249.846Z" fill="white"/>
<path d="M257.294 223.457H259.345V229.429C259.722 228.685 260.547 228.011 261.82 228.011C263.871 228.011 265.426 229.406 265.426 232.914V240.722H263.399V232.937C263.399 230.405 262.527 229.87 261.443 229.87C259.958 229.87 259.321 231.055 259.321 232.914V240.722H257.294V223.457Z" fill="white"/>
<path d="M269.576 233.169H273.654C273.654 230.567 273.041 229.823 271.603 229.823C270.047 229.823 269.576 230.962 269.576 233.169ZM275.563 238.839C274.88 240.303 273.748 240.907 271.933 240.907C269.01 240.907 267.549 238.723 267.549 235.26V233.611C267.549 230.056 268.987 228.011 271.603 228.011C274.361 228.011 275.681 229.73 275.681 233.611V234.912H269.576V235.26C269.576 237.421 270.189 239.118 271.91 239.118C273.135 239.118 273.56 238.653 274.078 237.816L275.563 238.839Z" fill="white"/>
<path d="M283.53 230.892C283.106 230.172 282.635 229.87 281.951 229.87C280.82 229.87 280.065 230.823 280.065 232.891V240.721H278.038V228.22H280.065V229.452C280.442 228.662 281.197 228.034 282.375 228.034C283.554 228.034 284.45 228.615 285.086 229.73L283.507 230.915L283.53 230.892Z" fill="white"/>
<path d="M291.475 235.191H289.589C288.104 235.191 287.538 235.865 287.538 237.12C287.538 238.514 288.269 239.071 289.447 239.071C290.532 239.071 291.475 238.723 291.475 235.911V235.191ZM289.471 233.495H291.475V232.054C291.475 230.335 290.956 229.87 289.518 229.87C288.292 229.87 287.821 230.032 287.302 231.078L285.747 230.102C286.454 228.662 287.515 228.034 289.518 228.034C292.135 228.034 293.478 229.057 293.478 232.054V240.744H291.451V239.513C291.074 240.373 290.508 240.93 289.094 240.93C286.76 240.93 285.487 239.513 285.487 237.073C285.487 234.378 287.137 233.495 289.447 233.495" fill="white"/>
<path d="M302.695 235.284V233.634C302.695 231.264 301.94 229.823 300.408 229.823C299.017 229.823 298.145 231.194 298.145 233.448V235.26C298.145 237.421 298.735 239.118 300.408 239.118C302.082 239.118 302.695 237.398 302.695 235.26M298.169 229.451C298.617 228.592 299.418 228.011 300.762 228.011C303.143 228.011 304.745 230.032 304.745 233.611V235.26C304.745 238.514 303.449 240.907 300.762 240.907C299.395 240.907 298.687 240.442 298.169 239.606V245.461H296.142V228.197H298.169V229.451Z" fill="white"/>
<path d="M309.555 240.86L305.618 228.22H307.811L310.168 236.283L310.545 237.607L312.902 228.22H315L311.511 241.139C310.686 244.137 310.05 245.484 307.009 245.484V243.532C308.235 243.532 308.895 243.23 309.461 241.209L309.555 240.86Z" fill="white"/>
<path d="M319.023 230.544L319.102 228.357L317.253 229.53L316.776 228.695L318.724 227.681L316.776 226.667L317.253 225.831L319.102 227.005L319.023 224.817H319.977L319.898 227.005L321.747 225.831L322.224 226.667L320.276 227.681L322.224 228.695L321.747 229.53L319.898 228.357L319.977 230.544H319.023Z" fill="white"/>
<path d="M202.584 151.45L209.326 133.349H213.168V163.3H209.373V143.201L204.093 157.05H200.957L195.819 143.201V163.3H192V133.349H195.819L202.584 151.45Z" fill="white"/>
<path d="M220.876 149.986C220.876 157.584 222.385 160.279 226.015 160.279C229.645 160.279 231.154 157.584 231.154 149.986V146.686C231.154 139.088 229.645 136.393 226.015 136.393C222.385 136.393 220.876 139.088 220.876 146.686V149.986ZM226.015 163.672C220.523 163.672 217.081 159.675 217.081 149.986V146.686C217.081 136.997 220.546 133 226.015 133C231.484 133 234.949 136.997 234.949 146.686V149.986C234.949 159.675 231.484 163.672 226.015 163.672Z" fill="white"/>
<path d="M255.646 133.349V163.3H252.11L242.681 142.55V163.3H238.862V133.349H242.28L251.85 154.331V133.349H255.646Z" fill="white"/>
<path d="M276.082 133.349V136.741H268.893V163.3H265.097V136.741H257.955V133.349H276.082Z" fill="white"/>
<path d="M282.188 146.129H291.31V133.349H295.129V163.3H291.31V149.498H282.188V163.3H278.393V133.349H282.188V146.129Z" fill="white"/>
<path d="M312.666 139.832C311.464 137.833 310.191 136.393 307.268 136.393C304.651 136.393 303.096 138.135 303.096 141.086C303.096 144.34 304.651 145.594 308.399 146.64C313.09 147.941 316.013 150.334 316.013 155.284C316.013 159.188 313.845 163.672 307.645 163.672C303.614 163.672 300.691 162.022 298.829 158.769L301.846 156.771C303.473 159.071 304.864 160.28 307.645 160.28C311.464 160.28 312.242 157.77 312.242 155.47C312.242 152.867 311.393 151.078 306.891 149.87C302.341 148.661 299.277 146.105 299.277 141.11C299.277 136.95 301.705 133.023 307.339 133.023C311.275 133.023 313.75 134.627 315.542 137.926L312.666 139.832Z" fill="white"/>
<path d="M322.494 142.139C321.838 142.139 321.253 142.027 320.739 141.801C320.229 141.576 319.823 141.263 319.521 140.862C319.223 140.457 319.061 139.988 319.034 139.455H320.287C320.313 139.783 320.426 140.066 320.625 140.305C320.824 140.54 321.084 140.722 321.406 140.852C321.727 140.981 322.083 141.045 322.474 141.045C322.912 141.045 323.3 140.969 323.638 140.817C323.976 140.664 324.241 140.452 324.433 140.18C324.625 139.909 324.722 139.594 324.722 139.236C324.722 138.861 324.629 138.531 324.443 138.246C324.258 137.958 323.986 137.733 323.628 137.57C323.27 137.408 322.832 137.327 322.315 137.327H321.5V136.233H322.315C322.72 136.233 323.074 136.16 323.379 136.014C323.688 135.868 323.928 135.663 324.1 135.398C324.276 135.133 324.364 134.821 324.364 134.463C324.364 134.118 324.287 133.818 324.135 133.563C323.982 133.308 323.767 133.109 323.489 132.967C323.214 132.824 322.889 132.753 322.514 132.753C322.163 132.753 321.831 132.817 321.52 132.947C321.212 133.073 320.96 133.257 320.764 133.499C320.569 133.737 320.463 134.026 320.446 134.364H319.253C319.273 133.83 319.433 133.363 319.735 132.962C320.037 132.557 320.431 132.242 320.918 132.017C321.409 131.792 321.947 131.679 322.534 131.679C323.164 131.679 323.704 131.807 324.155 132.062C324.606 132.314 324.952 132.647 325.194 133.061C325.436 133.475 325.557 133.923 325.557 134.403C325.557 134.977 325.406 135.466 325.104 135.87C324.806 136.274 324.4 136.554 323.886 136.71V136.79C324.529 136.896 325.031 137.169 325.393 137.61C325.754 138.048 325.935 138.589 325.935 139.236C325.935 139.789 325.784 140.286 325.482 140.727C325.184 141.165 324.776 141.509 324.259 141.761C323.742 142.013 323.154 142.139 322.494 142.139Z" fill="white"/>
<g clip-path="url(#clip0_668_1563)">
<path d="M122.005 163.788V144.025L149.27 163.788H172.475V67.8427L143.511 46.8173H123.243L108.567 57.3874V79.2163L120.306 87.7413L119.897 137.785L93.5234 118.648L85.0051 118.304L79.55 113.901C79.55 113.901 89.5055 108.475 90.8903 96.2767C92.275 84.0788 81.6376 72.7574 81.6376 72.7574L50.3757 50.1667C50.3757 50.1667 23.9395 34.0246 6.58806 56.3231C-7.78402 74.7921 13.2496 92.8959 13.2496 92.8959C13.2496 92.8959 3.93395 96.4019 1.05953 110.603C-2.03518 125.942 9.24218 136.815 9.24218 136.815L41.9308 160.522C41.9308 160.522 53.932 168.515 70.3078 164.205C82.0992 161.096 86.1381 155.618 86.1381 155.618L97.3944 163.788H122.005Z" stroke="#FDE9AA" stroke-miterlimit="10"/>
<path d="M0.524414 115.299C0.524414 103.476 6.67189 95.6922 13.3859 92.0714C6.81876 88.0437 1.64691 80.8126 1.64691 70.7955C1.64691 52.723 16.6065 44.5215 31.8388 44.5215C47.0711 44.5215 62.0411 52.723 62.0411 70.806C62.0411 80.8231 56.8693 88.0542 50.3022 92.0819C57.0161 95.7026 63.1636 103.487 63.1636 115.309C63.1636 134.362 49.0433 143.263 31.8493 143.263C14.6552 143.263 0.524414 134.352 0.524414 115.299ZM40.0948 112.513C40.0948 104.728 36.035 100.972 31.8493 100.972C27.6635 100.972 23.6037 104.728 23.6037 112.513C23.6037 119.744 27.097 124.189 31.8493 124.189C36.6015 124.189 40.0948 119.744 40.0948 112.513ZM31.8493 63.7001C27.7894 63.7001 24.8625 67.4565 24.8625 73.7172C24.8625 79.9779 27.7999 84.0056 31.8493 84.0056C35.8986 84.0056 38.836 80.1135 38.836 73.7172C38.836 67.3208 35.8986 63.7001 31.8493 63.7001Z" fill="#FDE9AA"/>
<path d="M92.9361 141.865H68.3252V117.386H92.9361V141.865Z" fill="#FDE9AA"/>
<path d="M143.406 141.865H120.201V69.825L108.462 78.3083V56.4793L123.138 45.9092H143.406V141.865Z" fill="#FDE9AA"/>
</g>
<path d="M13.5571 0.363281L8.5598 15.7225L3.51533 0.363281H0.663086V25.7606H3.51533V8.72836L7.33404 20.4627H9.6677L13.6043 8.72836V25.7606H16.4329V0.363281H13.5571Z" fill="white"/>
<path d="M20.252 0.363281V25.7606H31.3781V22.9025H23.1042V14.0495H30.5766V11.1914H23.1042V3.24459H31.3781V0.363281H20.252Z" fill="white"/>
<path d="M43.707 14.398V11.7491C43.707 5.45204 42.552 3.24459 39.959 3.24459H36.8475V22.9025H39.959C42.5991 22.9025 43.707 20.6951 43.707 14.398ZM34.0188 25.7606V0.363281H39.959C43.9899 0.363281 46.5593 3.52342 46.5593 11.7258V14.3748C46.5593 22.5772 43.9899 25.7373 39.959 25.7373H34.0188V25.7606Z" fill="white"/>
<path d="M52.5457 0.363281H49.717V25.7606H52.5457V0.363281Z" fill="white"/>
<path d="M62.2348 5.73087L64.7335 17.0702H59.7126L62.2112 5.73087H62.2348ZM60.9855 0.363281L54.6445 25.7606H57.6146L58.9111 19.9515H65.6056L66.9021 25.7606H69.8722L63.4841 0.363281H60.9855Z" fill="white"/>
<path d="M81.3756 0.363281V18.1391L74.2567 0.363281H71.7109V25.7606H74.5396V8.17069L81.5642 25.7606H84.2042V0.363281H81.3756Z" fill="white"/>
<path d="M97.4743 14.7466C97.4743 21.183 98.6058 23.4602 101.293 23.4602C103.98 23.4602 105.112 21.183 105.112 14.7466V11.9582C105.112 5.52174 103.98 3.24459 101.293 3.24459C98.6058 3.24459 97.4743 5.52174 97.4743 11.9582V14.7466ZM101.293 26.3415C97.215 26.3415 94.6221 22.949 94.6221 14.7466V11.9582C94.6456 3.75578 97.215 0.363281 101.317 0.363281C105.418 0.363281 107.988 3.75578 107.988 11.9582V14.7466C107.988 22.949 105.418 26.3415 101.317 26.3415" fill="white"/>
<path d="M120.104 6.14913C119.209 4.45287 118.266 3.24459 116.073 3.24459C114.117 3.24459 112.985 4.70847 112.985 7.218C112.985 9.98312 114.14 11.052 116.946 11.935C120.434 13.0271 122.627 15.0719 122.627 19.2544C122.627 22.5772 121 26.3647 116.403 26.3647C113.41 26.3647 111.218 24.9705 109.85 22.2054L112.09 20.5092C113.315 22.461 114.329 23.4834 116.403 23.4834C119.232 23.4834 119.845 21.3457 119.845 19.3938C119.845 17.1864 119.209 15.676 115.861 14.6536C112.467 13.6312 110.18 11.447 110.18 7.218C110.157 3.68608 111.972 0.363281 116.144 0.363281C119.091 0.363281 120.929 1.73422 122.249 4.52258L120.104 6.14913Z" fill="white"/>
<path d="M133.328 14.7466C133.328 21.183 134.459 23.4602 137.147 23.4602C139.834 23.4602 140.965 21.183 140.965 14.7466V11.9582C140.965 5.52174 139.834 3.24459 137.147 3.24459C134.459 3.24459 133.328 5.52174 133.328 11.9582V14.7466ZM137.147 26.3415C133.069 26.3415 130.476 22.949 130.476 14.7466V11.9582C130.499 3.75578 133.069 0.363281 137.147 0.363281C141.225 0.363281 143.817 3.75578 143.817 11.9582V14.7466C143.817 22.949 141.248 26.3415 137.147 26.3415Z" fill="white"/>
<path d="M146.718 0.665039V26.0623H149.57V14.9321H157.042V12.0741H149.57V3.52311H157.844V0.665039H146.718Z" fill="white"/>
<defs>
<clipPath id="clip0_668_1563">
<rect width="173" height="122" fill="white" transform="translate(0 44)"/>
</clipPath>
</defs>
</svg>
