<svg width="344" height="253" viewBox="0 0 344 253" fill="none" xmlns="http://www.w3.org/2000/svg">
<path d="M207.584 173.749L214.326 155.421H218.168V185.749H214.373V165.397L209.093 179.42H205.957L200.819 165.397V185.749H197V155.421H200.819L207.584 173.749Z" fill="white"/>
<path d="M225.876 172.267C225.876 179.961 227.385 182.691 231.015 182.691C234.645 182.691 236.154 179.961 236.154 172.267V168.926C236.154 161.233 234.645 158.503 231.015 158.503C227.385 158.503 225.876 161.233 225.876 168.926V172.267ZM231.015 186.126C225.523 186.126 222.081 182.079 222.081 172.267V168.926C222.081 159.115 225.546 155.068 231.015 155.068C236.484 155.068 239.949 159.115 239.949 168.926V172.267C239.949 182.079 236.484 186.126 231.015 186.126Z" fill="white"/>
<path d="M260.646 155.421V185.749H257.11L247.681 164.738V185.749H243.862V155.421H247.28L256.851 176.667V155.421H260.646Z" fill="white"/>
<path d="M281.082 155.421V158.856H273.893V185.749H270.097V158.856H262.955V155.421H281.082Z" fill="white"/>
<path d="M287.188 168.361H296.31V155.421H300.129V185.749H296.31V171.773H287.188V185.749H283.393V155.421H287.188V168.361Z" fill="white"/>
<path d="M317.666 161.986C316.464 159.962 315.191 158.503 312.268 158.503C309.651 158.503 308.096 160.268 308.096 163.256C308.096 166.55 309.651 167.821 313.399 168.879C318.09 170.197 321.013 172.62 321.013 177.632C321.013 181.585 318.845 186.126 312.645 186.126C308.614 186.126 305.691 184.455 303.829 181.161L306.846 179.138C308.473 181.467 309.864 182.69 312.645 182.69C316.464 182.69 317.242 180.149 317.242 177.82C317.242 175.185 316.393 173.373 311.891 172.15C307.341 170.926 304.277 168.338 304.277 163.28C304.277 159.068 306.705 155.092 312.339 155.092C316.275 155.092 318.75 156.715 320.542 160.056L317.666 161.986Z" fill="white"/>
<path d="M18.5571 0.0957031L13.5598 15.6479L8.51533 0.0957031H5.66309V25.8121H8.51533V8.56586L12.334 20.4476H14.6677L18.6043 8.56586V25.8121H21.4329V0.0957031H18.5571Z" fill="white"/>
<path d="M25.252 0.0957031V25.8121H36.3781V22.9181H28.1042V13.9538H35.5766V11.0599H28.1042V3.0132H36.3781V0.0957031H25.252Z" fill="white"/>
<path d="M48.7068 14.3068V11.6245C48.7068 5.24838 47.5517 3.0132 44.9588 3.0132H41.8472V22.9181H44.9588C47.5989 22.9181 48.7068 20.6829 48.7068 14.3068ZM39.0186 25.8121V0.0957031H44.9588C48.9896 0.0957031 51.559 3.29554 51.559 11.601V14.2832C51.559 22.5887 48.9896 25.7885 44.9588 25.7885H39.0186V25.8121Z" fill="white"/>
<path d="M57.5455 0.0957031H54.7168V25.8121H57.5455V0.0957031Z" fill="white"/>
<path d="M67.2348 5.53072L69.7335 17.0125H64.7126L67.2112 5.53072H67.2348ZM65.9855 0.0957031L59.6445 25.8121H62.6146L63.9111 19.93H70.6056L71.9021 25.8121H74.8722L68.4841 0.0957031H65.9855Z" fill="white"/>
<path d="M86.3756 0.0957031V18.0948L79.2567 0.0957031H76.7109V25.8121H79.5396V8.00119L86.5642 25.8121H89.2042V0.0957031H86.3756Z" fill="white"/>
<path d="M102.474 14.6597C102.474 21.177 103.606 23.4828 106.293 23.4828C108.98 23.4828 110.112 21.177 110.112 14.6597V11.8363C110.112 5.31897 108.98 3.0132 106.293 3.0132C103.606 3.0132 102.474 5.31897 102.474 11.8363V14.6597ZM106.293 26.4003C102.215 26.4003 99.6221 22.9651 99.6221 14.6597V11.8363C99.6456 3.53082 102.215 0.0957031 106.317 0.0957031C110.418 0.0957031 112.988 3.53082 112.988 11.8363V14.6597C112.988 22.9651 110.418 26.4003 106.317 26.4003" fill="white"/>
<path d="M125.105 5.95423C124.209 4.23667 123.266 3.0132 121.074 3.0132C119.117 3.0132 117.986 4.49548 117.986 7.03653C117.986 9.83639 119.141 10.9187 121.946 11.8128C125.435 12.9186 127.627 14.9891 127.627 19.2241C127.627 22.5887 126 26.4238 121.404 26.4238C118.41 26.4238 116.218 25.0121 114.851 22.2122L117.09 20.4947C118.316 22.471 119.329 23.5063 121.404 23.5063C124.232 23.5063 124.845 21.3417 124.845 19.3653C124.845 17.1301 124.209 15.6008 120.862 14.5656C117.467 13.5303 115.181 11.3187 115.181 7.03653C115.157 3.46024 116.972 0.0957031 121.144 0.0957031C124.091 0.0957031 125.93 1.48387 127.25 4.30725L125.105 5.95423Z" fill="white"/>
<path d="M138.328 14.6597C138.328 21.177 139.459 23.4828 142.147 23.4828C144.834 23.4828 145.965 21.177 145.965 14.6597V11.8363C145.965 5.31897 144.834 3.0132 142.147 3.0132C139.459 3.0132 138.328 5.31897 138.328 11.8363V14.6597ZM142.147 26.4003C138.069 26.4003 135.476 22.9651 135.476 14.6597V11.8363C135.499 3.53082 138.069 0.0957031 142.147 0.0957031C146.225 0.0957031 148.817 3.53082 148.817 11.8363V14.6597C148.817 22.9651 146.248 26.4003 142.147 26.4003Z" fill="white"/>
<path d="M151.718 0.401367V26.1177H154.57V14.8477H162.042V11.9537H154.57V3.29534H162.844V0.401367H151.718Z" fill="white"/>
<path d="M5.8096 213.306C5.8096 210.574 7.4541 209.688 9.7564 209.688H11.7551V208.221C11.7551 206.475 11.2491 206.02 9.807 206.02C8.5926 206.02 8.1119 206.197 7.6059 207.234L6.0626 206.248C6.771 204.78 7.8336 204.148 9.8323 204.148C12.4382 204.148 13.7791 205.185 13.7791 208.221V217H11.7551V215.76C11.3756 216.62 10.819 217.202 9.4022 217.202C7.0746 217.202 5.8096 215.76 5.8096 213.306ZM11.7551 212.142V211.409H9.8829C8.3902 211.409 7.8336 212.092 7.8336 213.357C7.8336 214.774 8.5673 215.33 9.7311 215.33C10.819 215.33 11.7551 214.976 11.7551 212.142ZM15.5353 204.35H16.8256V203.439C16.8256 200.808 17.534 199.543 20.0134 199.543H20.6206V201.466H20.1399C19.0267 201.466 18.8496 202.098 18.8496 203.793V204.35H20.6206V206.172H18.8496V217H16.8256V206.172H15.5353V204.35ZM21.5638 206.172V204.35H22.8541V201.567H24.8781V204.35H26.978V206.172H24.8781V212.598C24.8781 214.343 24.954 215.077 26.2443 215.077H26.978V217H26.0925C23.5878 217 22.8541 215.735 22.8541 213.104V206.172H21.5638ZM34.9928 214.065L36.4855 215.102C35.8024 216.595 34.6639 217.202 32.8676 217.202C29.9581 217.202 28.4907 215.001 28.4907 211.485V209.815C28.4907 206.222 29.9328 204.148 32.5387 204.148C35.2964 204.148 36.612 205.893 36.612 209.815V211.13H30.5147V211.485C30.5147 213.66 31.1219 215.381 32.8423 215.381C34.0567 215.381 34.4868 214.9 34.9928 214.065ZM32.5387 205.969C30.9954 205.969 30.5147 207.108 30.5147 209.359H34.588C34.588 206.728 33.9808 205.969 32.5387 205.969ZM46.0117 205.868L44.4431 207.057C44.013 206.323 43.5576 206.02 42.8745 206.02C41.736 206.02 41.0023 206.981 41.0023 209.081V217H38.9783V204.35H41.0023V205.59C41.3818 204.78 42.1408 204.148 43.3046 204.148C44.4937 204.148 45.3792 204.73 46.0117 205.868ZM59.23 206.248L57.7626 207.31C57.2566 206.425 56.8012 206.02 55.5615 206.02C54.4736 206.02 53.8411 206.602 53.8411 207.715C53.8411 208.904 54.4989 209.41 55.8651 209.714C57.6867 210.118 59.5336 210.877 59.5336 213.483C59.5336 215.684 58.2433 217.202 55.6627 217.202C53.5881 217.202 52.4749 216.469 51.6906 215.153L53.1327 213.989C53.6387 214.9 54.2965 215.33 55.5362 215.33C56.8518 215.33 57.5096 214.672 57.5096 213.534C57.5096 212.421 57.0542 211.915 55.2579 211.51C53.5628 211.13 51.8171 210.194 51.8171 207.74C51.8171 205.64 53.1833 204.148 55.4856 204.148C57.1554 204.148 58.4204 204.679 59.23 206.248ZM67.7543 214.065L69.247 215.102C68.5639 216.595 67.4254 217.202 65.6291 217.202C62.7196 217.202 61.2522 215.001 61.2522 211.485V209.815C61.2522 206.222 62.6943 204.148 65.3002 204.148C68.0579 204.148 69.3735 205.893 69.3735 209.815V211.13H63.2762V211.485C63.2762 213.66 63.8834 215.381 65.6038 215.381C66.8182 215.381 67.2483 214.9 67.7543 214.065ZM65.3002 205.969C63.7569 205.969 63.2762 207.108 63.2762 209.359H67.3495C67.3495 206.728 66.7423 205.969 65.3002 205.969ZM77.7359 214.065L79.2286 215.102C78.6214 216.57 77.3058 217.202 75.6613 217.202C72.6253 217.202 71.2338 214.976 71.2338 211.485V209.815C71.2338 206.222 72.9036 204.148 75.6613 204.148C77.1793 204.148 78.4949 204.805 79.2286 206.096L77.6853 207.158C77.2046 206.374 76.5468 205.969 75.6613 205.969C74.0421 205.969 73.2578 207.437 73.2578 209.815V211.485C73.2578 213.66 73.8397 215.381 75.6613 215.381C76.5721 215.381 77.1793 215.052 77.7359 214.065ZM88.8768 209.815V211.485C88.8768 215.102 87.3335 217.202 84.6011 217.202C81.8687 217.202 80.3507 215.102 80.3507 211.485V209.815C80.3507 206.197 81.8687 204.148 84.6011 204.148C87.3335 204.148 88.8768 206.197 88.8768 209.815ZM84.6011 215.381C86.3468 215.381 86.8528 213.66 86.8528 211.485V209.815C86.8528 207.437 86.3468 205.969 84.6011 205.969C82.8554 205.969 82.3747 207.437 82.3747 209.815V211.485C82.3747 213.66 82.8554 215.381 84.6011 215.381ZM91.0113 217V204.35H93.0606V205.59C93.4401 204.831 94.275 204.148 95.54 204.148C97.5893 204.148 99.1326 205.564 99.1326 209.106V217H97.1086V209.132C97.1086 206.576 96.2484 206.02 95.1605 206.02C93.6678 206.02 93.0353 207.209 93.0353 209.106V217H91.0113ZM107.806 205.615V199.543H109.83V217H107.806V215.887C107.3 216.722 106.591 217.202 105.225 217.202C102.543 217.202 101.253 214.774 101.253 211.485V209.815C101.253 206.197 102.847 204.148 105.225 204.148C106.566 204.148 107.35 204.755 107.806 205.615ZM105.554 215.381C107.224 215.381 107.806 213.66 107.806 211.485V209.638C107.806 207.361 106.945 205.969 105.554 205.969C104.036 205.969 103.277 207.411 103.277 209.815V211.485C103.277 213.635 103.96 215.381 105.554 215.381ZM111.749 210.599V208.777H117.087V210.599H111.749ZM119.004 213.104V199.543H121.028V212.598C121.028 213.964 120.978 215.128 122.597 215.128V217C119.865 217 119.004 215.735 119.004 213.104ZM125.065 217V204.35H127.089V217H125.065ZM124.964 201.82V199.543H127.19V201.82H124.964ZM130.024 217V204.35H132.073V205.59C132.452 204.831 133.287 204.148 134.552 204.148C136.602 204.148 138.145 205.564 138.145 209.106V217H136.121V209.132C136.121 206.576 135.261 206.02 134.173 206.02C132.68 206.02 132.048 207.209 132.048 209.106V217H130.024ZM146.767 214.065L148.26 215.102C147.577 216.595 146.438 217.202 144.642 217.202C141.733 217.202 140.265 215.001 140.265 211.485V209.815C140.265 206.222 141.707 204.148 144.313 204.148C147.071 204.148 148.387 205.893 148.387 209.815V211.13H142.289V211.485C142.289 213.66 142.896 215.381 144.617 215.381C145.831 215.381 146.261 214.9 146.767 214.065ZM144.313 205.969C142.77 205.969 142.289 207.108 142.289 209.359H146.363C146.363 206.728 145.755 205.969 144.313 205.969ZM161.814 214.065L163.307 215.102C162.699 216.57 161.384 217.202 159.739 217.202C156.703 217.202 155.312 214.976 155.312 211.485V209.815C155.312 206.222 156.982 204.148 159.739 204.148C161.257 204.148 162.573 204.805 163.307 206.096L161.763 207.158C161.283 206.374 160.625 205.969 159.739 205.969C158.12 205.969 157.336 207.437 157.336 209.815V211.485C157.336 213.66 157.918 215.381 159.739 215.381C160.65 215.381 161.257 215.052 161.814 214.065ZM164.935 217V199.543H166.984V205.59C167.364 204.831 168.198 204.148 169.463 204.148C171.513 204.148 173.056 205.564 173.056 209.106V217H171.032V209.132C171.032 206.576 170.172 206.02 169.084 206.02C167.591 206.02 166.959 207.209 166.959 209.106V217H164.935ZM181.678 214.065L183.171 215.102C182.488 216.595 181.349 217.202 179.553 217.202C176.644 217.202 175.176 215.001 175.176 211.485V209.815C175.176 206.222 176.618 204.148 179.224 204.148C181.982 204.148 183.298 205.893 183.298 209.815V211.13H177.2V211.485C177.2 213.66 177.807 215.381 179.528 215.381C180.742 215.381 181.172 214.9 181.678 214.065ZM179.224 205.969C177.681 205.969 177.2 207.108 177.2 209.359H181.274C181.274 206.728 180.666 205.969 179.224 205.969ZM185.664 217V204.35H187.688V205.59C188.067 204.856 188.826 204.148 190.117 204.148C191.432 204.148 192.52 204.755 193.077 206.146C193.735 204.755 194.747 204.148 196.037 204.148C198.086 204.148 199.579 205.817 199.579 209.106V217H197.555V209.132C197.555 206.678 196.669 206.02 195.607 206.02C194.468 206.02 193.633 206.981 193.633 209.106V217H191.609V209.132C191.609 206.678 190.724 206.02 189.661 206.02C188.498 206.02 187.688 207.082 187.688 209.106V217H185.664ZM210.238 209.815V211.485C210.238 215.102 208.694 217.202 205.962 217.202C203.23 217.202 201.712 215.102 201.712 211.485V209.815C201.712 206.197 203.23 204.148 205.962 204.148C208.694 204.148 210.238 206.197 210.238 209.815ZM205.962 215.381C207.708 215.381 208.214 213.66 208.214 211.485V209.815C208.214 207.437 207.708 205.969 205.962 205.969C204.216 205.969 203.736 207.437 203.736 209.815V211.485C203.736 213.66 204.216 215.381 205.962 215.381ZM211.487 206.172V204.35H212.777V201.567H214.801V204.35H216.901V206.172H214.801V212.598C214.801 214.343 214.877 215.077 216.167 215.077H216.901V217H216.015C213.511 217 212.777 215.735 212.777 213.104V206.172H211.487ZM218.92 217V199.543H220.969V205.59C221.348 204.831 222.183 204.148 223.448 204.148C225.498 204.148 227.041 205.564 227.041 209.106V217H225.017V209.132C225.017 206.576 224.157 206.02 223.069 206.02C221.576 206.02 220.944 207.209 220.944 209.106V217H218.92ZM235.663 214.065L237.156 215.102C236.473 216.595 235.334 217.202 233.538 217.202C230.629 217.202 229.161 215.001 229.161 211.485V209.815C229.161 206.222 230.603 204.148 233.209 204.148C235.967 204.148 237.282 205.893 237.282 209.815V211.13H231.185V211.485C231.185 213.66 231.792 215.381 233.513 215.381C234.727 215.381 235.157 214.9 235.663 214.065ZM233.209 205.969C231.666 205.969 231.185 207.108 231.185 209.359H235.258C235.258 206.728 234.651 205.969 233.209 205.969ZM246.682 205.868L245.114 207.057C244.683 206.323 244.228 206.02 243.545 206.02C242.406 206.02 241.673 206.981 241.673 209.081V217H239.649V204.35H241.673V205.59C242.052 204.78 242.811 204.148 243.975 204.148C245.164 204.148 246.05 204.73 246.682 205.868ZM247.098 213.306C247.098 210.574 248.743 209.688 251.045 209.688H253.044V208.221C253.044 206.475 252.538 206.02 251.096 206.02C249.881 206.02 249.401 206.197 248.895 207.234L247.351 206.248C248.06 204.78 249.122 204.148 251.121 204.148C253.727 204.148 255.068 205.185 255.068 208.221V217H253.044V215.76C252.664 216.62 252.108 217.202 250.691 217.202C248.363 217.202 247.098 215.76 247.098 213.306ZM253.044 212.142V211.409H251.172C249.679 211.409 249.122 212.092 249.122 213.357C249.122 214.774 249.856 215.33 251.02 215.33C252.108 215.33 253.044 214.976 253.044 212.142ZM259.734 204.35V205.615C260.189 204.755 260.973 204.148 262.314 204.148C264.692 204.148 266.286 206.197 266.286 209.815V211.485C266.286 214.774 264.996 217.202 262.314 217.202C260.948 217.202 260.24 216.722 259.734 215.887V221.807H257.71V204.35H259.734ZM261.985 215.381C263.579 215.381 264.262 213.635 264.262 211.485V209.815C264.262 207.411 263.503 205.969 261.985 205.969C260.594 205.969 259.734 207.361 259.734 209.638V211.485C259.734 213.66 260.316 215.381 261.985 215.381ZM271.014 217.481L271.115 217.127L267.193 204.35H269.369L271.722 212.497L272.102 213.838L274.454 204.35H276.554L273.063 217.405C272.228 220.441 271.596 221.807 268.56 221.807V219.834C269.774 219.834 270.432 219.53 271.014 217.481ZM5.4301 233.35H6.7204V232.439C6.7204 229.808 7.4288 228.543 9.9082 228.543H10.5154V230.466H10.0347C8.9215 230.466 8.7444 231.098 8.7444 232.793V233.35H10.5154V235.172H8.7444V246H6.7204V235.172H5.4301V233.35ZM20.3642 238.815V240.485C20.3642 244.102 18.8209 246.202 16.0885 246.202C13.3561 246.202 11.8381 244.102 11.8381 240.485V238.815C11.8381 235.197 13.3561 233.148 16.0885 233.148C18.8209 233.148 20.3642 235.197 20.3642 238.815ZM16.0885 244.381C17.8342 244.381 18.3402 242.66 18.3402 240.485V238.815C18.3402 236.437 17.8342 234.969 16.0885 234.969C14.3428 234.969 13.8621 236.437 13.8621 238.815V240.485C13.8621 242.66 14.3428 244.381 16.0885 244.381ZM22.4987 242.104V228.543H24.5227V241.598C24.5227 242.964 24.4721 244.128 26.0913 244.128V246C23.3589 246 22.4987 244.735 22.4987 242.104ZM28.2554 242.104V228.543H30.2794V241.598C30.2794 242.964 30.2288 244.128 31.848 244.128V246C29.1156 246 28.2554 244.735 28.2554 242.104ZM42.0323 238.815V240.485C42.0323 244.102 40.489 246.202 37.7566 246.202C35.0242 246.202 33.5062 244.102 33.5062 240.485V238.815C33.5062 235.197 35.0242 233.148 37.7566 233.148C40.489 233.148 42.0323 235.197 42.0323 238.815ZM37.7566 244.381C39.5023 244.381 40.0083 242.66 40.0083 240.485V238.815C40.0083 236.437 39.5023 234.969 37.7566 234.969C36.0109 234.969 35.5302 236.437 35.5302 238.815V240.485C35.5302 242.66 36.0109 244.381 37.7566 244.381ZM50.2641 236.715L47.7847 246H46.0896L43.0536 233.35H45.2294L47.0257 242.23L49.3027 233.35H51.2255L53.5278 242.306L55.2988 233.35H57.4493L54.4639 246H52.7435L50.2641 236.715ZM59.2699 246V233.35H61.2939V246H59.2699ZM59.1687 230.82V228.543H61.3951V230.82H59.1687ZM64.2289 246V233.35H66.2782V234.59C66.6577 233.831 67.4926 233.148 68.7576 233.148C70.8069 233.148 72.3502 234.564 72.3502 238.106V246H70.3262V238.132C70.3262 235.576 69.466 235.02 68.3781 235.02C66.8854 235.02 66.2529 236.209 66.2529 238.106V246H64.2289ZM81.0231 234.615V233.35H83.0471V245.747C83.0471 249.264 81.5797 250.959 78.6955 250.959C76.7727 250.959 75.6342 250.326 74.9258 248.859L76.4691 247.796C76.9245 248.682 77.4305 249.137 78.6449 249.137C80.3906 249.137 81.0231 247.923 81.0231 245.747V244.887C80.5171 245.722 79.8087 246.202 78.4425 246.202C75.7607 246.202 74.4704 243.774 74.4704 240.485V238.815C74.4704 235.197 76.0643 233.148 78.4425 233.148C79.7834 233.148 80.5677 233.755 81.0231 234.615ZM78.7714 244.381C80.4412 244.381 81.0231 242.66 81.0231 240.485V238.638C81.0231 236.361 80.1629 234.969 78.7714 234.969C77.2534 234.969 76.4944 236.411 76.4944 238.815V240.485C76.4944 242.635 77.1775 244.381 78.7714 244.381ZM91.0431 246V233.35H93.0671V246H91.0431ZM90.9419 230.82V228.543H93.1683V230.82H90.9419ZM96.0021 246V233.35H98.0514V234.59C98.4309 233.831 99.2658 233.148 100.531 233.148C102.58 233.148 104.123 234.564 104.123 238.106V246H102.099V238.132C102.099 235.576 101.239 235.02 100.151 235.02C98.6586 235.02 98.0261 236.209 98.0261 238.106V246H96.0021ZM107.053 246V233.35H109.077V246H107.053ZM106.952 230.82V228.543H109.178V230.82H106.952ZM111.127 235.172V233.35H112.417V230.567H114.441V233.35H116.541V235.172H114.441V241.598C114.441 243.343 114.517 244.077 115.807 244.077H116.541V246H115.655C113.151 246 112.417 244.735 112.417 242.104V235.172H111.127ZM118.863 246V233.35H120.887V246H118.863ZM118.762 230.82V228.543H120.988V230.82H118.762ZM123.316 242.306C123.316 239.574 124.961 238.688 127.263 238.688H129.262V237.221C129.262 235.475 128.756 235.02 127.314 235.02C126.099 235.02 125.619 235.197 125.113 236.234L123.569 235.248C124.278 233.78 125.34 233.148 127.339 233.148C129.945 233.148 131.286 234.185 131.286 237.221V246H129.262V244.76C128.882 245.62 128.326 246.202 126.909 246.202C124.581 246.202 123.316 244.76 123.316 242.306ZM129.262 241.142V240.409H127.39C125.897 240.409 125.34 241.092 125.34 242.357C125.34 243.774 126.074 244.33 127.238 244.33C128.326 244.33 129.262 243.976 129.262 241.142ZM133.927 242.104V228.543H135.951V241.598C135.951 242.964 135.901 244.128 137.52 244.128V246C134.788 246 133.927 244.735 133.927 242.104ZM150.745 243.065L152.238 244.102C151.631 245.57 150.315 246.202 148.671 246.202C145.635 246.202 144.243 243.976 144.243 240.485V238.815C144.243 235.222 145.913 233.148 148.671 233.148C150.189 233.148 151.504 233.805 152.238 235.096L150.695 236.158C150.214 235.374 149.556 234.969 148.671 234.969C147.051 234.969 146.267 236.437 146.267 238.815V240.485C146.267 242.66 146.849 244.381 148.671 244.381C149.581 244.381 150.189 244.052 150.745 243.065ZM161.886 238.815V240.485C161.886 244.102 160.343 246.202 157.61 246.202C154.878 246.202 153.36 244.102 153.36 240.485V238.815C153.36 235.197 154.878 233.148 157.61 233.148C160.343 233.148 161.886 235.197 161.886 238.815ZM157.61 244.381C159.356 244.381 159.862 242.66 159.862 240.485V238.815C159.862 236.437 159.356 234.969 157.61 234.969C155.865 234.969 155.384 236.437 155.384 238.815V240.485C155.384 242.66 155.865 244.381 157.61 244.381ZM164.021 246V233.35H166.045V234.59C166.424 233.856 167.183 233.148 168.473 233.148C169.789 233.148 170.877 233.755 171.433 235.146C172.091 233.755 173.103 233.148 174.394 233.148C176.443 233.148 177.936 234.817 177.936 238.106V246H175.912V238.132C175.912 235.678 175.026 235.02 173.963 235.02C172.825 235.02 171.99 235.981 171.99 238.106V246H169.966V238.132C169.966 235.678 169.081 235.02 168.018 235.02C166.854 235.02 166.045 236.082 166.045 238.106V246H164.021ZM182.598 228.543V234.615C183.054 233.755 183.838 233.148 185.179 233.148C187.557 233.148 189.151 235.197 189.151 238.815V240.485C189.151 243.774 187.861 246.202 185.179 246.202C183.813 246.202 183.104 245.722 182.598 244.887V246H180.574V228.543H182.598ZM184.85 244.381C186.444 244.381 187.127 242.635 187.127 240.485V238.815C187.127 236.411 186.368 234.969 184.85 234.969C183.458 234.969 182.598 236.361 182.598 238.638V240.485C182.598 242.66 183.18 244.381 184.85 244.381ZM191.576 246V233.35H193.6V246H191.576ZM191.475 230.82V228.543H193.701V230.82H191.475ZM196.535 246V233.35H198.584V234.59C198.964 233.831 199.799 233.148 201.064 233.148C203.113 233.148 204.656 234.564 204.656 238.106V246H202.632V238.132C202.632 235.576 201.772 235.02 200.684 235.02C199.192 235.02 198.559 236.209 198.559 238.106V246H196.535ZM206.777 242.306C206.777 239.574 208.421 238.688 210.723 238.688H212.722V237.221C212.722 235.475 212.216 235.02 210.774 235.02C209.56 235.02 209.079 235.197 208.573 236.234L207.03 235.248C207.738 233.78 208.801 233.148 210.799 233.148C213.405 233.148 214.746 234.185 214.746 237.221V246H212.722V244.76C212.343 245.62 211.786 246.202 210.369 246.202C208.042 246.202 206.777 244.76 206.777 242.306ZM212.722 241.142V240.409H210.85C209.357 240.409 208.801 241.092 208.801 242.357C208.801 243.774 209.534 244.33 210.698 244.33C211.786 244.33 212.722 243.976 212.722 241.142ZM216.502 235.172V233.35H217.793V230.567H219.817V233.35H221.916V235.172H219.817V241.598C219.817 243.343 219.892 244.077 221.183 244.077H221.916V246H221.031C218.526 246 217.793 244.735 217.793 242.104V235.172H216.502ZM224.239 246V233.35H226.263V246H224.239ZM224.138 230.82V228.543H226.364V230.82H224.138ZM237.218 238.815V240.485C237.218 244.102 235.675 246.202 232.942 246.202C230.21 246.202 228.692 244.102 228.692 240.485V238.815C228.692 235.197 230.21 233.148 232.942 233.148C235.675 233.148 237.218 235.197 237.218 238.815ZM232.942 244.381C234.688 244.381 235.194 242.66 235.194 240.485V238.815C235.194 236.437 234.688 234.969 232.942 234.969C231.196 234.969 230.716 236.437 230.716 238.815V240.485C230.716 242.66 231.196 244.381 232.942 244.381ZM239.352 246V233.35H241.402V234.59C241.781 233.831 242.616 233.148 243.881 233.148C245.93 233.148 247.474 234.564 247.474 238.106V246H245.45V238.132C245.45 235.576 244.589 235.02 243.502 235.02C242.009 235.02 241.376 236.209 241.376 238.106V246H239.352ZM254.279 235.172V233.35H255.57V230.567H257.594V233.35H259.694V235.172H257.594V241.598C257.594 243.343 257.67 244.077 258.96 244.077H259.694V246H258.808C256.303 246 255.57 244.735 255.57 242.104V235.172H254.279ZM261.712 246V228.543H263.761V234.59C264.141 233.831 264.976 233.148 266.241 233.148C268.29 233.148 269.833 234.564 269.833 238.106V246H267.809V238.132C267.809 235.576 266.949 235.02 265.861 235.02C264.369 235.02 263.736 236.209 263.736 238.106V246H261.712ZM278.456 243.065L279.949 244.102C279.265 245.595 278.127 246.202 276.331 246.202C273.421 246.202 271.954 244.001 271.954 240.485V238.815C271.954 235.222 273.396 233.148 276.002 233.148C278.759 233.148 280.075 234.893 280.075 238.815V240.13H273.978V240.485C273.978 242.66 274.585 244.381 276.305 244.381C277.52 244.381 277.95 243.9 278.456 243.065ZM276.002 234.969C274.458 234.969 273.978 236.108 273.978 238.359H278.051C278.051 235.728 277.444 234.969 276.002 234.969ZM289.475 234.868L287.906 236.057C287.476 235.323 287.021 235.02 286.338 235.02C285.199 235.02 284.465 235.981 284.465 238.081V246H282.441V233.35H284.465V234.59C284.845 233.78 285.604 233.148 286.768 233.148C287.957 233.148 288.842 233.73 289.475 234.868ZM289.891 242.306C289.891 239.574 291.536 238.688 293.838 238.688H295.837V237.221C295.837 235.475 295.331 235.02 293.888 235.02C292.674 235.02 292.193 235.197 291.687 236.234L290.144 235.248C290.852 233.78 291.915 233.148 293.914 233.148C296.52 233.148 297.861 234.185 297.861 237.221V246H295.837V244.76C295.457 245.62 294.9 246.202 293.484 246.202C291.156 246.202 289.891 244.76 289.891 242.306ZM295.837 241.142V240.409H293.964C292.472 240.409 291.915 241.092 291.915 242.357C291.915 243.774 292.649 244.33 293.813 244.33C294.9 244.33 295.837 243.976 295.837 241.142ZM302.526 233.35V234.615C302.982 233.755 303.766 233.148 305.107 233.148C307.485 233.148 309.079 235.197 309.079 238.815V240.485C309.079 243.774 307.789 246.202 305.107 246.202C303.741 246.202 303.032 245.722 302.526 244.887V250.807H300.502V233.35H302.526ZM304.778 244.381C306.372 244.381 307.055 242.635 307.055 240.485V238.815C307.055 236.411 306.296 234.969 304.778 234.969C303.386 234.969 302.526 236.361 302.526 238.638V240.485C302.526 242.66 303.108 244.381 304.778 244.381ZM313.806 246.481L313.907 246.127L309.986 233.35H312.162L314.515 241.497L314.894 242.838L317.247 233.35H319.347L315.856 246.405C315.021 249.441 314.388 250.807 311.352 250.807V248.834C312.567 248.834 313.224 248.53 313.806 246.481ZM322.763 227.526L322.718 229.363L323.917 228.406L324.494 229.241L323.158 230.182L324.479 231.108L323.917 231.943L322.718 231.002L322.763 232.824H321.731L321.761 231.002L320.577 231.943L320.031 231.108L321.321 230.182L320.031 229.241L320.577 228.406L321.761 229.363L321.731 227.526H322.763Z" fill="white"/>
<g clip-path="url(#clip0_668_1290)">
<path d="M129.058 183.33V162.17L157.899 183.33H182.445V80.605L151.807 58.0939H130.367L114.843 69.4109V92.7823L127.26 101.91L126.827 155.49L98.9295 135L89.9188 134.632L84.1484 129.917C84.1484 129.917 94.6794 124.108 96.1442 111.048C97.609 97.9883 86.3567 85.8669 86.3567 85.8669L53.2877 61.68C53.2877 61.68 25.3234 44.3973 6.96898 68.2714C-8.23386 88.0454 14.0156 107.428 14.0156 107.428C14.0156 107.428 4.16145 111.182 1.12088 126.387C-2.15272 142.81 9.77651 154.451 9.77651 154.451L44.3546 179.833C44.3546 179.833 57.0496 188.39 74.3719 183.776C86.8449 180.447 91.1173 174.582 91.1173 174.582L103.024 183.33H129.058Z" stroke="#FDE9AA" stroke-miterlimit="10"/>
<path d="M0.554688 131.414C0.554688 118.756 7.05751 110.422 14.1596 106.546C7.21286 102.233 1.74206 94.4912 1.74206 83.7663C1.74206 64.4168 17.5663 55.6357 33.6791 55.6357C49.7919 55.6357 65.6273 64.4168 65.6273 83.7775C65.6273 94.5024 60.1565 102.244 53.2098 106.557C60.3118 110.433 66.8146 118.767 66.8146 131.425C66.8146 151.825 51.8781 161.354 33.6902 161.354C15.5023 161.354 0.554688 151.814 0.554688 131.414ZM42.4124 128.431C42.4124 120.097 38.1179 116.075 33.6902 116.075C29.2625 116.075 24.968 120.097 24.968 128.431C24.968 136.173 28.6633 140.932 33.6902 140.932C38.7171 140.932 42.4124 136.173 42.4124 128.431ZM33.6902 76.1695C29.3957 76.1695 26.2996 80.1913 26.2996 86.8944C26.2996 93.5975 29.4068 97.9098 33.6902 97.9098C37.9736 97.9098 41.0808 93.7427 41.0808 86.8944C41.0808 80.0461 37.9736 76.1695 33.6902 76.1695Z" fill="#FDE9AA"/>
<path d="M98.3079 159.857H72.2744V133.648H98.3079V159.857Z" fill="#FDE9AA"/>
<path d="M151.695 159.858H127.149V82.7278L114.731 91.8105V68.4391L130.256 57.1221H151.695V159.858Z" fill="#FDE9AA"/>
</g>
<path d="M328.494 164.139C327.838 164.139 327.253 164.027 326.739 163.801C326.229 163.576 325.823 163.263 325.521 162.862C325.223 162.457 325.061 161.988 325.034 161.455H326.287C326.313 161.783 326.426 162.066 326.625 162.305C326.824 162.54 327.084 162.722 327.406 162.852C327.727 162.981 328.083 163.045 328.474 163.045C328.912 163.045 329.3 162.969 329.638 162.817C329.976 162.664 330.241 162.452 330.433 162.18C330.625 161.909 330.722 161.594 330.722 161.236C330.722 160.861 330.629 160.531 330.443 160.246C330.258 159.958 329.986 159.733 329.628 159.57C329.27 159.408 328.832 159.327 328.315 159.327H327.5V158.233H328.315C328.72 158.233 329.074 158.16 329.379 158.014C329.688 157.868 329.928 157.663 330.1 157.398C330.276 157.133 330.364 156.821 330.364 156.463C330.364 156.118 330.287 155.818 330.135 155.563C329.982 155.308 329.767 155.109 329.489 154.967C329.214 154.824 328.889 154.753 328.514 154.753C328.163 154.753 327.831 154.817 327.52 154.947C327.212 155.073 326.96 155.257 326.764 155.499C326.569 155.737 326.463 156.026 326.446 156.364H325.253C325.273 155.83 325.433 155.363 325.735 154.962C326.037 154.557 326.431 154.242 326.918 154.017C327.409 153.792 327.947 153.679 328.534 153.679C329.164 153.679 329.704 153.807 330.155 154.062C330.606 154.314 330.952 154.647 331.194 155.061C331.436 155.475 331.557 155.923 331.557 156.403C331.557 156.977 331.406 157.466 331.104 157.87C330.806 158.274 330.4 158.554 329.886 158.71V158.79C330.529 158.896 331.031 159.169 331.393 159.61C331.754 160.048 331.935 160.589 331.935 161.236C331.935 161.789 331.784 162.286 331.482 162.727C331.184 163.165 330.776 163.509 330.259 163.761C329.742 164.013 329.154 164.139 328.494 164.139Z" fill="white"/>
<defs>
<clipPath id="clip0_668_1290">
<rect width="183" height="130.621" fill="white" transform="translate(0 55.0771)"/>
</clipPath>
</defs>
</svg>
