<svg width="336" height="336" viewBox="0 0 336 336" fill="none" xmlns="http://www.w3.org/2000/svg">
<path d="M114.935 96.0025C114.352 96.0025 113.826 95.8865 113.359 95.6545C112.892 95.4225 112.517 95.1043 112.235 94.6999C111.954 94.2956 111.8 93.8349 111.773 93.3178H112.966C113.013 93.7785 113.221 94.1597 113.593 94.4613C113.967 94.7596 114.415 94.9087 114.935 94.9087C115.353 94.9087 115.724 94.811 116.049 94.6154C116.377 94.4199 116.634 94.1514 116.819 93.81C117.008 93.4653 117.103 93.0759 117.103 92.6417C117.103 92.1976 117.005 91.8015 116.809 91.4535C116.617 91.1022 116.352 90.8254 116.014 90.6232C115.676 90.421 115.29 90.3183 114.855 90.315C114.544 90.3117 114.224 90.3597 113.896 90.4592C113.568 90.5553 113.298 90.6796 113.086 90.832L111.932 90.6928L112.549 85.6815H117.838V86.7752H113.583L113.225 89.7781H113.284C113.493 89.6123 113.755 89.4748 114.07 89.3654C114.385 89.256 114.713 89.2013 115.054 89.2013C115.677 89.2013 116.233 89.3505 116.72 89.6488C117.21 89.9438 117.595 90.3481 117.873 90.8619C118.155 91.3756 118.296 91.9622 118.296 92.6218C118.296 93.2714 118.15 93.8514 117.858 94.3619C117.57 94.869 117.172 95.27 116.665 95.565C116.158 95.8567 115.581 96.0025 114.935 96.0025Z" fill="white"/>
<path d="M20.0928 63.9313C19.1828 63.9313 18.7408 64.5553 18.3768 65.2573H16.3228V55.9233H23.7068V58.1593H18.4548V62.7613C18.9228 62.1633 19.6768 61.6953 20.6648 61.6953C23.0048 61.6953 24.3048 63.9313 24.3048 68.2733C24.3048 71.9913 22.8228 74.0713 20.0408 74.0713C17.8048 74.0713 16.1408 72.1213 15.9848 69.6513H18.1688C18.4548 71.1593 19.0008 72.0433 20.1708 72.0433C21.3928 72.0433 22.0688 71.0813 22.0688 68.2733C22.0688 65.4653 21.6008 63.9313 20.0928 63.9313ZM25.7939 67.2853V65.4133H31.2799V67.2853H25.7939ZM31.3677 71.8353L33.2137 70.6913C33.6037 71.4453 34.2537 72.0433 35.2157 72.0433C37.0617 72.0433 37.8677 70.8473 37.8677 66.4793V55.9233H40.1037V66.4793C40.1037 72.0693 38.2577 74.0713 35.2157 74.0713C33.6557 74.0713 32.1477 73.3953 31.3677 71.8353ZM44.0187 73.8633H41.6787L46.6707 55.9233H48.6467L53.6647 73.8633H51.3247L50.3107 69.7553H45.0327L44.0187 73.8633ZM47.6587 59.7193L45.6827 67.7273H49.6347L47.6587 59.7193ZM57.8653 55.9233V63.5673H63.2213V55.9233H65.4573V73.8633H63.2213V65.5953H57.8653V73.8633H55.6293V55.9233H57.8653ZM79.2548 73.8633H76.8888L74.0028 66.2973H71.2208V73.8633H68.9848V55.9233H73.6128C76.9408 55.9233 78.8908 57.6393 78.8908 61.1233C78.8908 63.6453 77.9028 65.2313 76.1088 65.9073L79.2548 73.8633ZM71.2208 64.2693H73.6128C75.9008 64.2693 76.6548 63.3333 76.6548 61.1233C76.6548 58.8873 75.9008 57.9513 73.6128 57.9513H71.2208V64.2693ZM81.6547 55.9233H90.4167V57.9513H83.8907V63.5673H89.7927V65.5953H83.8907V71.8353H90.4167V73.8633H81.6547V55.9233ZM101.974 58.6533L100.284 59.7973C99.5823 58.6013 98.8283 57.7433 97.1123 57.7433C95.5783 57.7433 94.6683 58.7833 94.6683 60.5513C94.6683 62.5013 95.5783 63.2553 97.7883 63.8793C100.544 64.6593 102.26 66.0893 102.26 69.0533C102.26 71.3933 100.986 74.0713 97.3463 74.0713C94.9803 74.0713 93.2643 73.0833 92.1723 71.1333L93.9403 69.9373C94.9023 71.3153 95.7083 72.0433 97.3463 72.0433C99.5823 72.0433 100.05 70.5353 100.05 69.1573C100.05 67.5973 99.5563 66.5313 96.9043 65.8033C94.2263 65.0753 92.4323 63.5413 92.4323 60.5513C92.4323 58.0553 93.8623 55.7153 97.1643 55.7153C99.4783 55.7153 100.934 56.6773 101.974 58.6533ZM103.895 67.2853V65.4133H109.381V67.2853H103.895ZM10.2215 85.9233H12.4575V96.5573C12.4575 101.861 10.4035 104.071 7.20555 104.071C3.98155 104.071 1.95355 101.861 1.95355 96.5833V85.9233H4.18955V96.5833C4.18955 100.613 5.15155 102.043 7.20555 102.043C9.25955 102.043 10.2215 100.613 10.2215 96.5833V85.9233ZM8.29755 83.6093V81.2693H10.6375V83.6093H8.29755ZM3.77355 83.6093V81.2693H6.11355V83.6093H3.77355ZM15.9946 85.9233H20.4406C23.8206 85.9233 25.4846 87.5093 25.4846 90.4993C25.4846 92.3713 24.4966 94.0873 23.1186 94.5033C24.9126 94.9193 25.9526 96.4273 25.9526 98.7153C25.9526 101.315 24.6266 103.863 20.8826 103.863H15.9946V85.9233ZM18.2306 95.5693V101.835H20.8826C22.9106 101.835 23.7166 100.665 23.7166 98.7153C23.7166 96.5573 22.7806 95.5693 20.5706 95.5693H18.2306ZM18.2306 87.9253V93.5413H20.7266C22.5986 93.5413 23.2486 92.2673 23.2486 90.4993C23.2486 88.9133 22.7806 87.9253 20.4406 87.9253H18.2306ZM28.5629 85.9233H37.3249V87.9513H30.7989V93.5673H36.7009V95.5953H30.7989V101.835H37.3249V103.863H28.5629V85.9233ZM50.1825 103.863H47.8165L44.9305 96.2973H42.1485V103.863H39.9125V85.9233H44.5405C47.8685 85.9233 49.8185 87.6393 49.8185 91.1233C49.8185 93.6453 48.8305 95.2313 47.0365 95.9073L50.1825 103.863ZM42.1485 94.2693H44.5405C46.8285 94.2693 47.5825 93.3333 47.5825 91.1233C47.5825 88.8873 46.8285 87.9513 44.5405 87.9513H42.1485V94.2693ZM54.8185 85.9233V101.835H61.3445V103.863H52.5825V85.9233H54.8185ZM63.1196 85.9233H71.8816V87.9513H65.3556V93.5673H71.2576V95.5953H65.3556V101.835H71.8816V103.863H63.1196V85.9233ZM74.4692 85.9233H78.9152C82.2952 85.9233 83.9592 87.5093 83.9592 90.4993C83.9592 92.3713 82.9712 94.0873 81.5932 94.5033C83.3872 94.9193 84.4272 96.4273 84.4272 98.7153C84.4272 101.315 83.1012 103.863 79.3572 103.863H74.4692V85.9233ZM76.7052 95.5693V101.835H79.3572C81.3852 101.835 82.1912 100.665 82.1912 98.7153C82.1912 96.5573 81.2552 95.5693 79.0452 95.5693H76.7052ZM76.7052 87.9253V93.5413H79.2012C81.0732 93.5413 81.7232 92.2673 81.7232 90.4993C81.7232 88.9133 81.2552 87.9253 78.9152 87.9253H76.7052ZM87.0375 85.9233H95.7995V87.9513H89.2735V93.5673H95.1755V95.5953H89.2735V101.835H95.7995V103.863H87.0375V85.9233ZM106.005 85.9233H108.241V103.863H106.161L100.623 91.4353V103.863H98.3871V85.9233H100.389L106.005 98.4813V85.9233Z" fill="white"/>
<g clip-path="url(#clip0_934_1572)">
<path d="M217.864 123.189L217.794 139.529L166.759 139.398L139.448 119.32L139.358 106.229L166.519 72.8688L138.039 53.6026C138.039 53.6026 142.315 37.1632 151.295 32.1212C161.604 26.3373 160.885 28.703 160.885 28.703C160.885 28.703 166.299 25.4351 171.883 28.703C177.467 31.9708 198.575 43.7991 198.575 43.7991C198.575 43.7991 204.019 31.4997 216.726 29.8557C226.475 28.5927 238.692 28.703 238.692 28.703C244.196 31.9507 258.471 38.9074 258.471 38.9074C258.471 38.9074 256.993 24.7435 263.486 23.0594C269.979 21.3754 268.141 21.8064 268.141 21.8064L284.344 30.2066L288.659 21.0947H299.058L326.09 40.8922L317.699 60.4891L330.615 69.9518C330.615 69.9518 334.321 71.8063 334.321 75.4751C334.321 79.1438 335.629 90.0199 330.885 93.4782C326.14 96.9365 319.397 95.2324 319.397 95.2324L305.581 85.7396L301.176 95.0319L290.807 94.9617L278.59 86.1005C278.59 86.1005 277.531 86.2809 275.044 89.1779L272.556 92.0748C272.556 92.0748 285.183 100.505 283.944 113.997C282.706 127.49 277.721 140.802 254.126 140.852C244.356 140.872 238.333 137.594 238.333 137.594L234.067 135.058L217.844 123.179L217.864 123.189Z" stroke="#FDE9AA" stroke-miterlimit="10"/>
<path d="M189.454 119.371H138.598V106.279L164.031 70.8743C168.157 65.1306 169.486 59.2565 169.486 53.5027C169.486 47.0873 166.689 44.02 162.693 44.02C158.697 44.02 156.569 47.358 156.04 53.5027H137C137 37.4743 149.117 25.8564 164.161 25.8564C179.205 25.8564 191.452 38.2762 191.452 53.3724C191.452 65.7922 183.73 76.0868 178.936 83.2941L167.488 100.926H189.454V119.361V119.371Z" fill="#FDE9AA"/>
<path d="M195.978 93.8497C195.978 82.4924 201.841 75.0145 208.225 71.5362C201.971 67.6669 197.036 60.7203 197.036 51.0972C197.036 33.7256 211.281 25.8467 225.796 25.8467C240.311 25.8467 254.555 33.7256 254.555 51.0972C254.555 60.7203 249.631 67.6669 243.377 71.5362C249.77 75.0145 255.624 82.4924 255.624 93.8497C255.624 112.154 242.179 120.704 225.806 120.704C209.433 120.704 195.988 112.154 195.988 93.8497H195.978ZM233.658 91.1732C233.658 83.6953 229.792 80.0867 225.806 80.0867C221.82 80.0867 217.954 83.6953 217.954 91.1732C217.954 98.1199 221.281 102.4 225.806 102.4C230.331 102.4 233.658 98.1299 233.658 91.1732ZM225.806 44.2809C221.94 44.2809 219.153 47.8895 219.153 53.9039C219.153 59.9183 221.95 63.7876 225.806 63.7876C229.662 63.7876 232.459 60.0487 232.459 53.9039C232.459 47.7592 229.662 44.2809 225.806 44.2809Z" fill="#FDE9AA"/>
<path d="M255.075 36.8731V31.6506C255.075 24.0925 259.19 20.3535 265.863 20.3535C272.536 20.3535 276.652 24.0925 276.652 31.6506V36.8731C276.652 44.4312 272.696 48.3205 265.863 48.3205C259.031 48.3205 255.075 44.4312 255.075 36.8731ZM298.309 21.1454L272.856 74.8842H262.457L287.91 21.1454H298.309ZM267.112 37.8154V30.9589C267.112 28.7035 266.642 28.2324 265.873 28.2324C265.104 28.2324 264.635 28.7035 264.635 30.9589V37.8154C264.635 40.0708 265.104 40.5419 265.873 40.5419C266.642 40.5419 267.112 40.0708 267.112 37.8154ZM284.424 64.2186V58.9961C284.424 51.438 288.539 47.6991 295.212 47.6991C301.885 47.6991 306.001 51.438 306.001 58.9961V64.2186C306.001 71.7768 302.045 75.6661 295.212 75.6661C288.379 75.6661 284.424 71.7768 284.424 64.2186ZM296.451 65.1509V58.2944C296.451 56.039 295.981 55.5679 295.212 55.5679C294.443 55.5679 293.973 56.039 293.973 58.2944V65.1509C293.973 67.4063 294.443 67.8774 295.212 67.8774C295.981 67.8774 296.451 67.4063 296.451 65.1509Z" fill="#FDE9AA"/>
</g>
<line x1="100.509" y1="170.363" x2="234.491" y2="170.363" stroke="#FF005A" stroke-width="2"/>
<path d="M143.086 270.502C142.503 270.502 141.978 270.386 141.51 270.154C141.043 269.922 140.669 269.604 140.387 269.2C140.105 268.796 139.951 268.335 139.924 267.818H141.118C141.164 268.279 141.373 268.66 141.744 268.961C142.119 269.26 142.566 269.409 143.086 269.409C143.504 269.409 143.875 269.311 144.2 269.115C144.528 268.92 144.785 268.651 144.971 268.31C145.16 267.965 145.254 267.576 145.254 267.142C145.254 266.698 145.156 266.301 144.961 265.953C144.768 265.602 144.503 265.325 144.165 265.123C143.827 264.921 143.441 264.818 143.007 264.815C142.695 264.812 142.375 264.86 142.047 264.959C141.719 265.055 141.449 265.18 141.237 265.332L140.084 265.193L140.7 260.181H145.99V261.275H141.734L141.376 264.278H141.436C141.645 264.112 141.906 263.975 142.221 263.865C142.536 263.756 142.864 263.701 143.206 263.701C143.829 263.701 144.384 263.85 144.871 264.149C145.362 264.444 145.746 264.848 146.025 265.362C146.306 265.876 146.447 266.462 146.447 267.122C146.447 267.771 146.301 268.351 146.01 268.862C145.721 269.369 145.324 269.77 144.816 270.065C144.309 270.357 143.733 270.502 143.086 270.502Z" fill="white"/>
<path d="M25.9792 230.423V248.363H23.7432V230.423H25.9792ZM36.0485 230.423H38.2845V248.363H36.2045L30.6665 235.935V248.363H28.4305V230.423H30.4325L36.0485 242.981V230.423ZM53.3864 233.153L51.6964 234.297C50.9944 233.101 50.2404 232.243 48.5244 232.243C46.9904 232.243 46.0804 233.283 46.0804 235.051C46.0804 237.001 46.9904 237.755 49.2004 238.379C51.9564 239.159 53.6724 240.589 53.6724 243.553C53.6724 245.893 52.3984 248.571 48.7584 248.571C46.3924 248.571 44.6764 247.583 43.5844 245.633L45.3524 244.437C46.3144 245.815 47.1204 246.543 48.7584 246.543C50.9944 246.543 51.4624 245.035 51.4624 243.657C51.4624 242.097 50.9684 241.031 48.3164 240.303C45.6384 239.575 43.8444 238.041 43.8444 235.051C43.8444 232.555 45.2744 230.215 48.5764 230.215C50.8904 230.215 52.3464 231.177 53.3864 233.153ZM53.1575 230.423H63.7915V232.451H59.5795V248.363H57.3435V232.451H53.1575V230.423ZM64.5085 248.363H62.1685L67.1605 230.423H69.1365L74.1545 248.363H71.8145L70.8005 244.255H65.5225L64.5085 248.363ZM68.1485 234.219L66.1725 242.227H70.1245L68.1485 234.219ZM79.4992 248.363H74.8192V230.423H79.4992C82.6712 230.423 84.6992 232.659 84.6992 238.457V240.329C84.6992 246.127 82.6712 248.363 79.4992 248.363ZM79.4992 246.335C81.5792 246.335 82.4632 244.775 82.4632 240.329V238.457C82.4632 234.011 81.5532 232.451 79.4992 232.451H77.0552V246.335H79.4992ZM88.6585 230.423V248.363H86.4225V230.423H88.6585ZM99.3778 230.423H101.614V241.057C101.614 246.361 99.5598 248.571 96.3618 248.571C93.1378 248.571 91.1098 246.361 91.1098 241.083V230.423H93.3458V241.083C93.3458 245.113 94.3078 246.543 96.3618 246.543C98.4158 246.543 99.3778 245.113 99.3778 241.083V230.423ZM106.087 230.423L110.065 241.265L114.017 230.423H116.279V248.363H114.043V236.325L110.949 244.619H109.103L106.087 236.325V248.363H103.851V230.423H106.087ZM124.871 230.423V248.363H122.635V230.423H124.871ZM125.762 230.423H128.128L131.924 244.463L135.72 230.423H138.086L132.912 248.363H130.962L125.762 230.423ZM14.7825 278.363H12.4165L9.53054 270.797H6.74854V278.363H4.51254V260.423H9.14054C12.4685 260.423 14.4185 262.139 14.4185 265.623C14.4185 268.145 13.4305 269.731 11.6365 270.407L14.7825 278.363ZM6.74854 268.769H9.14054C11.4285 268.769 12.1825 267.833 12.1825 265.623C12.1825 263.387 11.4285 262.451 9.14054 262.451H6.74854V268.769ZM15.8825 260.423H24.6445V262.451H18.1185V268.067H24.0205V270.095H18.1185V276.335H24.6445V278.363H15.8825V260.423ZM30.6121 278.363H25.9321V260.423H30.6121C33.7841 260.423 35.8121 262.659 35.8121 268.457V270.329C35.8121 276.127 33.7841 278.363 30.6121 278.363ZM30.6121 276.335C32.6921 276.335 33.5761 274.775 33.5761 270.329V268.457C33.5761 264.011 32.6661 262.451 30.6121 262.451H28.1681V276.335H30.6121ZM45.5954 260.423H47.8314V271.057C47.8314 276.361 45.7774 278.571 42.5794 278.571C39.3554 278.571 37.3274 276.361 37.3274 271.083V260.423H39.5634V271.083C39.5634 275.113 40.5254 276.543 42.5794 276.543C44.6334 276.543 45.5954 275.113 45.5954 271.083V260.423ZM61.7164 278.363H59.0904L54.6964 269.549L52.3044 273.319V278.363H50.0684V260.423H52.3044V269.653L58.1804 260.423H60.6764L56.1784 267.599L61.7164 278.363ZM60.6122 260.423H71.2462V262.451H67.0342V278.363H64.7982V262.451H60.6122V260.423ZM74.262 260.423V278.363H72.026V260.423H74.262ZM86.4893 270.381C86.4893 276.179 84.4613 278.571 81.2373 278.571C78.0133 278.571 75.9853 276.179 75.9853 270.381V268.405C75.9853 262.607 78.0133 260.215 81.2373 260.215C84.4613 260.215 86.4893 262.607 86.4893 268.405V270.381ZM78.2213 268.405V270.381C78.2213 274.931 79.1053 276.543 81.2373 276.543C83.3693 276.543 84.2533 274.931 84.2533 270.381V268.405C84.2533 263.855 83.3693 262.243 81.2373 262.243C79.1053 262.243 78.2213 263.855 78.2213 268.405ZM95.6251 260.423H97.8611V278.363H95.7811L90.2431 265.935V278.363H88.0071V260.423H90.0091L95.6251 272.981V260.423ZM104.773 278.363H102.433L107.425 260.423H109.401L114.419 278.363H112.079L111.065 274.255H105.787L104.773 278.363ZM108.413 264.219L106.437 272.227H110.389L108.413 264.219ZM123.149 260.423H125.385V271.057C125.385 276.361 123.331 278.571 120.133 278.571C116.909 278.571 114.881 276.361 114.881 271.083V260.423H117.117V271.083C117.117 275.113 118.079 276.543 120.133 276.543C122.187 276.543 123.149 275.113 123.149 271.083V260.423ZM127.622 260.423H136.384V262.451H129.858V268.483H135.76V270.511H129.858V278.363H127.622V260.423Z" fill="white"/>
<path d="M207.818 295.023L221.718 267.884L206.466 255.948C206.466 255.948 190.817 241.652 195.616 224.702C200.416 207.753 209.364 201.154 225.439 200.902C241.515 200.65 254.805 213.534 254.805 213.534C254.805 213.534 253.747 198.218 259.919 196.796C266.091 195.373 270.179 193.436 284.119 205.321L288.522 196.16L299.727 196.705L326.815 216.227L318.081 235.82L331.228 245.345C331.228 245.345 335 247.877 335 251.237C335 254.596 334.502 264.292 334.136 265.17C333.77 266.047 329.977 274.139 318.884 270.446L306.021 261.437L301.263 270.588L290.301 270.315L282.37 264.574C282.37 264.574 279.94 271.526 278.252 275.38C276.564 279.234 259.187 315.363 259.187 315.363L235.912 315.292L207.808 295.034L207.818 295.023Z" stroke="#FDE9AA" stroke-miterlimit="10"/>
<path d="M226.12 258.178C223.273 259.389 221.514 259.793 218.26 259.793C205.927 259.793 195.087 248.099 195.087 231.825C195.087 209.236 209.313 200.902 225.439 200.902C241.566 200.902 255.933 209.236 255.933 231.825C255.933 239.493 253.493 248.362 247.534 261.003L231.133 295.024H207.818L226.11 258.178H226.12ZM225.439 219.456C219.074 219.456 217.579 224.158 217.579 230.615C217.579 237.072 219.074 241.773 225.439 241.773C231.804 241.773 233.431 237.072 233.431 230.615C233.431 224.158 231.804 219.456 225.439 219.456Z" fill="#FDE9AA"/>
<path d="M255.099 211.99V206.734C255.099 199.127 259.288 195.363 266.081 195.363C272.873 195.363 277.062 199.127 277.062 206.734V211.99C277.062 219.597 273.036 223.512 266.081 223.512C259.126 223.512 255.099 219.597 255.099 211.99ZM299.106 196.16L273.188 250.248H262.603L288.522 196.16H299.106ZM267.352 212.939V206.038C267.352 203.768 266.874 203.293 266.091 203.293C265.308 203.293 264.83 203.768 264.83 206.038V212.939C264.83 215.209 265.308 215.683 266.091 215.683C266.874 215.683 267.352 215.209 267.352 212.939ZM284.973 239.513V234.257C284.973 226.65 289.162 222.886 295.954 222.886C302.747 222.886 306.936 226.65 306.936 234.257V239.513C306.936 247.12 302.909 251.035 295.954 251.035C288.999 251.035 284.973 247.12 284.973 239.513ZM297.215 240.452V233.551C297.215 231.281 296.737 230.806 295.954 230.806C295.171 230.806 294.694 231.281 294.694 233.551V240.452C294.694 242.722 295.171 243.196 295.954 243.196C296.737 243.196 297.215 242.722 297.215 240.452Z" fill="#FDE9AA"/>
<defs>
<clipPath id="clip0_934_1572">
<rect width="198" height="121" fill="white" transform="translate(137 20.3633)"/>
</clipPath>
</defs>
</svg>
