<svg width="731" height="153" viewBox="0 0 731 153" fill="none" xmlns="http://www.w3.org/2000/svg">
<path d="M425.027 46.4617L430.886 25.3594H433.204L439.09 46.4617H436.347L435.148 41.639H428.942L427.743 46.4617H425H425.027ZM429.741 39.2411H434.376L432.058 29.8356L429.741 39.2411Z" fill="white"/>
<path d="M450.251 25.3594V27.7574H445.296V46.4617H442.66V27.7574H437.732V25.3594H450.224H450.251Z" fill="white"/>
<path d="M465.62 29.9154C464.794 28.5032 463.915 27.4908 461.891 27.4908C460.08 27.4908 459.014 28.7164 459.014 30.7947C459.014 33.0861 460.08 33.9653 462.69 34.7114C465.94 35.6173 467.937 37.3225 467.937 40.7863C467.937 43.5306 466.446 46.6747 462.157 46.6747C459.387 46.6747 457.363 45.5023 456.084 43.2109L458.162 41.7988C459.281 43.4241 460.24 44.2767 462.157 44.2767C464.794 44.2767 465.327 42.4915 465.327 40.8928C465.327 39.0544 464.741 37.8021 461.625 36.9495C458.482 36.0969 456.377 34.2851 456.377 30.768C456.377 27.8371 458.055 25.0928 461.944 25.0928C464.661 25.0928 466.366 26.2118 467.591 28.5565L465.593 29.8887L465.62 29.9154Z" fill="white"/>
<path d="M481.788 25.3594V27.7574H476.834V46.4617H474.197V27.7574H469.27V25.3594H481.762H481.788Z" fill="white"/>
<path d="M480.402 46.4617L486.261 25.3594H488.579L494.465 46.4617H491.722L490.523 41.639H484.317L483.118 46.4617H480.375H480.402ZM485.116 39.2411H489.751L487.433 29.8356L485.116 39.2411Z" fill="white"/>
<path d="M507.65 35.8568V37.0824C507.65 43.9034 505.173 46.701 501.417 46.701C497.662 46.701 495.238 43.8767 495.238 37.0824V34.7644C495.238 27.9434 497.608 25.1191 501.417 25.1191C504.853 25.1191 506.984 27.304 507.517 31.9401H505.04C504.48 28.7961 503.442 27.5171 501.391 27.5171C498.913 27.5171 497.848 29.4089 497.848 34.7644V37.0824C497.848 42.4379 498.913 44.3297 501.391 44.3297C503.601 44.3297 504.906 42.6777 504.986 38.2548H501.417V35.8834H507.623L507.65 35.8568Z" fill="white"/>
<path d="M520.515 25.3594V27.7574H512.844V34.3652H519.769V36.7365H512.844V44.0637H520.515V46.4617H510.207V25.3594H520.515Z" fill="white"/>
<path d="M531.089 46.4617H528.452V25.3594H531.089V46.4617Z" fill="white"/>
<path d="M535.91 25.3594L540.385 41.8788L544.833 25.3594H547.603L541.53 46.4617H539.239L533.14 25.3594H535.91Z" fill="white"/>
<path d="M447.241 79.7937V58.6914H452.755C456.484 58.6914 458.854 61.3292 458.854 68.1501V70.3616C458.854 77.1826 456.457 79.8203 452.755 79.8203H447.241V79.7937ZM456.217 70.335V68.1235C456.217 62.9012 455.152 61.0627 452.728 61.0627H449.852V77.3957H452.728C455.179 77.3957 456.217 75.5572 456.217 70.335Z" fill="white"/>
<path d="M470.759 79.7937L467.376 70.8945H464.1V79.7937H461.463V58.6914H466.897C470.812 58.6914 473.103 60.7164 473.103 64.7929C473.103 67.7505 471.931 69.6156 469.826 70.4149L473.529 79.7671H470.759V79.7937ZM466.897 68.5232C469.587 68.5232 470.466 67.4307 470.466 64.8196C470.466 62.2085 469.587 61.0894 466.897 61.0894H464.073V68.5232H466.897Z" fill="white"/>
<path d="M481.175 80.0331C477.392 80.0331 474.995 77.2088 474.995 70.4145V68.0964C474.995 61.2755 477.366 58.4512 481.175 58.4512C484.983 58.4512 487.354 61.2755 487.354 68.0964V70.4145C487.354 77.2354 484.957 80.0331 481.175 80.0331ZM477.632 70.4145C477.632 75.77 478.671 77.6617 481.175 77.6617C483.678 77.6617 484.717 75.77 484.717 70.4145V68.0964C484.717 62.7409 483.678 60.8492 481.175 60.8492C478.671 60.8492 477.632 62.7409 477.632 68.0964V70.4145Z" fill="white"/>
<path d="M492.601 71.7735V79.8201H489.964V58.7178H495.478C499.367 58.7178 501.631 61.169 501.631 65.2723C501.631 69.3755 499.393 71.7735 495.478 71.7735H492.601ZM495.478 69.3755C498.141 69.3755 498.994 67.8568 498.994 65.2456C498.994 62.6345 498.141 61.0891 495.478 61.0891H492.601V69.3755H495.478Z" fill="white"/>
<path d="M512.737 63.2474C511.911 61.8353 511.032 60.8228 509.008 60.8228C507.196 60.8228 506.131 62.0484 506.131 64.1267C506.131 66.4181 507.196 67.2974 509.807 68.0434C513.056 68.9493 515.054 70.6545 515.054 74.1183C515.054 76.8627 513.562 80.0067 509.274 80.0067C506.504 80.0067 504.48 78.8343 503.201 76.5429L505.279 75.1308C506.397 76.7561 507.356 77.6087 509.274 77.6087C511.911 77.6087 512.444 75.8235 512.444 74.2249C512.444 72.3864 511.858 71.1341 508.741 70.2815C505.598 69.4289 503.494 67.6171 503.494 64.1C503.494 61.1692 505.172 58.4248 509.061 58.4248C511.778 58.4248 513.482 59.5439 514.708 61.8886L512.71 63.2208L512.737 63.2474Z" fill="white"/>
<path d="M533.486 58.6914V61.0894H528.532V79.7937H525.895V61.0894H520.968V58.6914H533.46H533.486Z" fill="white"/>
<path d="M540.572 80.0331C536.789 80.0331 534.392 77.2088 534.392 70.4145V68.0964C534.392 61.2755 536.763 58.4512 540.572 58.4512C544.38 58.4512 546.751 61.2755 546.751 68.0964V70.4145C546.751 77.2354 544.354 80.0331 540.572 80.0331ZM537.029 70.4145C537.029 75.77 538.068 77.6617 540.572 77.6617C543.075 77.6617 544.114 75.77 544.114 70.4145V68.0964C544.114 62.7409 543.075 60.8492 540.572 60.8492C538.068 60.8492 537.029 62.7409 537.029 68.0964V70.4145Z" fill="white"/>
<path d="M553.236 67.7037C552.652 67.7037 552.127 67.5877 551.66 67.3556C551.192 67.1236 550.818 66.8055 550.536 66.4011C550.254 65.9967 550.1 65.536 550.074 65.019H551.267C551.313 65.4797 551.522 65.8609 551.893 66.1625C552.268 66.4608 552.715 66.6099 553.236 66.6099C553.653 66.6099 554.025 66.5121 554.349 66.3166C554.678 66.121 554.934 65.8526 555.12 65.5112C555.309 65.1665 555.403 64.777 555.403 64.3429C555.403 63.8987 555.306 63.5027 555.11 63.1547C554.918 62.8033 554.653 62.5266 554.315 62.3244C553.977 62.1222 553.59 62.0195 553.156 62.0162C552.845 62.0128 552.525 62.0609 552.197 62.1603C551.869 62.2565 551.598 62.3807 551.386 62.5332L550.233 62.394L550.849 57.3826H556.139V58.4764H551.884L551.526 61.4792H551.585C551.794 61.3135 552.056 61.176 552.371 61.0666C552.686 60.9572 553.014 60.9025 553.355 60.9025C553.978 60.9025 554.533 61.0517 555.021 61.35C555.511 61.6449 555.896 62.0493 556.174 62.563C556.456 63.0768 556.597 63.6634 556.597 64.323C556.597 64.9726 556.451 65.5526 556.159 66.063C555.871 66.5701 555.473 66.9712 554.966 67.2662C554.459 67.5578 553.882 67.7037 553.236 67.7037Z" fill="white"/>
<g clip-path="url(#clip0_668_1394)">
<path d="M222.891 132.423L222.812 150.923L164.817 150.775L133.781 128.042L133.679 113.22L164.544 75.4484L132.181 53.6346C132.181 53.6346 137.039 35.0214 147.244 29.3126C158.959 22.7639 158.142 25.4424 158.142 25.4424C158.142 25.4424 164.294 21.7425 170.64 25.4424C176.985 29.1423 200.971 42.5348 200.971 42.5348C200.971 42.5348 207.158 28.6089 221.597 26.7476C232.676 25.3176 246.559 25.4424 246.559 25.4424C252.814 29.1196 269.036 36.9962 269.036 36.9962C269.036 36.9962 267.355 20.9593 274.734 19.0526C282.113 17.1459 280.024 17.6339 280.024 17.6339L298.436 27.1448L303.34 16.8281H315.157L345.874 39.2434L336.339 61.4317L351.017 72.1457C351.017 72.1457 355.228 74.2453 355.228 78.3992C355.228 82.5532 356.715 94.8674 351.323 98.783C345.931 102.699 338.269 100.769 338.269 100.769L322.57 90.0211L317.564 100.542L305.781 100.463L291.898 90.4297C291.898 90.4297 290.694 90.634 287.868 93.914L285.041 97.194C285.041 97.194 299.39 106.739 297.982 122.015C296.574 137.292 290.91 152.364 264.098 152.421C252.996 152.443 246.151 148.732 246.151 148.732L241.304 145.861L222.869 132.412L222.891 132.423Z" stroke="#FDE9AA" stroke-miterlimit="10"/>
<path d="M190.607 128.099H132.816V113.277L161.717 73.1904C166.406 66.6871 167.915 60.0363 167.915 53.5217C167.915 46.258 164.737 42.785 160.196 42.785C155.656 42.785 153.238 46.5644 152.636 53.5217H131C131 35.3738 144.769 22.2197 161.865 22.2197C178.96 22.2197 192.878 36.2818 192.878 53.3741C192.878 67.4362 184.103 79.0922 178.654 87.2524L165.645 107.216H190.607V128.088V128.099Z" fill="#FDE9AA"/>
<path d="M198.02 99.2031C198.02 86.3441 204.683 77.8774 211.937 73.9391C204.831 69.5582 199.223 61.693 199.223 50.7974C199.223 31.1287 215.411 22.208 231.905 22.208C248.398 22.208 264.586 31.1287 264.586 50.7974C264.586 61.693 258.989 69.5582 251.883 73.9391C259.148 77.8774 265.8 86.3441 265.8 99.2031C265.8 119.927 250.521 129.608 231.916 129.608C213.311 129.608 198.031 119.927 198.031 99.2031H198.02ZM240.838 96.1728C240.838 87.7061 236.445 83.6202 231.916 83.6202C227.387 83.6202 222.994 87.7061 222.994 96.1728C222.994 104.038 226.774 108.884 231.916 108.884C237.058 108.884 240.838 104.049 240.838 96.1728ZM231.916 43.0798C227.523 43.0798 224.356 47.1656 224.356 53.9753C224.356 60.785 227.534 65.1659 231.916 65.1659C236.298 65.1659 239.476 60.9326 239.476 53.9753C239.476 47.018 236.298 43.0798 231.916 43.0798Z" fill="#FDE9AA"/>
<path d="M265.176 34.6923V28.7792C265.176 20.2217 269.853 15.9883 277.436 15.9883C285.018 15.9883 289.695 20.2217 289.695 28.7792V34.6923C289.695 43.2498 285.2 47.6534 277.436 47.6534C269.671 47.6534 265.176 43.2498 265.176 34.6923ZM314.305 16.8849L285.382 77.7296H273.565L302.488 16.8849H314.305ZM278.854 35.7591V27.9961C278.854 25.4424 278.321 24.909 277.447 24.909C276.573 24.909 276.039 25.4424 276.039 27.9961V35.7591C276.039 38.3128 276.573 38.8462 277.447 38.8462C278.321 38.8462 278.854 38.3128 278.854 35.7591ZM298.527 65.6538V59.7407C298.527 51.1831 303.204 46.9498 310.787 46.9498C318.369 46.9498 323.046 51.1831 323.046 59.7407V65.6538C323.046 74.2113 318.551 78.6149 310.787 78.6149C303.022 78.6149 298.527 74.2113 298.527 65.6538ZM312.194 66.7093V58.9462C312.194 56.3926 311.661 55.8591 310.787 55.8591C309.912 55.8591 309.379 56.3926 309.379 58.9462V66.7093C309.379 69.2629 309.912 69.7963 310.787 69.7963C311.661 69.7963 312.194 69.2629 312.194 66.7093Z" fill="#FDE9AA"/>
</g>
<line x1="385" y1="0.226562" x2="385" y2="134.209" stroke="#FF005A" stroke-width="2"/>
<path d="M587.709 128.8L603.293 97.9903L586.193 84.4408C586.193 84.4408 568.649 68.2112 574.029 48.9693C579.41 29.7274 589.442 22.2368 607.465 21.9504C625.489 21.6641 640.388 36.2902 640.388 36.2902C640.388 36.2902 639.203 18.9038 646.123 17.2889C653.042 15.6739 657.625 13.4748 673.254 26.9671L678.191 16.5673L690.753 17.1858L721.123 39.3483L711.33 61.591L726.07 72.4032C726.07 72.4032 730.3 75.278 730.3 79.092C730.3 82.906 729.741 93.9129 729.331 94.9093C728.92 95.9058 724.668 105.091 712.231 100.899L697.81 90.6715L692.475 101.06L680.186 100.751L671.294 94.2335C671.294 94.2335 668.569 102.125 666.677 106.5C664.784 110.875 645.302 151.891 645.302 151.891L619.207 151.81L587.698 128.812L587.709 128.8Z" stroke="#FDE9AA" stroke-miterlimit="10"/>
<path d="M608.229 86.9718C605.037 88.3462 603.065 88.8043 599.417 88.8043C585.589 88.8043 573.437 75.5297 573.437 57.0552C573.437 31.4108 589.385 21.9502 607.465 21.9502C625.546 21.9502 641.654 31.4108 641.654 57.0552C641.654 65.7599 638.918 75.8275 632.237 90.1788L613.849 128.8H587.709L608.218 86.9718H608.229ZM607.465 43.0132C600.329 43.0132 598.653 48.3505 598.653 55.6808C598.653 63.011 600.329 68.3484 607.465 68.3484C614.602 68.3484 616.426 63.011 616.426 55.6808C616.426 48.3505 614.602 43.0132 607.465 43.0132Z" fill="#FDE9AA"/>
<path d="M640.719 34.5375V28.5702C640.719 19.9343 645.416 15.6621 653.031 15.6621C660.646 15.6621 665.343 19.9343 665.343 28.5702V34.5375C665.343 43.1734 660.828 47.6174 653.031 47.6174C645.233 47.6174 640.719 43.1734 640.719 34.5375ZM690.058 16.5669L660.999 77.9692H649.132L678.19 16.5669H690.058ZM654.456 35.6141V27.7799C654.456 25.2029 653.92 24.6646 653.042 24.6646C652.164 24.6646 651.628 25.2029 651.628 27.7799V35.6141C651.628 38.1912 652.164 38.7295 653.042 38.7295C653.92 38.7295 654.456 38.1912 654.456 35.6141ZM674.212 65.7827V59.8154C674.212 51.1795 678.908 46.9073 686.524 46.9073C694.139 46.9073 698.836 51.1795 698.836 59.8154V65.7827C698.836 74.4186 694.321 78.8626 686.524 78.8626C678.726 78.8626 674.212 74.4186 674.212 65.7827ZM687.937 66.8479V59.0137C687.937 56.4366 687.401 55.8983 686.524 55.8983C685.646 55.8983 685.11 56.4366 685.11 59.0137V66.8479C685.11 69.4249 685.646 69.9632 686.524 69.9632C687.401 69.9632 687.937 69.4249 687.937 66.8479Z" fill="#FDE9AA"/>
<path d="M34.7049 36.3466H32.2811V25.3691H40.9643V28.0069H34.7848V33.4157C35.3442 32.723 36.2232 32.1634 37.3951 32.1634C40.1386 32.1634 41.6834 34.8012 41.6834 39.8903C41.6834 44.26 39.9521 46.7112 36.676 46.7112C34.039 46.7112 32.0947 44.4198 31.9082 41.5156H34.4652C34.8115 43.3008 35.4507 44.3399 36.8091 44.3399C38.1675 44.3399 39.0465 43.2208 39.0465 39.9169C39.0465 36.613 38.4872 34.8012 36.7292 34.8012C35.6638 34.8012 35.1311 35.5473 34.7049 36.3732V36.3466Z" fill="white"/>
<path d="M42.7236 34.8281H49.1694V37.0409H42.7236V34.8281Z" fill="white"/>
<path d="M51.5411 25.3691L54.8971 34.2417L58.2798 25.3691H61.263L56.2023 37.4124V46.4714H53.5654V37.4124L48.5312 25.3691H51.5144H51.5411Z" fill="white"/>
<path d="M73.7279 25.3691V27.7671H66.0568V34.3749H72.9821V36.7463H66.0568V44.0734H73.7279V46.4714H63.4199V25.3691H73.7279Z" fill="white"/>
<path d="M75.1663 46.4714L81.0261 25.3691H83.3434L89.2298 46.4714H86.4864L85.2878 41.6488H79.0817L77.8831 46.4714H75.1396H75.1663ZM79.8808 39.2508H84.5153L82.1981 29.8454L79.8808 39.2508Z" fill="white"/>
<path d="M100.601 46.4714L97.2188 37.5722H93.9426V46.4714H91.3057V25.3691H96.7393C100.655 25.3691 102.945 27.3941 102.945 31.4707C102.945 34.4282 101.773 36.2933 99.6692 37.0926L103.372 46.4448H100.601V46.4714ZM96.7393 35.2009C99.4295 35.2009 100.308 34.1085 100.308 31.4973C100.308 28.8862 99.4295 27.7671 96.7393 27.7671H93.9159V35.2009H96.7393Z" fill="white"/>
<path d="M9.53551 59.9798C8.70981 58.5677 7.83084 57.5552 5.80654 57.5552C3.99533 57.5552 2.92991 58.7809 2.92991 60.8591C2.92991 63.1505 3.99533 64.0298 6.60561 64.7758C9.85514 65.6817 11.8528 67.387 11.8528 70.8507C11.8528 73.5951 10.3612 76.7391 6.0729 76.7391C3.3028 76.7391 1.2785 75.5668 0 73.2754L2.07757 71.8632C3.19626 73.4885 4.15514 74.3411 6.0729 74.3411C8.70981 74.3411 9.24252 72.556 9.24252 70.9573C9.24252 69.1188 8.65654 67.8666 5.54019 67.0139C2.3972 66.1613 0.292991 64.3495 0.292991 60.8325C0.292991 57.9016 1.97103 55.1572 5.85981 55.1572C8.57663 55.1572 10.2813 56.2763 11.5065 58.621L9.50888 59.9532L9.53551 59.9798Z" fill="white"/>
<path d="M26.6352 55.4238V67.92C26.6352 74.1548 24.2114 76.7659 20.4558 76.7659C16.7002 76.7659 14.2764 74.1548 14.2764 67.9733V55.4238H16.9133V67.9733C16.9133 72.716 18.032 74.3946 20.4558 74.3946C22.8796 74.3946 23.9983 72.716 23.9983 67.9733V55.4238H26.6352Z" fill="white"/>
<path d="M39.2343 76.5261L35.8516 67.6269H32.5754V76.5261H29.9385V55.4238H35.3721C39.2875 55.4238 41.5782 57.4488 41.5782 61.5254C41.5782 64.4829 40.4062 66.348 38.302 67.1473L42.0044 76.4995H39.2343V76.5261ZM35.3721 65.2556C38.0623 65.2556 38.9413 64.1632 38.9413 61.552C38.9413 58.9409 38.0623 57.8218 35.3721 57.8218H32.5488V65.2556H35.3721Z" fill="white"/>
<path d="M45.2008 55.4238L49.6755 71.9433L54.1237 55.4238H56.8937L50.8208 76.5261H48.5302L42.4307 55.4238H45.2008Z" fill="white"/>
<path d="M61.6604 76.5261H59.0234V55.4238H61.6604V76.5261Z" fill="white"/>
<path d="M66.5084 55.4238L70.9831 71.9433L75.4313 55.4238H78.2014L72.1285 76.5261H69.8378L63.7383 55.4238H66.5084Z" fill="white"/>
<path d="M76.9778 76.5261L82.8376 55.4238H85.1549L91.0414 76.5261H88.2979L87.0993 71.7035H80.8932L79.6946 76.5261H76.9512H76.9778ZM81.6923 69.3055H86.3269L84.0096 59.9001L81.6923 69.3055Z" fill="white"/>
<path d="M95.7277 74.1281H103.399V76.5261H93.0908V55.4238H95.7277V74.1281Z" fill="white"/>
<path d="M109.236 65.6792C108.652 65.6792 108.127 65.5632 107.66 65.3312C107.192 65.0992 106.818 64.781 106.536 64.3767C106.254 63.9723 106.1 63.5116 106.074 62.9946H107.267C107.313 63.4553 107.522 63.8364 107.893 64.1381C108.268 64.4363 108.715 64.5855 109.236 64.5855C109.653 64.5855 110.025 64.4877 110.349 64.2922C110.678 64.0966 110.934 63.8282 111.12 63.4868C111.309 63.1421 111.403 62.7526 111.403 62.3184C111.403 61.8743 111.306 61.4782 111.11 61.1302C110.918 60.7789 110.653 60.5022 110.315 60.3C109.977 60.0978 109.59 59.9951 109.156 59.9917C108.845 59.9884 108.525 60.0365 108.197 60.1359C107.869 60.232 107.598 60.3563 107.386 60.5088L106.233 60.3696L106.849 55.3582H112.139V56.452H107.884L107.526 59.4548H107.585C107.794 59.2891 108.056 59.1515 108.371 59.0422C108.686 58.9328 109.014 58.8781 109.355 58.8781C109.978 58.8781 110.533 59.0273 111.021 59.3256C111.511 59.6205 111.896 60.0249 112.174 60.5386C112.456 61.0523 112.597 61.639 112.597 62.2986C112.597 62.9482 112.451 63.5282 112.159 64.0386C111.871 64.5457 111.473 64.9468 110.966 65.2417C110.459 65.5334 109.882 65.6792 109.236 65.6792Z" fill="white"/>
<defs>
<clipPath id="clip0_668_1394">
<rect width="225" height="137" fill="white" transform="translate(131 16)"/>
</clipPath>
</defs>
</svg>
