<svg width="335" height="729" viewBox="0 0 335 729" fill="none" xmlns="http://www.w3.org/2000/svg">
<path d="M61.0676 43.1944L59.9456 47.6484H54.9816L61.7476 24.1884H66.3716L73.1376 47.6484H68.1736L67.0516 43.1944H61.0676ZM66.0996 39.1824L64.0596 30.9204L62.0196 39.1824H66.0996ZM88.768 31.4644H84.246C84.008 29.2544 83.294 27.8944 81.594 27.8944C79.486 27.8944 78.602 29.7644 78.602 34.2524V37.5844C78.602 41.9364 79.486 43.9424 81.594 43.9424C83.294 43.9424 84.144 42.6504 84.28 39.4544H81.662V35.4424H88.836V37.5504C88.836 44.3164 86.728 47.9544 81.594 47.9544C77.004 47.9544 73.842 44.7584 73.842 37.5844V34.2524C73.842 27.0104 77.004 23.8824 81.594 23.8824C85.436 23.8824 88.122 26.3304 88.768 31.4644ZM92.1845 24.1884H104.561V28.2004H96.9445V33.5044H103.711V37.5164H96.9445V43.6364H104.561V47.6484H92.1845V24.1884ZM113.645 41.4264C113.645 38.3324 115.209 36.2584 116.943 34.6264C115.855 32.9264 115.073 31.2944 115.073 29.2204C115.073 25.9904 117.453 23.8824 120.785 23.8824C124.321 23.8824 126.361 26.1264 126.361 28.5404C126.361 31.1584 124.355 33.0964 122.349 34.8984L125.477 39.7944C125.647 38.8764 125.715 37.8224 125.715 36.7004H130.067C130.067 39.1144 129.523 41.4264 128.537 43.3304L131.767 47.6484H126.667L125.749 46.2204C124.389 47.3084 122.689 47.9544 120.751 47.9544C116.263 47.9544 113.645 44.9284 113.645 41.4264ZM120.955 43.9424C121.805 43.9424 122.519 43.6364 123.097 43.1264L119.323 37.5164C118.643 38.4004 118.269 39.2504 118.269 40.8484C118.269 42.1404 118.983 43.9424 120.955 43.9424ZM119.493 29.2204C119.493 30.2404 119.833 31.2604 120.309 32.1444C121.465 31.0564 122.213 30.0704 122.213 28.8124C122.213 27.9284 121.703 27.1804 120.853 27.1804C120.037 27.1804 119.493 27.8264 119.493 29.2204ZM141.259 24.1884H153.635V28.2004H146.019V34.0484H152.785V38.0604H146.019V47.6484H141.259V24.1884ZM161.299 24.1884V47.6484H156.539V24.1884H161.299ZM163.829 24.1884H178.789V28.2344H173.689V47.6484H168.929V28.2344H163.829V24.1884ZM191.611 24.1884H196.371V47.6484H192.393L185.763 34.8304V47.6484H181.003V24.1884H184.947L191.611 37.2104V24.1884ZM200.36 24.1884H212.736V28.2004H205.12V33.5044H211.886V37.5164H205.12V43.6364H212.736V47.6484H200.36V24.1884ZM229.032 27.6904L225.598 30.1724C224.646 28.7784 223.626 27.8944 222.232 27.8944C220.6 27.8944 219.818 28.8804 219.818 30.4784C219.818 32.3144 220.838 33.0624 223.32 33.8784C227.536 35.2384 229.304 36.9724 229.304 41.1204C229.304 44.9624 226.856 47.9544 222.334 47.9544C218.832 47.9544 216.418 46.8324 214.582 44.1124L218.152 41.5964C219.24 42.9564 220.26 43.9424 221.994 43.9424C223.898 43.9424 224.544 42.7524 224.544 41.3244C224.544 39.6924 223.796 38.7744 220.838 37.8224C216.894 36.5304 215.058 34.3544 215.058 30.4784C215.058 26.7724 217.268 23.8824 222.028 23.8824C225.156 23.8824 227.672 25.1064 229.032 27.6904ZM245.833 27.6904L242.399 30.1724C241.447 28.7784 240.427 27.8944 239.033 27.8944C237.401 27.8944 236.619 28.8804 236.619 30.4784C236.619 32.3144 237.639 33.0624 240.121 33.8784C244.337 35.2384 246.105 36.9724 246.105 41.1204C246.105 44.9624 243.657 47.9544 239.135 47.9544C235.633 47.9544 233.219 46.8324 231.383 44.1124L234.953 41.5964C236.041 42.9564 237.061 43.9424 238.795 43.9424C240.699 43.9424 241.345 42.7524 241.345 41.3244C241.345 39.6924 240.597 38.7744 237.639 37.8224C233.695 36.5304 231.859 34.3544 231.859 30.4784C231.859 26.7724 234.069 23.8824 238.829 23.8824C241.957 23.8824 244.473 25.1064 245.833 27.6904ZM251.609 23.647C253.525 23.647 255.329 24.8188 255.329 27.1624C255.329 28.4458 254.715 29.4688 253.86 29.9896C254.697 30.4546 255.496 31.6264 255.496 33.0772C255.496 35.4766 253.729 36.8158 251.609 36.8158C249.489 36.8158 247.722 35.4766 247.722 33.0772C247.722 31.6264 248.521 30.4546 249.358 29.9896C248.503 29.4688 247.889 28.4458 247.889 27.1624C247.889 24.8188 249.693 23.647 251.609 23.647ZM251.609 34.6396C252.39 34.6396 252.892 33.8584 252.892 32.8354C252.892 31.6822 252.279 31.0498 251.609 31.0498C250.939 31.0498 250.326 31.6822 250.326 32.8354C250.326 33.8584 250.828 34.6396 251.609 34.6396ZM251.609 25.8418C250.902 25.8418 250.456 26.5486 250.456 27.4228C250.456 28.3156 250.902 29.041 251.609 29.041C252.316 29.041 252.762 28.3156 252.762 27.4228C252.762 26.5486 252.316 25.8418 251.609 25.8418ZM260.082 33.7468V37.504L257.553 39.6616V33.7468H260.082ZM267.695 23.8144V36.6484H265.091V26.6974L263.566 27.9064V25.228L265.388 23.8144H267.695ZM277.135 23.8144V36.6484H274.531V26.6974L273.006 27.9064V25.228L274.829 23.8144H277.135Z" fill="#FDE9AA"/>
<line x1="100.509" y1="71.6484" x2="234.491" y2="71.6484" stroke="#FF005A" stroke-width="2"/>
<path d="M207.811 215.5H209.611V213.79H210.385V215.5H212.185V216.202H210.385V219.298H212.185V220H210.385V221.71H209.611V220H207.811V219.298H209.611V216.202H207.811V215.5Z" fill="white"/>
<path d="M113.505 216.193V217.698H108.653V221.869H113.032V223.374H108.653V228.017H113.505V229.522H107V216.172H113.505V216.193Z" fill="white"/>
<path d="M120.825 220.364C120.439 218.279 119.752 217.548 118.528 217.548C116.982 217.548 116.296 218.752 116.296 222.127V223.589C116.296 226.964 116.961 228.168 118.528 228.168C119.838 228.168 120.46 227.308 120.825 225.352H122.371C122.049 228.361 120.653 229.673 118.528 229.673C116.124 229.673 114.621 227.888 114.621 223.567V222.105C114.621 217.784 116.124 216 118.528 216C120.739 216 122.049 217.397 122.392 220.321H120.825V220.364Z" fill="white"/>
<path d="M127.502 229.716C125.097 229.716 123.595 227.931 123.595 223.61V222.148C123.595 217.827 125.097 216.043 127.502 216.043C129.906 216.043 131.409 217.827 131.409 222.148V223.61C131.409 227.931 129.906 229.716 127.502 229.716ZM125.269 223.61C125.269 227.007 125.935 228.189 127.502 228.189C129.069 228.189 129.734 226.985 129.734 223.61V222.148C129.734 218.752 129.069 217.569 127.502 217.569C125.935 217.569 125.269 218.773 125.269 222.148V223.61Z" fill="white"/>
<path d="M140.661 222.836V223.61C140.661 227.931 139.094 229.716 136.711 229.716C134.328 229.716 132.804 227.931 132.804 223.61V222.148C132.804 217.827 134.306 216.043 136.711 216.043C138.879 216.043 140.231 217.419 140.575 220.364H139.008C138.664 218.365 137.999 217.548 136.711 217.548C135.144 217.548 134.478 218.752 134.478 222.127V223.589C134.478 226.985 135.144 228.168 136.711 228.168C138.106 228.168 138.943 227.114 138.986 224.32H136.732V222.815H140.661V222.836Z" fill="white"/>
<path d="M151.287 229.544H144.954V228.146L148.518 222.707C149.269 221.546 149.677 220.622 149.677 219.526C149.677 218.214 149.14 217.505 148.217 217.505C147.294 217.505 146.757 218.214 146.714 219.59H145.126C145.126 217.376 146.543 216 148.239 216C150.063 216 151.33 217.376 151.33 219.504C151.33 221.245 150.471 222.535 149.849 223.546L147.036 227.996H151.308V229.501L151.287 229.544Z" fill="white"/>
<path d="M161.592 219.074C161.077 218.193 160.519 217.548 159.23 217.548C158.093 217.548 157.406 218.322 157.406 219.633C157.406 221.073 158.071 221.654 159.724 222.105C161.764 222.686 163.052 223.761 163.052 225.954C163.052 227.695 162.107 229.694 159.402 229.694C157.642 229.694 156.375 228.963 155.56 227.501L156.869 226.62C157.577 227.652 158.179 228.189 159.402 228.189C161.055 228.189 161.42 227.071 161.42 226.04C161.42 224.879 161.055 224.083 159.08 223.546C157.084 223.008 155.753 221.869 155.753 219.633C155.753 217.784 156.826 216.043 159.273 216.043C160.991 216.043 162.086 216.752 162.858 218.236L161.592 219.096V219.074Z" fill="white"/>
<path d="M171.832 216.193V217.698H168.697V229.544H167.044V217.698H163.932V216.193H171.832Z" fill="white"/>
<path d="M171.037 229.544L174.751 216.193H176.211L179.946 229.544H178.207L177.456 226.491H173.527L172.776 229.544H171.037ZM174.021 224.986H176.962L175.502 219.031L174.043 224.986H174.021Z" fill="white"/>
<path d="M187.094 216.193V217.698H183.96V229.544H182.307V217.698H179.194V216.193H187.094Z" fill="white"/>
<path d="M196.197 216.193V224.105C196.197 228.06 194.673 229.694 192.29 229.694C189.907 229.694 188.383 228.039 188.383 224.126V216.193H190.036V224.126C190.036 227.136 190.744 228.189 192.268 228.189C193.793 228.189 194.501 227.114 194.501 224.126V216.193H196.154H196.197Z" fill="white"/>
<path d="M203.796 219.074C203.281 218.193 202.723 217.548 201.435 217.548C200.297 217.548 199.61 218.322 199.61 219.633C199.61 221.073 200.275 221.654 201.928 222.105C203.968 222.686 205.256 223.761 205.256 225.954C205.256 227.695 204.311 229.694 201.606 229.694C199.846 229.694 198.579 228.963 197.764 227.501L199.073 226.62C199.782 227.652 200.383 228.189 201.606 228.189C203.259 228.189 203.624 227.071 203.624 226.04C203.624 224.879 203.259 224.083 201.284 223.546C199.288 223.008 197.957 221.869 197.957 219.633C197.957 217.784 199.03 216.043 201.478 216.043C203.195 216.043 204.29 216.752 205.063 218.236L203.796 219.096V219.074Z" fill="white"/>
<path d="M125 205L128.752 192H130.237L134 204.99H132.243L131.484 202.019H127.516L126.757 204.99H125V205ZM128.004 200.555H130.975L129.489 194.751L128.004 200.555Z" fill="white"/>
<path d="M142 198.464V199.201C142 203.302 140.602 205 138.486 205C136.369 205 135 203.302 135 199.201V197.799C135 193.698 136.341 192 138.486 192C140.42 192 141.627 193.309 141.933 196.101H140.535C140.228 194.209 139.635 193.432 138.486 193.432C137.088 193.432 136.484 194.577 136.484 197.799V199.201C136.484 202.423 137.088 203.568 138.486 203.568C139.731 203.568 140.468 202.576 140.516 199.906H138.495V198.474H141.99L142 198.464Z" fill="white"/>
<path d="M150 192V193.467H145.532V197.541H149.575V199.008H145.532V203.533H150V205H144V192H150Z" fill="white"/>
<path d="M155 205L158.752 192H160.237L164 204.99H162.243L161.484 202.019H157.516L156.757 204.99H155V205ZM158.004 200.555H160.975L159.489 194.751L158.004 200.555Z" fill="white"/>
<path d="M170.99 192V205H169.514L165.589 195.988V205H164V192H165.425L169.411 201.106V192H171H170.99Z" fill="white"/>
<path d="M174 205V192H177.316C179.567 192 181 193.621 181 197.815V199.175C181 203.368 179.567 204.99 177.316 204.99H174V205ZM179.414 199.185V197.825C179.414 194.604 178.769 193.475 177.316 193.475H175.586V203.536H177.316C178.789 203.536 179.414 202.406 179.414 199.185Z" fill="white"/>
<path d="M177.636 100.992C177.636 96.3851 173.686 92.6484 168.792 92.6484C163.897 92.6484 159.947 96.3851 159.947 100.992C159.947 105.599 163.897 109.336 168.792 109.336C173.686 109.336 177.636 105.599 177.636 100.992Z" fill="#FFEFAE"/>
<path d="M189.959 136.491L179.676 131.883C177.593 130.949 176.048 129.208 175.447 127.128C174.073 122.414 171.239 114.113 167.74 112.882C162.566 111.056 156.706 113.136 152.477 116.491C149.214 119.081 145.5 122.032 143.181 123.879C141.743 125.026 140.798 126.661 140.562 128.423C139.983 132.839 138.931 140.758 138.737 142.159C138.48 144.134 139.94 145.917 142.022 146.151C144.104 146.406 145.993 145.004 146.251 143.051L147.646 132.499C147.883 130.737 148.827 129.102 150.265 127.956L155.632 123.709C152.09 139.442 152.842 136.108 151.875 140.397C152.412 141.183 176.048 176.448 176.563 177.233C178.109 179.526 181.307 180.206 183.733 178.762C186.159 177.318 186.889 174.282 185.343 171.989L165.722 142.733L168.513 130.334L169.908 133.179C170.681 134.771 172.033 136.045 173.686 136.788L186.867 142.69C188.67 143.497 190.817 142.775 191.676 141.077C192.535 139.378 191.762 137.34 189.959 136.533" fill="#FFEFAE"/>
<path d="M147.345 158.975C147.259 159.294 147.109 159.57 146.894 159.824L136.912 172.563C135.388 174.516 135.817 177.255 137.878 178.699C139.939 180.143 142.837 179.739 144.361 177.786C145.52 176.321 153.463 166.173 155.331 163.795C155.524 163.54 155.674 163.243 155.782 162.945C156.233 161.417 157.413 157.277 157.628 156.619L150.608 147.723L147.345 158.996V158.975Z" fill="white"/>
<path d="M167.854 251.842V283.604" stroke="#FF005A" stroke-width="7"/>
<path d="M150.895 267.383H184.105" stroke="#FF005A" stroke-width="7"/>
<path d="M93.6738 426.744C93.2874 424.685 92.6004 423.963 91.3768 423.963C89.8311 423.963 89.1442 425.152 89.1442 428.485V429.929C89.1442 433.262 89.8097 434.451 91.3768 434.451C92.6863 434.451 93.3088 433.602 93.6738 431.67H95.2194C94.8974 434.642 93.502 435.937 91.3768 435.937C88.9724 435.937 87.4697 434.175 87.4697 429.907V428.464C87.4697 424.196 88.9724 422.434 91.3768 422.434C93.5879 422.434 94.8974 423.814 95.2409 426.702H93.6738V426.744Z" fill="white"/>
<path d="M104.579 422.625V430.439C104.579 434.345 103.055 435.959 100.672 435.959C98.2888 435.959 96.7646 434.324 96.7646 430.46V422.625H98.4176V430.46C98.4176 433.432 99.126 434.473 100.65 434.473C102.174 434.473 102.883 433.411 102.883 430.46V422.625H104.536H104.579Z" fill="white"/>
<path d="M111.406 430.608L114.347 422.646H116.021V435.831H114.368V426.978L112.071 433.071H110.697L108.465 426.978V435.831H106.812V422.646H108.465L111.427 430.608H111.406Z" fill="white"/>
<path d="M126.047 422.625V430.438C126.047 434.345 124.522 435.958 122.139 435.958C119.757 435.958 118.232 434.323 118.232 430.459V422.625H119.885V430.459C119.885 433.432 120.594 434.472 122.118 434.472C123.642 434.472 124.351 433.41 124.351 430.459V422.625H126.004H126.047Z" fill="white"/>
<path d="M129.932 434.323H134.784V435.81H128.279V422.625H129.932V434.323Z" fill="white"/>
<path d="M135.428 435.81L139.142 422.625H140.601L144.337 435.81H142.598L141.846 432.795H137.918L137.167 435.81H135.428ZM138.412 431.309H141.353L139.893 425.428L138.433 431.309H138.412Z" fill="white"/>
<path d="M151.463 422.625V424.112H148.329V435.81H146.676V424.112H143.563V422.625H151.463Z" fill="white"/>
<path d="M154.534 435.81H152.881V422.625H154.534V435.81Z" fill="white"/>
<path d="M157.732 422.625L160.544 432.943L163.356 422.625H165.117L161.274 435.81H159.814L155.95 422.625H157.711H157.732Z" fill="white"/>
<path d="M173.017 422.625V424.111H168.166V428.23H172.545V429.716H168.166V434.302H173.017V435.789H166.513V422.604H173.017V422.625Z" fill="white"/>
<path d="M184.524 422.625V424.111H181.39V435.81H179.737V424.111H176.624V422.625H184.524Z" fill="white"/>
<path d="M189.118 435.98C186.714 435.98 185.211 434.217 185.211 429.95V428.506C185.211 424.239 186.714 422.477 189.118 422.477C191.522 422.477 193.025 424.239 193.025 428.506V429.95C193.025 434.217 191.522 435.98 189.118 435.98ZM186.885 429.95C186.885 433.305 187.551 434.472 189.118 434.472C190.685 434.472 191.351 433.283 191.351 429.95V428.506C191.351 425.152 190.685 423.984 189.118 423.984C187.551 423.984 186.885 425.173 186.885 428.506V429.95Z" fill="white"/>
<path d="M193.54 435.81L196.588 428.995L193.883 422.604H195.687L197.533 427.445L199.401 422.604H201.204L198.478 428.995L201.547 435.81H199.744L197.511 430.693L195.3 435.81H193.497H193.54Z" fill="white"/>
<path d="M204.746 435.81H203.093V422.625H204.746V435.81Z" fill="white"/>
<path d="M212.86 426.744C212.474 424.685 211.787 423.963 210.563 423.963C209.018 423.963 208.331 425.152 208.331 428.485V429.929C208.331 433.262 209.018 434.451 210.563 434.451C211.873 434.451 212.495 433.602 212.86 431.67H214.406C214.084 434.642 212.689 435.937 210.563 435.937C208.159 435.937 206.656 434.175 206.656 429.907V428.464C206.656 424.196 208.159 422.434 210.563 422.434C212.774 422.434 214.084 423.814 214.427 426.702H212.86V426.744Z" fill="white"/>
<path d="M217.67 435.81H216.017V422.625H217.67V435.81Z" fill="white"/>
<path d="M226.964 422.625V424.111H223.83V435.81H222.177V424.111H219.064V422.625H226.964Z" fill="white"/>
<path d="M230.034 435.81H228.381V422.625H230.034V435.81Z" fill="white"/>
<path d="M238.856 422.625V424.111H234.005V428.23H238.384V429.716H234.005V434.302H238.856V435.789H232.352V422.604H238.856V422.625Z" fill="white"/>
<path d="M246.07 425.47C245.555 424.6 244.997 423.963 243.709 423.963C242.571 423.963 241.884 424.727 241.884 426.022C241.884 427.445 242.55 428.018 244.203 428.464C246.242 429.037 247.53 430.099 247.53 432.264C247.53 433.984 246.586 435.958 243.881 435.958C242.12 435.958 240.854 435.237 240.038 433.793L241.348 432.922C242.056 433.941 242.657 434.472 243.881 434.472C245.534 434.472 245.899 433.368 245.899 432.349C245.899 431.203 245.534 430.417 243.559 429.886C241.562 429.355 240.231 428.23 240.231 426.022C240.231 424.196 241.305 422.477 243.752 422.477C245.469 422.477 246.543 423.177 247.337 424.642L246.092 425.491L246.07 425.47Z" fill="white"/>
<path d="M109.559 445.979V447.466H104.708V451.903H109.087V453.389H104.708V459.164H103.055V445.979H109.559Z" fill="white"/>
<path d="M116.966 459.164L114.819 453.602H112.758V459.164H111.105V445.979H114.54C117.009 445.979 118.469 447.232 118.469 449.801C118.469 451.648 117.739 452.816 116.408 453.326L118.748 459.164H116.988H116.966ZM114.54 452.115C116.236 452.115 116.794 451.436 116.794 449.801C116.794 448.166 116.236 447.466 114.54 447.466H112.758V452.115H114.54Z" fill="white"/>
<path d="M123.707 459.313C121.303 459.313 119.8 457.55 119.8 453.283V451.839C119.8 447.572 121.303 445.81 123.707 445.81C126.111 445.81 127.614 447.572 127.614 451.839V453.283C127.614 457.55 126.111 459.313 123.707 459.313ZM121.474 453.283C121.474 456.638 122.14 457.805 123.707 457.805C125.274 457.805 125.939 456.616 125.939 453.283V451.839C125.939 448.485 125.274 447.317 123.707 447.317C122.14 447.317 121.474 448.506 121.474 451.839V453.283Z" fill="white"/>
<path d="M134.032 453.941L136.974 445.979H138.648V459.164H136.995V450.311L134.698 456.404H133.324L131.091 450.311V459.164H129.438V445.979H131.091L134.054 453.941H134.032Z" fill="white"/>
<path d="M147.514 445.979C150.026 445.979 151.271 447.147 151.271 449.334C151.271 450.714 150.541 451.967 149.51 452.285C150.841 452.582 151.614 453.708 151.614 455.385C151.614 457.296 150.627 459.164 147.836 459.164H144.208V445.979H147.514ZM145.861 451.585H147.707C149.103 451.585 149.575 450.65 149.575 449.355C149.575 448.188 149.231 447.466 147.493 447.466H145.84V451.585H145.861ZM145.861 457.678H147.836C149.339 457.678 149.94 456.807 149.94 455.385C149.94 453.793 149.253 453.071 147.6 453.071H145.861V457.678Z" fill="white"/>
<path d="M155.027 459.164H153.374V445.979H155.027V459.164Z" fill="white"/>
<path d="M160.846 459.313C158.441 459.313 156.938 457.55 156.938 453.283V451.839C156.938 447.572 158.441 445.81 160.846 445.81C163.25 445.81 164.753 447.572 164.753 451.839V453.283C164.753 457.55 163.25 459.313 160.846 459.313ZM158.613 453.283C158.613 456.638 159.278 457.805 160.846 457.805C162.413 457.805 163.078 456.616 163.078 453.283V451.839C163.078 448.485 162.413 447.317 160.846 447.317C159.278 447.317 158.613 448.506 158.613 451.839V453.283Z" fill="white"/>
<path d="M172.352 450.078C171.965 448.018 171.278 447.296 170.054 447.296C168.509 447.296 167.822 448.485 167.822 451.818V453.262C167.822 456.596 168.487 457.784 170.054 457.784C171.364 457.784 171.987 456.935 172.352 455.003H173.897C173.575 457.976 172.18 459.271 170.054 459.271C167.65 459.271 166.147 457.508 166.147 453.241V451.797C166.147 447.53 167.65 445.768 170.054 445.768C172.266 445.768 173.575 447.148 173.919 450.035H172.352V450.078Z" fill="white"/>
<path d="M177.095 451.606H181.088V445.979H182.741V459.164H181.088V453.092H177.095V459.164H175.442V445.979H177.095V451.606Z" fill="white"/>
<path d="M191.501 445.979V447.465H186.649V451.584H191.028V453.07H186.649V457.656H191.501V459.143H184.996V445.958H191.501V445.979Z" fill="white"/>
<path d="M197.704 453.941L200.645 445.979H202.32V459.164H200.667V450.311L198.37 456.404H196.996L194.763 450.311V459.164H193.11V445.979H194.763L197.726 453.941H197.704Z" fill="white"/>
<path d="M206.292 459.164H204.639V445.979H206.292V459.164Z" fill="white"/>
<path d="M214.406 450.078C214.02 448.018 213.333 447.296 212.109 447.296C210.564 447.296 209.877 448.485 209.877 451.818V453.262C209.877 456.596 210.542 457.784 212.109 457.784C213.419 457.784 214.041 456.935 214.406 455.003H215.952C215.63 457.976 214.234 459.271 212.109 459.271C209.705 459.271 208.202 457.508 208.202 453.241V451.797C208.202 447.53 209.705 445.768 212.109 445.768C214.32 445.768 215.63 447.148 215.973 450.035H214.406V450.078Z" fill="white"/>
<path d="M216.445 459.164L220.159 445.979H221.619L225.354 459.164H223.615L222.864 456.149H218.936L218.184 459.164H216.445ZM219.429 454.663H222.37L220.911 448.782L219.451 454.663H219.429Z" fill="white"/>
<path d="M228.382 457.678H233.233V459.164H226.729V445.979H228.382V457.678Z" fill="white"/>
<path d="M99.6632 472.179C99.148 471.309 98.5898 470.672 97.3018 470.672C96.164 470.672 95.4771 471.436 95.4771 472.731C95.4771 474.154 96.1425 474.727 97.7955 475.173C99.8349 475.746 101.123 476.808 101.123 478.973C101.123 480.693 100.178 482.667 97.4735 482.667C95.7132 482.667 94.4466 481.946 93.6309 480.502L94.9404 479.631C95.6488 480.65 96.2499 481.181 97.4735 481.181C99.1265 481.181 99.4914 480.077 99.4914 479.058C99.4914 477.912 99.1265 477.126 97.1515 476.595C95.155 476.064 93.8241 474.939 93.8241 472.731C93.8241 470.905 94.8974 469.186 97.3447 469.186C99.0621 469.186 100.157 469.886 100.93 471.351L99.6632 472.2V472.179Z" fill="white"/>
<path d="M103.763 469.334L105.888 474.875L108.035 469.334H109.924L106.726 476.871V482.54H105.073V476.871L101.874 469.334H103.763Z" fill="white"/>
<path d="M116.558 472.179C116.042 471.308 115.484 470.671 114.196 470.671C113.059 470.671 112.372 471.436 112.372 472.731C112.372 474.153 113.037 474.726 114.69 475.172C116.729 475.746 118.017 476.807 118.017 478.973C118.017 480.692 117.073 482.667 114.368 482.667C112.608 482.667 111.341 481.945 110.525 480.501L111.835 479.631C112.543 480.65 113.144 481.181 114.368 481.181C116.021 481.181 116.386 480.077 116.386 479.058C116.386 477.911 116.021 477.126 114.046 476.595C112.05 476.064 110.719 474.939 110.719 472.731C110.719 470.905 111.792 469.185 114.239 469.185C115.957 469.185 117.051 469.886 117.824 471.351L116.558 472.2V472.179Z" fill="white"/>
<path d="M126.776 469.334V470.82H123.642V482.519H121.989V470.82H118.876V469.334H126.776Z" fill="white"/>
<path d="M134.591 469.334V470.82H129.739V474.939H134.118V476.425H129.739V481.011H134.591V482.497H128.086V469.312H134.591V469.334Z" fill="white"/>
<path d="M140.794 477.317L143.735 469.355H145.41V482.54H143.757V473.687L141.46 479.78H140.086L137.853 473.687V482.54H136.2V469.355H137.853L140.816 477.317H140.794Z" fill="white"/>
<path d="M149.403 482.519H147.75V469.334H149.403V482.519Z" fill="white"/>
<path d="M157.518 473.453C157.131 471.394 156.444 470.672 155.221 470.672C153.675 470.672 152.988 471.861 152.988 475.194V476.638C152.988 479.971 153.653 481.16 155.221 481.16C156.53 481.16 157.153 480.311 157.518 478.379H159.063C158.741 481.351 157.346 482.646 155.221 482.646C152.816 482.646 151.313 480.884 151.313 476.616V475.173C151.313 470.905 152.816 469.143 155.221 469.143C157.432 469.143 158.741 470.523 159.085 473.411H157.518V473.453Z" fill="white"/>
<path d="M170.441 469.334V470.82H167.307V482.519H165.654V470.82H162.541V469.334H170.441Z" fill="white"/>
<path d="M177.633 482.519L175.486 476.956H173.425V482.519H171.772V469.334H175.207C177.676 469.334 179.136 470.587 179.136 473.156C179.136 475.003 178.406 476.17 177.075 476.68L179.415 482.519H177.654H177.633ZM175.207 475.47C176.903 475.47 177.461 474.79 177.461 473.156C177.461 471.521 176.903 470.82 175.207 470.82H173.425V475.47H175.207Z" fill="white"/>
<path d="M187.422 469.334V470.82H182.57V474.939H186.949V476.425H182.57V481.011H187.422V482.497H180.917V469.312H187.422V469.334Z" fill="white"/>
<path d="M188.409 482.519L192.123 469.334H193.583L197.318 482.519H195.579L194.828 479.504H190.899L190.148 482.519H188.409ZM191.393 478.018H194.334L192.874 472.137L191.415 478.018H191.393Z" fill="white"/>
<path d="M204.445 469.334V470.82H201.311V482.519H199.658V470.82H196.545V469.334H204.445Z" fill="white"/>
<path d="M210.37 477.317L213.311 469.355H214.986V482.54H213.333V473.686L211.036 479.78H209.662L207.429 473.686V482.54H205.776V469.355H207.429L210.392 477.317H210.37Z" fill="white"/>
<path d="M223.744 469.334V470.82H218.892V474.939H223.272V476.425H218.892V481.011H223.744V482.497H217.239V469.312H223.744V469.334Z" fill="white"/>
<path d="M232.653 469.334V482.519H231.108L226.986 473.389V482.519H225.333V469.334H226.814L230.979 478.57V469.334H232.632H232.653Z" fill="white"/>
<path d="M241.884 469.334V470.82H238.75V482.519H237.097V470.82H233.984V469.334H241.884Z" fill="white"/>
<path d="M171.557 336.532H162.219V346.405L164.001 370.269H169.775L171.557 346.511V336.532ZM170.119 383.007H163.657V376.532H170.119V383.007Z" fill="white"/>
<path d="M163.85 317.339L123.127 387.254C121.774 389.568 123.47 392.477 126.175 392.477H207.622C210.327 392.477 212.023 389.568 210.67 387.254L169.947 317.339C168.594 315.025 165.203 315.025 163.85 317.339Z" stroke="#FFEFAE" stroke-width="4" stroke-miterlimit="10"/>
<path d="M155.188 514.667H179.812" stroke="#FF005A" stroke-width="7"/>
<path d="M155.188 526.345H179.812" stroke="#FF005A" stroke-width="7"/>
<path d="M138.262 708.89C135.858 708.89 134.355 707.128 134.355 702.861V701.417C134.355 697.149 135.858 695.387 138.262 695.387C140.667 695.387 142.169 697.149 142.169 701.417V702.861C142.169 707.128 140.667 708.89 138.262 708.89ZM136.03 702.861C136.03 706.215 136.695 707.383 138.262 707.383C139.829 707.383 140.495 706.194 140.495 702.861V701.417C140.495 698.062 139.829 696.895 138.262 696.895C136.695 696.895 136.03 698.084 136.03 701.417V702.861Z" fill="white"/>
<path d="M151.766 695.536V703.349C151.766 707.256 150.242 708.869 147.859 708.869C145.476 708.869 143.952 707.235 143.952 703.37V695.536H145.605V703.37C145.605 706.343 146.313 707.383 147.837 707.383C149.362 707.383 150.07 706.322 150.07 703.37V695.536H151.723H151.766Z" fill="white"/>
<path d="M160.996 695.536V697.022H157.862V708.721H156.209V697.022H153.096V695.536H160.996Z" fill="white"/>
<path d="M167.887 699.655C167.501 697.595 166.814 696.873 165.59 696.873C164.045 696.873 163.358 698.062 163.358 701.396V702.839C163.358 706.173 164.045 707.362 165.59 707.362C166.9 707.362 167.522 706.512 167.887 704.58H169.433C169.111 707.553 167.716 708.848 165.59 708.848C163.186 708.848 161.683 707.086 161.683 702.818V701.374C161.683 697.107 163.186 695.345 165.59 695.345C167.802 695.345 169.111 696.725 169.455 699.612H167.887V699.655Z" fill="white"/>
<path d="M174.586 708.89C172.181 708.89 170.678 707.128 170.678 702.861V701.417C170.678 697.149 172.181 695.387 174.586 695.387C176.99 695.387 178.493 697.149 178.493 701.417V702.861C178.493 707.128 176.99 708.89 174.586 708.89ZM172.353 702.861C172.353 706.215 173.018 707.383 174.586 707.383C176.153 707.383 176.818 706.194 176.818 702.861V701.417C176.818 698.062 176.153 696.895 174.586 696.895C173.018 696.895 172.353 698.084 172.353 701.417V702.861Z" fill="white"/>
<path d="M184.933 703.519L187.874 695.557H189.548V708.742H187.895V699.888L185.598 705.982H184.224L181.992 699.888V708.742H180.339V695.557H181.992L184.954 703.519H184.933Z" fill="white"/>
<path d="M198.307 695.536V697.022H193.456V701.141H197.835V702.627H193.456V707.213H198.307V708.699H191.802V695.515H198.307V695.536Z" fill="white"/>
<path d="M205.52 698.381C205.005 697.51 204.447 696.873 203.159 696.873C202.021 696.873 201.334 697.638 201.334 698.933C201.334 700.355 202 700.929 203.653 701.374C205.692 701.948 206.98 703.009 206.98 705.175C206.98 706.895 206.036 708.869 203.331 708.869C201.57 708.869 200.304 708.147 199.488 706.703L200.798 705.833C201.506 706.852 202.107 707.383 203.331 707.383C204.984 707.383 205.349 706.279 205.349 705.26C205.349 704.113 204.984 703.328 203.009 702.797C201.012 702.266 199.681 701.141 199.681 698.933C199.681 697.107 200.755 695.387 203.202 695.387C204.919 695.387 205.993 696.088 206.787 697.553L205.542 698.402L205.52 698.381Z" fill="white"/>
<path d="M111.008 679.363V684.395H109.355V671.21H112.833C115.28 671.21 116.719 672.739 116.719 675.308C116.719 677.877 115.302 679.384 112.833 679.384H111.008V679.363ZM112.833 677.877C114.507 677.877 115.066 676.921 115.066 675.308C115.066 673.694 114.529 672.717 112.833 672.717H111.008V677.898H112.833V677.877Z" fill="white"/>
<path d="M121.849 684.543C119.445 684.543 117.942 682.781 117.942 678.513V677.07C117.942 672.802 119.445 671.04 121.849 671.04C124.254 671.04 125.756 672.802 125.756 677.07V678.513C125.756 682.781 124.254 684.543 121.849 684.543ZM119.617 678.513C119.617 681.868 120.282 683.036 121.849 683.036C123.416 683.036 124.082 681.847 124.082 678.513V677.07C124.082 673.715 123.416 672.547 121.849 672.547C120.282 672.547 119.617 673.736 119.617 677.07V678.513Z" fill="white"/>
<path d="M131.081 684.543C128.676 684.543 127.174 682.781 127.174 678.513V677.07C127.174 672.802 128.676 671.04 131.081 671.04C133.485 671.04 134.988 672.802 134.988 677.07V678.513C134.988 682.781 133.485 684.543 131.081 684.543ZM128.848 678.513C128.848 681.868 129.514 683.036 131.081 683.036C132.648 683.036 133.313 681.847 133.313 678.513V677.07C133.313 673.715 132.648 672.547 131.081 672.547C129.514 672.547 128.848 673.736 128.848 677.07V678.513Z" fill="white"/>
<path d="M142.694 684.373L140.548 678.81H138.487V684.373H136.834V671.188H140.268C142.737 671.188 144.197 672.441 144.197 675.01C144.197 676.857 143.467 678.025 142.136 678.534L144.476 684.373H142.716H142.694ZM140.268 677.324C141.964 677.324 142.523 676.645 142.523 675.01C142.523 673.375 141.964 672.675 140.268 672.675H138.487V677.324H140.268Z" fill="white"/>
<path d="M152.484 671.189V672.675H147.632V676.794H152.012V678.28H147.632V682.866H152.484V684.352H145.979V671.167H152.484V671.189Z" fill="white"/>
<path d="M159.954 684.373L157.807 678.81H155.746V684.373H154.094V671.188H157.528C159.997 671.188 161.457 672.441 161.457 675.01C161.457 676.857 160.727 678.025 159.396 678.534L161.736 684.373H159.976H159.954ZM157.528 677.324C159.224 677.324 159.782 676.645 159.782 675.01C159.782 673.375 159.224 672.675 157.528 672.675H155.746V677.324H157.528Z" fill="white"/>
<path d="M175.298 674.026C174.787 673.163 174.243 672.544 172.99 672.544C171.869 672.544 171.21 673.293 171.21 674.564C171.21 675.964 171.869 676.502 173.485 676.958C175.496 677.512 176.733 678.554 176.733 680.671C176.733 682.349 175.809 684.271 173.155 684.271C171.441 684.271 170.188 683.554 169.396 682.153L170.682 681.29C171.375 682.284 171.968 682.805 173.155 682.805C174.787 682.805 175.117 681.714 175.117 680.736C175.117 679.613 174.754 678.847 172.825 678.326C170.88 677.805 169.578 676.697 169.578 674.547C169.578 672.756 170.616 671.078 173.023 671.078C174.705 671.078 175.76 671.762 176.518 673.195L175.282 674.01L175.298 674.026Z" fill="white"/>
<path d="M185.882 671.241V678.88C185.882 682.691 184.382 684.287 182.058 684.287C179.733 684.287 178.233 682.691 178.233 678.912V671.241H179.865V678.912C179.865 681.812 180.557 682.838 182.058 682.838C183.558 682.838 184.25 681.812 184.25 678.912V671.241H185.882Z" fill="white"/>
<path d="M193.681 684.141L191.587 678.701H189.559V684.141H187.927V671.241H191.29C193.714 671.241 195.132 672.479 195.132 674.971C195.132 676.779 194.406 677.919 193.104 678.408L195.396 684.124H193.681V684.141ZM191.29 677.251C192.956 677.251 193.5 676.583 193.5 674.987C193.5 673.391 192.956 672.707 191.29 672.707H189.543V677.251H191.29Z" fill="white"/>
<path d="M197.374 671.241L200.144 681.339L202.897 671.241H204.612L200.853 684.141H199.435L195.66 671.241H197.374Z" fill="white"/>
<path d="M207.561 684.141H205.929V671.241H207.561V684.141Z" fill="white"/>
<path d="M210.562 671.241L213.332 681.339L216.085 671.241H217.8L214.041 684.141H212.623L208.848 671.241H210.562Z" fill="white"/>
<path d="M217.043 684.141L220.67 671.241H222.104L225.748 684.141H224.05L223.308 681.193H219.467L218.725 684.141H217.027H217.043ZM219.961 679.727H222.83L221.396 673.977L219.961 679.727Z" fill="white"/>
<path d="M228.649 682.675H233.397V684.141H227.016V671.241H228.649V682.675Z" fill="white"/>
<path d="M213.665 640.892H254.217C253.423 619.682 244.814 600.425 231.183 585.86L202.502 614.225C208.857 621.486 212.935 630.743 213.644 640.913L213.665 640.892ZM197.865 609.597L226.524 581.253C211.776 567.708 192.262 559.152 170.795 558.345V598.451C181.121 599.172 190.502 603.249 197.865 609.597ZM164.205 598.451V558.345C142.759 559.152 123.266 567.665 108.518 581.19L137.199 609.533C144.54 603.228 153.922 599.172 164.205 598.451Z" stroke="#FFEFAE" stroke-width="2" stroke-miterlimit="10"/>
<path d="M132.541 614.162L103.882 585.797C90.2071 600.383 81.5773 619.661 80.783 640.892H121.335C122.043 630.701 126.143 621.423 132.541 614.162Z" fill="#FDE9AA" stroke="#FFEFAE" stroke-miterlimit="10"/>
<path d="M99.392 617.844C98.6271 617.654 97.8455 618.088 97.6029 618.838C97.3602 619.588 97.7394 620.398 98.4707 620.692L164.611 647.273C164.647 647.288 164.684 647.301 164.721 647.312L165.171 645.881C164.721 647.312 164.721 647.312 164.722 647.313L164.724 647.313L164.728 647.314L164.736 647.317L164.758 647.324C164.775 647.329 164.797 647.335 164.822 647.342C164.872 647.355 164.939 647.373 165.02 647.391C165.183 647.429 165.406 647.473 165.675 647.506C166.208 647.571 166.956 647.6 167.783 647.434C169.543 647.08 171.435 645.874 172.372 642.99L172.374 642.984C172.821 641.589 172.869 640.345 172.609 639.257C172.351 638.172 171.809 637.337 171.223 636.719C170.643 636.109 170.014 635.705 169.541 635.454C169.301 635.327 169.093 635.235 168.939 635.173C168.862 635.142 168.797 635.118 168.748 635.1C168.723 635.091 168.702 635.084 168.686 635.079L168.664 635.071L168.655 635.069L168.651 635.067L168.65 635.067C168.649 635.067 168.648 635.066 168.198 636.497L168.648 635.066C168.619 635.057 168.589 635.049 168.56 635.041L99.392 617.844Z" fill="white" stroke="black" stroke-width="3" stroke-linejoin="round"/>
</svg>
