<svg width="927" height="186" viewBox="0 0 927 186" fill="none" xmlns="http://www.w3.org/2000/svg">
<path d="M6.456 75.939L5.433 80H0.907L7.076 58.61H11.292L17.461 80H12.935L11.912 75.939H6.456ZM11.044 72.281L9.184 64.748L7.324 72.281H11.044ZM31.7123 65.244H27.5893C27.3723 63.229 26.7213 61.989 25.1713 61.989C23.2493 61.989 22.4433 63.694 22.4433 67.786V70.824C22.4433 74.792 23.2493 76.621 25.1713 76.621C26.7213 76.621 27.4963 75.443 27.6203 72.529H25.2333V68.871H31.7743V70.793C31.7743 76.962 29.8523 80.279 25.1713 80.279C20.9863 80.279 18.1033 77.365 18.1033 70.824V67.786C18.1033 61.183 20.9863 58.331 25.1713 58.331C28.6743 58.331 31.1233 60.563 31.7123 65.244ZM34.8273 58.61H46.1113V62.268H39.1673V67.104H45.3363V70.762H39.1673V76.342H46.1113V80H34.8273V58.61ZM54.3939 74.327C54.3939 71.506 55.8199 69.615 57.4009 68.127C56.4089 66.577 55.6959 65.089 55.6959 63.198C55.6959 60.253 57.8659 58.331 60.9039 58.331C64.1279 58.331 65.9879 60.377 65.9879 62.578C65.9879 64.965 64.1589 66.732 62.3299 68.375L65.1819 72.839C65.3369 72.002 65.3989 71.041 65.3989 70.018H69.3669C69.3669 72.219 68.8709 74.327 67.9719 76.063L70.9169 80H66.2669L65.4299 78.698C64.1899 79.69 62.6399 80.279 60.8729 80.279C56.7809 80.279 54.3939 77.52 54.3939 74.327ZM61.0589 76.621C61.8339 76.621 62.4849 76.342 63.0119 75.877L59.5709 70.762C58.9509 71.568 58.6099 72.343 58.6099 73.8C58.6099 74.978 59.2609 76.621 61.0589 76.621ZM59.7259 63.198C59.7259 64.128 60.0359 65.058 60.4699 65.864C61.5239 64.872 62.2059 63.973 62.2059 62.826C62.2059 62.02 61.7409 61.338 60.9659 61.338C60.2219 61.338 59.7259 61.927 59.7259 63.198ZM79.5714 58.61H90.8554V62.268H83.9114V67.6H90.0804V71.258H83.9114V80H79.5714V58.61ZM97.843 58.61V80H93.503V58.61H97.843ZM100.151 58.61H113.791V62.299H109.141V80H104.801V62.299H100.151V58.61ZM125.481 58.61H129.821V80H126.194L120.149 68.313V80H115.809V58.61H119.405L125.481 70.483V58.61ZM133.458 58.61H144.742V62.268H137.798V67.104H143.967V70.762H137.798V76.342H144.742V80H133.458V58.61ZM159.6 61.803L156.469 64.066C155.601 62.795 154.671 61.989 153.4 61.989C151.912 61.989 151.199 62.888 151.199 64.345C151.199 66.019 152.129 66.701 154.392 67.445C158.236 68.685 159.848 70.266 159.848 74.048C159.848 77.551 157.616 80.279 153.493 80.279C150.3 80.279 148.099 79.256 146.425 76.776L149.68 74.482C150.672 75.722 151.602 76.621 153.183 76.621C154.919 76.621 155.508 75.536 155.508 74.234C155.508 72.746 154.826 71.909 152.129 71.041C148.533 69.863 146.859 67.879 146.859 64.345C146.859 60.966 148.874 58.331 153.214 58.331C156.066 58.331 158.36 59.447 159.6 61.803ZM174.918 61.803L171.787 64.066C170.919 62.795 169.989 61.989 168.718 61.989C167.23 61.989 166.517 62.888 166.517 64.345C166.517 66.019 167.447 66.701 169.71 67.445C173.554 68.685 175.166 70.266 175.166 74.048C175.166 77.551 172.934 80.279 168.811 80.279C165.618 80.279 163.417 79.256 161.743 76.776L164.998 74.482C165.99 75.722 166.92 76.621 168.501 76.621C170.237 76.621 170.826 75.536 170.826 74.234C170.826 72.746 170.144 71.909 167.447 71.041C163.851 69.863 162.177 67.879 162.177 64.345C162.177 60.966 164.192 58.331 168.532 58.331C171.384 58.331 173.678 59.447 174.918 61.803ZM180.147 58.2568C181.877 58.2568 183.507 59.3152 183.507 61.432C183.507 62.5912 182.953 63.5152 182.18 63.9856C182.936 64.4056 183.658 65.464 183.658 66.7744C183.658 68.9416 182.062 70.1512 180.147 70.1512C178.232 70.1512 176.636 68.9416 176.636 66.7744C176.636 65.464 177.358 64.4056 178.114 63.9856C177.341 63.5152 176.787 62.5912 176.787 61.432C176.787 59.3152 178.417 58.2568 180.147 58.2568ZM180.147 68.1856C180.853 68.1856 181.306 67.48 181.306 66.556C181.306 65.5144 180.752 64.9432 180.147 64.9432C179.542 64.9432 178.988 65.5144 178.988 66.556C178.988 67.48 179.441 68.1856 180.147 68.1856ZM180.147 60.2392C179.509 60.2392 179.105 60.8776 179.105 61.6672C179.105 62.4736 179.509 63.1288 180.147 63.1288C180.785 63.1288 181.189 62.4736 181.189 61.6672C181.189 60.8776 180.785 60.2392 180.147 60.2392ZM187.8 67.3792V70.7728L185.515 72.7216V67.3792H187.8ZM194.676 58.408V70H192.324V61.012L190.946 62.104V59.6848L192.593 58.408H194.676ZM203.203 58.408V70H200.851V61.012L199.473 62.104V59.6848L201.119 58.408H203.203Z" fill="#FDE9AA"/>
<line x1="240" y1="0.298828" x2="240" y2="146.299" stroke="#FF005A" stroke-width="2"/>
<path d="M391.811 148.5H393.611V146.79H394.385V148.5H396.185V149.202H394.385V152.298H396.185V153H394.385V154.71H393.611V153H391.811V152.298H393.611V149.202H391.811V148.5Z" fill="white"/>
<path d="M296.505 149.193V150.698H291.653V154.869H296.032V156.374H291.653V161.017H296.505V162.522H290V149.172H296.505V149.193Z" fill="white"/>
<path d="M303.825 153.364C303.439 151.279 302.752 150.548 301.528 150.548C299.982 150.548 299.296 151.752 299.296 155.127V156.589C299.296 159.964 299.961 161.168 301.528 161.168C302.838 161.168 303.46 160.308 303.825 158.352H305.371C305.049 161.361 303.653 162.673 301.528 162.673C299.124 162.673 297.621 160.888 297.621 156.567V155.105C297.621 150.784 299.124 149 301.528 149C303.739 149 305.049 150.397 305.392 153.321H303.825V153.364Z" fill="white"/>
<path d="M310.502 162.716C308.097 162.716 306.595 160.931 306.595 156.61V155.148C306.595 150.827 308.097 149.043 310.502 149.043C312.906 149.043 314.409 150.827 314.409 155.148V156.61C314.409 160.931 312.906 162.716 310.502 162.716ZM308.269 156.61C308.269 160.007 308.935 161.189 310.502 161.189C312.069 161.189 312.734 159.985 312.734 156.61V155.148C312.734 151.752 312.069 150.569 310.502 150.569C308.935 150.569 308.269 151.773 308.269 155.148V156.61Z" fill="white"/>
<path d="M323.661 155.836V156.61C323.661 160.931 322.094 162.716 319.711 162.716C317.328 162.716 315.804 160.931 315.804 156.61V155.148C315.804 150.827 317.306 149.043 319.711 149.043C321.879 149.043 323.231 150.419 323.575 153.364H322.008C321.664 151.365 320.999 150.548 319.711 150.548C318.144 150.548 317.478 151.752 317.478 155.127V156.589C317.478 159.985 318.144 161.168 319.711 161.168C321.106 161.168 321.943 160.114 321.986 157.32H319.732V155.815H323.661V155.836Z" fill="white"/>
<path d="M334.287 162.544H327.954V161.146L331.518 155.707C332.269 154.546 332.677 153.622 332.677 152.526C332.677 151.214 332.14 150.505 331.217 150.505C330.294 150.505 329.757 151.214 329.714 152.59H328.126C328.126 150.376 329.543 149 331.239 149C333.063 149 334.33 150.376 334.33 152.504C334.33 154.245 333.471 155.535 332.849 156.546L330.036 160.996H334.308V162.501L334.287 162.544Z" fill="white"/>
<path d="M344.592 152.074C344.077 151.193 343.519 150.548 342.23 150.548C341.093 150.548 340.406 151.322 340.406 152.633C340.406 154.073 341.071 154.654 342.724 155.105C344.764 155.686 346.052 156.761 346.052 158.954C346.052 160.695 345.107 162.694 342.402 162.694C340.642 162.694 339.375 161.963 338.56 160.501L339.869 159.62C340.577 160.652 341.179 161.189 342.402 161.189C344.055 161.189 344.42 160.071 344.42 159.04C344.42 157.879 344.055 157.083 342.08 156.546C340.084 156.008 338.753 154.869 338.753 152.633C338.753 150.784 339.826 149.043 342.273 149.043C343.991 149.043 345.086 149.752 345.858 151.236L344.592 152.096V152.074Z" fill="white"/>
<path d="M354.832 149.193V150.698H351.697V162.544H350.044V150.698H346.932V149.193H354.832Z" fill="white"/>
<path d="M354.037 162.544L357.751 149.193H359.211L362.946 162.544H361.207L360.456 159.491H356.527L355.776 162.544H354.037ZM357.021 157.986H359.962L358.502 152.031L357.043 157.986H357.021Z" fill="white"/>
<path d="M370.094 149.193V150.698H366.96V162.544H365.307V150.698H362.194V149.193H370.094Z" fill="white"/>
<path d="M379.197 149.193V157.105C379.197 161.06 377.673 162.694 375.29 162.694C372.907 162.694 371.383 161.039 371.383 157.126V149.193H373.036V157.126C373.036 160.136 373.744 161.189 375.268 161.189C376.793 161.189 377.501 160.114 377.501 157.126V149.193H379.154H379.197Z" fill="white"/>
<path d="M386.796 152.074C386.281 151.193 385.723 150.548 384.435 150.548C383.297 150.548 382.61 151.322 382.61 152.633C382.61 154.073 383.275 154.654 384.928 155.105C386.968 155.686 388.256 156.761 388.256 158.954C388.256 160.695 387.311 162.694 384.606 162.694C382.846 162.694 381.579 161.963 380.764 160.501L382.073 159.62C382.782 160.652 383.383 161.189 384.606 161.189C386.259 161.189 386.624 160.071 386.624 159.04C386.624 157.879 386.259 157.083 384.284 156.546C382.288 156.008 380.957 154.869 380.957 152.633C380.957 150.784 382.03 149.043 384.478 149.043C386.195 149.043 387.29 149.752 388.063 151.236L386.796 152.096V152.074Z" fill="white"/>
<path d="M308 138L311.752 125H313.237L317 137.99H315.243L314.484 135.019H310.516L309.757 137.99H308V138ZM311.004 133.555H313.975L312.489 127.751L311.004 133.555Z" fill="white"/>
<path d="M325 131.464V132.201C325 136.302 323.602 138 321.486 138C319.369 138 318 136.302 318 132.201V130.799C318 126.698 319.341 125 321.486 125C323.42 125 324.627 126.309 324.933 129.101H323.535C323.228 127.209 322.635 126.432 321.486 126.432C320.088 126.432 319.484 127.577 319.484 130.799V132.201C319.484 135.423 320.088 136.568 321.486 136.568C322.731 136.568 323.468 135.576 323.516 132.906H321.495V131.474H324.99L325 131.464Z" fill="white"/>
<path d="M333 125V126.467H328.532V130.541H332.575V132.008H328.532V136.533H333V138H327V125H333Z" fill="white"/>
<path d="M338 138L341.752 125H343.237L347 137.99H345.243L344.484 135.019H340.516L339.757 137.99H338V138ZM341.004 133.555H343.975L342.489 127.751L341.004 133.555Z" fill="white"/>
<path d="M353.99 125V138H352.514L348.589 128.988V138H347V125H348.425L352.411 134.106V125H354H353.99Z" fill="white"/>
<path d="M357 138V125H360.316C362.567 125 364 126.621 364 130.815V132.175C364 136.368 362.567 137.99 360.316 137.99H357V138ZM362.414 132.185V130.825C362.414 127.604 361.769 126.475 360.316 126.475H358.586V136.536H360.316C361.789 136.536 362.414 135.406 362.414 132.185Z" fill="white"/>
<path d="M497.825 128.405C497.439 126.32 496.752 125.589 495.528 125.589C493.982 125.589 493.296 126.793 493.296 130.168V131.63C493.296 135.005 493.961 136.209 495.528 136.209C496.838 136.209 497.46 135.349 497.825 133.393H499.371C499.049 136.402 497.653 137.714 495.528 137.714C493.124 137.714 491.621 135.929 491.621 131.608V130.146C491.621 125.825 493.124 124.041 495.528 124.041C497.739 124.041 499.049 125.438 499.392 128.362H497.825V128.405Z" fill="white"/>
<path d="M508.73 124.234V132.146C508.73 136.101 507.206 137.735 504.823 137.735C502.44 137.735 500.916 136.08 500.916 132.167V124.234H502.569V132.167C502.569 135.177 503.277 136.23 504.802 136.23C506.326 136.23 507.034 135.155 507.034 132.167V124.234H508.687H508.73Z" fill="white"/>
<path d="M515.557 132.318L518.498 124.256H520.172V137.606H518.519V128.641L516.222 134.811H514.848L512.616 128.641V137.606H510.963V124.256H512.616L515.578 132.318H515.557Z" fill="white"/>
<path d="M530.198 124.234V132.146C530.198 136.101 528.674 137.735 526.291 137.735C523.908 137.735 522.384 136.08 522.384 132.167V124.234H524.037V132.167C524.037 135.177 524.745 136.23 526.269 136.23C527.794 136.23 528.502 135.155 528.502 132.167V124.234H530.155H530.198Z" fill="white"/>
<path d="M534.084 136.08H538.935V137.585H532.431V124.234H534.084V136.08Z" fill="white"/>
<path d="M539.579 137.585L543.293 124.234H544.753L548.488 137.585H546.749L545.998 134.532H542.069L541.318 137.585H539.579ZM542.563 133.027H545.504L544.044 127.072L542.585 133.027H542.563Z" fill="white"/>
<path d="M555.615 124.234V125.739H552.481V137.585H550.828V125.739H547.715V124.234H555.615Z" fill="white"/>
<path d="M558.685 137.585H557.032V124.234H558.685V137.585Z" fill="white"/>
<path d="M561.883 124.234L564.696 134.682L567.508 124.234H569.268L565.425 137.585H563.966L560.102 124.234H561.862H561.883Z" fill="white"/>
<path d="M577.169 124.234V125.739H572.317V129.91H576.696V131.415H572.317V136.058H577.169V137.563H570.664V124.213H577.169V124.234Z" fill="white"/>
<path d="M588.675 124.234V125.739H585.541V137.585H583.888V125.739H580.775V124.234H588.675Z" fill="white"/>
<path d="M593.269 137.757C590.865 137.757 589.362 135.972 589.362 131.651V130.189C589.362 125.868 590.865 124.084 593.269 124.084C595.674 124.084 597.176 125.868 597.176 130.189V131.651C597.176 135.972 595.674 137.757 593.269 137.757ZM591.037 131.651C591.037 135.048 591.702 136.23 593.269 136.23C594.836 136.23 595.502 135.026 595.502 131.651V130.189C595.502 126.793 594.836 125.61 593.269 125.61C591.702 125.61 591.037 126.814 591.037 130.189V131.651Z" fill="white"/>
<path d="M597.691 137.585L600.74 130.684L598.035 124.213H599.838L601.684 129.114L603.552 124.213H605.355L602.629 130.684L605.699 137.585H603.895L601.663 132.404L599.452 137.585H597.648H597.691Z" fill="white"/>
<path d="M608.897 137.585H607.244V124.234H608.897V137.585Z" fill="white"/>
<path d="M617.012 128.405C616.625 126.32 615.938 125.589 614.715 125.589C613.169 125.589 612.482 126.793 612.482 130.168V131.63C612.482 135.005 613.169 136.209 614.715 136.209C616.024 136.209 616.647 135.349 617.012 133.393H618.557C618.235 136.402 616.84 137.714 614.715 137.714C612.31 137.714 610.808 135.929 610.808 131.608V130.146C610.808 125.825 612.31 124.041 614.715 124.041C616.926 124.041 618.235 125.438 618.579 128.362H617.012V128.405Z" fill="white"/>
<path d="M621.821 137.585H620.168V124.234H621.821V137.585Z" fill="white"/>
<path d="M631.116 124.234V125.739H627.982V137.585H626.329V125.739H623.216V124.234H631.116Z" fill="white"/>
<path d="M634.185 137.585H632.532V124.234H634.185V137.585Z" fill="white"/>
<path d="M643.008 124.234V125.739H638.156V129.91H642.535V131.415H638.156V136.058H643.008V137.563H636.503V124.213H643.008V124.234Z" fill="white"/>
<path d="M650.222 127.115C649.707 126.234 649.148 125.589 647.86 125.589C646.723 125.589 646.036 126.363 646.036 127.674C646.036 129.115 646.701 129.695 648.354 130.146C650.393 130.727 651.682 131.802 651.682 133.995C651.682 135.736 650.737 137.735 648.032 137.735C646.272 137.735 645.005 137.004 644.189 135.542L645.499 134.661C646.207 135.693 646.808 136.23 648.032 136.23C649.685 136.23 650.05 135.112 650.05 134.081C650.05 132.92 649.685 132.124 647.71 131.587C645.714 131.049 644.383 129.91 644.383 127.674C644.383 125.825 645.456 124.084 647.903 124.084C649.621 124.084 650.694 124.793 651.488 126.277L650.243 127.137L650.222 127.115Z" fill="white"/>
<path d="M513.711 147.882V149.387H508.859V153.88H513.238V155.385H508.859V161.232H507.206V147.882H513.711Z" fill="white"/>
<path d="M521.117 161.232L518.971 155.6H516.91V161.232H515.257V147.882H518.692C521.16 147.882 522.62 149.15 522.62 151.751C522.62 153.622 521.89 154.804 520.559 155.32L522.899 161.232H521.139H521.117ZM518.692 154.095C520.388 154.095 520.946 153.407 520.946 151.751C520.946 150.096 520.388 149.387 518.692 149.387H516.91V154.095H518.692Z" fill="white"/>
<path d="M527.858 161.383C525.454 161.383 523.951 159.598 523.951 155.277V153.815C523.951 149.494 525.454 147.71 527.858 147.71C530.263 147.71 531.765 149.494 531.765 153.815V155.277C531.765 159.598 530.263 161.383 527.858 161.383ZM525.626 155.277C525.626 158.674 526.291 159.856 527.858 159.856C529.425 159.856 530.091 158.652 530.091 155.277V153.815C530.091 150.419 529.425 149.236 527.858 149.236C526.291 149.236 525.626 150.44 525.626 153.815V155.277Z" fill="white"/>
<path d="M538.184 155.944L541.125 147.882H542.799V161.232H541.146V152.267L538.849 158.437H537.475L535.243 152.267V161.232H533.59V147.882H535.243L538.205 155.944H538.184Z" fill="white"/>
<path d="M551.665 147.882C554.177 147.882 555.422 149.064 555.422 151.279C555.422 152.676 554.692 153.944 553.662 154.267C554.993 154.568 555.766 155.707 555.766 157.405C555.766 159.34 554.778 161.232 551.987 161.232H548.359V147.882H551.665ZM550.012 153.557H551.859C553.254 153.557 553.726 152.611 553.726 151.3C553.726 150.118 553.383 149.387 551.644 149.387H549.991V153.557H550.012ZM550.012 159.727H551.987C553.49 159.727 554.091 158.846 554.091 157.405C554.091 155.793 553.404 155.062 551.751 155.062H550.012V159.727Z" fill="white"/>
<path d="M559.178 161.232H557.525V147.882H559.178V161.232Z" fill="white"/>
<path d="M564.997 161.383C562.593 161.383 561.09 159.598 561.09 155.277V153.815C561.09 149.494 562.593 147.71 564.997 147.71C567.401 147.71 568.904 149.494 568.904 153.815V155.277C568.904 159.598 567.401 161.383 564.997 161.383ZM562.764 155.277C562.764 158.674 563.43 159.856 564.997 159.856C566.564 159.856 567.23 158.652 567.23 155.277V153.815C567.23 150.419 566.564 149.236 564.997 149.236C563.43 149.236 562.764 150.44 562.764 153.815V155.277Z" fill="white"/>
<path d="M576.503 152.031C576.116 149.946 575.43 149.215 574.206 149.215C572.66 149.215 571.973 150.419 571.973 153.794V155.256C571.973 158.631 572.639 159.835 574.206 159.835C575.515 159.835 576.138 158.975 576.503 157.019H578.049C577.726 160.028 576.331 161.34 574.206 161.34C571.802 161.34 570.299 159.555 570.299 155.234V153.772C570.299 149.451 571.802 147.667 574.206 147.667C576.417 147.667 577.727 149.064 578.07 151.988H576.503V152.031Z" fill="white"/>
<path d="M581.247 153.579H585.24V147.882H586.893V161.232H585.24V155.084H581.247V161.232H579.594V147.882H581.247V153.579Z" fill="white"/>
<path d="M595.652 147.882V149.387H590.8V153.557H595.18V155.062H590.8V159.706H595.652V161.211H589.147V147.86H595.652V147.882Z" fill="white"/>
<path d="M601.856 155.944L604.797 147.882H606.471V161.232H604.818V152.267L602.521 158.437H601.147L598.915 152.267V161.232H597.262V147.882H598.915L601.877 155.944H601.856Z" fill="white"/>
<path d="M610.443 161.232H608.79V147.882H610.443V161.232Z" fill="white"/>
<path d="M618.558 152.031C618.171 149.946 617.484 149.215 616.261 149.215C614.715 149.215 614.028 150.419 614.028 153.794V155.256C614.028 158.631 614.693 159.835 616.261 159.835C617.57 159.835 618.193 158.975 618.558 157.019H620.103C619.781 160.028 618.386 161.34 616.261 161.34C613.856 161.34 612.354 159.555 612.354 155.234V153.772C612.354 149.451 613.856 147.667 616.261 147.667C618.472 147.667 619.781 149.064 620.125 151.988H618.558V152.031Z" fill="white"/>
<path d="M620.597 161.232L624.311 147.882H625.77L629.506 161.232H627.767L627.015 158.179H623.087L622.336 161.232H620.597ZM623.581 156.675H626.522L625.062 150.72L623.602 156.675H623.581Z" fill="white"/>
<path d="M632.533 159.727H637.385V161.232H630.88V147.882H632.533V159.727Z" fill="white"/>
<path d="M503.815 174.411C503.299 173.53 502.741 172.885 501.453 172.885C500.315 172.885 499.628 173.659 499.628 174.97C499.628 176.41 500.294 176.991 501.947 177.442C503.986 178.023 505.274 179.098 505.274 181.29C505.274 183.032 504.33 185.031 501.625 185.031C499.865 185.031 498.598 184.3 497.782 182.838L499.092 181.957C499.8 182.989 500.401 183.526 501.625 183.526C503.278 183.526 503.643 182.408 503.643 181.376C503.643 180.216 503.278 179.42 501.303 178.883C499.306 178.345 497.975 177.206 497.975 174.97C497.975 173.121 499.049 171.38 501.496 171.38C503.213 171.38 504.308 172.089 505.081 173.573L503.815 174.433V174.411Z" fill="white"/>
<path d="M507.915 171.53L510.04 177.141L512.187 171.53H514.076L510.877 179.162V184.902H509.224V179.162L506.025 171.53H507.915Z" fill="white"/>
<path d="M520.709 174.411C520.194 173.53 519.636 172.885 518.348 172.885C517.21 172.885 516.523 173.659 516.523 174.97C516.523 176.41 517.188 176.991 518.841 177.442C520.881 178.023 522.169 179.098 522.169 181.29C522.169 183.032 521.224 185.031 518.519 185.031C516.759 185.031 515.493 184.3 514.677 182.838L515.986 181.957C516.695 182.989 517.296 183.526 518.519 183.526C520.172 183.526 520.537 182.408 520.537 181.376C520.537 180.216 520.172 179.42 518.197 178.883C516.201 178.345 514.87 177.206 514.87 174.97C514.87 173.121 515.943 171.38 518.391 171.38C520.108 171.38 521.203 172.089 521.976 173.573L520.709 174.433V174.411Z" fill="white"/>
<path d="M530.927 171.53V173.035H527.793V184.881H526.14V173.035H523.027V171.53H530.927Z" fill="white"/>
<path d="M538.742 171.53V173.035H533.89V177.206H538.27V178.711H533.89V183.354H538.742V184.859H532.237V171.509H538.742V171.53Z" fill="white"/>
<path d="M544.946 179.613L547.887 171.552H549.561V184.902H547.908V175.937L545.611 182.107H544.237L542.005 175.937V184.902H540.352V171.552H542.005L544.967 179.613H544.946Z" fill="white"/>
<path d="M553.554 184.881H551.901V171.53H553.554V184.881Z" fill="white"/>
<path d="M561.669 175.701C561.282 173.616 560.596 172.885 559.372 172.885C557.826 172.885 557.139 174.089 557.139 177.464V178.926C557.139 182.301 557.805 183.505 559.372 183.505C560.681 183.505 561.304 182.645 561.669 180.689H563.215C562.893 183.698 561.497 185.01 559.372 185.01C556.968 185.01 555.465 183.225 555.465 178.904V177.442C555.465 173.121 556.968 171.337 559.372 171.337C561.583 171.337 562.893 172.734 563.236 175.658H561.669V175.701Z" fill="white"/>
<path d="M574.592 171.53V173.035H571.458V184.881H569.805V173.035H566.692V171.53H574.592Z" fill="white"/>
<path d="M581.784 184.881L579.638 179.248H577.577V184.881H575.924V171.53H579.359C581.827 171.53 583.287 172.799 583.287 175.4C583.287 177.27 582.557 178.453 581.226 178.969L583.566 184.881H581.806H581.784ZM579.359 177.743C581.054 177.743 581.613 177.055 581.613 175.4C581.613 173.745 581.054 173.035 579.359 173.035H577.577V177.743H579.359Z" fill="white"/>
<path d="M591.573 171.53V173.035H586.721V177.206H591.101V178.711H586.721V183.354H591.573V184.859H585.068V171.509H591.573V171.53Z" fill="white"/>
<path d="M592.561 184.881L596.274 171.53H597.734L601.469 184.881H599.731L598.979 181.828H595.051L594.299 184.881H592.561ZM595.545 180.323H598.486L597.026 174.368L595.566 180.323H595.545Z" fill="white"/>
<path d="M608.596 171.53V173.035H605.462V184.881H603.809V173.035H600.696V171.53H608.596Z" fill="white"/>
<path d="M614.522 179.613L617.463 171.552H619.137V184.902H617.484V175.937L615.187 182.107H613.813L611.581 175.937V184.902H609.928V171.552H611.581L614.543 179.613H614.522Z" fill="white"/>
<path d="M627.895 171.53V173.035H623.044V177.206H627.423V178.711H623.044V183.354H627.895V184.859H621.391V171.509H627.895V171.53Z" fill="white"/>
<path d="M636.805 171.53V184.881H635.259L631.137 175.636V184.881H629.484V171.53H630.966L635.13 180.882V171.53H636.783H636.805Z" fill="white"/>
<path d="M646.036 171.53V173.035H642.901V184.881H641.248V173.035H638.136V171.53H646.036Z" fill="white"/>
<path d="M809.907 162.409C807.503 162.409 806 160.625 806 156.304V154.842C806 150.521 807.503 148.736 809.907 148.736C812.311 148.736 813.814 150.521 813.814 154.842V156.304C813.814 160.625 812.311 162.409 809.907 162.409ZM807.674 156.304C807.674 159.7 808.34 160.883 809.907 160.883C811.474 160.883 812.14 159.679 812.14 156.304V154.842C812.14 151.445 811.474 150.263 809.907 150.263C808.34 150.263 807.674 151.467 807.674 154.842V156.304Z" fill="white"/>
<path d="M823.411 148.887V156.798C823.411 160.754 821.887 162.387 819.504 162.387C817.121 162.387 815.597 160.732 815.597 156.819V148.887H817.25V156.819C817.25 159.829 817.958 160.883 819.482 160.883C821.006 160.883 821.715 159.808 821.715 156.819V148.887H823.368H823.411Z" fill="white"/>
<path d="M832.641 148.887V150.392H829.507V162.237H827.854V150.392H824.741V148.887H832.641Z" fill="white"/>
<path d="M839.532 153.057C839.146 150.972 838.459 150.241 837.235 150.241C835.69 150.241 835.003 151.445 835.003 154.82V156.282C835.003 159.657 835.69 160.861 837.235 160.861C838.545 160.861 839.167 160.001 839.532 158.045H841.078C840.756 161.055 839.36 162.366 837.235 162.366C834.831 162.366 833.328 160.582 833.328 156.261V154.799C833.328 150.478 834.831 148.693 837.235 148.693C839.446 148.693 840.756 150.091 841.099 153.014H839.532V153.057Z" fill="white"/>
<path d="M846.23 162.409C843.826 162.409 842.323 160.625 842.323 156.304V154.842C842.323 150.521 843.826 148.736 846.23 148.736C848.635 148.736 850.137 150.521 850.137 154.842V156.304C850.137 160.625 848.635 162.409 846.23 162.409ZM843.998 156.304C843.998 159.7 844.663 160.883 846.23 160.883C847.797 160.883 848.463 159.679 848.463 156.304V154.842C848.463 151.445 847.797 150.263 846.23 150.263C844.663 150.263 843.998 151.467 843.998 154.842V156.304Z" fill="white"/>
<path d="M856.577 156.97L859.518 148.908H861.193V162.258H859.54V153.294L857.243 159.464H855.869L853.636 153.294V162.258H851.983V148.908H853.636L856.599 156.97H856.577Z" fill="white"/>
<path d="M869.952 148.887V150.392H865.1V154.562H869.48V156.067H865.1V160.711H869.952V162.215H863.447V148.865H869.952V148.887Z" fill="white"/>
<path d="M877.165 151.768C876.65 150.886 876.092 150.241 874.804 150.241C873.666 150.241 872.979 151.015 872.979 152.326C872.979 153.767 873.644 154.347 875.297 154.799C877.337 155.379 878.625 156.454 878.625 158.647C878.625 160.388 877.68 162.388 874.975 162.388C873.215 162.388 871.949 161.657 871.133 160.195L872.442 159.313C873.151 160.345 873.752 160.883 874.975 160.883C876.628 160.883 876.993 159.765 876.993 158.733C876.993 157.572 876.628 156.777 874.653 156.239C872.657 155.702 871.326 154.562 871.326 152.326C871.326 150.478 872.399 148.736 874.847 148.736C876.564 148.736 877.637 149.446 878.432 150.929L877.187 151.789L877.165 151.768Z" fill="white"/>
<path d="M782.653 132.511V137.606H781V124.256H784.478C786.925 124.256 788.363 125.804 788.363 128.405C788.363 131.006 786.946 132.533 784.478 132.533H782.653V132.511ZM784.478 131.006C786.152 131.006 786.71 130.039 786.71 128.405C786.71 126.771 786.174 125.782 784.478 125.782H782.653V131.028H784.478V131.006Z" fill="white"/>
<path d="M793.494 137.757C791.09 137.757 789.587 135.972 789.587 131.651V130.189C789.587 125.868 791.09 124.084 793.494 124.084C795.898 124.084 797.401 125.868 797.401 130.189V131.651C797.401 135.972 795.898 137.757 793.494 137.757ZM791.261 131.651C791.261 135.048 791.927 136.23 793.494 136.23C795.061 136.23 795.727 135.026 795.727 131.651V130.189C795.727 126.793 795.061 125.61 793.494 125.61C791.927 125.61 791.261 126.814 791.261 130.189V131.651Z" fill="white"/>
<path d="M802.725 137.757C800.321 137.757 798.818 135.972 798.818 131.651V130.189C798.818 125.868 800.321 124.084 802.725 124.084C805.13 124.084 806.632 125.868 806.632 130.189V131.651C806.632 135.972 805.13 137.757 802.725 137.757ZM800.493 131.651C800.493 135.048 801.158 136.23 802.725 136.23C804.293 136.23 804.958 135.026 804.958 131.651V130.189C804.958 126.793 804.293 125.61 802.725 125.61C801.158 125.61 800.493 126.814 800.493 130.189V131.651Z" fill="white"/>
<path d="M814.339 137.585L812.192 131.952H810.131V137.585H808.479V124.234H811.913C814.382 124.234 815.842 125.503 815.842 128.104C815.842 129.974 815.112 131.157 813.781 131.673L816.121 137.585H814.361H814.339ZM811.913 130.447C813.609 130.447 814.167 129.759 814.167 128.104C814.167 126.449 813.609 125.739 811.913 125.739H810.131V130.447H811.913Z" fill="white"/>
<path d="M824.129 124.234V125.739H819.277V129.91H823.656V131.415H819.277V136.058H824.129V137.563H817.624V124.213H824.129V124.234Z" fill="white"/>
<path d="M831.599 137.585L829.452 131.952H827.391V137.585H825.738V124.234H829.173C831.642 124.234 833.102 125.503 833.102 128.104C833.102 129.974 832.372 131.157 831.041 131.673L833.381 137.585H831.62H831.599ZM829.173 130.447C830.869 130.447 831.427 129.759 831.427 128.104C831.427 126.449 830.869 125.739 829.173 125.739H827.391V130.447H829.173Z" fill="white"/>
<path d="M846.943 127.107C846.432 126.233 845.888 125.606 844.635 125.606C843.514 125.606 842.855 126.365 842.855 127.651C842.855 129.07 843.514 129.614 845.13 130.076C847.141 130.636 848.377 131.692 848.377 133.836C848.377 135.534 847.454 137.48 844.8 137.48C843.085 137.48 841.832 136.755 841.041 135.337L842.327 134.462C843.019 135.468 843.613 135.996 844.8 135.996C846.432 135.996 846.762 134.891 846.762 133.902C846.762 132.764 846.399 131.989 844.47 131.461C842.525 130.933 841.222 129.812 841.222 127.635C841.222 125.821 842.261 124.122 844.668 124.122C846.35 124.122 847.405 124.815 848.163 126.266L846.927 127.091L846.943 127.107Z" fill="white"/>
<path d="M857.528 124.287V132.022C857.528 135.881 856.027 137.497 853.703 137.497C851.378 137.497 849.878 135.881 849.878 132.055V124.287H851.51V132.055C851.51 134.99 852.203 136.029 853.703 136.029C855.203 136.029 855.895 134.99 855.895 132.055V124.287H857.528Z" fill="white"/>
<path d="M865.326 137.349L863.232 131.84H861.204V137.349H859.572V124.287H862.935C865.359 124.287 866.777 125.54 866.777 128.064C866.777 129.894 866.051 131.049 864.749 131.544L867.041 137.332H865.326V137.349ZM862.935 130.373C864.601 130.373 865.145 129.696 865.145 128.08C865.145 126.464 864.601 125.771 862.935 125.771H861.188V130.373H862.935Z" fill="white"/>
<path d="M869.019 124.287L871.789 134.512L874.542 124.287H876.257L872.498 137.349H871.08L867.305 124.287H869.019Z" fill="white"/>
<path d="M879.206 137.349H877.574V124.287H879.206V137.349Z" fill="white"/>
<path d="M882.207 124.287L884.976 134.512L887.73 124.287H889.444L885.685 137.349H884.268L880.492 124.287H882.207Z" fill="white"/>
<path d="M888.687 137.349L892.314 124.287H893.749L897.392 137.349H895.694L894.952 134.364H891.111L890.369 137.349H888.671H888.687ZM891.605 132.879H894.474L893.04 127.058L891.605 132.879Z" fill="white"/>
<path d="M900.293 135.864H905.041V137.349H898.661V124.287H900.293V135.864Z" fill="white"/>
<path d="M351.204 19.2387C351.204 14.5737 347.254 10.79 342.359 10.79C337.465 10.79 333.515 14.5737 333.515 19.2387C333.515 23.9038 337.465 27.6874 342.359 27.6874C347.254 27.6874 351.204 23.9038 351.204 19.2387Z" fill="#FFEFAE"/>
<path d="M363.526 55.1835L353.243 50.5184C351.161 49.5725 349.615 47.8097 349.014 45.7029C347.64 40.9303 344.806 32.5246 341.307 31.2777C336.134 29.4289 330.273 31.5357 326.044 34.9324C322.781 37.5551 319.067 40.5434 316.749 42.4137C315.31 43.5746 314.366 45.2299 314.13 47.0142C313.55 51.4858 312.498 59.5046 312.305 60.9234C312.047 62.9227 313.507 64.7286 315.589 64.965C317.672 65.223 319.561 63.8041 319.818 61.8263L321.214 51.1418C321.45 49.3575 322.394 47.7022 323.833 46.5413L329.2 42.2417C325.658 58.1717 326.409 54.7965 325.443 59.1391C325.98 59.9345 349.615 95.6426 350.13 96.4381C351.676 98.7598 354.875 99.4478 357.3 97.9859C359.726 96.524 360.456 93.4498 358.91 91.1281L339.289 61.5039L342.08 48.9491L343.475 51.8298C344.248 53.4421 345.601 54.732 347.254 55.4844L360.435 61.4609C362.238 62.2778 364.385 61.5469 365.243 59.827C366.102 58.1072 365.329 56.0434 363.526 55.2265" fill="#FFEFAE"/>
<path d="M320.913 77.9496C320.827 78.2721 320.676 78.5515 320.462 78.8095L310.479 91.7083C308.955 93.6861 309.385 96.4593 311.445 97.9212C313.506 99.383 316.404 98.9746 317.929 96.9968C319.088 95.5134 327.031 85.2374 328.898 82.8296C329.092 82.5716 329.242 82.2707 329.349 81.9697C329.8 80.4218 330.981 76.2297 331.195 75.5633L324.176 66.5557L320.913 77.9711V77.9496Z" fill="white"/>
<path d="M444.586 42.0264V74.1873" stroke="#FF005A" stroke-width="7"/>
<path d="M427.627 57.7627H460.837" stroke="#FF005A" stroke-width="7"/>
<path d="M683.088 52.1953H707.711" stroke="#FF005A" stroke-width="7"/>
<path d="M683.088 64.0195H707.711" stroke="#FF005A" stroke-width="7"/>
<path d="M575.708 37.0605H566.37V47.0571L568.152 71.2208H573.927L575.708 47.1646V37.0605ZM574.27 84.1196H567.808V77.5627H574.27V84.1196Z" fill="white"/>
<path d="M568.001 17.6266L527.278 88.4194C525.926 90.7627 527.621 93.7079 530.326 93.7079H611.773C614.478 93.7079 616.174 90.7627 614.822 88.4194L574.098 17.6266C572.746 15.2833 569.354 15.2833 568.001 17.6266Z" stroke="#FFEFAE" stroke-width="4" stroke-miterlimit="10"/>
<path d="M885.31 93.5577H925.862C925.068 72.0812 916.459 52.5826 902.827 37.835L874.147 66.5563C880.501 73.9086 884.58 83.2817 885.289 93.5792L885.31 93.5577ZM869.51 61.8697L898.169 33.1699C883.421 19.4542 863.907 10.7906 842.44 9.97363V50.5833C852.766 51.3142 862.147 55.4418 869.51 61.8697ZM835.849 50.5833V9.97363C814.403 10.7906 794.911 19.4112 780.163 33.1054L808.843 61.8052C816.185 55.4203 825.566 51.3142 835.849 50.5833Z" stroke="#FFEFAE" stroke-width="2" stroke-miterlimit="10"/>
<path d="M804.185 66.4908L775.527 37.7695C761.852 52.5386 753.222 72.0588 752.428 93.5567H792.98C793.688 83.2377 797.788 73.8431 804.185 66.4908Z" fill="#FDE9AA" stroke="#FFEFAE" stroke-miterlimit="10"/>
<path d="M771.041 70.2387C770.277 70.0464 769.495 70.4778 769.249 71.2264C769.004 71.975 769.38 72.7858 770.109 73.0827L803.18 86.5404L836.25 99.9982C836.286 100.013 836.323 100.026 836.36 100.038L836.816 98.6088C836.36 100.038 836.361 100.038 836.362 100.039L836.364 100.039L836.367 100.04L836.376 100.043L836.398 100.05C836.415 100.055 836.437 100.061 836.462 100.068C836.512 100.082 836.579 100.1 836.661 100.119C836.824 100.157 837.048 100.201 837.318 100.235C837.852 100.301 838.602 100.331 839.431 100.162C840.27 99.991 841.196 99.6146 842.038 98.8716C842.881 98.1271 843.567 97.0775 844.019 95.6703L844.021 95.6645C844.466 94.2567 844.513 93.0044 844.255 91.9101C843.998 90.818 843.46 89.9757 842.874 89.3515C842.295 88.7346 841.666 88.3251 841.192 88.0708C840.953 87.9422 840.744 87.8489 840.59 87.7857C840.512 87.754 840.448 87.7296 840.398 87.7118C840.373 87.7029 840.353 87.6957 840.336 87.69L840.314 87.6826L840.305 87.6798L840.301 87.6786L840.3 87.678C840.299 87.6778 840.298 87.6775 839.843 89.1067L840.298 87.6775C840.268 87.6681 840.239 87.6596 840.209 87.6521L771.041 70.2387Z" fill="white" stroke="#0E0F22" stroke-width="3" stroke-linejoin="round"/>
</svg>
