<svg width="335" height="156" viewBox="0 0 335 156" fill="none" xmlns="http://www.w3.org/2000/svg">
<g clip-path="url(#clip0_854_1492)">
<path d="M57.6264 83.4745L82.0727 83.5527L60.7562 67.713V8.35052L116.02 8.42865L129.244 18.0731C143.976 1.61949 173.017 3.95247 189.661 20.7856C187.213 0.335799 201.509 -6.22779 221.082 11.4649L226.336 1.63065L238.352 1.99902L268.399 23.8888L258.718 45.3991L275.854 59.062C278 66.5521 277.945 73.3166 275.854 79.4225C271.383 85.5173 265.135 86.3322 257.276 82.3583L245.282 73.618L240.353 83.9657L228.75 83.8876L221.775 78.8086L220.501 109.907C219.215 120.858 212.933 128.248 202.538 132.69C193.316 135.916 179.299 135.09 167.528 130.893L148.034 116.08C142.579 133.583 124.694 140.303 102.774 130.703L69.4639 106.369C62.3771 101.268 58.6883 93.4204 57.6152 83.4745H57.6264Z" stroke="#FDE9AA" stroke-miterlimit="10"/>
<path d="M82.9441 67.7131H60.7558V8.35059H116.02V30.0729H85.0344V43.1666C87.27 41.0792 89.9527 38.4114 96.503 38.4114C108.564 38.4114 119.597 49.4176 119.597 74.712C119.597 100.006 109.76 112.497 89.8074 112.497C73.5658 112.497 59.4145 103.422 57.626 83.4858H82.0611C83.1006 88.8438 84.442 91.9693 89.0585 91.9693C93.0826 91.9693 94.871 86.4662 94.871 76.1966C94.871 65.3355 93.3844 60.1337 89.0585 60.1337C85.638 60.1337 84.2967 62.8127 82.9553 67.7242L82.9441 67.7131Z" fill="#FDE9AA"/>
<path d="M123.319 78.2731V41.0795C123.319 14.6019 138.957 6.86621 156.842 6.86621C174.727 6.86621 190.365 14.6019 190.365 41.0795V78.2731C190.365 104.751 174.727 112.486 156.842 112.486C138.957 112.486 123.319 104.751 123.319 78.2731ZM148.045 41.9725V77.3801C148.045 86.4553 149.085 91.9584 156.831 91.9584C164.577 91.9584 165.617 86.4553 165.617 77.3801V41.9725C165.617 32.8973 164.577 27.3942 156.831 27.3942C149.085 27.3942 148.045 32.8973 148.045 41.9725Z" fill="#FDE9AA"/>
<path d="M189.594 19.1342V13.3185C189.594 4.90192 194.199 0.738281 201.666 0.738281C209.133 0.738281 213.738 4.90192 213.738 13.3185V19.1342C213.738 27.5508 209.312 31.8818 201.666 31.8818C194.02 31.8818 189.594 27.5508 189.594 19.1342ZM237.972 1.62012L209.491 61.4626H197.854L226.336 1.62012H237.972ZM203.063 20.1835V12.5483C203.063 10.0367 202.538 9.51205 201.677 9.51205C200.816 9.51205 200.291 10.0367 200.291 12.5483V20.1835C200.291 22.695 200.816 23.2197 201.677 23.2197C202.538 23.2197 203.063 22.695 203.063 20.1835ZM222.435 49.5856V43.77C222.435 35.3534 227.04 31.1897 234.507 31.1897C241.974 31.1897 246.579 35.3534 246.579 43.77V49.5856C246.579 58.0022 242.153 62.3333 234.507 62.3333C226.861 62.3333 222.435 58.0022 222.435 49.5856ZM235.893 50.6238V42.9886C235.893 40.477 235.368 39.9524 234.507 39.9524C233.646 39.9524 233.121 40.477 233.121 42.9886V50.6238C233.121 53.1353 233.646 53.66 234.507 53.66C235.368 53.66 235.893 53.1353 235.893 50.6238Z" fill="#FDE9AA"/>
</g>
<line x1="100.509" y1="154.648" x2="234.491" y2="154.648" stroke="#FF005A" stroke-width="2"/>
<defs>
<clipPath id="clip0_854_1492">
<rect width="221" height="135" fill="white" transform="translate(57 0.648438)"/>
</clipPath>
</defs>
</svg>
