<svg width="333" height="249" viewBox="0 0 333 249" fill="none" xmlns="http://www.w3.org/2000/svg">
<path d="M207.584 173.749L214.326 155.421H218.168V185.749H214.373V165.397L209.093 179.42H205.957L200.819 165.397V185.749H197V155.421H200.819L207.584 173.749Z" fill="white"/>
<path d="M225.876 172.267C225.876 179.961 227.385 182.691 231.015 182.691C234.645 182.691 236.154 179.961 236.154 172.267V168.926C236.154 161.233 234.645 158.503 231.015 158.503C227.385 158.503 225.876 161.233 225.876 168.926V172.267ZM231.015 186.126C225.523 186.126 222.081 182.079 222.081 172.267V168.926C222.081 159.115 225.546 155.068 231.015 155.068C236.484 155.068 239.949 159.115 239.949 168.926V172.267C239.949 182.079 236.484 186.126 231.015 186.126Z" fill="white"/>
<path d="M260.646 155.421V185.749H257.11L247.681 164.738V185.749H243.862V155.421H247.28L256.851 176.667V155.421H260.646Z" fill="white"/>
<path d="M281.082 155.421V158.856H273.893V185.749H270.097V158.856H262.955V155.421H281.082Z" fill="white"/>
<path d="M287.188 168.361H296.31V155.421H300.129V185.749H296.31V171.773H287.188V185.749H283.393V155.421H287.188V168.361Z" fill="white"/>
<path d="M317.666 161.986C316.464 159.962 315.191 158.503 312.268 158.503C309.651 158.503 308.096 160.268 308.096 163.256C308.096 166.55 309.651 167.821 313.399 168.879C318.09 170.197 321.013 172.62 321.013 177.632C321.013 181.585 318.845 186.126 312.645 186.126C308.614 186.126 305.691 184.455 303.829 181.161L306.846 179.138C308.473 181.467 309.864 182.69 312.645 182.69C316.464 182.69 317.242 180.149 317.242 177.82C317.242 175.185 316.393 173.373 311.891 172.15C307.341 170.926 304.277 168.338 304.277 163.28C304.277 159.068 306.705 155.092 312.339 155.092C316.275 155.092 318.75 156.715 320.542 160.056L317.666 161.986Z" fill="white"/>
<path d="M18.5571 0.0957031L13.5598 15.6479L8.51533 0.0957031H5.66309V25.8121H8.51533V8.56586L12.334 20.4476H14.6677L18.6043 8.56586V25.8121H21.4329V0.0957031H18.5571Z" fill="white"/>
<path d="M25.252 0.0957031V25.8121H36.3781V22.9181H28.1042V13.9538H35.5766V11.0599H28.1042V3.0132H36.3781V0.0957031H25.252Z" fill="white"/>
<path d="M48.7068 14.3068V11.6245C48.7068 5.24838 47.5517 3.0132 44.9588 3.0132H41.8472V22.9181H44.9588C47.5989 22.9181 48.7068 20.6829 48.7068 14.3068ZM39.0186 25.8121V0.0957031H44.9588C48.9896 0.0957031 51.559 3.29554 51.559 11.601V14.2832C51.559 22.5887 48.9896 25.7885 44.9588 25.7885H39.0186V25.8121Z" fill="white"/>
<path d="M57.5455 0.0957031H54.7168V25.8121H57.5455V0.0957031Z" fill="white"/>
<path d="M67.2348 5.53072L69.7335 17.0125H64.7126L67.2112 5.53072H67.2348ZM65.9855 0.0957031L59.6445 25.8121H62.6146L63.9111 19.93H70.6056L71.9021 25.8121H74.8722L68.4841 0.0957031H65.9855Z" fill="white"/>
<path d="M86.3756 0.0957031V18.0948L79.2567 0.0957031H76.7109V25.8121H79.5396V8.00119L86.5642 25.8121H89.2042V0.0957031H86.3756Z" fill="white"/>
<path d="M102.474 14.6597C102.474 21.177 103.606 23.4828 106.293 23.4828C108.98 23.4828 110.112 21.177 110.112 14.6597V11.8363C110.112 5.31897 108.98 3.0132 106.293 3.0132C103.606 3.0132 102.474 5.31897 102.474 11.8363V14.6597ZM106.293 26.4003C102.215 26.4003 99.6221 22.9651 99.6221 14.6597V11.8363C99.6456 3.53082 102.215 0.0957031 106.317 0.0957031C110.418 0.0957031 112.988 3.53082 112.988 11.8363V14.6597C112.988 22.9651 110.418 26.4003 106.317 26.4003" fill="white"/>
<path d="M125.105 5.95423C124.209 4.23667 123.266 3.0132 121.074 3.0132C119.117 3.0132 117.986 4.49548 117.986 7.03653C117.986 9.83639 119.141 10.9187 121.946 11.8128C125.435 12.9186 127.627 14.9891 127.627 19.2241C127.627 22.5887 126 26.4238 121.404 26.4238C118.41 26.4238 116.218 25.0121 114.851 22.2122L117.09 20.4947C118.316 22.471 119.329 23.5063 121.404 23.5063C124.232 23.5063 124.845 21.3417 124.845 19.3653C124.845 17.1301 124.209 15.6008 120.862 14.5656C117.467 13.5303 115.181 11.3187 115.181 7.03653C115.157 3.46024 116.972 0.0957031 121.144 0.0957031C124.091 0.0957031 125.93 1.48387 127.25 4.30725L125.105 5.95423Z" fill="white"/>
<path d="M138.328 14.6597C138.328 21.177 139.459 23.4828 142.147 23.4828C144.834 23.4828 145.965 21.177 145.965 14.6597V11.8363C145.965 5.31897 144.834 3.0132 142.147 3.0132C139.459 3.0132 138.328 5.31897 138.328 11.8363V14.6597ZM142.147 26.4003C138.069 26.4003 135.476 22.9651 135.476 14.6597V11.8363C135.499 3.53082 138.069 0.0957031 142.147 0.0957031C146.225 0.0957031 148.817 3.53082 148.817 11.8363V14.6597C148.817 22.9651 146.248 26.4003 142.147 26.4003Z" fill="white"/>
<path d="M151.718 0.401367V26.1177H154.57V14.8477H162.042V11.9537H154.57V3.29534H162.844V0.401367H151.718Z" fill="white"/>
<path d="M12.0049 214.863H10.1192C8.6341 214.863 8.06837 215.545 8.06837 216.816C8.06837 218.227 8.79911 218.792 9.97772 218.792C11.062 218.792 12.0049 218.439 12.0049 215.592V214.863ZM10.0013 213.145H12.0049V211.687C12.0049 209.945 11.4863 209.475 10.0484 209.475C8.82268 209.475 8.35123 209.663 7.83264 210.698L6.27687 209.71C6.98404 208.251 8.04479 207.616 10.0484 207.616C12.665 207.616 14.0086 208.651 14.0086 211.687V220.486H11.9814V219.239C11.6042 220.11 11.0385 220.674 9.62414 220.674C7.29048 220.674 6.01758 219.239 6.01758 216.769C6.01758 214.039 7.66764 213.145 9.97772 213.145" fill="white"/>
<path d="M17.0727 207.805V206.887C17.0727 204.252 17.7799 202.981 20.2785 202.981H20.8914V204.911H20.42C19.3121 204.911 19.1235 205.546 19.1235 207.24V207.805H20.8914V209.64H19.1235V220.486H17.0963V209.64H15.7998V207.805H17.0963H17.0727Z" fill="white"/>
<path d="M21.8097 207.805H23.1062V205.028H25.1334V207.805H27.2313V209.64H25.1334V216.063C25.1334 217.804 25.2041 218.557 26.5006 218.557H27.2313V220.486H26.3356C23.8369 220.486 23.0826 219.216 23.0826 216.581V209.64H21.7861V207.805H21.8097Z" fill="white"/>
<path d="M30.7909 212.816H34.8689C34.8689 210.181 34.256 209.428 32.8181 209.428C31.2623 209.428 30.7909 210.557 30.7909 212.816ZM36.7782 218.557C36.0946 220.063 34.9632 220.651 33.1481 220.651C30.2252 220.651 28.7637 218.439 28.7637 214.934V213.263C28.7637 209.663 30.2016 207.593 32.8181 207.593C35.5761 207.593 36.8961 209.334 36.8961 213.263V214.581H30.7909V214.934C30.7909 217.122 31.4038 218.839 33.1245 218.839C34.3503 218.839 34.7746 218.345 35.2696 217.522L36.7547 218.557H36.7782Z" fill="white"/>
<path d="M44.7462 210.51C44.3219 209.781 43.8505 209.475 43.1669 209.475C42.0354 209.475 41.2811 210.44 41.2811 212.534V220.463H39.2539V207.804H41.2811V209.051C41.6583 208.251 42.4126 207.616 43.5912 207.616C44.7698 207.616 45.6656 208.204 46.302 209.334L44.7227 210.534L44.7462 210.51Z" fill="white"/>
<path d="M58.0641 210.769C57.5455 209.875 57.0976 209.475 55.8718 209.475C54.7875 209.475 54.1511 210.063 54.1511 211.169C54.1511 212.369 54.8111 212.863 56.1783 213.169C57.9934 213.569 59.8556 214.322 59.8556 216.933C59.8556 219.145 58.5591 220.651 55.9661 220.651C53.8918 220.651 52.7839 219.921 51.9824 218.604L53.4203 217.451C53.9389 218.369 54.5754 218.792 55.8247 218.792C57.1447 218.792 57.8048 218.133 57.8048 217.004C57.8048 215.875 57.3569 215.381 55.5418 214.981C53.8446 214.604 52.1003 213.663 52.1003 211.216C52.1003 209.122 53.4675 207.616 55.7776 207.616C57.4512 207.616 58.7241 208.157 59.5255 209.71L58.0641 210.769Z" fill="white"/>
<path d="M63.5809 212.816H67.6589C67.6589 210.181 67.0461 209.428 65.6081 209.428C64.0524 209.428 63.5809 210.557 63.5809 212.816ZM69.5683 218.557C68.8847 220.063 67.7532 220.651 65.9382 220.651C63.0152 220.651 61.5537 218.439 61.5537 214.934V213.263C61.5537 209.663 62.9916 207.593 65.6081 207.593C68.3661 207.593 69.6861 209.334 69.6861 213.263V214.581H63.5809V214.934C63.5809 217.122 64.1938 218.839 65.9146 218.839C67.1403 218.839 67.5646 218.345 68.0597 217.522L69.5447 218.557H69.5683Z" fill="white"/>
<path d="M79.5868 218.557C78.974 220.016 77.6539 220.651 76.0039 220.651C72.963 220.651 71.5723 218.416 71.5723 214.934V213.263C71.5723 209.663 73.2459 207.593 76.0039 207.593C77.536 207.593 78.8325 208.252 79.5868 209.546L78.0311 210.604C77.5596 209.828 76.8996 209.404 76.0039 209.404C74.3774 209.404 73.5995 210.863 73.5995 213.263V214.934C73.5995 217.122 74.1888 218.839 76.0039 218.839C76.9232 218.839 77.5361 218.51 78.0782 217.522L79.5868 218.557Z" fill="white"/>
<path d="M87.1994 214.934V213.263C87.1994 210.887 86.6808 209.404 84.9365 209.404C83.1921 209.404 82.6971 210.863 82.6971 213.263V214.934C82.6971 217.122 83.1921 218.839 84.9365 218.839C86.6808 218.839 87.1994 217.122 87.1994 214.934ZM89.2267 214.934C89.2267 218.557 87.6945 220.651 84.9365 220.651C82.1785 220.651 80.6699 218.557 80.6699 214.934V213.263C80.6699 209.64 82.2021 207.593 84.9365 207.593C87.6709 207.593 89.2267 209.64 89.2267 213.263V214.934Z" fill="white"/>
<path d="M91.3486 207.804H93.3994V209.051C93.7766 208.299 94.6252 207.616 95.8745 207.616C97.9253 207.616 99.4811 209.028 99.4811 212.581V220.486H97.4539V212.604C97.4539 210.04 96.5817 209.498 95.4974 209.498C94.0123 209.498 93.3759 210.698 93.3759 212.581V220.486H91.3486V207.828V207.804Z" fill="white"/>
<path d="M108.179 214.934V213.075C108.179 210.793 107.307 209.405 105.916 209.405C104.384 209.405 103.63 210.84 103.63 213.263V214.934C103.63 217.075 104.313 218.839 105.916 218.839C107.519 218.839 108.179 217.122 108.179 214.934ZM108.179 202.981H110.206V220.463H108.179V219.357C107.661 220.181 106.953 220.675 105.586 220.675C102.899 220.675 101.603 218.251 101.603 214.957V213.287C101.603 209.663 103.205 207.617 105.586 207.617C106.93 207.617 107.708 208.228 108.179 209.075V203.005V202.981Z" fill="white"/>
<path d="M117.467 212.229H112.116V214.041H117.467V212.229Z" fill="white"/>
<path d="M119.399 202.981H121.427V216.063C121.427 217.428 121.379 218.604 123.006 218.604V220.486C120.272 220.486 119.399 219.216 119.399 216.581V203.005V202.981Z" fill="white"/>
<path d="M125.482 220.463H127.509V207.805H125.482V220.463ZM125.388 205.264H127.627V202.981H125.388V205.264Z" fill="white"/>
<path d="M130.455 207.804H132.506V209.051C132.883 208.299 133.732 207.616 134.981 207.616C137.032 207.616 138.588 209.028 138.588 212.581V220.486H136.56V212.604C136.56 210.04 135.688 209.498 134.604 209.498C133.119 209.498 132.482 210.698 132.482 212.581V220.486H130.455V207.828V207.804Z" fill="white"/>
<path d="M142.736 212.816H146.814C146.814 210.181 146.201 209.428 144.763 209.428C143.208 209.428 142.736 210.557 142.736 212.816ZM148.724 218.557C148.04 220.063 146.908 220.651 145.093 220.651C142.17 220.651 140.709 218.439 140.709 214.934V213.263C140.709 209.663 142.147 207.593 144.763 207.593C147.521 207.593 148.841 209.334 148.841 213.263V214.581H142.736V214.934C142.736 217.122 143.349 218.839 145.07 218.839C146.296 218.839 146.72 218.345 147.239 217.522L148.724 218.557Z" fill="white"/>
<path d="M163.786 218.557C163.173 220.016 161.853 220.651 160.203 220.651C157.162 220.651 155.771 218.416 155.771 214.934V213.263C155.771 209.663 157.445 207.593 160.203 207.593C161.712 207.593 163.032 208.252 163.786 209.546L162.23 210.604C161.735 209.828 161.099 209.404 160.203 209.404C158.577 209.404 157.799 210.863 157.799 213.263V214.934C157.799 217.122 158.388 218.839 160.203 218.839C161.122 218.839 161.712 218.51 162.277 217.522L163.762 218.557H163.786Z" fill="white"/>
<path d="M165.413 202.981H167.464V209.028C167.841 208.275 168.69 207.593 169.939 207.593C171.99 207.593 173.546 209.005 173.546 212.557V220.463H171.518V212.581C171.518 210.016 170.646 209.475 169.562 209.475C168.077 209.475 167.44 210.675 167.44 212.557V220.463H165.413V202.981Z" fill="white"/>
<path d="M177.694 212.816H181.772C181.772 210.181 181.159 209.428 179.721 209.428C178.166 209.428 177.694 210.557 177.694 212.816ZM183.682 218.557C182.998 220.063 181.867 220.651 180.051 220.651C177.128 220.651 175.667 218.439 175.667 214.934V213.263C175.667 209.663 177.105 207.593 179.721 207.593C182.479 207.593 183.799 209.334 183.799 213.263V214.581H177.694V214.934C177.694 217.122 178.307 218.839 180.028 218.839C181.254 218.839 181.678 218.345 182.197 217.522L183.682 218.557Z" fill="white"/>
<path d="M186.18 207.804H188.207V209.051C188.584 208.322 189.338 207.616 190.635 207.616C191.931 207.616 193.039 208.228 193.605 209.616C194.265 208.228 195.279 207.616 196.575 207.616C198.626 207.616 200.134 209.287 200.134 212.581V220.486H198.107V212.604C198.107 210.157 197.212 209.498 196.151 209.498C194.996 209.498 194.171 210.463 194.171 212.581V220.486H192.143V212.604C192.143 210.157 191.248 209.498 190.187 209.498C189.032 209.498 188.207 210.557 188.207 212.581V220.486H186.18V207.828V207.804Z" fill="white"/>
<path d="M208.763 214.934V213.263C208.763 210.887 208.268 209.404 206.5 209.404C204.732 209.404 204.261 210.863 204.261 213.263V214.934C204.261 217.122 204.732 218.839 206.5 218.839C208.268 218.839 208.763 217.122 208.763 214.934ZM210.79 214.934C210.79 218.557 209.234 220.651 206.5 220.651C203.766 220.651 202.233 218.557 202.233 214.934V213.263C202.233 209.64 203.766 207.593 206.5 207.593C209.234 207.593 210.79 209.64 210.79 213.263V214.934Z" fill="white"/>
<path d="M212.015 207.805H213.311V205.028H215.338V207.805H217.436V209.64H215.338V216.063C215.338 217.804 215.409 218.557 216.706 218.557H217.436V220.486H216.541C214.042 220.486 213.288 219.216 213.288 216.581V209.64H211.991V207.805H212.015Z" fill="white"/>
<path d="M219.464 202.981H221.515V209.028C221.892 208.275 222.74 207.593 223.99 207.593C226.041 207.593 227.596 209.005 227.596 212.557V220.463H225.569V212.581C225.569 210.016 224.697 209.475 223.613 209.475C222.128 209.475 221.491 210.675 221.491 212.557V220.463H219.464V202.981Z" fill="white"/>
<path d="M231.745 212.816H235.823C235.823 210.181 235.21 209.428 233.772 209.428C232.216 209.428 231.745 210.557 231.745 212.816ZM237.732 218.557C237.049 220.063 235.917 220.651 234.102 220.651C231.179 220.651 229.718 218.439 229.718 214.934V213.263C229.718 209.663 231.156 207.593 233.772 207.593C236.53 207.593 237.85 209.334 237.85 213.263V214.581H231.745V214.934C231.745 217.122 232.358 218.839 234.079 218.839C235.304 218.839 235.729 218.345 236.247 217.522L237.732 218.557Z" fill="white"/>
<path d="M245.723 210.51C245.299 209.781 244.827 209.475 244.143 209.475C243.012 209.475 242.258 210.44 242.258 212.534V220.463H240.23V207.804H242.258V209.051C242.635 208.251 243.389 207.616 244.568 207.616C245.746 207.616 246.642 208.204 247.279 209.334L245.699 210.534L245.723 210.51Z" fill="white"/>
<path d="M253.643 214.863H251.758C250.249 214.863 249.707 215.545 249.707 216.816C249.707 218.227 250.438 218.792 251.616 218.792C252.701 218.792 253.643 218.439 253.643 215.592V214.863ZM251.64 213.145H253.643V211.687C253.643 209.945 253.125 209.475 251.687 209.475C250.461 209.475 249.99 209.663 249.471 210.698L247.939 209.71C248.646 208.251 249.707 207.616 251.711 207.616C254.327 207.616 255.671 208.651 255.671 211.687V220.486H253.643V219.239C253.266 220.11 252.701 220.674 251.286 220.674C248.953 220.674 247.68 219.239 247.68 216.769C247.68 214.039 249.33 213.145 251.64 213.145Z" fill="white"/>
<path d="M264.865 214.934V213.263C264.865 210.863 264.11 209.404 262.578 209.404C261.187 209.404 260.315 210.793 260.315 213.075V214.934C260.315 217.122 260.905 218.839 262.578 218.839C264.252 218.839 264.865 217.098 264.865 214.934ZM260.315 209.052C260.763 208.181 261.565 207.593 262.908 207.593C265.289 207.593 266.892 209.64 266.892 213.263V214.934C266.892 218.228 265.595 220.651 262.908 220.651C261.541 220.651 260.834 220.18 260.315 219.333V225.262H258.288V207.781H260.315V209.052Z" fill="white"/>
<path d="M271.748 220.581L267.812 207.781H270.004L272.361 215.946L272.738 217.287L275.095 207.781H277.193L273.705 220.863C272.88 223.898 272.243 225.263 269.202 225.263V223.286C270.428 223.286 271.088 222.98 271.654 220.934L271.748 220.581Z" fill="white"/>
<path d="M6.95943 230.815V229.898C6.95943 227.263 7.6666 225.992 10.1653 225.992H10.7781V227.922H10.3067C9.19879 227.922 9.01021 228.557 9.01021 230.251V230.815H10.7781V232.651H9.01021V243.497H6.983V232.651H5.68652V230.815H6.983H6.95943Z" fill="white"/>
<path d="M18.6047 237.968V236.297C18.6047 233.921 18.0861 232.439 16.3418 232.439C14.5974 232.439 14.1024 233.897 14.1024 236.297V237.968C14.1024 240.156 14.5739 241.873 16.3418 241.873C18.1097 241.873 18.6047 240.156 18.6047 237.968ZM20.6319 237.968C20.6319 241.591 19.0762 243.685 16.3418 243.685C13.6074 243.685 12.0752 241.591 12.0752 237.968V236.297C12.0752 232.674 13.6074 230.627 16.3418 230.627C19.0762 230.627 20.6319 232.674 20.6319 236.297V237.968Z" fill="white"/>
<path d="M22.7539 225.992H24.7811V239.05C24.7811 240.415 24.734 241.591 26.3605 241.591V243.474C23.6261 243.474 22.7539 242.203 22.7539 239.568V225.992Z" fill="white"/>
<path d="M28.5283 225.992H30.5555V239.05C30.5555 240.415 30.5084 241.591 32.1349 241.591V243.474C29.4005 243.474 28.5283 242.203 28.5283 239.568V225.992Z" fill="white"/>
<path d="M40.3147 237.968V236.297C40.3147 233.921 39.7961 232.439 38.0517 232.439C36.3074 232.439 35.8124 233.897 35.8124 236.297V237.968C35.8124 240.156 36.2838 241.873 38.0517 241.873C39.8197 241.873 40.3147 240.156 40.3147 237.968ZM42.3419 237.968C42.3419 241.591 40.7861 243.685 38.0517 243.685C35.3174 243.685 33.7852 241.591 33.7852 237.968V236.297C33.7852 232.674 35.3174 230.627 38.0517 230.627C40.7861 230.627 42.3419 232.674 42.3419 236.297V237.968Z" fill="white"/>
<path d="M48.0936 243.474H46.3964L43.332 230.815H45.5243L47.3157 239.709L49.6023 230.815H51.5352L53.8453 239.78L55.6132 230.815H57.7583L54.7646 243.474H53.0438L50.5687 234.18L48.0936 243.474Z" fill="white"/>
<path d="M59.5728 243.474H61.6V230.815H59.5728V243.474ZM59.4785 228.274H61.7179V225.992H59.4785V228.274Z" fill="white"/>
<path d="M64.5479 230.815H66.5986V232.062C66.9758 231.309 67.8244 230.627 69.0737 230.627C71.1245 230.627 72.6803 232.039 72.6803 235.591V243.497H70.6531V235.615C70.6531 233.05 69.7809 232.509 68.6966 232.509C67.2115 232.509 66.5751 233.709 66.5751 235.591V243.497H64.5479V230.839V230.815Z" fill="white"/>
<path d="M81.3773 237.968V236.109C81.3773 233.827 80.5051 232.439 79.1144 232.439C77.6058 232.439 76.8279 233.874 76.8279 236.297V237.968C76.8279 240.132 77.5115 241.873 79.1144 241.873C80.7173 241.873 81.3773 240.156 81.3773 237.968ZM81.3773 230.815H83.4045V243.238C83.4045 246.767 81.943 248.461 79.0437 248.461C77.1107 248.461 75.9793 247.826 75.2721 246.367L76.8279 245.308C77.2757 246.203 77.7943 246.65 79.0201 246.65C80.7644 246.65 81.4009 245.426 81.4009 243.262V242.391C80.8823 243.238 80.1751 243.709 78.8079 243.709C76.1207 243.709 74.8242 241.285 74.8242 237.991V236.321C74.8242 232.697 76.4271 230.65 78.8079 230.65C80.1516 230.65 80.9294 231.262 81.4009 232.109V230.839L81.3773 230.815Z" fill="white"/>
<path d="M91.396 243.474H93.4233V230.815H91.396V243.474ZM91.3018 228.274H93.5411V225.992H91.3018V228.274Z" fill="white"/>
<path d="M96.3701 230.815H98.4209V232.062C98.7981 231.309 99.6467 230.627 100.896 230.627C102.947 230.627 104.503 232.039 104.503 235.591V243.497H102.475V235.615C102.475 233.05 101.603 232.509 100.519 232.509C99.0338 232.509 98.3973 233.709 98.3973 235.591V243.497H96.3701V230.839V230.815Z" fill="white"/>
<path d="M107.449 243.474H109.476V230.815H107.449V243.474ZM107.354 228.274H109.594V225.992H107.354V228.274Z" fill="white"/>
<path d="M111.526 230.815H112.822V228.039H114.849V230.815H116.947V232.651H114.849V239.074C114.849 240.815 114.92 241.568 116.216 241.568H116.947V243.497H116.051C113.553 243.497 112.798 242.227 112.798 239.591V232.651H111.502V230.815H111.526Z" fill="white"/>
<path d="M119.282 243.474H121.309V230.815H119.282V243.474ZM119.188 228.274H121.427V225.992H119.188V228.274Z" fill="white"/>
<path d="M129.677 237.874H127.791C126.306 237.874 125.74 238.556 125.74 239.826C125.74 241.238 126.471 241.803 127.649 241.803C128.734 241.803 129.677 241.45 129.677 238.603V237.874ZM127.673 236.156H129.677V234.697C129.677 232.956 129.158 232.486 127.72 232.486C126.494 232.486 126.023 232.65 125.504 233.709L123.972 232.721C124.679 231.262 125.74 230.627 127.744 230.627C130.36 230.627 131.704 231.662 131.704 234.697V243.497H129.677V242.25C129.3 243.12 128.734 243.685 127.319 243.685C124.986 243.685 123.713 242.25 123.713 239.779C123.713 237.05 125.363 236.156 127.673 236.156Z" fill="white"/>
<path d="M134.345 225.992H136.372V239.05C136.372 240.415 136.325 241.591 137.951 241.591V243.474C135.217 243.474 134.345 242.203 134.345 239.568V225.992Z" fill="white"/>
<path d="M152.684 241.568C152.071 243.026 150.751 243.662 149.101 243.662C146.06 243.662 144.669 241.427 144.669 237.944V236.274C144.669 232.674 146.343 230.604 149.101 230.604C150.633 230.604 151.929 231.262 152.684 232.556L151.128 233.615C150.633 232.839 149.996 232.415 149.101 232.415C147.474 232.415 146.696 233.874 146.696 236.274V237.944C146.696 240.132 147.285 241.85 149.101 241.85C150.02 241.85 150.633 241.521 151.175 240.532L152.66 241.568H152.684Z" fill="white"/>
<path d="M160.321 237.968V236.297C160.321 233.921 159.826 232.439 158.058 232.439C156.29 232.439 155.818 233.897 155.818 236.297V237.968C155.818 240.156 156.29 241.873 158.058 241.873C159.826 241.873 160.321 240.156 160.321 237.968ZM162.348 237.968C162.348 241.591 160.792 243.685 158.058 243.685C155.323 243.685 153.791 241.591 153.791 237.968V236.297C153.791 232.674 155.323 230.627 158.058 230.627C160.792 230.627 162.348 232.674 162.348 236.297V237.968Z" fill="white"/>
<path d="M164.47 230.815H166.497V232.062C166.874 231.333 167.628 230.627 168.925 230.627C170.221 230.627 171.329 231.239 171.895 232.627C172.555 231.239 173.569 230.627 174.865 230.627C176.916 230.627 178.425 232.297 178.425 235.591V243.497H176.397V235.615C176.397 233.168 175.502 232.509 174.441 232.509C173.309 232.509 172.461 233.474 172.461 235.591V243.497H170.434V235.615C170.434 233.168 169.538 232.509 168.477 232.509C167.322 232.509 166.497 233.568 166.497 235.591V243.497H164.47V230.839V230.815Z" fill="white"/>
<path d="M187.594 237.968V236.298C187.594 233.898 186.84 232.439 185.308 232.439C183.917 232.439 183.045 233.827 183.045 236.109V237.945C183.045 240.133 183.634 241.85 185.308 241.85C186.981 241.85 187.594 240.109 187.594 237.945M183.045 232.063C183.493 231.192 184.294 230.604 185.638 230.604C188.019 230.604 189.621 232.651 189.621 236.274V237.945C189.621 241.239 188.325 243.662 185.638 243.662C184.271 243.662 183.563 243.191 183.045 242.344V243.45H181.018V225.969H183.045V232.039V232.063Z" fill="white"/>
<path d="M192.048 243.474H194.076V230.815H192.048V243.474ZM191.954 228.274H194.193V225.992H191.954V228.274Z" fill="white"/>
<path d="M197.023 230.815H199.074V232.062C199.451 231.309 200.276 230.627 201.549 230.627C203.6 230.627 205.156 232.039 205.156 235.591V243.497H203.129V235.615C203.129 233.05 202.256 232.509 201.172 232.509C199.687 232.509 199.051 233.709 199.051 235.591V243.497H197.023V230.839V230.815Z" fill="white"/>
<path d="M213.241 237.874H211.355C209.87 237.874 209.305 238.556 209.305 239.826C209.305 241.238 210.035 241.803 211.214 241.803C212.298 241.803 213.241 241.45 213.241 238.603V237.874ZM211.238 236.156H213.241V234.697C213.241 232.956 212.723 232.486 211.285 232.486C210.059 232.486 209.588 232.65 209.069 233.709L207.513 232.721C208.22 231.262 209.281 230.627 211.285 230.627C213.901 230.627 215.245 231.662 215.245 234.697V243.497H213.218V242.25C212.841 243.12 212.275 243.685 210.86 243.685C208.527 243.685 207.254 242.25 207.254 239.779C207.254 237.05 208.904 236.156 211.214 236.156" fill="white"/>
<path d="M217.012 230.815H218.308V228.039H220.336V230.815H222.433V232.651H220.336V239.074C220.336 240.815 220.406 241.568 221.703 241.568H222.433V243.497H221.538C219.039 243.497 218.285 242.227 218.285 239.591V232.651H216.988V230.815H217.012Z" fill="white"/>
<path d="M224.767 243.474H226.794V230.815H224.767V243.474ZM224.673 228.274H226.912V225.992H224.673V228.274Z" fill="white"/>
<path d="M235.728 237.968V236.297C235.728 233.921 235.233 232.439 233.465 232.439C231.697 232.439 231.225 233.897 231.225 236.297V237.968C231.225 240.156 231.697 241.873 233.465 241.873C235.233 241.873 235.728 240.156 235.728 237.968ZM237.755 237.968C237.755 241.591 236.199 243.685 233.465 243.685C230.73 243.685 229.198 241.591 229.198 237.968V236.297C229.198 232.674 230.73 230.627 233.465 230.627C236.199 230.627 237.755 232.674 237.755 236.297V237.968Z" fill="white"/>
<path d="M239.901 230.815H241.952V232.062C242.329 231.309 243.178 230.627 244.427 230.627C246.478 230.627 248.034 232.039 248.034 235.591V243.497H246.007V235.615C246.007 233.05 245.134 232.509 244.05 232.509C242.565 232.509 241.929 233.709 241.929 235.591V243.497H239.901V230.839V230.815Z" fill="white"/>
<path d="M254.846 230.815H256.142V228.039H258.17V230.815H260.267V232.651H258.17V239.074C258.17 240.815 258.24 241.568 259.537 241.568H260.267V243.497H259.372C256.873 243.497 256.119 242.227 256.119 239.591V232.651H254.822V230.815H254.846Z" fill="white"/>
<path d="M262.294 225.992H264.345V232.039C264.722 231.286 265.547 230.604 266.82 230.604C268.871 230.604 270.426 232.015 270.426 235.568V243.474H268.399V235.592C268.399 233.027 267.527 232.486 266.443 232.486C264.958 232.486 264.321 233.686 264.321 235.568V243.474H262.294V225.992Z" fill="white"/>
<path d="M274.576 235.827H278.654C278.654 233.192 278.041 232.439 276.603 232.439C275.047 232.439 274.576 233.592 274.576 235.827ZM280.563 241.568C279.88 243.05 278.748 243.662 276.933 243.662C274.01 243.662 272.549 241.45 272.549 237.944V236.274C272.549 232.674 273.987 230.604 276.603 230.604C279.361 230.604 280.681 232.345 280.681 236.274V237.591H274.576V237.944C274.576 240.132 275.189 241.85 276.91 241.85C278.135 241.85 278.56 241.379 279.078 240.532L280.563 241.568Z" fill="white"/>
<path d="M288.53 233.521C288.106 232.792 287.635 232.486 286.951 232.486C285.82 232.486 285.065 233.45 285.065 235.544V243.473H283.038V230.815H285.065V232.062C285.442 231.262 286.197 230.627 287.375 230.627C288.554 230.627 289.45 231.215 290.086 232.345L288.507 233.544L288.53 233.521Z" fill="white"/>
<path d="M296.475 237.874H294.589C293.104 237.874 292.538 238.556 292.538 239.826C292.538 241.238 293.269 241.803 294.447 241.803C295.532 241.803 296.475 241.45 296.475 238.603V237.874ZM294.471 236.156H296.475V234.697C296.475 232.956 295.956 232.486 294.518 232.486C293.292 232.486 292.821 232.65 292.302 233.709L290.747 232.721C291.454 231.262 292.515 230.627 294.518 230.627C297.135 230.627 298.478 231.662 298.478 234.697V243.497H296.451V242.25C296.074 243.12 295.508 243.685 294.094 243.685C291.76 243.685 290.487 242.25 290.487 239.779C290.487 237.05 292.137 236.156 294.447 236.156" fill="white"/>
<path d="M307.695 237.968V236.297C307.695 233.897 306.94 232.439 305.408 232.439C304.017 232.439 303.145 233.827 303.145 236.109V237.944C303.145 240.132 303.735 241.85 305.408 241.85C307.082 241.85 307.695 240.109 307.695 237.944M303.169 232.062C303.617 231.192 304.418 230.604 305.762 230.604C308.143 230.604 309.745 232.65 309.745 236.274V237.944C309.745 241.238 308.449 243.662 305.762 243.662C304.395 243.662 303.687 243.191 303.169 242.344V248.273H301.142V230.792H303.169V232.062Z" fill="white"/>
<path d="M314.555 243.615L310.618 230.815H312.81L315.168 238.98L315.545 240.321L317.902 230.815H320L316.511 243.897C315.686 246.932 315.05 248.297 312.009 248.297V246.321C313.235 246.321 313.895 246.015 314.46 243.968L314.555 243.615Z" fill="white"/>
<g clip-path="url(#clip0_668_1290)">
<path d="M129.058 183.33V162.17L157.899 183.33H182.445V80.605L151.807 58.0939H130.367L114.843 69.4109V92.7823L127.26 101.91L126.827 155.49L98.9295 135L89.9188 134.632L84.1484 129.917C84.1484 129.917 94.6794 124.108 96.1442 111.048C97.609 97.9883 86.3567 85.8669 86.3567 85.8669L53.2877 61.68C53.2877 61.68 25.3234 44.3973 6.96898 68.2714C-8.23386 88.0454 14.0156 107.428 14.0156 107.428C14.0156 107.428 4.16145 111.182 1.12088 126.387C-2.15272 142.81 9.77651 154.451 9.77651 154.451L44.3546 179.833C44.3546 179.833 57.0496 188.39 74.3719 183.776C86.8449 180.447 91.1173 174.582 91.1173 174.582L103.024 183.33H129.058Z" stroke="#FDE9AA" stroke-miterlimit="10"/>
<path d="M0.554688 131.414C0.554688 118.756 7.05751 110.422 14.1596 106.546C7.21286 102.233 1.74206 94.4912 1.74206 83.7663C1.74206 64.4168 17.5663 55.6357 33.6791 55.6357C49.7919 55.6357 65.6273 64.4168 65.6273 83.7775C65.6273 94.5024 60.1565 102.244 53.2098 106.557C60.3118 110.433 66.8146 118.767 66.8146 131.425C66.8146 151.825 51.8781 161.354 33.6902 161.354C15.5023 161.354 0.554688 151.814 0.554688 131.414ZM42.4124 128.431C42.4124 120.097 38.1179 116.075 33.6902 116.075C29.2625 116.075 24.968 120.097 24.968 128.431C24.968 136.173 28.6633 140.932 33.6902 140.932C38.7171 140.932 42.4124 136.173 42.4124 128.431ZM33.6902 76.1695C29.3957 76.1695 26.2996 80.1913 26.2996 86.8944C26.2996 93.5975 29.4068 97.9098 33.6902 97.9098C37.9736 97.9098 41.0808 93.7427 41.0808 86.8944C41.0808 80.0461 37.9736 76.1695 33.6902 76.1695Z" fill="#FDE9AA"/>
<path d="M98.3079 159.857H72.2744V133.648H98.3079V159.857Z" fill="#FDE9AA"/>
<path d="M151.695 159.858H127.149V82.7278L114.731 91.8105V68.4391L130.256 57.1221H151.695V159.858Z" fill="#FDE9AA"/>
</g>
<path d="M328.494 164.139C327.838 164.139 327.253 164.027 326.739 163.801C326.229 163.576 325.823 163.263 325.521 162.862C325.223 162.457 325.061 161.988 325.034 161.455H326.287C326.313 161.783 326.426 162.066 326.625 162.305C326.824 162.54 327.084 162.722 327.406 162.852C327.727 162.981 328.083 163.045 328.474 163.045C328.912 163.045 329.3 162.969 329.638 162.817C329.976 162.664 330.241 162.452 330.433 162.18C330.625 161.909 330.722 161.594 330.722 161.236C330.722 160.861 330.629 160.531 330.443 160.246C330.258 159.958 329.986 159.733 329.628 159.57C329.27 159.408 328.832 159.327 328.315 159.327H327.5V158.233H328.315C328.72 158.233 329.074 158.16 329.379 158.014C329.688 157.868 329.928 157.663 330.1 157.398C330.276 157.133 330.364 156.821 330.364 156.463C330.364 156.118 330.287 155.818 330.135 155.563C329.982 155.308 329.767 155.109 329.489 154.967C329.214 154.824 328.889 154.753 328.514 154.753C328.163 154.753 327.831 154.817 327.52 154.947C327.212 155.073 326.96 155.257 326.764 155.499C326.569 155.737 326.463 156.026 326.446 156.364H325.253C325.273 155.83 325.433 155.363 325.735 154.962C326.037 154.557 326.431 154.242 326.918 154.017C327.409 153.792 327.947 153.679 328.534 153.679C329.164 153.679 329.704 153.807 330.155 154.062C330.606 154.314 330.952 154.647 331.194 155.061C331.436 155.475 331.557 155.923 331.557 156.403C331.557 156.977 331.406 157.466 331.104 157.87C330.806 158.274 330.4 158.554 329.886 158.71V158.79C330.529 158.896 331.031 159.169 331.393 159.61C331.754 160.048 331.935 160.589 331.935 161.236C331.935 161.789 331.784 162.286 331.482 162.727C331.184 163.165 330.776 163.509 330.259 163.761C329.742 164.013 329.154 164.139 328.494 164.139Z" fill="white"/>
<path d="M325.023 233.545L325.102 231.358L323.253 232.531L322.776 231.696L324.724 230.682L322.776 229.668L323.253 228.832L325.102 230.006L325.023 227.818H325.977L325.898 230.006L327.747 228.832L328.224 229.668L326.276 230.682L328.224 231.696L327.747 232.531L325.898 231.358L325.977 233.545H325.023Z" fill="white"/>
<defs>
<clipPath id="clip0_668_1290">
<rect width="183" height="130.621" fill="white" transform="translate(0 55.0771)"/>
</clipPath>
</defs>
</svg>
