<svg width="336" height="259" viewBox="0 0 336 259" fill="none" xmlns="http://www.w3.org/2000/svg">
<path d="M11.39 0.849998L16.745 15.445L22.065 0.849998H25.11V25H22.1V8.795L17.935 19.96H15.45L11.39 8.795V25H8.38V0.849998H11.39ZM28.879 0.849998H40.674V3.58H31.889V11.14H39.834V13.87H31.889V22.27H40.674V25H28.879V0.849998ZM49.4573 25H43.1573V0.849998H49.4573C53.7273 0.849998 56.4573 3.86 56.4573 11.665V14.185C56.4573 21.99 53.7273 25 49.4573 25ZM49.4573 22.27C52.2573 22.27 53.4473 20.17 53.4473 14.185V11.665C53.4473 5.68 52.2223 3.58 49.4573 3.58H46.1673V22.27H49.4573ZM62.5372 0.849998V25H59.5272V0.849998H62.5372ZM67.637 25H64.487L71.207 0.849998H73.867L80.622 25H77.472L76.107 19.47H69.002L67.637 25ZM72.537 5.96L69.877 16.74H75.197L72.537 5.96ZM92.5217 0.849998H95.5317V25H92.7317L85.2767 8.27V25H82.2667V0.849998H84.9617L92.5217 17.755V0.849998ZM99.2794 0.849998H111.074V3.58H102.289V11.14H110.234V13.87H102.289V22.27H111.074V25H99.2794V0.849998ZM125.633 4.525L123.358 6.065C122.413 4.455 121.398 3.3 119.088 3.3C117.023 3.3 115.798 4.7 115.798 7.08C115.798 9.705 117.023 10.72 119.998 11.56C123.708 12.61 126.018 14.535 126.018 18.525C126.018 21.675 124.303 25.28 119.403 25.28C116.218 25.28 113.908 23.95 112.438 21.325L114.818 19.715C116.113 21.57 117.198 22.55 119.403 22.55C122.413 22.55 123.043 20.52 123.043 18.665C123.043 16.565 122.378 15.13 118.808 14.15C115.203 13.17 112.788 11.105 112.788 7.08C112.788 3.72 114.713 0.57 119.158 0.57C122.273 0.57 124.233 1.865 125.633 4.525ZM147.926 14.255C147.926 22.06 145.196 25.28 140.856 25.28C136.516 25.28 133.786 22.06 133.786 14.255V11.595C133.786 3.79 136.516 0.57 140.856 0.57C145.196 0.57 147.926 3.79 147.926 11.595V14.255ZM136.796 11.595V14.255C136.796 20.38 137.986 22.55 140.856 22.55C143.726 22.55 144.916 20.38 144.916 14.255V11.595C144.916 5.47 143.726 3.3 140.856 3.3C137.986 3.3 136.796 5.47 136.796 11.595ZM162.794 4.525L160.519 6.065C159.574 4.455 158.559 3.3 156.249 3.3C154.184 3.3 152.959 4.7 152.959 7.08C152.959 9.705 154.184 10.72 157.159 11.56C160.869 12.61 163.179 14.535 163.179 18.525C163.179 21.675 161.464 25.28 156.564 25.28C153.379 25.28 151.069 23.95 149.599 21.325L151.979 19.715C153.274 21.57 154.359 22.55 156.564 22.55C159.574 22.55 160.204 20.52 160.204 18.665C160.204 16.565 159.539 15.13 155.969 14.15C152.364 13.17 149.949 11.105 149.949 7.08C149.949 3.72 151.874 0.57 156.319 0.57C159.434 0.57 161.394 1.865 162.794 4.525ZM169.827 0.849998H173.012L178.122 19.75L183.232 0.849998H186.417L179.452 25H176.827L169.827 0.849998ZM200.972 14.255C200.972 22.06 198.242 25.28 193.902 25.28C189.562 25.28 186.832 22.06 186.832 14.255V11.595C186.832 3.79 189.562 0.57 193.902 0.57C198.242 0.57 200.972 3.79 200.972 11.595V14.255ZM189.842 11.595V14.255C189.842 20.38 191.032 22.55 193.902 22.55C196.772 22.55 197.962 20.38 197.962 14.255V11.595C197.962 5.47 196.772 3.3 193.902 3.3C191.032 3.3 189.842 5.47 189.842 11.595ZM214.02 0.849998H217.03V25H214.23L206.775 8.27V25H203.765V0.849998H206.46L214.02 17.755V0.849998Z" fill="white"/>
<path d="M202.468 157.02L208.894 174.534L215.278 157.02H218.932V186H215.32V166.554L210.322 179.952H207.34L202.468 166.554V186H198.856V157.02H202.468ZM238.447 173.106C238.447 182.472 235.171 186.336 229.963 186.336C224.755 186.336 221.479 182.472 221.479 173.106V169.914C221.479 160.548 224.755 156.684 229.963 156.684C235.171 156.684 238.447 160.548 238.447 169.914V173.106ZM225.091 169.914V173.106C225.091 180.456 226.519 183.06 229.963 183.06C233.407 183.06 234.835 180.456 234.835 173.106V169.914C234.835 162.564 233.407 159.96 229.963 159.96C226.519 159.96 225.091 162.564 225.091 169.914ZM253.305 157.02H256.917V186H253.557L244.611 165.924V186H240.999V157.02H244.233L253.305 177.306V157.02ZM261.874 186H258.094L266.158 157.02H269.35L277.456 186H273.676L272.038 179.364H263.512L261.874 186ZM267.754 163.152L264.562 176.088H270.946L267.754 163.152ZM274.916 157.02H292.094V160.296H285.29V186H281.678V160.296H274.916V157.02ZM293.118 157.02H307.272V160.296H296.73V169.368H306.264V172.644H296.73V182.724H307.272V186H293.118V157.02ZM321.758 157.02H325.37V186H322.01L313.064 165.924V186H309.452V157.02H312.686L321.758 177.306V157.02Z" fill="white"/>
<path d="M16.264 206.44H18.328V216.256C18.328 221.152 16.432 223.192 13.48 223.192C10.504 223.192 8.632 221.152 8.632 216.28V206.44H10.696V216.28C10.696 220 11.584 221.32 13.48 221.32C15.376 221.32 16.264 220 16.264 216.28V206.44ZM21.2089 223V211H23.1529V212.176C23.5129 211.456 24.3049 210.808 25.5049 210.808C27.4489 210.808 28.9129 212.152 28.9129 215.512V223H26.9929V215.536C26.9929 213.112 26.1769 212.584 25.1449 212.584C23.7289 212.584 23.1289 213.712 23.1289 215.512V223H21.2089ZM30.5643 212.728V211H31.7883V208.36H33.7083V211H35.7003V212.728H33.7083V218.824C33.7083 220.48 33.7803 221.176 35.0043 221.176H35.7003V223H34.8603C32.4843 223 31.7883 221.8 31.7883 219.304V212.728H30.5643ZM43.3032 220.216L44.7192 221.2C44.0712 222.616 42.9912 223.192 41.2872 223.192C38.5272 223.192 37.1352 221.104 37.1352 217.768V216.184C37.1352 212.776 38.5032 210.808 40.9752 210.808C43.5912 210.808 44.8392 212.464 44.8392 216.184V217.432H39.0552V217.768C39.0552 219.832 39.6312 221.464 41.2632 221.464C42.4152 221.464 42.8232 221.008 43.3032 220.216ZM40.9752 212.536C39.5112 212.536 39.0552 213.616 39.0552 215.752H42.9192C42.9192 213.256 42.3432 212.536 40.9752 212.536ZM53.7559 212.44L52.2679 213.568C51.8599 212.872 51.4279 212.584 50.7799 212.584C49.6999 212.584 49.0039 213.496 49.0039 215.488V223H47.0839V211H49.0039V212.176C49.3639 211.408 50.0839 210.808 51.1879 210.808C52.3159 210.808 53.1559 211.36 53.7559 212.44ZM68.983 211.6H67.039C66.559 209.008 65.719 208.12 64.183 208.12C62.263 208.12 61.399 209.608 61.399 213.808V215.632C61.399 219.808 62.239 221.32 64.183 221.32C65.815 221.32 66.583 220.264 67.039 217.84H68.959C68.551 221.56 66.823 223.192 64.183 223.192C61.207 223.192 59.335 220.984 59.335 215.632V213.808C59.335 208.456 61.207 206.248 64.183 206.248C66.919 206.248 68.551 207.976 68.983 211.6ZM70.8027 223V206.44H72.7467V212.176C73.1067 211.456 73.8987 210.808 75.0987 210.808C77.0427 210.808 78.5067 212.152 78.5067 215.512V223H76.5867V215.536C76.5867 213.112 75.7707 212.584 74.7387 212.584C73.3227 212.584 72.7227 213.712 72.7227 215.512V223H70.8027ZM86.686 220.216L88.102 221.2C87.454 222.616 86.374 223.192 84.67 223.192C81.91 223.192 80.518 221.104 80.518 217.768V216.184C80.518 212.776 81.886 210.808 84.358 210.808C86.974 210.808 88.222 212.464 88.222 216.184V217.432H82.438V217.768C82.438 219.832 83.014 221.464 84.646 221.464C85.798 221.464 86.206 221.008 86.686 220.216ZM84.358 212.536C82.894 212.536 82.438 213.616 82.438 215.752H86.302C86.302 213.256 85.726 212.536 84.358 212.536ZM90.4668 223V211H92.3867V212.176C92.7467 211.48 93.4668 210.808 94.6908 210.808C95.9388 210.808 96.9708 211.384 97.4988 212.704C98.1228 211.384 99.0828 210.808 100.307 210.808C102.251 210.808 103.667 212.392 103.667 215.512V223H101.747V215.536C101.747 213.208 100.907 212.584 99.8988 212.584C98.8188 212.584 98.0268 213.496 98.0268 215.512V223H96.1068V215.536C96.1068 213.208 95.2668 212.584 94.2588 212.584C93.1548 212.584 92.3867 213.592 92.3867 215.512V223H90.4668ZM113.778 216.184V217.768C113.778 221.2 112.314 223.192 109.722 223.192C107.13 223.192 105.69 221.2 105.69 217.768V216.184C105.69 212.752 107.13 210.808 109.722 210.808C112.314 210.808 113.778 212.752 113.778 216.184ZM109.722 221.464C111.378 221.464 111.858 219.832 111.858 217.768V216.184C111.858 213.928 111.378 212.536 109.722 212.536C108.066 212.536 107.61 213.928 107.61 216.184V217.768C107.61 219.832 108.066 221.464 109.722 221.464ZM114.963 212.728V211H116.187V208.36H118.107V211H120.099V212.728H118.107V218.824C118.107 220.48 118.179 221.176 119.403 221.176H120.099V223H119.259C116.883 223 116.187 221.8 116.187 219.304V212.728H114.963ZM122.014 223V206.44H123.958V212.176C124.318 211.456 125.11 210.808 126.31 210.808C128.254 210.808 129.718 212.152 129.718 215.512V223H127.798V215.536C127.798 213.112 126.982 212.584 125.95 212.584C124.534 212.584 123.934 213.712 123.934 215.512V223H122.014ZM137.897 220.216L139.313 221.2C138.665 222.616 137.585 223.192 135.881 223.192C133.121 223.192 131.729 221.104 131.729 217.768V216.184C131.729 212.776 133.097 210.808 135.569 210.808C138.185 210.808 139.433 212.464 139.433 216.184V217.432H133.649V217.768C133.649 219.832 134.225 221.464 135.857 221.464C137.009 221.464 137.417 221.008 137.897 220.216ZM135.569 212.536C134.105 212.536 133.649 213.616 133.649 215.752H137.513C137.513 213.256 136.937 212.536 135.569 212.536ZM148.35 212.44L146.862 213.568C146.454 212.872 146.022 212.584 145.374 212.584C144.294 212.584 143.598 213.496 143.598 215.488V223H141.678V211H143.598V212.176C143.958 211.408 144.678 210.808 145.782 210.808C146.91 210.808 147.75 211.36 148.35 212.44ZM148.745 219.496C148.745 216.904 150.305 216.064 152.489 216.064H154.385V214.672C154.385 213.016 153.905 212.584 152.537 212.584C151.385 212.584 150.929 212.752 150.449 213.736L148.985 212.8C149.657 211.408 150.665 210.808 152.561 210.808C155.033 210.808 156.305 211.792 156.305 214.672V223H154.385V221.824C154.025 222.64 153.497 223.192 152.153 223.192C149.945 223.192 148.745 221.824 148.745 219.496ZM154.385 218.392V217.696H152.609C151.193 217.696 150.665 218.344 150.665 219.544C150.665 220.888 151.361 221.416 152.465 221.416C153.497 221.416 154.385 221.08 154.385 218.392ZM160.73 211V212.2C161.163 211.384 161.907 210.808 163.179 210.808C165.435 210.808 166.947 212.752 166.947 216.184V217.768C166.947 220.888 165.723 223.192 163.179 223.192C161.883 223.192 161.211 222.736 160.73 221.944V227.56H158.811V211H160.73ZM162.867 221.464C164.379 221.464 165.027 219.808 165.027 217.768V216.184C165.027 213.904 164.307 212.536 162.867 212.536C161.547 212.536 160.73 213.856 160.73 216.016V217.768C160.73 219.832 161.283 221.464 162.867 221.464ZM169.247 223V211H171.167V223H169.247ZM169.151 208.6V206.44H171.263V208.6H169.151ZM179.639 220.216L181.055 221.2C180.407 222.616 179.327 223.192 177.623 223.192C174.863 223.192 173.471 221.104 173.471 217.768V216.184C173.471 212.776 174.839 210.808 177.311 210.808C179.927 210.808 181.175 212.464 181.175 216.184V217.432H175.391V217.768C175.391 219.832 175.967 221.464 177.599 221.464C178.751 221.464 179.159 221.008 179.639 220.216ZM177.311 212.536C175.847 212.536 175.391 213.616 175.391 215.752H179.255C179.255 213.256 178.679 212.536 177.311 212.536ZM188.513 223V211H190.433V223H188.513ZM188.417 208.6V206.44H190.529V208.6H188.417ZM193.217 223V211H195.161V212.176C195.521 211.456 196.313 210.808 197.513 210.808C199.457 210.808 200.921 212.152 200.921 215.512V223H199.001V215.536C199.001 213.112 198.185 212.584 197.153 212.584C195.737 212.584 195.137 213.712 195.137 215.512V223H193.217ZM213.953 212.2V206.44H215.873V223H213.953V221.944C213.473 222.736 212.801 223.192 211.505 223.192C208.961 223.192 207.737 220.888 207.737 217.768V216.184C207.737 212.752 209.249 210.808 211.505 210.808C212.777 210.808 213.521 211.384 213.953 212.2ZM211.817 221.464C213.401 221.464 213.953 219.832 213.953 217.768V216.016C213.953 213.856 213.137 212.536 211.817 212.536C210.377 212.536 209.657 213.904 209.657 216.184V217.768C209.657 219.808 210.305 221.464 211.817 221.464ZM224.053 220.216L225.469 221.2C224.821 222.616 223.741 223.192 222.037 223.192C219.277 223.192 217.885 221.104 217.885 217.768V216.184C217.885 212.776 219.253 210.808 221.725 210.808C224.341 210.808 225.589 212.464 225.589 216.184V217.432H219.805V217.768C219.805 219.832 220.381 221.464 222.013 221.464C223.165 221.464 223.573 221.008 224.053 220.216ZM221.725 212.536C220.261 212.536 219.805 213.616 219.805 215.752H223.669C223.669 213.256 223.093 212.536 221.725 212.536ZM234.506 212.44L233.018 213.568C232.61 212.872 232.178 212.584 231.53 212.584C230.45 212.584 229.754 213.496 229.754 215.488V223H227.834V211H229.754V212.176C230.114 211.408 230.834 210.808 231.938 210.808C233.066 210.808 233.906 211.36 234.506 212.44ZM239.701 206.44H248.413V207.832L242.149 221.128H248.605V223H239.701V221.608L245.941 208.312H239.701V206.44ZM256.071 214.192L253.719 223H252.111L249.231 211H251.295L252.999 219.424L255.159 211H256.983L259.167 219.496L260.847 211H262.887L260.055 223H258.423L256.071 214.192ZM270.014 220.216L271.43 221.2C270.782 222.616 269.702 223.192 267.998 223.192C265.238 223.192 263.846 221.104 263.846 217.768V216.184C263.846 212.776 265.214 210.808 267.686 210.808C270.302 210.808 271.55 212.464 271.55 216.184V217.432H265.766V217.768C265.766 219.832 266.342 221.464 267.974 221.464C269.126 221.464 269.534 221.008 270.014 220.216ZM267.686 212.536C266.222 212.536 265.766 213.616 265.766 215.752H269.63C269.63 213.256 269.054 212.536 267.686 212.536ZM274.083 223V211H276.003V223H274.083ZM273.987 208.6V206.44H276.099V208.6H273.987ZM277.947 212.728V211H279.171V208.36H281.091V211H283.083V212.728H281.091V218.824C281.091 220.48 281.163 221.176 282.387 221.176H283.083V223H282.243C279.867 223 279.171 221.8 279.171 219.304V212.728H277.947ZM284.998 219.304V206.44H286.918V218.824C286.918 220.12 286.87 221.224 288.406 221.224V223C285.814 223 284.998 221.8 284.998 219.304ZM290.747 223V211H292.667V223H290.747ZM290.651 208.6V206.44H292.763V208.6H290.651ZM295.451 223V211H297.395V212.176C297.755 211.456 298.547 210.808 299.747 210.808C301.691 210.808 303.155 212.152 303.155 215.512V223H301.235V215.536C301.235 213.112 300.419 212.584 299.387 212.584C297.971 212.584 297.371 213.712 297.371 215.512V223H295.451ZM305.934 223V211H307.854V223H305.934ZM305.838 208.6V206.44H307.95V208.6H305.838ZM316.327 220.216L317.743 221.2C317.095 222.616 316.015 223.192 314.311 223.192C311.551 223.192 310.159 221.104 310.159 217.768V216.184C310.159 212.776 311.527 210.808 313.999 210.808C316.615 210.808 317.863 212.464 317.863 216.184V217.432H312.079V217.768C312.079 219.832 312.655 221.464 314.287 221.464C315.439 221.464 315.847 221.008 316.327 220.216ZM313.999 212.536C312.535 212.536 312.079 213.616 312.079 215.752H315.943C315.943 213.256 315.367 212.536 313.999 212.536ZM8.248 252V240H10.192V241.176C10.552 240.456 11.344 239.808 12.544 239.808C14.488 239.808 15.952 241.152 15.952 244.512V252H14.032V244.536C14.032 242.112 13.216 241.584 12.184 241.584C10.768 241.584 10.168 242.712 10.168 244.512V252H8.248ZM17.9633 248.496C17.9633 245.904 19.5233 245.064 21.7073 245.064H23.6033V243.672C23.6033 242.016 23.1233 241.584 21.7553 241.584C20.6033 241.584 20.1473 241.752 19.6673 242.736L18.2033 241.8C18.8753 240.408 19.8833 239.808 21.7793 239.808C24.2513 239.808 25.5233 240.792 25.5233 243.672V252H23.6033V250.824C23.2433 251.64 22.7153 252.192 21.3713 252.192C19.1633 252.192 17.9633 250.824 17.9633 248.496ZM23.6033 247.392V246.696H21.8273C20.4113 246.696 19.8833 247.344 19.8833 248.544C19.8833 249.888 20.5793 250.416 21.6833 250.416C22.7153 250.416 23.6033 250.08 23.6033 247.392ZM33.7173 249.216L35.1333 250.2C34.5573 251.592 33.3093 252.192 31.7493 252.192C28.8693 252.192 27.5493 250.08 27.5493 246.768V245.184C27.5493 241.776 29.1333 239.808 31.7493 239.808C33.1893 239.808 34.4373 240.432 35.1333 241.656L33.6693 242.664C33.2133 241.92 32.5893 241.536 31.7493 241.536C30.2133 241.536 29.4693 242.928 29.4693 245.184V246.768C29.4693 248.832 30.0213 250.464 31.7493 250.464C32.6133 250.464 33.1893 250.152 33.7173 249.216ZM36.6777 252V235.44H38.6217V241.176C38.9817 240.456 39.7737 239.808 40.9737 239.808C42.9177 239.808 44.3817 241.152 44.3817 244.512V252H42.4617V244.536C42.4617 242.112 41.6457 241.584 40.6137 241.584C39.1977 241.584 38.5977 242.712 38.5977 244.512V252H36.6777ZM51.9657 252V240H53.8857V252H51.9657ZM51.8697 237.6V235.44H53.9817V237.6H51.8697ZM56.6699 252V240H58.6139V241.176C58.9739 240.456 59.7659 239.808 60.9659 239.808C62.9099 239.808 64.3739 241.152 64.3739 244.512V252H62.4539V244.536C62.4539 242.112 61.6379 241.584 60.6059 241.584C59.1899 241.584 58.5899 242.712 58.5899 244.512V252H56.6699ZM67.1532 252V240H69.0732V252H67.1532ZM67.0572 237.6V235.44H69.1692V237.6H67.0572ZM71.0174 241.728V240H72.2414V237.36H74.1614V240H76.1534V241.728H74.1614V247.824C74.1614 249.48 74.2334 250.176 75.4574 250.176H76.1534V252H75.3134C72.9374 252 72.2414 250.8 72.2414 248.304V241.728H71.0174ZM78.3563 252V240H80.2763V252H78.3563ZM78.2603 237.6V235.44H80.3723V237.6H78.2603ZM82.5805 248.496C82.5805 245.904 84.1405 245.064 86.3245 245.064H88.2205V243.672C88.2205 242.016 87.7405 241.584 86.3725 241.584C85.2205 241.584 84.7645 241.752 84.2845 242.736L82.8205 241.8C83.4925 240.408 84.5005 239.808 86.3965 239.808C88.8685 239.808 90.1405 240.792 90.1405 243.672V252H88.2205V250.824C87.8605 251.64 87.3325 252.192 85.9885 252.192C83.7805 252.192 82.5805 250.824 82.5805 248.496ZM88.2205 247.392V246.696H86.4445C85.0285 246.696 84.5005 247.344 84.5005 248.544C84.5005 249.888 85.1965 250.416 86.3005 250.416C87.3325 250.416 88.2205 250.08 88.2205 247.392ZM92.6464 248.304V235.44H94.5664V247.824C94.5664 249.12 94.5184 250.224 96.0544 250.224V252C93.4624 252 92.6464 250.8 92.6464 248.304ZM103.795 249.216L105.211 250.2C104.563 251.616 103.483 252.192 101.779 252.192C99.0194 252.192 97.6274 250.104 97.6274 246.768V245.184C97.6274 241.776 98.9954 239.808 101.467 239.808C104.083 239.808 105.331 241.464 105.331 245.184V246.432H99.5474V246.768C99.5474 248.832 100.123 250.464 101.755 250.464C102.907 250.464 103.315 250.008 103.795 249.216ZM101.467 241.536C100.003 241.536 99.5474 242.616 99.5474 244.752H103.411C103.411 242.256 102.835 241.536 101.467 241.536ZM114.248 241.44L112.76 242.568C112.352 241.872 111.92 241.584 111.272 241.584C110.192 241.584 109.496 242.496 109.496 244.488V252H107.576V240H109.496V241.176C109.856 240.408 110.576 239.808 111.68 239.808C112.808 239.808 113.648 240.36 114.248 241.44ZM131.251 252H128.827L124.771 243.864L122.563 247.344V252H120.499V235.44H122.563V243.96L127.987 235.44H130.291L126.139 242.064L131.251 252ZM139.817 245.184V246.768C139.817 250.2 138.353 252.192 135.761 252.192C133.169 252.192 131.729 250.2 131.729 246.768V245.184C131.729 241.752 133.169 239.808 135.761 239.808C138.353 239.808 139.817 241.752 139.817 245.184ZM135.761 250.464C137.417 250.464 137.897 248.832 137.897 246.768V245.184C137.897 242.928 137.417 241.536 135.761 241.536C134.105 241.536 133.649 242.928 133.649 245.184V246.768C133.649 248.832 134.105 250.464 135.761 250.464ZM141.842 252V240H143.762V241.176C144.122 240.48 144.842 239.808 146.066 239.808C147.314 239.808 148.346 240.384 148.874 241.704C149.498 240.384 150.458 239.808 151.682 239.808C153.626 239.808 155.042 241.392 155.042 244.512V252H153.122V244.536C153.122 242.208 152.282 241.584 151.274 241.584C150.194 241.584 149.402 242.496 149.402 244.512V252H147.482V244.536C147.482 242.208 146.642 241.584 145.634 241.584C144.53 241.584 143.762 242.592 143.762 244.512V252H141.842ZM159.465 235.44V241.2C159.897 240.384 160.641 239.808 161.913 239.808C164.169 239.808 165.681 241.752 165.681 245.184V246.768C165.681 249.888 164.457 252.192 161.913 252.192C160.617 252.192 159.945 251.736 159.465 250.944V252H157.545V235.44H159.465ZM161.601 250.464C163.113 250.464 163.761 248.808 163.761 246.768V245.184C163.761 242.904 163.041 241.536 161.601 241.536C160.281 241.536 159.465 242.856 159.465 245.016V246.768C159.465 248.832 160.017 250.464 161.601 250.464ZM167.981 252V240H169.901V252H167.981ZM167.885 237.6V235.44H169.997V237.6H167.885ZM172.686 252V240H174.63V241.176C174.99 240.456 175.782 239.808 176.982 239.808C178.926 239.808 180.39 241.152 180.39 244.512V252H178.47V244.536C178.47 242.112 177.654 241.584 176.622 241.584C175.206 241.584 174.605 242.712 174.605 244.512V252H172.686ZM182.401 248.496C182.401 245.904 183.961 245.064 186.145 245.064H188.041V243.672C188.041 242.016 187.561 241.584 186.193 241.584C185.041 241.584 184.585 241.752 184.105 242.736L182.641 241.8C183.313 240.408 184.321 239.808 186.217 239.808C188.689 239.808 189.961 240.792 189.961 243.672V252H188.041V250.824C187.681 251.64 187.153 252.192 185.809 252.192C183.601 252.192 182.401 250.824 182.401 248.496ZM188.041 247.392V246.696H186.265C184.849 246.696 184.321 247.344 184.321 248.544C184.321 249.888 185.017 250.416 186.121 250.416C187.153 250.416 188.041 250.08 188.041 247.392ZM191.627 241.728V240H192.851V237.36H194.771V240H196.763V241.728H194.771V247.824C194.771 249.48 194.843 250.176 196.067 250.176H196.763V252H195.923C193.547 252 192.851 250.8 192.851 248.304V241.728H191.627ZM198.966 252V240H200.886V252H198.966ZM198.87 237.6V235.44H200.982V237.6H198.87ZM211.278 245.184V246.768C211.278 250.2 209.814 252.192 207.222 252.192C204.63 252.192 203.19 250.2 203.19 246.768V245.184C203.19 241.752 204.63 239.808 207.222 239.808C209.814 239.808 211.278 241.752 211.278 245.184ZM207.222 250.464C208.878 250.464 209.358 248.832 209.358 246.768V245.184C209.358 242.928 208.878 241.536 207.222 241.536C205.566 241.536 205.11 242.928 205.11 245.184V246.768C205.11 248.832 205.566 250.464 207.222 250.464ZM213.303 252V240H215.247V241.176C215.607 240.456 216.399 239.808 217.599 239.808C219.543 239.808 221.007 241.152 221.007 244.512V252H219.087V244.536C219.087 242.112 218.271 241.584 217.239 241.584C215.823 241.584 215.223 242.712 215.223 244.512V252H213.303ZM230.17 241.8L228.778 242.808C228.298 241.968 227.866 241.584 226.69 241.584C225.658 241.584 225.058 242.136 225.058 243.192C225.058 244.32 225.682 244.8 226.978 245.088C228.706 245.472 230.458 246.192 230.458 248.664C230.458 250.752 229.234 252.192 226.786 252.192C224.818 252.192 223.762 251.496 223.018 250.248L224.386 249.144C224.866 250.008 225.49 250.416 226.666 250.416C227.914 250.416 228.538 249.792 228.538 248.712C228.538 247.656 228.106 247.176 226.402 246.792C224.794 246.432 223.138 245.544 223.138 243.216C223.138 241.224 224.434 239.808 226.618 239.808C228.202 239.808 229.402 240.312 230.17 241.8ZM231.728 241.728V240H232.952V237.36H234.872V240H236.864V241.728H234.872V247.824C234.872 249.48 234.944 250.176 236.168 250.176H236.864V252H236.024C233.648 252 232.952 250.8 232.952 248.304V241.728H231.728ZM238.779 252V235.44H240.723V241.176C241.083 240.456 241.875 239.808 243.075 239.808C245.019 239.808 246.483 241.152 246.483 244.512V252H244.563V244.536C244.563 242.112 243.747 241.584 242.715 241.584C241.299 241.584 240.699 242.712 240.699 244.512V252H238.779ZM254.663 249.216L256.079 250.2C255.431 251.616 254.351 252.192 252.647 252.192C249.887 252.192 248.495 250.104 248.495 246.768V245.184C248.495 241.776 249.863 239.808 252.335 239.808C254.951 239.808 256.199 241.464 256.199 245.184V246.432H250.415V246.768C250.415 248.832 250.991 250.464 252.623 250.464C253.775 250.464 254.183 250.008 254.663 249.216ZM252.335 241.536C250.871 241.536 250.415 242.616 250.415 244.752H254.279C254.279 242.256 253.703 241.536 252.335 241.536ZM265.115 241.44L263.627 242.568C263.219 241.872 262.787 241.584 262.139 241.584C261.059 241.584 260.363 242.496 260.363 244.488V252H258.443V240H260.363V241.176C260.723 240.408 261.443 239.808 262.547 239.808C263.675 239.808 264.515 240.36 265.115 241.44ZM265.51 248.496C265.51 245.904 267.07 245.064 269.254 245.064H271.15V243.672C271.15 242.016 270.67 241.584 269.302 241.584C268.15 241.584 267.694 241.752 267.214 242.736L265.75 241.8C266.422 240.408 267.43 239.808 269.326 239.808C271.798 239.808 273.07 240.792 273.07 243.672V252H271.15V250.824C270.79 251.64 270.262 252.192 268.918 252.192C266.71 252.192 265.51 250.824 265.51 248.496ZM271.15 247.392V246.696H269.374C267.958 246.696 267.43 247.344 267.43 248.544C267.43 249.888 268.126 250.416 269.23 250.416C270.262 250.416 271.15 250.08 271.15 247.392ZM277.496 240V241.2C277.928 240.384 278.672 239.808 279.944 239.808C282.2 239.808 283.712 241.752 283.712 245.184V246.768C283.712 249.888 282.488 252.192 279.944 252.192C278.648 252.192 277.976 251.736 277.496 250.944V256.56H275.576V240H277.496ZM279.632 250.464C281.144 250.464 281.792 248.808 281.792 246.768V245.184C281.792 242.904 281.072 241.536 279.632 241.536C278.312 241.536 277.496 242.856 277.496 245.016V246.768C277.496 248.832 278.048 250.464 279.632 250.464ZM286.013 252V240H287.933V252H286.013ZM285.917 237.6V235.44H288.029V237.6H285.917ZM296.405 249.216L297.821 250.2C297.173 251.616 296.093 252.192 294.389 252.192C291.629 252.192 290.237 250.104 290.237 246.768V245.184C290.237 241.776 291.605 239.808 294.077 239.808C296.693 239.808 297.941 241.464 297.941 245.184V246.432H292.157V246.768C292.157 248.832 292.733 250.464 294.365 250.464C295.517 250.464 295.925 250.008 296.405 249.216ZM294.077 241.536C292.613 241.536 292.157 242.616 292.157 244.752H296.021C296.021 242.256 295.445 241.536 294.077 241.536ZM301.99 234.064L301.947 235.806L303.085 234.899L303.632 235.691L302.365 236.584L303.618 237.462L303.085 238.254L301.947 237.362L301.99 239.09H301.011L301.04 237.362L299.917 238.254L299.398 237.462L300.622 236.584L299.398 235.691L299.917 234.899L301.04 235.806L301.011 234.064H301.99Z" fill="white"/>
<path d="M178.452 77.4475V174.037H155.82L128.421 154.029C128.269 153.918 128.067 153.902 127.899 153.987C127.731 154.073 127.626 154.245 127.626 154.433V179.702L106.078 198.025L77.8372 177.331L77.7584 177.252C77.7021 177.196 77.6358 177.156 77.5653 177.132L77.4808 175.36C77.474 175.217 77.4065 175.084 77.2954 174.994C77.1843 174.905 77.0401 174.867 76.8992 174.89C74.3863 175.309 71.7666 175.518 69.1456 175.518C61.0679 175.518 53.6625 173.526 48.1581 169.479L48.1563 169.477L19.2486 148.421L19.2466 148.42C12.9292 143.866 8.97119 136.617 8.97119 126.5C8.97119 114.733 15.0065 106.963 21.7324 103.345C21.8839 103.263 21.9828 103.109 21.9944 102.938C22.006 102.766 21.9286 102.601 21.7895 102.5L20.6247 101.653L20.613 101.645C14.7055 97.6061 10.2419 90.6674 10.2419 81.3192C10.2419 72.3228 13.9546 65.8031 19.5366 61.5195C25.1346 57.2236 32.6437 55.1553 40.2379 55.1553C47.7773 55.1553 55.2884 57.2492 60.9017 61.508L60.9016 61.508L60.9095 61.5138L89.8109 82.5652C95.4061 86.9164 99.1416 93.4364 99.1416 102.481C99.1416 112.345 94.1616 119.493 87.7278 123.537C87.5822 123.628 87.4938 123.788 87.4938 123.96C87.4938 124.063 87.5254 124.139 87.5388 124.169C87.5553 124.205 87.5728 124.233 87.5833 124.248C87.6044 124.279 87.6253 124.303 87.6364 124.315C87.6604 124.342 87.6864 124.367 87.7068 124.385C87.7501 124.425 87.8075 124.474 87.8723 124.528C88.0039 124.637 88.19 124.786 88.4118 124.961C88.6179 125.124 88.8444 125.302 89.0899 125.494C89.3959 125.734 89.7312 125.998 90.0926 126.283C91.3789 127.301 92.7411 128.408 93.2361 128.952C93.3309 129.056 93.4651 129.116 93.606 129.116H98.8432L126.243 149.123C126.395 149.234 126.596 149.251 126.764 149.165C126.932 149.08 127.037 148.908 127.037 148.72V97.6138C127.037 97.4543 126.961 97.3044 126.833 97.2102L115.178 88.6837V67.0793L129.664 56.6366H149.777L178.452 77.4475Z" stroke="#FDE9AA" stroke-linejoin="round"/>
<path d="M8.25903 126.394C8.25903 114.438 14.5065 106.502 21.2834 102.799C14.6124 98.778 9.42381 91.3714 9.42381 81.2137C9.42381 62.9087 24.5659 54.5498 39.9198 54.5498C55.2738 54.5498 70.4159 62.9087 70.4159 81.2137C70.4159 91.3714 65.2273 98.6722 58.5563 102.799C65.3332 106.502 71.5807 114.332 71.5807 126.394C71.4748 145.651 57.1798 154.751 39.814 154.751C22.4482 154.751 8.25903 145.651 8.25903 126.394ZM48.1792 123.537C48.1792 115.602 44.0495 111.793 39.814 111.793C35.5784 111.793 31.4487 115.602 31.4487 123.537C31.4487 130.838 34.9431 135.388 39.814 135.388C44.6849 135.388 48.1792 130.944 48.1792 123.537ZM39.814 74.0187C35.6843 74.0187 32.7194 77.8278 32.7194 84.1764C32.7194 90.6307 35.6843 94.6515 39.814 94.6515C43.9436 94.6515 46.9085 90.7365 46.9085 84.1764C46.9085 77.8278 43.9436 74.0187 39.814 74.0187Z" fill="#FDE9AA"/>
<path d="M98.6882 158.772L76.6633 177.5V128.511H98.6882V158.772Z" fill="#FDE9AA"/>
<path d="M149.621 153.27H126.219V80.2615L114.36 88.8321V66.718L129.184 56.0312H149.621V153.27Z" fill="#FDE9AA"/>
<path d="M331.494 167.044C330.838 167.044 330.253 166.931 329.739 166.705C329.229 166.48 328.823 166.167 328.521 165.766C328.223 165.361 328.061 164.892 328.034 164.359H329.287C329.313 164.687 329.426 164.97 329.625 165.209C329.824 165.444 330.084 165.627 330.406 165.756C330.727 165.885 331.083 165.95 331.474 165.95C331.912 165.95 332.3 165.874 332.638 165.721C332.976 165.569 333.241 165.356 333.433 165.085C333.625 164.813 333.722 164.498 333.722 164.14C333.722 163.766 333.629 163.436 333.443 163.151C333.258 162.862 332.986 162.637 332.628 162.475C332.27 162.312 331.832 162.231 331.315 162.231H330.5V161.137H331.315C331.72 161.137 332.074 161.064 332.379 160.919C332.688 160.773 332.928 160.567 333.1 160.302C333.276 160.037 333.364 159.725 333.364 159.367C333.364 159.023 333.287 158.723 333.135 158.468C332.982 158.212 332.767 158.013 332.489 157.871C332.214 157.728 331.889 157.657 331.514 157.657C331.163 157.657 330.831 157.722 330.52 157.851C330.212 157.977 329.96 158.161 329.764 158.403C329.569 158.642 329.463 158.93 329.446 159.268H328.253C328.273 158.734 328.433 158.267 328.735 157.866C329.037 157.462 329.431 157.147 329.918 156.921C330.409 156.696 330.947 156.583 331.534 156.583C332.164 156.583 332.704 156.711 333.155 156.966C333.606 157.218 333.952 157.551 334.194 157.965C334.436 158.38 334.557 158.827 334.557 159.308C334.557 159.881 334.406 160.37 334.104 160.774C333.806 161.179 333.4 161.459 332.886 161.615V161.694C333.529 161.8 334.031 162.074 334.393 162.514C334.754 162.952 334.935 163.494 334.935 164.14C334.935 164.694 334.784 165.191 334.482 165.632C334.184 166.069 333.776 166.414 333.259 166.666C332.742 166.918 332.154 167.044 331.494 167.044Z" fill="white"/>
</svg>
