<svg width="125" height="19" viewBox="0 0 125 19" fill="none" xmlns="http://www.w3.org/2000/svg">
<path d="M14.0387 17.983H9.86683V10.175C9.86683 8.11076 9.56921 6.00088 7.35938 6.00088C4.40105 6.00088 4.17114 8.74297 4.17114 9.58169V17.983H0V2.55625H3.98512V4.41548C4.46254 3.69119 5.11927 3.10437 5.89069 2.71278C6.66211 2.32119 7.52164 2.13831 8.38468 2.18216C11.9249 2.18216 14.0395 4.4716 14.0395 8.30529L14.0387 17.983Z" fill="white"/>
<path d="M41.2604 13.9031L44.9999 2.55469H49.3705L43.5535 17.9837H38.8296L32.7856 2.55469H37.4731L41.1934 13.9031H41.2604Z" fill="white"/>
<path d="M83.4385 18.3568C79.8968 18.3568 77.7837 16.0681 77.7837 12.2337V2.55371H81.9556V10.3617C81.9556 12.426 82.2532 14.5359 84.4615 14.5359C87.4206 14.5359 87.6505 11.7938 87.6505 10.9551V2.55371H91.8224V17.9827H87.8358V16.1243C87.3587 16.8485 86.7022 17.4353 85.931 17.8269C85.1599 18.2185 84.3005 18.4014 83.4377 18.3576" fill="white"/>
<path d="M112.836 18.3462C108.397 18.3462 105.172 14.9449 105.172 10.2568C105.172 5.4198 108.251 2.16895 112.836 2.16895C117.664 2.16895 120.435 5.21854 120.435 10.5381V11.7936H109.379C109.476 12.6755 109.904 13.4873 110.574 14.064C111.245 14.6407 112.109 14.9391 112.99 14.8985C113.718 14.9037 114.435 14.729 115.079 14.3898C115.723 14.0506 116.275 13.5572 116.685 12.9533L116.822 12.7827L119.848 15.0848L119.699 15.2659C118.855 16.2613 117.801 17.0544 116.613 17.5871C115.425 18.1198 114.133 18.3786 112.833 18.3447M109.38 8.53224H116.251C116.135 6.55554 114.902 5.42728 112.832 5.42728C110.94 5.42728 109.723 6.52711 109.379 8.53224" fill="white"/>
<path d="M24.5476 18.3576C22.9613 18.3356 21.4169 17.8426 20.1086 16.9404C18.8003 16.0382 17.7865 14.7671 17.1946 13.2871C16.6028 11.8071 16.4593 10.1841 16.7822 8.62234C17.1051 7.06054 17.8801 5.6296 19.0096 4.50947C20.1391 3.38934 21.5727 2.63002 23.1302 2.32699C24.6877 2.02396 26.2996 2.19074 27.7631 2.80638C29.2266 3.42201 30.4764 4.459 31.3554 5.78696C32.2343 7.11493 32.7032 8.67457 32.7031 10.2698C32.6854 12.429 31.8168 14.4931 30.2878 16.0093C28.7588 17.5255 26.6949 18.37 24.5476 18.3576ZM24.5468 6.10988C23.7312 6.12094 22.9371 6.37425 22.2643 6.83793C21.5915 7.30162 21.07 7.95499 20.7655 8.71588C20.461 9.47678 20.387 10.3112 20.5528 11.1143C20.7187 11.9173 21.117 12.6532 21.6976 13.2292C22.2782 13.8053 23.0152 14.1959 23.816 14.3519C24.6168 14.5079 25.4455 14.4223 26.1981 14.1059C26.9506 13.7895 27.5933 13.2565 28.0454 12.5738C28.4975 11.8911 28.7387 11.0892 28.7388 10.269C28.7307 9.15872 28.2847 8.09703 27.4987 7.31718C26.7127 6.53734 25.651 6.10311 24.5468 6.10988Z" fill="white"/>
<path d="M99.4868 17.9828H95.3149V2.55597H99.4868V4.40473C99.9519 3.70494 100.585 3.13438 101.327 2.74584C102.07 2.3573 102.898 2.16333 103.735 2.18188C103.878 2.18293 104.022 2.19168 104.165 2.20807L104.364 2.23051V6.3111L104.103 6.26771C103.827 6.21965 103.548 6.19463 103.269 6.19289C102.786 6.16213 102.301 6.23084 101.846 6.3948C101.39 6.55876 100.972 6.81453 100.618 7.14645C100.264 7.47837 99.9812 7.87946 99.7867 8.32516C99.5921 8.77086 99.4901 9.2518 99.4868 9.73853V17.9828Z" fill="white"/>
<path d="M57.6577 18.2648C56.0714 18.2427 54.5271 17.7495 53.2189 16.8472C51.9107 15.9449 50.897 14.6739 50.3053 13.1938C49.7135 11.7138 49.5701 10.0909 49.8931 8.52912C50.2162 6.96736 50.9912 5.5365 52.1207 4.41644C53.2502 3.29638 54.6839 2.53714 56.2413 2.23416C57.7988 1.93119 59.4106 2.09802 60.8741 2.71367C62.3375 3.32933 63.5873 4.36632 64.4662 5.69426C65.3452 7.0222 65.8141 8.58181 65.8139 10.177C65.7962 12.3363 64.9276 14.4003 63.3986 15.9165C61.8696 17.4327 59.805 18.2772 57.6577 18.2648ZM57.6577 6.01709C56.8421 6.02816 56.0479 6.28146 55.3751 6.74515C54.7023 7.20884 54.1809 7.86221 53.8764 8.6231C53.5718 9.384 53.4978 10.2184 53.6637 11.0215C53.8295 11.8246 54.2278 12.5604 54.8084 13.1365C55.389 13.7125 56.1261 14.1031 56.9268 14.2591C57.7276 14.4151 58.5564 14.3295 59.3089 14.0131C60.0615 13.6968 60.7042 13.1637 61.1562 12.481C61.6083 11.7983 61.8496 10.9964 61.8496 10.1762C61.8416 9.06594 61.3955 8.00425 60.6095 7.2244C59.8235 6.44455 58.7618 6.01032 57.6577 6.01709Z" fill="white"/>
<path d="M70.0061 18.2717C68.9406 18.2863 67.8828 18.0878 66.8941 17.6879C65.9055 17.2879 65.0057 16.6944 64.2471 15.9419C63.4884 15.1894 62.8861 14.2928 62.4749 13.3042C62.0638 12.3156 61.8521 11.2547 61.8521 10.1831C61.8521 9.11154 62.0638 8.05065 62.4749 7.06205C62.8861 6.07345 63.4884 5.17684 64.2471 4.4243C65.0057 3.67176 65.9055 3.07828 66.8941 2.67833C67.8828 2.27838 68.9406 2.07992 70.0061 2.0945C71.0833 2.09116 72.15 2.30721 73.142 2.72961C74.1339 3.15202 75.0305 3.77203 75.7777 4.55228L75.9339 4.71464L73.1289 7.45074L72.9726 7.28838C72.5888 6.88725 72.1281 6.56842 71.6184 6.35111C71.1087 6.1338 70.5605 6.02251 70.0069 6.02396C69.4591 6.01657 68.9153 6.11868 68.4071 6.32436C67.8988 6.53004 67.4363 6.8352 67.0463 7.22211C66.6564 7.60902 66.3467 8.06998 66.1354 8.57822C65.9241 9.08645 65.8152 9.63185 65.8152 10.1827C65.8152 10.7336 65.9241 11.279 66.1354 11.7872C66.3467 12.2955 66.6564 12.7564 67.0463 13.1433C67.4363 13.5303 67.8988 13.8354 68.4071 14.0411C68.9153 14.2468 69.4591 14.3489 70.0069 14.3415C70.6262 14.3424 71.2379 14.2028 71.7962 13.9331C72.3545 13.6634 72.8451 13.2705 73.2316 12.7838L73.3722 12.608L76.4228 15.0657L76.2822 15.2431C75.5306 16.1901 74.5762 16.9542 73.49 17.4786C72.4038 18.003 71.214 18.2741 70.0091 18.2717" fill="white"/>
<path d="M65.8143 10.176C65.8137 8.23528 65.1101 6.36124 63.8351 4.9043C62.5576 6.3608 61.8522 8.23579 61.8511 10.1779C61.85 12.1199 62.5533 13.9957 63.8291 15.4537C65.1079 13.9953 65.8139 12.1181 65.815 10.1737" fill="white"/>
<path d="M122.569 0C122.891 0.00145697 123.21 0.0670802 123.507 0.193087C123.805 0.319093 124.074 0.50299 124.3 0.734177C124.526 0.965363 124.704 1.23927 124.825 1.5401C124.945 1.84093 125.005 2.16273 125.001 2.48696C125.007 2.81041 124.948 3.13176 124.829 3.43224C124.71 3.73272 124.532 4.00631 124.307 4.23706C124.081 4.46781 123.812 4.65108 123.516 4.77619C123.219 4.9013 122.901 4.96573 122.579 4.96573C122.257 4.96573 121.939 4.9013 121.642 4.77619C121.345 4.65108 121.076 4.46781 120.851 4.23706C120.625 4.00631 120.448 3.73272 120.329 3.43224C120.209 3.13176 120.151 2.81041 120.157 2.48696C120.152 2.16431 120.211 1.84397 120.33 1.54427C120.449 1.24458 120.626 0.971414 120.85 0.740414C121.074 0.509414 121.341 0.325114 121.636 0.198065C121.931 0.0710147 122.248 0.00370904 122.569 0ZM122.569 4.43074C122.818 4.42794 123.063 4.37498 123.291 4.275C123.519 4.17502 123.725 4.03005 123.897 3.84868C124.068 3.6673 124.201 3.45319 124.289 3.21904C124.377 2.98489 124.417 2.73544 124.407 2.48546C124.424 2.23396 124.39 1.98152 124.306 1.74385C124.223 1.50618 124.091 1.28837 123.92 1.10397C123.749 0.919569 123.542 0.772525 123.312 0.671985C123.082 0.571445 122.834 0.519561 122.584 0.519561C122.333 0.519561 122.085 0.571445 121.855 0.671985C121.625 0.772525 121.418 0.919569 121.247 1.10397C121.076 1.28837 120.945 1.50618 120.861 1.74385C120.777 1.98152 120.743 2.23396 120.761 2.48546C120.75 2.73346 120.788 2.98116 120.874 3.21401C120.959 3.44686 121.09 3.66016 121.259 3.84139C121.428 4.02261 121.631 4.1681 121.856 4.26931C122.082 4.37052 122.325 4.4254 122.572 4.43074M121.727 1.23076H122.754C122.86 1.22215 122.967 1.2364 123.068 1.27257C123.168 1.30873 123.26 1.36598 123.337 1.44051C123.413 1.51503 123.473 1.60513 123.513 1.7048C123.552 1.80448 123.57 1.91145 123.565 2.0186C123.571 2.15957 123.532 2.29873 123.453 2.41526C123.373 2.53179 123.259 2.61942 123.126 2.66503V2.67849C123.161 2.72245 123.19 2.77042 123.213 2.8214L123.68 3.71922H123.045L122.626 2.80269H122.302V3.71697H121.727L121.727 1.23076ZM122.619 2.39194C122.669 2.39526 122.718 2.38775 122.764 2.36993C122.81 2.3521 122.851 2.32441 122.885 2.28877C122.919 2.25314 122.945 2.21043 122.961 2.16363C122.978 2.11683 122.983 2.06708 122.978 2.01785C122.984 1.9694 122.979 1.92029 122.963 1.87405C122.948 1.82782 122.922 1.78562 122.888 1.75049C122.855 1.71535 122.814 1.68816 122.768 1.67087C122.723 1.65358 122.674 1.64662 122.626 1.65049H122.302V2.39419L122.619 2.39194Z" fill="white"/>
</svg>
